<svg version="1.1" xmlns="http://www.w3.org/2000/svg" xmlns:xlink="http://www.w3.org/1999/xlink" x="0px" y="0px" viewBox="0 0 176 74" enable-background="new 0 0 176 74" xml:space="preserve">
	<g>
		<path d="M32.3,39.7c2.6,2,5.5,3.9,8.7,5.8c3.2,1.9,6.4,3.5,9.6,4.8c3.2,1.3,6.2,2.2,9,2.6c2.8,0.5,5,0.2,6.7-0.7
			c-0.5,2.2-1.9,3.5-4.3,4.1c-2.4,0.5-5.2,0.3-8.7-0.8c-3.4-1-7.2-2.8-11.3-5.3c-4.1-2.5-8.2-5.7-12.2-9.6c-0.2,0.8-0.4,1.7-0.6,2.5
			c-0.1,0.8-0.3,1.5-0.3,2.2c-0.1,0.6-0.2,1.3-0.2,2.1c0,0.8-0.1,1.5-0.1,2.3s0,1.4,0.1,2.1c0,0.7,0.1,1.1,0.3,1.5
			c-1.1-0.2-1.8-1.1-2.3-2.6c-0.4-1.6-0.6-3.6-0.5-6.2c0.1-2.6,0.4-5.5,1-8.8c0.6-3.3,1.4-6.8,2.3-10.5c1-3.7,2.1-7.4,3.4-11.3
			c1.3-3.8,2.7-7.5,4.3-11.1C31.7,2.7,27,3.5,22.8,5.2c-4.2,1.8-7.6,4.1-10.4,6.9c-2.8,2.8-4.9,5.9-6.3,9.2c-1.4,3.4-2,6.5-1.8,9.5
			c0.2,3,1.2,5.6,2.9,7.7s4.4,3.5,7.9,3.9c-3.3,0.1-6.1-0.5-8.2-1.7c-2.2-1.2-3.8-2.9-4.9-4.9c-1.1-2-1.6-4.4-1.6-7
			c0-2.6,0.5-5.3,1.5-8.1s2.6-5.4,4.6-8c2-2.6,4.6-4.9,7.6-6.8c3-2,6.5-3.5,10.4-4.6c3.9-1.1,8.3-1.6,13.2-1.3
			c4.3,0.3,8,1.1,11.1,2.3c3,1.3,5.5,2.8,7.3,4.7c1.8,1.9,3.1,4,3.8,6.3c0.7,2.3,0.9,4.7,0.5,7.1c-0.4,2.4-1.3,4.7-2.7,7
			c-1.4,2.3-3.3,4.3-5.7,6.1c-2.4,1.8-5.2,3.2-8.5,4.3C40.1,39.1,36.4,39.6,32.3,39.7z M30.5,37.1c4.4,0.1,8.3-0.5,11.6-1.9
			c3.4-1.4,6.1-3.2,8.3-5.4c2.1-2.2,3.6-4.6,4.5-7.3c0.8-2.7,1-5.3,0.4-7.8c-0.6-2.5-2-4.8-4.2-6.8c-2.2-2-5.3-3.5-9.2-4.4
			c0.4,0.8,0.4,1.6,0.1,2.3c-1.3,2.7-2.5,5.4-3.6,8.1c-1.1,2.8-2.2,5.5-3.1,8.2c-1,2.7-1.8,5.3-2.6,7.9
			C31.7,32.5,31.1,34.9,30.5,37.1z"/>
		<path d="M79.4,35.1c0.3-0.7,0.6-1.1,0.9-1.2c0.3-0.2,0.5-0.2,0.6,0c0.1,0.1,0.2,0.4,0.2,0.8c0,0.4-0.2,0.8-0.4,1.2
			c-1.1,2.1-2.3,3.6-3.6,4.6c-1.3,1-2.5,1.5-3.7,1.6c-0.4,1.1-0.9,2.2-1.6,3.1c-0.6,1-1.4,1.8-2.2,2.5c-0.8,0.7-1.8,1.2-2.7,1.5
			c-1,0.3-2,0.4-3.1,0.3c-2-0.3-3.4-1.1-4.4-2.3c-1-1.3-1.5-2.8-1.6-4.5c-0.1-1.7,0.1-3.5,0.6-5.5c0.5-1.9,1.3-3.7,2.4-5.2
			c1-1.6,2.3-2.8,3.7-3.7c1.4-0.9,3-1.2,4.7-0.9c1.3,0.2,2.4,0.8,3.2,1.6c0.8,0.8,1.4,1.9,1.8,3.1c0.4,1.2,0.5,2.5,0.5,4
			c0,1.4-0.2,2.8-0.6,4.2c0.8-0.1,1.7-0.6,2.6-1.4C77.5,37.9,78.4,36.7,79.4,35.1z M63.9,47.5c0.7,0.1,1.4,0.1,2-0.2
			c0.6-0.3,1.2-0.7,1.7-1.3c0.5-0.6,1-1.3,1.4-2.1c0.4-0.8,0.8-1.7,1.1-2.7c-1.3-0.9-2.2-2.3-2.7-4.1c-0.5-1.9-0.3-4,0.6-6.3
			c0,0,0.1-0.1,0.1-0.1c0,0,0-0.1,0.1-0.1c-0.9,0-1.8,0.4-2.6,1.2c-0.8,0.8-1.5,1.7-2.2,2.9c-0.6,1.2-1.1,2.5-1.5,3.9
			c-0.4,1.4-0.5,2.7-0.5,4c0,1.3,0.2,2.4,0.6,3.3C62.3,46.7,63,47.3,63.9,47.5z M70.4,32.4c-0.5,1.3-0.7,2.5-0.7,3.6
			c0.1,1.1,0.4,2,0.9,2.8c0.2-1.2,0.3-2.4,0.3-3.5C70.9,34.2,70.7,33.2,70.4,32.4z"/>
		<path d="M100.7,34.6c0.2-0.3,0.4-0.6,0.7-0.7c0.3-0.2,0.5-0.2,0.6-0.2c0.2,0,0.3,0.2,0.3,0.5c0,0.3,0,0.6-0.2,1.1
			c-1.1,2.3-2.4,4.5-3.7,6.4c-1.4,2-3.2,3.7-5.5,5.1c-0.8,0.6-1.7,1-2.5,1.5c-1.4,3.2-2.8,5.6-4.3,7.1c-1.5,1.5-2.9,2.5-4.1,2.8
			c-1.3,0.3-2.3,0.2-3.1-0.5c-0.8-0.6-1.2-1.5-1.2-2.6c0-0.8,0.4-1.6,0.9-2.2c0.6-0.7,1.3-1.3,2.2-1.9c0.9-0.6,1.9-1.1,3.1-1.7
			c1.1-0.5,2.3-1.1,3.5-1.6c0-0.1,0.1-0.2,0.1-0.2s0-0.1,0.1-0.2c0.1-0.3,0.3-0.8,0.5-1.5c0.2-0.7,0.4-1.3,0.6-2
			c0.2-0.7,0.4-1.2,0.6-1.8c0.2-0.5,0.3-0.9,0.4-1c-0.1,0-0.3,0.2-0.6,0.3c-0.3,0.2-0.6,0.4-1,0.6c-0.4,0.2-0.7,0.4-1,0.6
			c-0.3,0.2-0.6,0.4-0.8,0.5c-0.4-0.2-0.8-0.5-1.2-0.9c-0.4-0.4-0.7-0.8-0.7-1.2c0.1-0.4,0.3-1,0.7-1.6c0.4-0.7,0.8-1.3,1.3-2
			c0.5-0.7,1.1-1.4,1.6-2c0.6-0.6,1.1-1.1,1.6-1.5c-1.5,0.8-3.1,1.3-4.7,1.6c-1.7,0.3-3.1,0.1-4.2-0.6c-0.8-0.5-1.4-1.2-1.6-2.2
			c-0.2-1-0.2-1.9,0.1-2.8c0.3-0.9,0.8-1.7,1.5-2.3c0.7-0.6,1.5-0.9,2.5-0.8c1.1,0.1,1.6,0.8,1.5,2c0,1.2-0.6,2.7-1.5,4.5
			c1.1,0,2-0.2,2.8-0.6c0.8-0.4,1.5-0.8,2.1-1.4c0.6-0.5,1.2-1.1,1.6-1.8c0.5-0.6,1-1.2,1.5-1.7c0.5-0.5,1.1-0.9,1.6-1.1
			c0.6-0.3,1.3-0.3,2.1,0c1,0.4,1.7,1,2,1.9c0.3,0.9,0,1.7-0.9,2.5c-0.4,0.4-1,0.9-1.7,1.5c-0.7,0.7-1.5,1.4-2.3,2.1
			c-0.8,0.8-1.6,1.6-2.3,2.3c-0.7,0.8-1.4,1.5-1.9,2.2c0.6-0.7,1.3-1.2,2-1.6c0.7-0.4,1.4-0.7,2.1-0.8c0.6-0.1,1.1-0.2,1.5,0
			c0.4,0.1,0.5,0.3,0.5,0.7c-0.1,0.2-0.2,0.7-0.5,1.4c-0.2,0.7-0.5,1.5-0.7,2.3c-0.3,0.8-0.6,1.7-0.8,2.5s-0.5,1.5-0.7,1.9l0.8-0.4
			c1-0.6,2-1.3,2.8-2.2c0.9-0.9,1.6-1.8,2.3-2.8c0.7-1,1.3-2,1.9-3C99.7,36.5,100.2,35.5,100.7,34.6z M79.9,55.3
			c0,0.4,0.3,0.6,0.7,0.7c0.4,0.1,0.9,0,1.5-0.3c0.6-0.3,1.3-0.9,2-1.8c0.7-0.9,1.5-2.1,2.2-3.8c-1,0.5-1.9,0.9-2.7,1.3
			c-0.8,0.4-1.5,0.8-2.1,1.3c-0.6,0.4-1.1,0.8-1.4,1.3C79.9,54.4,79.8,54.8,79.9,55.3z M81.6,32.8c0.1-0.1,0.2-0.4,0.4-0.9
			c0.2-0.4,0.3-0.9,0.4-1.3c0.1-0.4,0.2-0.8,0.3-1.2c0.1-0.3,0.1-0.5,0-0.5c-0.3,0-0.6,0.2-0.8,0.5c-0.2,0.3-0.3,0.7-0.4,1.1
			c-0.1,0.4-0.1,0.9-0.1,1.3C81.4,32.2,81.5,32.6,81.6,32.8z"/>
		<path d="M122.1,35c0.4-0.7,0.7-1.1,0.9-1.2c0.3-0.2,0.4-0.2,0.6,0c0.1,0.2,0.2,0.4,0.1,0.8c0,0.4-0.2,0.8-0.4,1.2
			c-0.1,0.3-0.4,0.8-0.8,1.6c-0.4,0.8-0.9,1.7-1.5,2.7c-0.6,1-1.2,2.1-1.9,3.1c-0.7,1.1-1.4,2.1-2.1,3c-0.7,0.9-1.4,1.7-2.1,2.2
			c-0.7,0.6-1.3,0.9-1.8,0.9c-0.7,0-1.2-0.2-1.6-0.6s-0.7-1-0.9-2c-0.6,0.7-1.3,1.3-2.1,1.8c-0.8,0.4-1.7,0.7-2.6,0.7
			s-1.8-0.1-2.6-0.5s-1.5-1.1-2.1-2c-0.6-0.9-0.9-2.1-1.2-3.6s-0.1-3.3,0.3-5.5c0.3-1.9,0.9-3.5,1.6-4.9c0.8-1.4,1.6-2.5,2.6-3.4
			c0.9-0.9,1.9-1.5,2.9-1.9c1-0.4,2-0.5,2.9-0.5c0.9,0.1,1.7,0.4,2.3,1c0.6,0.6,1,1.4,1.2,2.5c0.1-0.3,0.2-0.6,0.3-0.9
			c0.1-0.3,0.2-0.6,0.3-0.9c0.3-0.9,0.8-1.5,1.3-1.6c0.6-0.2,1.1-0.1,1.5,0.3c0.4,0.4,0.8,0.9,0.9,1.6c0.2,0.7,0.1,1.6-0.4,2.4
			c-0.2,0.5-0.6,1.2-1,2.1c-0.4,1-0.9,2-1.3,3.1c-0.4,1.1-0.9,2.3-1.3,3.5c-0.4,1.2-0.8,2.3-1,3.3c-0.3,1-0.4,1.8-0.4,2.5
			c0,0.7,0.2,1,0.6,1.1c0.3,0.1,0.7-0.1,1.2-0.6c0.5-0.5,1-1.1,1.5-1.9c0.6-0.8,1.1-1.7,1.8-2.6c0.6-1,1.2-1.9,1.7-2.8
			c0.5-0.9,1-1.8,1.4-2.6C121.5,36,121.9,35.4,122.1,35z M103.9,38.3c-0.5,2.2-0.7,4-0.7,5.3s0.3,2.4,0.7,3c0.4,0.7,1,1,1.6,1.1
			c0.7,0.1,1.3-0.1,2-0.5c0.7-0.4,1.3-1,1.9-1.7c0.6-0.7,1-1.6,1.2-2.6c0.1-1,0.3-2.1,0.6-3.3s0.6-2.6,1-4.1c0.3-1.5,0.1-2.8-0.5-3.7
			c-0.6-0.9-1.4-1.4-2.3-1.4c-1,0-2,0.6-3,1.8C105.5,33.6,104.6,35.5,103.9,38.3z"/>
		<path d="M142.4,35c0.4-0.6,0.7-1,0.9-1.2c0.3-0.2,0.4-0.2,0.6,0c0.1,0.2,0.2,0.4,0.1,0.8c0,0.4-0.2,0.8-0.4,1.3
			c-0.1,0.3-0.4,0.8-0.9,1.6c-0.5,0.8-1,1.7-1.7,2.7c-0.7,1-1.4,2.1-2.1,3.1c-0.7,1.1-1.5,2.1-2.3,3c-0.8,0.9-1.5,1.7-2.2,2.2
			c-0.7,0.6-1.3,0.9-1.9,0.8c-0.9,0-1.6-0.6-2-1.6c-0.4-1-0.6-2.3-0.5-3.9c0.1-1.6,0.5-3.4,1.1-5.3c0.7-2,1.6-3.9,2.9-5.9
			c-0.4,0.7-1,1.3-1.9,1.9c-0.8,0.5-1.8,0.9-2.8,1.2c-1,0.3-2,0.4-3.1,0.3c-1.1,0-2-0.3-2.9-0.8c-0.9-0.5-1.4-1.2-1.6-2.1
			s-0.2-1.9,0.2-2.8c0.3-0.9,0.9-1.7,1.6-2.4c0.7-0.7,1.6-0.9,2.6-0.8c1,0.1,1.6,0.7,1.6,1.8c0,1.1-0.5,2.7-1.7,4.7
			c1.2,0.1,2.1,0,2.9-0.4c0.8-0.4,1.5-0.8,2.1-1.4c0.6-0.6,1.1-1.2,1.5-1.8c0.4-0.7,0.9-1.2,1.4-1.8c0.5-0.5,1-0.9,1.6-1.1
			c0.6-0.2,1.3-0.2,2.3,0c2,0.7,2.4,2.1,1,4.3c-0.4,0.7-0.8,1.5-1.4,2.5c-0.5,1-1.1,2.1-1.6,3.3c-0.5,1.2-1.1,2.3-1.5,3.5
			c-0.5,1.2-0.9,2.3-1.2,3.2c-0.3,1-0.5,1.8-0.6,2.4c-0.1,0.6,0.1,0.9,0.4,0.9c0.5,0,1.2-0.4,2.1-1.5s1.9-2.2,2.9-3.6
			c1-1.4,1.9-2.8,2.7-4.2C141.4,36.7,142,35.6,142.4,35z M124.4,32.8c0.1-0.1,0.2-0.4,0.4-0.8c0.2-0.4,0.3-0.8,0.5-1.3
			c0.1-0.4,0.2-0.8,0.3-1.2c0-0.3,0-0.5-0.1-0.5c-0.3,0-0.5,0.2-0.7,0.5c-0.2,0.3-0.3,0.7-0.4,1.1s-0.1,0.9-0.1,1.3
			C124.2,32.3,124.2,32.6,124.4,32.8z"/>
		<path d="M152.7,35c0.4-0.6,0.7-1,0.9-1.2c0.3-0.2,0.4-0.2,0.6,0c0.1,0.2,0.2,0.4,0.1,0.8c0,0.4-0.2,0.8-0.4,1.3
			c-0.1,0.3-0.4,0.8-0.8,1.6c-0.4,0.8-0.9,1.7-1.5,2.7c-0.6,1-1.2,2-1.9,3.1c-0.7,1.1-1.4,2.1-2.1,3c-0.7,0.9-1.4,1.7-2.1,2.2
			c-0.7,0.6-1.3,0.9-1.8,0.9c-0.8,0-1.4-0.3-1.9-1s-0.7-1.8-0.7-3.3c0-1.6,0.3-3.7,1-6.3c0.6-2.6,1.6-6,3-10c0.3-0.9,0.8-1.5,1.3-1.6
			c0.6-0.1,1.1,0,1.5,0.3c0.4,0.4,0.8,0.9,0.9,1.6s0.1,1.5-0.3,2.4c-0.2,0.5-0.6,1.2-1,2.2c-0.4,0.9-0.9,2-1.3,3.1
			c-0.4,1.1-0.9,2.3-1.3,3.5c-0.4,1.2-0.8,2.3-1,3.3c-0.3,1-0.4,1.8-0.4,2.5c0,0.7,0.2,1,0.6,1.1c0.5,0.1,1.1-0.4,1.9-1.4
			c0.8-1,1.7-2.2,2.6-3.6s1.7-2.8,2.5-4.2C151.8,36.7,152.4,35.6,152.7,35z M149.6,26.6c-0.4,0.4-0.8,0.5-1.3,0.2
			c-0.5-0.2-0.7-0.5-0.6-0.7c0.2-0.7,0.5-1.5,0.7-2.4c0.3-1,0.5-1.8,0.7-2.4c0.2-0.4,0.5-0.7,1-0.7c0.5,0,1,0,1.6,0.2
			c0.5,0.2,1,0.4,1.3,0.7c0.3,0.3,0.3,0.7,0.1,1c-0.1,0.1-0.3,0.4-0.6,0.8c-0.3,0.4-0.7,0.8-1,1.2c-0.4,0.4-0.7,0.8-1.1,1.2
			C150,26.1,149.8,26.4,149.6,26.6z"/>
		<path d="M173.9,35.1c0.3-0.7,0.6-1.1,0.9-1.2c0.3-0.2,0.5-0.2,0.6,0c0.1,0.1,0.2,0.4,0.2,0.8c0,0.4-0.2,0.8-0.4,1.2
			c-1.1,2.1-2.3,3.6-3.6,4.6c-1.3,1-2.5,1.5-3.7,1.6c-0.4,1.1-0.9,2.2-1.6,3.1c-0.6,1-1.4,1.8-2.2,2.5c-0.8,0.7-1.8,1.2-2.7,1.5
			c-1,0.3-2,0.4-3.2,0.3c-2-0.3-3.4-1.1-4.4-2.3c-1-1.3-1.5-2.8-1.6-4.5c-0.1-1.7,0.1-3.5,0.6-5.5c0.5-1.9,1.3-3.7,2.4-5.2
			c1.1-1.6,2.3-2.8,3.7-3.7c1.4-0.9,3-1.2,4.7-0.9c1.3,0.2,2.4,0.8,3.2,1.6s1.4,1.9,1.8,3.1c0.4,1.2,0.5,2.5,0.5,4
			c0,1.4-0.2,2.8-0.6,4.2c0.8-0.1,1.7-0.6,2.6-1.4C172,37.9,172.9,36.7,173.9,35.1z M158.4,47.5c0.7,0.1,1.4,0.1,2-0.2
			c0.6-0.3,1.2-0.7,1.7-1.3c0.5-0.6,1-1.3,1.4-2.1c0.4-0.8,0.8-1.7,1.1-2.7c-1.3-0.9-2.2-2.3-2.7-4.1c-0.5-1.9-0.3-4,0.6-6.3
			c0,0,0.1-0.1,0.1-0.1c0,0,0-0.1,0.1-0.1c-0.9,0-1.8,0.4-2.6,1.2c-0.8,0.8-1.5,1.7-2.2,2.9c-0.6,1.2-1.1,2.5-1.5,3.9
			c-0.3,1.4-0.5,2.7-0.5,4c0,1.3,0.2,2.4,0.6,3.3C156.8,46.7,157.5,47.3,158.4,47.5z M164.9,32.4c-0.5,1.3-0.7,2.5-0.7,3.6
			c0.1,1.1,0.4,2,0.9,2.8c0.2-1.2,0.3-2.4,0.3-3.5C165.4,34.2,165.2,33.2,164.9,32.4z"/>
	</g>
	<g>
		<path d="M-0.2,73.9l3.4-8.5h1.1l3.4,8.5H6.3l-0.9-2.3H2.1l-0.9,2.3H-0.2z M3.8,66.9l-1.4,3.7h2.8L3.8,66.9z"/>
		<path d="M13,73.9v-8.5h1.3v7.3h4.6v1.2H13z"/>
		<path d="M26.1,65.4h1.3l1,2.9l1.1-2.9h1.3l-1.5,3.8l1.3,3.1l2.7-7h1.5l-3.5,8.5H30l-1.6-3.8l-1.6,3.8h-1.2l-3.5-8.5h1.5l2.7,7
			l1.3-3.1L26.1,65.4z"/>
		<path d="M38.3,73.9l3.4-8.5h1.1l3.4,8.5h-1.4L44,71.6h-3.3l-0.9,2.3H38.3z M42.3,66.9l-1.4,3.7h2.8L42.3,66.9z"/>
		<path d="M51.2,65.4l2.4,4.3l2.4-4.3h1.5l-3.2,5.5v3h-1.4v-3.1l-3.2-5.4H51.2z"/>
		<path d="M67.3,67.4c-0.1-0.1-0.2-0.2-0.3-0.3c-0.2-0.1-0.3-0.2-0.5-0.3c-0.2-0.1-0.4-0.2-0.7-0.2c-0.2-0.1-0.5-0.1-0.8-0.1
			c-0.5,0-0.9,0.1-1.2,0.3c-0.3,0.2-0.4,0.5-0.4,0.9c0,0.2,0,0.4,0.1,0.5c0.1,0.1,0.2,0.2,0.4,0.3c0.2,0.1,0.4,0.2,0.7,0.3
			c0.3,0.1,0.6,0.2,0.9,0.2c0.4,0.1,0.8,0.2,1.1,0.3c0.3,0.1,0.6,0.3,0.9,0.4c0.2,0.2,0.4,0.4,0.6,0.7s0.2,0.6,0.2,1
			c0,0.4-0.1,0.8-0.3,1.1s-0.4,0.6-0.7,0.8c-0.3,0.2-0.6,0.3-1,0.4S65.6,74,65.2,74c-0.6,0-1.3-0.1-1.9-0.3c-0.6-0.2-1.2-0.5-1.6-0.9
			l0.6-1.2c0.1,0.1,0.3,0.2,0.4,0.3c0.2,0.1,0.4,0.2,0.7,0.4c0.3,0.1,0.5,0.2,0.9,0.3c0.3,0.1,0.6,0.1,1,0.1c0.5,0,0.9-0.1,1.2-0.3
			c0.3-0.2,0.4-0.5,0.4-0.8c0-0.2-0.1-0.4-0.2-0.5c-0.1-0.1-0.3-0.3-0.5-0.4c-0.2-0.1-0.4-0.2-0.7-0.3s-0.6-0.2-1-0.3
			c-0.4-0.1-0.8-0.2-1.1-0.4c-0.3-0.1-0.6-0.3-0.8-0.5c-0.2-0.2-0.4-0.4-0.5-0.6C62,68.5,62,68.3,62,67.9c0-0.4,0.1-0.8,0.2-1.1
			c0.2-0.3,0.4-0.6,0.6-0.8c0.3-0.2,0.6-0.4,1-0.5s0.8-0.2,1.2-0.2c0.6,0,1.1,0.1,1.6,0.3s0.9,0.4,1.3,0.7L67.3,67.4z"/>
		<path d="M81,73.9v-8.5h3c0.7,0,1.3,0.1,1.8,0.3c0.5,0.2,0.9,0.5,1.3,0.9c0.3,0.4,0.6,0.8,0.8,1.4c0.2,0.5,0.3,1.1,0.3,1.6
			c0,0.6-0.1,1.2-0.3,1.8c-0.2,0.5-0.5,1-0.8,1.3s-0.8,0.7-1.3,0.9c-0.5,0.2-1.1,0.3-1.7,0.3H81z M86.8,69.6c0-0.4-0.1-0.9-0.2-1.2
			s-0.3-0.7-0.5-1c-0.2-0.3-0.5-0.5-0.9-0.6c-0.3-0.2-0.7-0.2-1.2-0.2h-1.7v6.1H84c0.4,0,0.8-0.1,1.2-0.2c0.3-0.2,0.6-0.4,0.9-0.6
			c0.2-0.3,0.4-0.6,0.5-1S86.8,70.1,86.8,69.6z"/>
		<path d="M99.6,72.7v1.2h-5.8v-8.5h5.7v1.2h-4.4V69H99v1.1h-3.8v2.6H99.6z"/>
		<path d="M105.3,73.9v-8.5h1.3v7.3h4.6v1.2H105.3z"/>
		<path d="M116.6,73.9v-8.5h1.3v8.5H116.6z"/>
		<path d="M123.5,69.6c0-0.5,0.1-1,0.3-1.5c0.2-0.5,0.5-1,0.8-1.4s0.8-0.7,1.3-1s1.1-0.4,1.7-0.4c0.8,0,1.4,0.2,2,0.5s1,0.8,1.2,1.3
			l-1.1,0.7c-0.1-0.3-0.3-0.5-0.4-0.6s-0.3-0.3-0.5-0.4c-0.2-0.1-0.4-0.2-0.6-0.2c-0.2,0-0.4-0.1-0.6-0.1c-0.4,0-0.8,0.1-1.1,0.3
			s-0.6,0.4-0.8,0.7c-0.2,0.3-0.4,0.6-0.5,1c-0.1,0.4-0.2,0.7-0.2,1.1c0,0.4,0.1,0.8,0.2,1.2s0.3,0.7,0.6,1c0.2,0.3,0.5,0.5,0.9,0.7
			s0.7,0.3,1.1,0.3c0.2,0,0.4,0,0.6-0.1c0.2-0.1,0.4-0.1,0.6-0.3c0.2-0.1,0.4-0.3,0.5-0.4c0.2-0.2,0.3-0.4,0.4-0.6l1.1,0.6
			c-0.1,0.3-0.3,0.6-0.6,0.8s-0.5,0.4-0.8,0.6c-0.3,0.2-0.6,0.3-1,0.4s-0.7,0.1-1,0.1c-0.6,0-1.1-0.1-1.6-0.4c-0.5-0.3-0.9-0.6-1.3-1
			c-0.4-0.4-0.6-0.9-0.8-1.4C123.6,70.7,123.5,70.1,123.5,69.6z"/>
		<path d="M136.4,73.9v-8.5h1.3v8.5H136.4z"/>
		<path d="M147.3,74c-0.6,0-1.1-0.1-1.6-0.4s-0.9-0.6-1.3-1c-0.4-0.4-0.6-0.9-0.8-1.4c-0.2-0.5-0.3-1.1-0.3-1.6
			c0-0.6,0.1-1.1,0.3-1.6c0.2-0.5,0.5-1,0.8-1.4c0.4-0.4,0.8-0.7,1.3-1s1-0.4,1.6-0.4c0.6,0,1.1,0.1,1.6,0.4c0.5,0.3,0.9,0.6,1.3,1
			c0.4,0.4,0.6,0.9,0.8,1.4c0.2,0.5,0.3,1,0.3,1.6c0,0.6-0.1,1.1-0.3,1.6c-0.2,0.5-0.5,1-0.8,1.4c-0.4,0.4-0.8,0.7-1.3,0.9
			S147.9,74,147.3,74z M144.7,69.7c0,0.4,0.1,0.8,0.2,1.2c0.1,0.4,0.3,0.7,0.5,1c0.2,0.3,0.5,0.5,0.8,0.7c0.3,0.2,0.7,0.3,1.1,0.3
			c0.4,0,0.8-0.1,1.1-0.3c0.3-0.2,0.6-0.4,0.8-0.7c0.2-0.3,0.4-0.6,0.5-1c0.1-0.4,0.2-0.7,0.2-1.1c0-0.4-0.1-0.8-0.2-1.2
			c-0.1-0.4-0.3-0.7-0.5-1c-0.2-0.3-0.5-0.5-0.8-0.7c-0.3-0.2-0.7-0.3-1.1-0.3c-0.4,0-0.8,0.1-1.1,0.3s-0.6,0.4-0.8,0.7
			c-0.2,0.3-0.4,0.6-0.5,1C144.7,68.9,144.7,69.3,144.7,69.7z"/>
		<path d="M160.5,72.8c0.4,0,0.8-0.1,1.1-0.3c0.3-0.2,0.5-0.4,0.7-0.7c0.2-0.3,0.3-0.6,0.4-1s0.1-0.7,0.1-1.1v-4.3h1.4v4.3
			c0,0.6-0.1,1.1-0.2,1.7c-0.1,0.5-0.4,1-0.6,1.4c-0.3,0.4-0.7,0.7-1.1,0.9c-0.5,0.2-1,0.3-1.7,0.3c-0.7,0-1.3-0.1-1.7-0.4
			c-0.5-0.2-0.8-0.6-1.1-0.9c-0.3-0.4-0.5-0.8-0.6-1.4c-0.1-0.5-0.2-1-0.2-1.6v-4.3h1.3v4.3c0,0.4,0,0.8,0.1,1.1
			c0.1,0.4,0.2,0.7,0.4,1c0.2,0.3,0.4,0.5,0.7,0.7C159.7,72.7,160.1,72.8,160.5,72.8z"/>
		<path d="M175.2,67.4c-0.1-0.1-0.2-0.2-0.3-0.3c-0.2-0.1-0.3-0.2-0.5-0.3c-0.2-0.1-0.4-0.2-0.7-0.2s-0.5-0.1-0.8-0.1
			c-0.5,0-0.9,0.1-1.2,0.3c-0.3,0.2-0.4,0.5-0.4,0.9c0,0.2,0,0.4,0.1,0.5c0.1,0.1,0.2,0.2,0.4,0.3c0.2,0.1,0.4,0.2,0.7,0.3
			c0.3,0.1,0.6,0.2,0.9,0.2c0.4,0.1,0.8,0.2,1.1,0.3c0.3,0.1,0.6,0.3,0.9,0.4s0.4,0.4,0.6,0.7c0.1,0.3,0.2,0.6,0.2,1
			c0,0.4-0.1,0.8-0.3,1.1s-0.4,0.6-0.7,0.8c-0.3,0.2-0.6,0.3-1,0.4s-0.8,0.1-1.2,0.1c-0.6,0-1.3-0.1-1.9-0.3
			c-0.6-0.2-1.2-0.5-1.6-0.9l0.6-1.2c0.1,0.1,0.3,0.2,0.4,0.3c0.2,0.1,0.4,0.2,0.7,0.4c0.3,0.1,0.5,0.2,0.9,0.3
			c0.3,0.1,0.6,0.1,1,0.1c0.5,0,0.9-0.1,1.2-0.3c0.3-0.2,0.4-0.5,0.4-0.8c0-0.2-0.1-0.4-0.2-0.5c-0.1-0.1-0.3-0.3-0.5-0.4
			c-0.2-0.1-0.4-0.2-0.7-0.3s-0.6-0.2-1-0.3c-0.4-0.1-0.8-0.2-1.1-0.4c-0.3-0.1-0.6-0.3-0.8-0.5c-0.2-0.2-0.4-0.4-0.5-0.6
			c-0.1-0.2-0.2-0.5-0.2-0.9c0-0.4,0.1-0.8,0.2-1.1c0.2-0.3,0.4-0.6,0.6-0.8s0.6-0.4,1-0.5s0.8-0.2,1.2-0.2c0.6,0,1.1,0.1,1.6,0.3
			c0.5,0.2,0.9,0.4,1.3,0.7L175.2,67.4z"/>
	</g>
</svg>