<svg version="1.1" xmlns="http://www.w3.org/2000/svg" xmlns:xlink="http://www.w3.org/1999/xlink" x="0px" y="0px" viewBox="0 0 251 110" enable-background="new 0 0 251 110" xml:space="preserve">
	<g>
		<path d="M46,56.7c3.7,2.8,7.8,5.6,12.4,8.3c4.6,2.7,9.2,5,13.8,6.9c4.6,1.8,8.8,3.1,12.8,3.8c4,0.7,7.1,0.3,9.6-1
			c-0.7,3.1-2.8,5.1-6.2,5.8c-3.4,0.7-7.5,0.4-12.4-1.1c-4.9-1.5-10.3-4-16.1-7.5c-5.9-3.6-11.7-8.1-17.5-13.7
			c-0.3,1.2-0.6,2.4-0.8,3.5c-0.2,1.1-0.4,2.2-0.5,3.2c-0.1,0.9-0.2,1.8-0.3,2.9c-0.1,1.1-0.1,2.2-0.1,3.3c0,1.1,0,2.1,0.1,3
			c0.1,0.9,0.2,1.6,0.4,2.1c-1.5-0.3-2.6-1.5-3.2-3.8c-0.6-2.2-0.9-5.2-0.8-8.9c0.1-3.7,0.6-7.9,1.5-12.6c0.8-4.7,2-9.7,3.4-15
			c1.4-5.3,3-10.6,4.9-16.1c1.9-5.5,3.9-10.7,6.1-15.8c-7.7-0.2-14.6,1-20.5,3.5c-5.9,2.5-10.9,5.8-14.9,9.8s-7,8.4-9,13.2
			c-2,4.8-2.8,9.3-2.5,13.6c0.3,4.3,1.6,8,4.1,11s6.2,5,11.2,5.5c-4.7,0.1-8.6-0.7-11.8-2.5c-3.1-1.8-5.4-4.1-7-7
			c-1.5-2.9-2.3-6.2-2.3-10c0-3.8,0.7-7.6,2.2-11.5C4,25.8,6.2,22,9.1,18.3s6.5-7,10.8-9.8c4.3-2.8,9.3-5,14.9-6.6
			c5.6-1.6,11.9-2.2,18.9-1.9c6.2,0.4,11.5,1.5,15.8,3.3c4.3,1.8,7.8,4.1,10.4,6.8c2.6,2.7,4.5,5.7,5.5,9.1c1,3.3,1.2,6.7,0.6,10.1
			c-0.6,3.4-1.9,6.7-3.9,10c-2,3.3-4.8,6.2-8.1,8.8c-3.4,2.6-7.5,4.6-12.2,6.2C57.1,55.8,51.8,56.6,46,56.7z M43.4,53
			c6.3,0.1,11.8-0.8,16.6-2.8c4.8-2,8.7-4.5,11.8-7.6c3.1-3.1,5.2-6.6,6.4-10.5c1.2-3.9,1.4-7.6,0.5-11.2c-0.9-3.6-2.9-6.8-6-9.8
			c-3.2-2.9-7.6-5-13.1-6.2C60,6.1,60,7.2,59.6,8.2c-1.9,3.8-3.6,7.7-5.2,11.6c-1.6,3.9-3.1,7.8-4.5,11.7c-1.4,3.9-2.6,7.6-3.7,11.2
			C45.1,46.4,44.2,49.8,43.4,53z"/>
		<path d="M113.2,50.2c0.5-0.9,0.9-1.5,1.3-1.8c0.4-0.2,0.7-0.2,0.9,0c0.2,0.2,0.3,0.6,0.2,1.1c0,0.5-0.2,1.1-0.6,1.7
			c-1.6,3-3.3,5.2-5.1,6.5c-1.8,1.4-3.6,2.1-5.4,2.2c-0.6,1.6-1.4,3.1-2.2,4.5c-0.9,1.4-1.9,2.5-3.1,3.5c-1.2,1-2.5,1.7-3.9,2.2
			c-1.4,0.5-2.9,0.6-4.5,0.4c-2.8-0.4-4.9-1.5-6.2-3.3c-1.4-1.8-2.1-4-2.4-6.5c-0.2-2.5,0.1-5.1,0.9-7.8c0.8-2.7,1.9-5.2,3.4-7.5
			c1.5-2.2,3.3-4,5.4-5.2c2.1-1.3,4.3-1.7,6.7-1.3c1.9,0.3,3.4,1.1,4.6,2.3c1.2,1.2,2,2.7,2.5,4.4c0.5,1.7,0.8,3.6,0.8,5.6
			c0,2-0.3,4.1-0.9,6.1c1.2-0.2,2.5-0.9,3.8-2C110.5,54.2,111.8,52.5,113.2,50.2z M91.1,67.8c1,0.2,1.9,0.1,2.8-0.3
			c0.9-0.4,1.7-1,2.4-1.8c0.7-0.8,1.4-1.8,2-3c0.6-1.2,1.1-2.5,1.6-3.8c-1.9-1.3-3.2-3.2-3.9-5.9c-0.7-2.7-0.5-5.7,0.8-9
			c0.1-0.1,0.1-0.1,0.1-0.2c0,0,0-0.1,0.1-0.1c-1.3,0-2.6,0.5-3.8,1.6c-1.2,1.1-2.2,2.5-3.1,4.2C89.2,51.1,88.5,53,88,55
			s-0.7,3.9-0.7,5.7c0,1.8,0.3,3.4,0.9,4.7C88.8,66.7,89.7,67.5,91.1,67.8z M100.4,46.3c-0.7,1.9-1.1,3.6-1,5.1
			c0.1,1.6,0.5,2.9,1.2,4c0.3-1.7,0.5-3.4,0.5-5C101.1,48.8,100.8,47.4,100.4,46.3z"/>
		<path d="M143.6,49.4c0.3-0.5,0.6-0.8,1-1c0.4-0.2,0.7-0.3,0.9-0.2c0.2,0.1,0.4,0.3,0.5,0.6c0.1,0.4,0,0.9-0.3,1.6
			c-1.6,3.3-3.4,6.4-5.3,9.2c-1.9,2.8-4.6,5.2-7.9,7.3c-1.2,0.8-2.4,1.5-3.6,2.1c-1.9,4.6-4,8-6.1,10.2c-2.1,2.2-4.1,3.5-5.9,4
			c-1.8,0.5-3.3,0.2-4.5-0.7c-1.2-0.9-1.8-2.1-1.8-3.8c0.1-1.2,0.5-2.3,1.4-3.2c0.8-0.9,1.9-1.8,3.2-2.7c1.3-0.8,2.8-1.6,4.4-2.4
			c1.6-0.8,3.3-1.5,5-2.2c0.1-0.1,0.1-0.2,0.1-0.2c0,0,0-0.1,0.1-0.2c0.2-0.5,0.4-1.2,0.8-2.1c0.3-0.9,0.6-1.9,0.9-2.8
			c0.3-0.9,0.6-1.8,0.8-2.6c0.2-0.8,0.4-1.2,0.6-1.4c-0.1,0.1-0.4,0.2-0.9,0.5c-0.4,0.3-0.9,0.5-1.4,0.8s-1,0.6-1.5,0.9
			c-0.5,0.3-0.8,0.5-1.1,0.8c-0.5-0.3-1.1-0.7-1.7-1.3c-0.6-0.6-0.9-1.2-1-1.7c0.1-0.6,0.5-1.4,1-2.3c0.5-0.9,1.2-1.9,1.9-2.9
			c0.7-1,1.5-1.9,2.4-2.8c0.8-0.9,1.6-1.6,2.3-2.1c-2.1,1.1-4.4,1.9-6.8,2.3c-2.4,0.4-4.4,0.1-6-0.8c-1.2-0.7-2-1.8-2.3-3.1
			c-0.3-1.4-0.3-2.7,0.1-4c0.4-1.3,1.1-2.4,2.1-3.3s2.2-1.3,3.6-1.1c1.5,0.2,2.3,1.2,2.2,2.9c-0.1,1.7-0.8,3.9-2.2,6.4
			c1.5,0,2.9-0.3,4-0.8c1.1-0.5,2.1-1.2,2.9-2c0.9-0.8,1.6-1.6,2.4-2.5s1.4-1.7,2.1-2.4c0.7-0.7,1.5-1.2,2.4-1.6c0.8-0.4,1.9-0.4,3,0
			c1.5,0.5,2.4,1.4,2.9,2.6c0.4,1.2,0,2.4-1.4,3.6c-0.6,0.5-1.4,1.3-2.4,2.2c-1,0.9-2.1,2-3.2,3.1c-1.1,1.1-2.2,2.2-3.3,3.3
			c-1.1,1.1-2,2.2-2.7,3.1c0.9-0.9,1.8-1.7,2.9-2.2c1.1-0.6,2-0.9,3-1.1c0.9-0.2,1.6-0.2,2.2,0c0.6,0.2,0.8,0.5,0.6,0.9
			c-0.1,0.3-0.3,1-0.6,2c-0.3,1-0.6,2.1-1,3.3c-0.4,1.2-0.8,2.4-1.2,3.5c-0.4,1.2-0.7,2.1-1,2.8l1.2-0.6c1.5-0.9,2.8-1.9,4-3.1
			c1.2-1.2,2.3-2.5,3.3-4s1.9-2.8,2.8-4.2C142.2,52.2,142.9,50.8,143.6,49.4z M114,79c0.1,0.5,0.4,0.9,1,1c0.6,0.2,1.3,0,2.2-0.5
			c0.9-0.5,1.8-1.3,2.9-2.5c1.1-1.2,2.1-3,3.2-5.5c-1.4,0.7-2.7,1.3-3.9,1.9c-1.2,0.6-2.2,1.2-3.1,1.8c-0.9,0.6-1.5,1.2-1.9,1.8
			C114,77.7,113.8,78.3,114,79z M116.4,46.9c0.1-0.2,0.3-0.6,0.6-1.2c0.2-0.6,0.4-1.3,0.6-1.9c0.2-0.6,0.3-1.2,0.4-1.7
			s0.1-0.8-0.1-0.8c-0.5,0-0.8,0.2-1.1,0.7c-0.3,0.5-0.5,1-0.6,1.6c-0.1,0.6-0.2,1.2-0.1,1.8C116.1,46.1,116.2,46.6,116.4,46.9z"/>
		<path d="M174.3,50c0.5-0.9,1-1.5,1.3-1.8c0.4-0.2,0.6-0.2,0.8,0c0.2,0.2,0.2,0.6,0.1,1.2c-0.1,0.6-0.3,1.2-0.6,1.8
			c-0.2,0.4-0.6,1.2-1.2,2.3c-0.6,1.1-1.3,2.4-2.2,3.9c-0.8,1.4-1.7,2.9-2.7,4.5c-1,1.6-2,3-3,4.3s-2,2.4-3,3.2
			c-1,0.8-1.8,1.2-2.5,1.2c-0.9,0-1.7-0.3-2.3-0.8c-0.6-0.5-1-1.5-1.3-2.8c-0.8,1.1-1.8,1.9-3,2.6c-1.2,0.6-2.4,1-3.8,1
			c-1.3,0.1-2.5-0.2-3.8-0.8c-1.2-0.6-2.2-1.5-3-2.8c-0.8-1.3-1.3-3-1.6-5.2c-0.3-2.2-0.2-4.8,0.5-7.9c0.5-2.7,1.2-5,2.3-7
			s2.3-3.6,3.7-4.9c1.3-1.3,2.7-2.2,4.2-2.8c1.5-0.6,2.9-0.8,4.2-0.6c1.3,0.1,2.4,0.6,3.3,1.5c0.9,0.9,1.5,2.1,1.8,3.6
			c0.1-0.4,0.3-0.8,0.5-1.2c0.2-0.4,0.3-0.9,0.5-1.4c0.5-1.3,1.1-2.1,1.9-2.4c0.8-0.2,1.5-0.1,2.2,0.4c0.6,0.5,1.1,1.3,1.3,2.4
			c0.3,1.1,0.1,2.2-0.5,3.5c-0.3,0.7-0.8,1.7-1.4,3c-0.6,1.4-1.3,2.9-1.9,4.5c-0.6,1.6-1.3,3.3-1.9,5c-0.6,1.7-1.1,3.3-1.5,4.8
			c-0.4,1.4-0.5,2.6-0.5,3.6c0,1,0.3,1.5,0.8,1.5c0.5,0.1,1-0.1,1.7-0.8c0.7-0.7,1.4-1.6,2.2-2.7c0.8-1.1,1.6-2.4,2.5-3.8
			c0.9-1.4,1.7-2.7,2.5-4c0.8-1.3,1.5-2.6,2-3.7C173.4,51.5,173.9,50.6,174.3,50z M148.3,54.7c-0.7,3.1-1,5.7-1,7.6
			c0.1,1.9,0.5,3.4,1,4.3c0.6,1,1.4,1.5,2.3,1.6c0.9,0.1,1.9-0.1,2.8-0.7c1-0.6,1.9-1.4,2.7-2.5c0.8-1.1,1.4-2.3,1.8-3.7
			c0.1-1.4,0.4-3,0.8-4.7c0.4-1.7,0.9-3.7,1.5-5.8c0.4-2.2,0.2-4-0.7-5.3c-0.8-1.3-1.9-2-3.3-2c-1.4,0-2.8,0.9-4.3,2.6
			C150.4,47.9,149.2,50.8,148.3,54.7z"/>
		<path d="M203.2,50c0.5-0.9,1-1.4,1.3-1.6c0.4-0.2,0.6-0.2,0.8,0c0.2,0.2,0.2,0.6,0.2,1.1c-0.1,0.5-0.3,1.1-0.6,1.8
			c-0.2,0.4-0.6,1.2-1.3,2.3c-0.7,1.1-1.5,2.4-2.4,3.9c-0.9,1.5-1.9,3-3,4.5c-1.1,1.5-2.2,3-3.2,4.2c-1.1,1.3-2.2,2.4-3.2,3.2
			c-1,0.8-1.9,1.2-2.7,1.2c-1.3-0.1-2.2-0.8-2.8-2.3c-0.6-1.5-0.9-3.3-0.8-5.6c0.1-2.3,0.7-4.8,1.6-7.6c0.9-2.8,2.3-5.6,4.1-8.4
			c-0.6,1-1.5,1.9-2.7,2.7c-1.2,0.8-2.5,1.3-4,1.7c-1.4,0.4-2.9,0.5-4.5,0.4c-1.5-0.1-2.9-0.4-4.1-1.1c-1.3-0.7-2-1.7-2.4-3
			c-0.3-1.4-0.2-2.7,0.2-4c0.5-1.3,1.2-2.5,2.2-3.4c1-0.9,2.2-1.3,3.7-1.2c1.5,0.1,2.2,1,2.3,2.5c0.1,1.6-0.7,3.8-2.4,6.8
			c1.7,0.1,3.1-0.1,4.2-0.6c1.1-0.5,2.1-1.2,3-2c0.8-0.8,1.5-1.7,2.2-2.6c0.6-0.9,1.2-1.8,2-2.5c0.7-0.7,1.5-1.3,2.3-1.6
			c0.8-0.3,1.9-0.3,3.2,0c2.9,1,3.4,3.1,1.5,6.2c-0.5,0.9-1.2,2.1-2,3.6c-0.8,1.5-1.5,3-2.3,4.7c-0.8,1.7-1.5,3.4-2.2,5
			c-0.7,1.7-1.3,3.2-1.7,4.6c-0.4,1.4-0.7,2.5-0.8,3.4c-0.1,0.9,0.1,1.4,0.5,1.4c0.7,0.1,1.7-0.6,3-2.1c1.3-1.5,2.7-3.2,4.1-5.2
			c1.4-2,2.7-4,3.9-6C201.8,52.4,202.6,50.9,203.2,50z M177.5,46.9c0.1-0.2,0.3-0.6,0.5-1.2c0.2-0.6,0.5-1.2,0.7-1.8
			c0.2-0.6,0.3-1.2,0.4-1.7c0.1-0.5,0-0.8-0.1-0.8c-0.4,0-0.8,0.2-1,0.7c-0.3,0.5-0.5,1-0.6,1.6c-0.1,0.6-0.1,1.2-0.1,1.9
			C177.2,46.2,177.3,46.6,177.5,46.9z"/>
		<path d="M218,50c0.5-0.9,1-1.4,1.3-1.6c0.4-0.2,0.6-0.2,0.8,0c0.2,0.2,0.2,0.6,0.2,1.1c-0.1,0.5-0.3,1.1-0.6,1.8
			c-0.2,0.4-0.6,1.2-1.2,2.3c-0.6,1.1-1.3,2.4-2.2,3.8c-0.8,1.4-1.7,2.9-2.7,4.5c-1,1.5-2,3-3,4.2s-2,2.4-2.9,3.2
			c-1,0.8-1.8,1.2-2.6,1.2c-1.1,0-2-0.5-2.8-1.4c-0.7-0.9-1-2.5-1-4.8c0-2.2,0.5-5.2,1.4-9c0.9-3.8,2.3-8.5,4.3-14.2
			c0.5-1.3,1.1-2.1,1.9-2.3c0.8-0.2,1.5,0,2.2,0.5c0.6,0.5,1.1,1.3,1.3,2.4c0.3,1.1,0.1,2.2-0.5,3.4c-0.3,0.7-0.8,1.8-1.5,3.1
			c-0.6,1.3-1.3,2.8-1.9,4.5c-0.6,1.6-1.3,3.3-1.9,5c-0.6,1.7-1.1,3.3-1.5,4.7c-0.4,1.4-0.5,2.6-0.5,3.5c0,0.9,0.3,1.5,0.8,1.6
			c0.7,0.1,1.6-0.5,2.8-2c1.2-1.5,2.4-3.2,3.7-5.2c1.3-2,2.4-4,3.5-6C216.6,52.4,217.4,50.9,218,50z M213.5,38
			c-0.5,0.5-1.1,0.6-1.8,0.4c-0.7-0.3-0.9-0.6-0.8-1c0.3-0.9,0.7-2.1,1-3.5c0.4-1.4,0.7-2.5,1.1-3.5c0.3-0.6,0.8-0.9,1.5-1
			c0.7-0.1,1.5,0,2.2,0.2c0.8,0.2,1.4,0.6,1.8,1.1c0.4,0.5,0.5,0.9,0.1,1.4c-0.1,0.2-0.4,0.6-0.9,1.1c-0.5,0.6-1,1.1-1.5,1.8
			c-0.5,0.6-1.1,1.2-1.6,1.8C214.1,37.3,213.7,37.7,213.5,38z"/>
		<path d="M248.2,50.2c0.5-0.9,0.9-1.5,1.3-1.8c0.4-0.2,0.7-0.2,0.9,0s0.3,0.6,0.2,1.1c0,0.5-0.2,1.1-0.5,1.7c-1.6,3-3.3,5.2-5.2,6.5
			c-1.8,1.4-3.6,2.1-5.3,2.2c-0.6,1.6-1.4,3.1-2.2,4.5c-0.9,1.4-2,2.5-3.2,3.5c-1.2,1-2.5,1.7-3.9,2.2c-1.4,0.5-2.9,0.6-4.5,0.4
			c-2.8-0.4-4.9-1.5-6.2-3.3c-1.4-1.8-2.1-4-2.3-6.5c-0.2-2.5,0.1-5.1,0.8-7.8c0.8-2.7,1.9-5.2,3.4-7.5c1.5-2.2,3.3-4,5.3-5.2
			c2.1-1.3,4.3-1.7,6.7-1.3c1.9,0.3,3.4,1.1,4.5,2.3c1.2,1.2,2,2.7,2.6,4.4c0.5,1.7,0.8,3.6,0.8,5.6c0,2-0.3,4.1-0.9,6.1
			c1.2-0.2,2.5-0.9,3.8-2C245.5,54.2,246.8,52.5,248.2,50.2z M226.1,67.8c1,0.2,1.9,0.1,2.8-0.3c0.9-0.4,1.7-1,2.4-1.8
			c0.7-0.8,1.4-1.8,2.1-3c0.6-1.2,1.1-2.5,1.5-3.8c-1.9-1.3-3.2-3.2-3.9-5.9c-0.7-2.7-0.5-5.7,0.8-9c0.1-0.1,0.1-0.1,0.1-0.2
			c0,0,0-0.1,0.1-0.1c-1.3,0-2.6,0.5-3.8,1.6c-1.2,1.1-2.2,2.5-3.1,4.2c-0.9,1.7-1.6,3.5-2.1,5.5s-0.7,3.9-0.7,5.7
			c0,1.8,0.3,3.4,0.9,4.7C223.8,66.7,224.7,67.5,226.1,67.8z M235.4,46.3c-0.7,1.9-1,3.6-1,5.1c0.1,1.6,0.5,2.9,1.2,4
			c0.3-1.7,0.5-3.4,0.5-5C236.1,48.8,235.8,47.4,235.4,46.3z"/>
	</g>
	<g>
		<path d="M14.8,109.9l3.4-8.5h1.1l3.4,8.5h-1.4l-0.9-2.3h-3.3l-0.9,2.3H14.8z M18.8,102.9l-1.4,3.7h2.8L18.8,102.9z"/>
		<path d="M31,109.9v-8.5h1.3v7.3h4.6v1.2H31z"/>
		<path d="M47.1,101.4h1.3l1,2.9l1.1-2.9h1.3l-1.5,3.8l1.3,3.1l2.7-7h1.5l-3.5,8.5H51l-1.6-3.8l-1.6,3.8h-1.2l-3.5-8.5h1.5l2.7,7
			l1.3-3.1L47.1,101.4z"/>
		<path d="M62.3,109.9l3.4-8.5h1.1l3.4,8.5h-1.4l-0.9-2.3h-3.3l-0.9,2.3H62.3z M66.3,102.9l-1.4,3.7h2.8L66.3,102.9z"/>
		<path d="M78.2,101.4l2.4,4.3l2.4-4.3h1.5l-3.2,5.5v3h-1.4v-3.1l-3.2-5.4H78.2z"/>
		<path d="M97.3,103.4c-0.1-0.1-0.2-0.2-0.3-0.3c-0.2-0.1-0.3-0.2-0.5-0.3c-0.2-0.1-0.4-0.2-0.7-0.2c-0.2-0.1-0.5-0.1-0.8-0.1
			c-0.5,0-0.9,0.1-1.2,0.3c-0.3,0.2-0.4,0.5-0.4,0.9c0,0.2,0,0.4,0.1,0.5c0.1,0.1,0.2,0.2,0.4,0.3c0.2,0.1,0.4,0.2,0.7,0.3
			c0.3,0.1,0.6,0.2,0.9,0.2c0.4,0.1,0.8,0.2,1.1,0.3c0.3,0.1,0.6,0.3,0.9,0.4c0.2,0.2,0.4,0.4,0.6,0.7c0.1,0.3,0.2,0.6,0.2,1
			c0,0.4-0.1,0.8-0.3,1.1c-0.2,0.3-0.4,0.6-0.7,0.8c-0.3,0.2-0.6,0.3-1,0.4s-0.8,0.1-1.2,0.1c-0.6,0-1.3-0.1-1.9-0.3
			c-0.6-0.2-1.2-0.5-1.6-0.9l0.6-1.2c0.1,0.1,0.3,0.2,0.4,0.3s0.4,0.2,0.7,0.4c0.3,0.1,0.5,0.2,0.9,0.3c0.3,0.1,0.6,0.1,1,0.1
			c0.5,0,0.9-0.1,1.2-0.3c0.3-0.2,0.4-0.5,0.4-0.8c0-0.2-0.1-0.4-0.2-0.5c-0.1-0.1-0.3-0.3-0.5-0.4c-0.2-0.1-0.4-0.2-0.7-0.3
			c-0.3-0.1-0.6-0.2-1-0.3c-0.4-0.1-0.8-0.2-1.1-0.4c-0.3-0.1-0.6-0.3-0.8-0.5c-0.2-0.2-0.4-0.4-0.5-0.6c-0.1-0.2-0.2-0.5-0.2-0.9
			c0-0.4,0.1-0.8,0.2-1.1c0.2-0.3,0.4-0.6,0.6-0.8s0.6-0.4,1-0.5s0.8-0.2,1.2-0.2c0.6,0,1.1,0.1,1.6,0.3c0.5,0.2,0.9,0.4,1.3,0.7
			L97.3,103.4z"/>
		<path d="M117,109.9v-8.5h3c0.7,0,1.3,0.1,1.8,0.3c0.5,0.2,0.9,0.5,1.3,0.9c0.3,0.4,0.6,0.8,0.8,1.4c0.2,0.5,0.3,1.1,0.3,1.6
			c0,0.6-0.1,1.2-0.3,1.8c-0.2,0.5-0.5,1-0.8,1.3c-0.4,0.4-0.8,0.7-1.3,0.9c-0.5,0.2-1.1,0.3-1.7,0.3H117z M122.8,105.6
			c0-0.4-0.1-0.9-0.2-1.2s-0.3-0.7-0.5-1c-0.2-0.3-0.5-0.5-0.9-0.6c-0.3-0.2-0.7-0.2-1.2-0.2h-1.7v6.1h1.7c0.4,0,0.8-0.1,1.2-0.2
			c0.3-0.2,0.6-0.4,0.9-0.6c0.2-0.3,0.4-0.6,0.5-1S122.8,106.1,122.8,105.6z"/>
		<path d="M138.6,108.7v1.2h-5.8v-8.5h5.7v1.2h-4.4v2.4h3.8v1.1h-3.8v2.6H138.6z"/>
		<path d="M147.3,109.9v-8.5h1.3v7.3h4.6v1.2H147.3z"/>
		<path d="M161.6,109.9v-8.5h1.3v8.5H161.6z"/>
		<path d="M171.5,105.6c0-0.5,0.1-1,0.3-1.5c0.2-0.5,0.5-1,0.8-1.4s0.8-0.7,1.3-1s1.1-0.4,1.7-0.4c0.8,0,1.4,0.2,2,0.5s1,0.8,1.2,1.3
			l-1.1,0.7c-0.1-0.3-0.3-0.5-0.4-0.6s-0.3-0.3-0.5-0.4c-0.2-0.1-0.4-0.2-0.6-0.2c-0.2,0-0.4-0.1-0.6-0.1c-0.4,0-0.8,0.1-1.1,0.3
			s-0.6,0.4-0.8,0.7c-0.2,0.3-0.4,0.6-0.5,1c-0.1,0.4-0.2,0.7-0.2,1.1c0,0.4,0.1,0.8,0.2,1.2s0.3,0.7,0.6,1c0.2,0.3,0.5,0.5,0.9,0.7
			s0.7,0.3,1.1,0.3c0.2,0,0.4,0,0.6-0.1c0.2-0.1,0.4-0.1,0.6-0.3c0.2-0.1,0.4-0.3,0.5-0.4c0.2-0.2,0.3-0.4,0.4-0.6l1.1,0.6
			c-0.1,0.3-0.3,0.6-0.6,0.8s-0.5,0.4-0.8,0.6c-0.3,0.2-0.6,0.3-1,0.4s-0.7,0.1-1,0.1c-0.6,0-1.1-0.1-1.6-0.4c-0.5-0.3-0.9-0.6-1.3-1
			c-0.4-0.4-0.6-0.9-0.8-1.4C171.6,106.7,171.5,106.1,171.5,105.6z"/>
		<path d="M187.4,109.9v-8.5h1.3v8.5H187.4z"/>
		<path d="M201.3,110c-0.6,0-1.1-0.1-1.6-0.4s-0.9-0.6-1.3-1c-0.4-0.4-0.6-0.9-0.8-1.4c-0.2-0.5-0.3-1.1-0.3-1.6
			c0-0.6,0.1-1.1,0.3-1.6c0.2-0.5,0.5-1,0.8-1.4c0.4-0.4,0.8-0.7,1.3-1s1-0.4,1.6-0.4c0.6,0,1.1,0.1,1.6,0.4c0.5,0.3,0.9,0.6,1.3,1
			c0.4,0.4,0.6,0.9,0.8,1.4c0.2,0.5,0.3,1,0.3,1.6c0,0.6-0.1,1.1-0.3,1.6c-0.2,0.5-0.5,1-0.8,1.4c-0.4,0.4-0.8,0.7-1.3,0.9
			S201.9,110,201.3,110z M198.7,105.7c0,0.4,0.1,0.8,0.2,1.2c0.1,0.4,0.3,0.7,0.5,1c0.2,0.3,0.5,0.5,0.8,0.7c0.3,0.2,0.7,0.3,1.1,0.3
			c0.4,0,0.8-0.1,1.1-0.3c0.3-0.2,0.6-0.4,0.8-0.7c0.2-0.3,0.4-0.6,0.5-1c0.1-0.4,0.2-0.7,0.2-1.1c0-0.4-0.1-0.8-0.2-1.2
			c-0.1-0.4-0.3-0.7-0.5-1c-0.2-0.3-0.5-0.5-0.8-0.7c-0.3-0.2-0.7-0.3-1.1-0.3c-0.4,0-0.8,0.1-1.1,0.3s-0.6,0.4-0.8,0.7
			c-0.2,0.3-0.4,0.6-0.5,1C198.7,104.9,198.7,105.3,198.7,105.7z"/>
		<path d="M217.5,108.8c0.4,0,0.8-0.1,1.1-0.3c0.3-0.2,0.5-0.4,0.7-0.7c0.2-0.3,0.3-0.6,0.4-1s0.1-0.7,0.1-1.1v-4.3h1.4v4.3
			c0,0.6-0.1,1.1-0.2,1.7c-0.1,0.5-0.4,1-0.6,1.4c-0.3,0.4-0.7,0.7-1.1,0.9c-0.5,0.2-1,0.3-1.7,0.3c-0.7,0-1.3-0.1-1.7-0.4
			c-0.5-0.2-0.8-0.6-1.1-0.9c-0.3-0.4-0.5-0.8-0.6-1.4c-0.1-0.5-0.2-1-0.2-1.6v-4.3h1.3v4.3c0,0.4,0,0.8,0.1,1.1
			c0.1,0.4,0.2,0.7,0.4,1c0.2,0.3,0.4,0.5,0.7,0.7C216.7,108.7,217.1,108.8,217.5,108.8z"/>
		<path d="M235.2,103.4c-0.1-0.1-0.2-0.2-0.3-0.3c-0.2-0.1-0.3-0.2-0.5-0.3c-0.2-0.1-0.4-0.2-0.7-0.2s-0.5-0.1-0.8-0.1
			c-0.5,0-0.9,0.1-1.2,0.3c-0.3,0.2-0.4,0.5-0.4,0.9c0,0.2,0,0.4,0.1,0.5c0.1,0.1,0.2,0.2,0.4,0.3c0.2,0.1,0.4,0.2,0.7,0.3
			c0.3,0.1,0.6,0.2,0.9,0.2c0.4,0.1,0.8,0.2,1.1,0.3c0.3,0.1,0.6,0.3,0.9,0.4s0.4,0.4,0.6,0.7c0.1,0.3,0.2,0.6,0.2,1
			c0,0.4-0.1,0.8-0.3,1.1s-0.4,0.6-0.7,0.8c-0.3,0.2-0.6,0.3-1,0.4s-0.8,0.1-1.2,0.1c-0.6,0-1.3-0.1-1.9-0.3
			c-0.6-0.2-1.2-0.5-1.6-0.9l0.6-1.2c0.1,0.1,0.3,0.2,0.4,0.3c0.2,0.1,0.4,0.2,0.7,0.4c0.3,0.1,0.5,0.2,0.9,0.3
			c0.3,0.1,0.6,0.1,1,0.1c0.5,0,0.9-0.1,1.2-0.3c0.3-0.2,0.4-0.5,0.4-0.8c0-0.2-0.1-0.4-0.2-0.5c-0.1-0.1-0.3-0.3-0.5-0.4
			c-0.2-0.1-0.4-0.2-0.7-0.3s-0.6-0.2-1-0.3c-0.4-0.1-0.8-0.2-1.1-0.4c-0.3-0.1-0.6-0.3-0.8-0.5c-0.2-0.2-0.4-0.4-0.5-0.6
			c-0.1-0.2-0.2-0.5-0.2-0.9c0-0.4,0.1-0.8,0.2-1.1c0.2-0.3,0.4-0.6,0.6-0.8s0.6-0.4,1-0.5s0.8-0.2,1.2-0.2c0.6,0,1.1,0.1,1.6,0.3
			c0.5,0.2,0.9,0.4,1.3,0.7L235.2,103.4z"/>
	</g>
</svg>