<?xml version="1.0" encoding="utf-8"?>
<!-- Generator: Adobe Illustrator 18.0.0, SVG Export Plug-In . SVG Version: 6.00 Build 0)  -->
<!DOCTYPE svg PUBLIC "-//W3C//DTD SVG 1.1//EN" "http://www.w3.org/Graphics/SVG/1.1/DTD/svg11.dtd">
<svg version="1.1" id="Layer_1" xmlns="http://www.w3.org/2000/svg" xmlns:xlink="http://www.w3.org/1999/xlink" x="0px" y="0px"
	 viewBox="0 0 188 74" enable-background="new 0 0 188 74" xml:space="preserve">
<g>
	<path fill="#FFCA48" d="M41.8,0c2.5,0.7,3.8,1.8,4,3.3C38.1,9.8,32.2,15.6,28,20.8l0,0.8c6.2-6.2,12.4-11.2,18.4-14.9L47,10
		c-3.3,1.9-6.8,4.9-10.5,9.1l-0.1,2.5l2.6-1.7h3.3l2.3,2.5l-0.1,2.5l-0.9,0.8l0,0.8l0.7,0.8H45l1.1-3.3h1.7l0.7,2.5l-1.1,4.2
		l-0.4,6.6h0.8l4.2-0.8l0.8,0.8l0.8-0.8l1.4,4.2h1.7l0.1-1.7h2.5l0.5,4.2L58,46.5l0.6,2.5H52l-2.6,2.5l-2.4-0.8l-0.1,1.7h-0.8
		l-0.7-0.8h-0.8L44,57.3l0.2,10c-1.1,0-1.7,1.1-1.9,3.3l-0.9,0.8h-0.8l0.3-4.2H40c-0.3,4.4-1,6.6-2.1,6.6c-1.1,0-1.8-2.8-2-8.3h-0.8
		L34.7,73h-0.8c-1.1,0-1.5-3-1.1-9.1l-2.4-2.5l1.1-4.2l0.4-5.8L6,54l-5.6-2.5l0-0.8c0.3-2.8,0.9-4.2,1.9-4.2C2.4,44.8,1.7,44,0,44
		l1.1-4.2H0.2c3.8-6.5,8.3-12,13.5-16.6l0,0.8l-10,12.5v0.8h0.8c1.4-3.9,6.8-10.3,16.1-19.1l0,0.8l-5.4,6.6h0.8
		C22.8,17.8,31.3,9.2,41.8,0z M17.3,19.1l0,0.8l-3.5,3.3l0-0.8L17.3,19.1z M24.5,11.6l0,0.8l-6.2,5.8l0-0.8L24.5,11.6z M32.9,22.4
		c-0.1,1.5-3.3,5.1-9.8,10.8l-3.6,4.2h0.8c6.2-7.2,10.8-10.8,14-10.8l0.1-2.5L32.9,22.4z M22.8,38.2l0,0.8h2.5l8.3-0.8l0.6-9.1
		C27.7,35.1,23.9,38.2,22.8,38.2z M33.3,2.5l0,0.8l-5.3,5l0.1-0.8L33.3,2.5z M35,29.9l-0.3,5h0.8l0.3-5H35z M35.4,23.2l-0.2,3.3
		l2.4,0.8l0.1-1.7L35.4,23.2z"/>
	<path fill="#FFCA48" d="M101.1,2.7c3.7,1.5,6.7,4,9.1,7.5l-0.8,0.8c0.9,3.9,2.3,5.8,4.2,5.8l0.8-0.8l2.5,10l-0.8,3.3l0.8,2.5
		c-1,9.9-6.9,21-17.4,33.2c-1.7,0-2.5,0.6-2.5,1.7l-0.8-0.8h-0.8l-5,1.7l-5-0.8h-0.8v0.8l6.6,1.7v0.8h-5.8l-7.5-5.8v0.8l1.7,4.2
		h-0.8c-1.7-0.5-3.6-3.8-5.8-10H72v1.7l1.7,5c-2.1,0-4-6.9-5.8-20.8c4.5-21.6,8.4-32.4,11.6-32.4c0-1.6,1.1-3,3.3-4.2h0.8
		c-4.4,5.4-6.6,9-6.6,10.8l5.8-7.5C82.8,10.2,88.9,7.1,101.1,2.7z M76.2,20.1l-5,14.1l0.8,2.5l-0.8-0.8h-0.8v0.8l0.8,4.2H72v-2.5
		l-0.8-0.8c1.4,0,2.8-3.6,4.2-10.8c1.1,0,1.7-1.4,1.7-4.2v-2.5H76.2z M81.1,46.7v4.2l0.8,8.3c14.4-13.3,21.6-25.5,21.6-36.5v-5.8
		l0.8,0.8l2.5-0.8V16l-0.8-0.8v-0.8c-2.4,0-8.5,3.3-18.3,10C83.4,33.9,81.1,41.4,81.1,46.7z M90.3,64.9v0.8h0.8l3.3-0.8v-0.8h-1.7
		L90.3,64.9z M105.2,19.3l-0.8,9.1v0.8h0.8l1.7-6.6l-0.8-3.3H105.2z"/>
	<path fill="#FFCA48" d="M169.8,0c2.5,0.7,3.8,1.8,4,3.3c-7.6,6.5-13.5,12.3-17.7,17.4l0,0.8c6.2-6.2,12.4-11.2,18.4-14.9l0.6,3.3
		c-3.3,1.9-6.8,4.9-10.5,9.1l-0.1,2.5l2.6-1.7h3.3l2.3,2.5l-0.1,2.5l-0.9,0.8l0,0.8l0.7,0.8h0.8l1.1-3.3h1.7l0.7,2.5l-1.1,4.2
		l-0.4,6.6h0.8l4.2-0.8l0.8,0.8l0.8-0.8l1.4,4.2h1.7l0.1-1.7h2.5l0.5,4.2l-1.9,3.3l0.6,2.5h-6.6l-2.6,2.5l-2.4-0.8l-0.1,1.7h-0.8
		l-0.7-0.8h-0.8l-0.4,5.8l0.2,10c-1.1,0-1.7,1.1-1.9,3.3l-0.9,0.8h-0.8l0.3-4.2H168c-0.3,4.4-1,6.6-2.1,6.6c-1.1,0-1.8-2.8-2-8.3
		h-0.8l-0.4,7.5h-0.8c-1.1,0-1.5-3-1.1-9.1l-2.4-2.5l1.1-4.2l0.4-5.8L134,54l-5.6-2.5l0-0.8c0.3-2.8,0.9-4.2,1.9-4.2
		c0.1-1.7-0.7-2.5-2.3-2.5l1.1-4.2h-0.8c3.8-6.5,8.3-12,13.5-16.6l0,0.8l-10,12.5v0.8h0.8c1.4-3.9,6.8-10.3,16.1-19.1l0,0.8
		l-5.4,6.6h0.8C150.7,17.8,159.3,9.2,169.8,0z M145.3,19.1l0,0.8l-3.5,3.3l0-0.8L145.3,19.1z M152.4,11.6l0,0.8l-6.2,5.8l0-0.8
		L152.4,11.6z M160.9,22.4c-0.1,1.5-3.3,5.1-9.8,10.8l-3.6,4.2h0.8c6.2-7.2,10.8-10.8,14-10.8l0.1-2.5L160.9,22.4z M150.8,38.2
		l0,0.8h2.5l8.3-0.8l0.6-9.1C155.7,35.1,151.9,38.2,150.8,38.2z M161.3,2.5l0,0.8l-5.3,5l0.1-0.8L161.3,2.5z M162.9,29.9l-0.3,5h0.8
		l0.3-5H162.9z M163.3,23.2l-0.2,3.3l2.4,0.8l0.1-1.7L163.3,23.2z"/>
</g>
</svg>
