<svg version="1.1" xmlns="http://www.w3.org/2000/svg" xmlns:xlink="http://www.w3.org/1999/xlink" x="0px" y="0px" viewBox="0 0 134 20" enable-background="new 0 0 134 20" xml:space="preserve">
	<g>
		<g>
			<path fill="#ffffff" d="M15.3,8.5h109.5c0.8,0,1.5,0.7,1.5,1.5s-0.7,1.5-1.5,1.5H15.3c-0.8,0-1.5-0.7-1.5-1.5S14.5,8.5,15.3,8.5z" />
		</g>
		<g>
			<path fill="#ffffff" d="M18,0.2c0.4,0,0.7,0.1,1,0.4c0.5,0.4,0.6,1,0.4,1.6L16.8,10l2.7,7.8c0.2,0.6,0,1.2-0.4,1.6c-0.5,0.4-1.1,0.5-1.7,0.2L1.1,11.3c-0.5-0.3-0.8-0.8-0.8-1.3c0-0.6,0.3-1.1,0.8-1.3l16.3-8.3C17.5,0.3,17.8,0.2,18,0.2zM15.4,15.3l-1.6-4.8c-0.1-0.3-0.1-0.7,0-1l1.6-4.8L5.1,10L15.4,15.3z"/>
		</g>
		<g>
			<path fill="#ffffff" d="M132.2,1.1c0.4,0,0.8,0.1,1.1,0.4c0.6,0.6,0.6,1.5,0,2.1L127,10l6.4,6.4c0.6,0.6,0.6,1.5,0,2.1c-0.6,0.6-1.5,0.6-2.1,0l-7.4-7.4c-0.6-0.6-0.6-1.5,0-2.1l7.4-7.4C131.5,1.2,131.9,1.1,132.2,1.1z"/>
		</g>
		<g>
			<path fill="#ffffff" d="M120.8,1.1c0.4,0,0.8,0.1,1.1,0.4c0.6,0.6,0.6,1.5,0,2.1l-6.4,6.4l6.4,6.4c0.6,0.6,0.6,1.5,0,2.1s-1.5,0.6-2.1,0l-7.4-7.4c-0.3-0.3-0.4-0.7-0.4-1.1c0-0.4,0.2-0.8,0.4-1.1l7.4-7.4C120,1.2,120.4,1.1,120.8,1.1z"/>
		</g>
	</g>
</svg>