<svg version="1.1" id="Layer_1" xmlns="http://www.w3.org/2000/svg" xmlns:xlink="http://www.w3.org/1999/xlink" x="0px" y="0px" viewBox="0 0 134 20" enable-background="new 0 0 134 20" xml:space="preserve">
	<g>
		<g>
			<path fill="#ffffff" d="M118.7,11.5H9.2c-0.8,0-1.5-0.7-1.5-1.5s0.7-1.5,1.5-1.5h109.5c0.8,0,1.5,0.7,1.5,1.5S119.5,11.5,118.7,11.5z"/>
		</g>
		<g>
			<path fill="#ffffff" d="M116,19.8c-0.4,0-0.7-0.1-1-0.4c-0.5-0.4-0.6-1-0.4-1.6l2.7-7.8l-2.7-7.8c-0.2-0.6,0-1.2,0.4-1.6c0.5-0.4,1.1-0.5,1.7-0.2l16.3,8.3c0.5,0.3,0.8,0.8,0.8,1.3c0,0.6-0.3,1.1-0.8,1.3l-16.3,8.3C116.5,19.7,116.2,19.8,116,19.8zM118.6,4.7l1.6,4.8c0.1,0.3,0.1,0.7,0,1l-1.6,4.8l10.3-5.3L118.6,4.7z"/>
		</g>
		<g>
			<path fill="#ffffff" d="M1.8,18.9c-0.4,0-0.8-0.1-1.1-0.4c-0.6-0.6-0.6-1.5,0-2.1L7,10L0.7,3.6c-0.6-0.6-0.6-1.5,0-2.1c0.6-0.6,1.5-0.6,2.1,0l7.4,7.4c0.6,0.6,0.6,1.5,0,2.1l-7.4,7.4C2.5,18.8,2.1,18.9,1.8,18.9z"/>
		</g>
		<g>
			<path fill="#ffffff" d="M13.2,18.9c-0.4,0-0.8-0.1-1.1-0.4c-0.6-0.6-0.6-1.5,0-2.1l6.4-6.4l-6.4-6.4c-0.6-0.6-0.6-1.5,0-2.1c0.6-0.6,1.5-0.6,2.1,0l7.4,7.4c0.3,0.3,0.4,0.7,0.4,1.1c0,0.4-0.2,0.8-0.4,1.1l-7.4,7.4C14,18.8,13.6,18.9,13.2,18.9z"/>
		</g>
	</g>
</svg>