<svg version="1.1" xmlns="http://www.w3.org/2000/svg" xmlns:xlink="http://www.w3.org/1999/xlink" x="0px" y="0px" viewBox="0 0 98 84" enable-background="new 0 0 98 84" xml:space="preserve">
	<g>
		<path fill="#583214" d="M47.7,54.2c4.8-0.9,9.7-1.2,14.2-3.1c0.5,0.2,1.5-0.1,1.6-0.7c1.4-11.4,0.5-22.8,0.3-34.2c0,0,0-0.1,0-0.1
			c0.3,0,0.5-0.1,0.6-0.2c5.1-4,3.6-9.4-2.2-11.5c-0.5-0.2-1.1-0.4-1.6-0.5c0,0,0,0,0-0.1c-8.7-3.3-19.8-3.5-29-3.8
			C22.2-0.1,12.9,1.1,4,4C3.2,4.3,3.4,4.5,3.8,4.5c0,0,0,0-0.1,0c-5.5,3.5-4.2,15,2,17.1c0.1,0,0.2,0,0.4,0c0,0.1-0.1,0.1-0.1,0.2
			c0.1,3.5,0.4,7,0.7,10.5c0.3,3.3,0.2,6.6,1,9.8c0,0.1,0.1,0.1,0.2,0.1c0,0,0.1,0.1,0.1,0.1c3.9,1.9,7.6,4.5,11.1,7.1
			c3,2.2,5.2,5.1,8.5,6.7c0.2,0.1,0.5,0.1,0.8,0C35,56.7,41.3,55.5,47.7,54.2z M29.4,55.3c0,0-0.1,0-0.1-0.1c-0.1,0-0.2-0.1-0.3-0.2
			c0.1,0,0.2-0.1,0.3-0.1c0.4,0.2,0.8,0.3,1.2,0.4C30.2,55.4,29.8,55.4,29.4,55.3z M61.6,50.3c0,0.1,0,0.2,0,0.3
			c-2,0.9-4,1.4-6.1,1.8C57.6,51.9,59.6,51.2,61.6,50.3z M63,15.7c-0.5,0-1.2,0.3-1.1,0.8C62,26,62.6,35.5,62,45
			c-0.3-0.9-0.6-1.7-0.8-2.6c0-0.2-0.5-0.1-0.5,0.1c0.2,1.1,0.7,2.1,0.9,3.1c0,0.1,0.2,0.1,0.3,0.1c-0.1,1.4-0.2,2.9-0.4,4.3
			c-1.2,0.5-2.5,1-3.9,1.4c0,0,0,0,0,0c-0.8-2.1-1.3-4.2-2.2-6.3c-0.1-0.2-0.5,0-0.5,0.1c0.8,2.1,1.4,4.2,2.2,6.3c0,0,0,0,0,0
			c-3.9,1.1-8.3,1.7-11.6,2.2c-1,0.2-2.2,0.4-3.5,0.7c0.6-0.1,1.1-0.2,1.7-0.2c0.3,0,0.6-0.1,1-0.1c-1.9,0.3-3.8,0.7-5.6,0.9
			c0.2,0,0.3-0.1,0.5-0.1c-0.3,0-0.5,0.1-0.8,0.1c-1.9,0.2-3.9,0.4-5.9,0.4c-1.2-0.1-2.3-0.3-3.3-0.7c0.1-0.1,0.2-0.2,0.1-0.3
			c-0.2-5.2,0.3-10.3-0.2-15.4c-0.6-6-2.3-11.7-2.3-17.7c0-0.3-0.7-0.3-1.2-0.1c0.2-0.2,0.3-0.3,0-0.4c-0.1,0-0.2-0.1-0.4-0.1
			c0,0,0,0,0,0c-2.8-1.1-3.5-3.7-3-6.6c0.8-4.4,6.5-5.8,10.2-6.6c3.6-0.7,7.2-1.2,10.8-1.8c4.6-0.8,9.3-1.4,13.9-1
			C63.6,5.2,69.2,10.7,63,15.7z M23.2,24.8c0,0.1,0.2,0.1,0.3,0.1c-0.1,0.3-0.2,0.6-0.3,0.9c-0.2,0-0.4,0-0.5,0
			c0.2-0.4,0.3-0.8,0.4-1.2C23.2,24.7,23.2,24.8,23.2,24.8z M23.6,26.1c0.2,0,0.3,0,0.5,0c-0.1,0.3-0.2,0.5-0.3,0.8
			c-0.1,0-0.2,0-0.4,0C23.5,26.6,23.5,26.4,23.6,26.1z M23,23.5c0,0,0,0.1,0,0.1c0-0.2,0-0.6,0-0.7c0-0.4,0-0.9,0-1.3
			c0-0.1-0.5,0-0.5,0.1c0,0.2,0,0.5,0,0.7c-0.1,0-0.4,0-0.4,0.1c0,0,0,0,0,0.1c-0.1-0.4-0.2-0.8-0.3-1.2c0.4,0,0.8,0.1,1.2,0.1
			C23,22.2,22.9,22.9,23,23.5z M21.3,23.4c-0.1,0-0.4,0.1-0.4,0.1c0,0.1,0,0.1,0,0.2c-0.3-0.7-0.2-1.6-0.2-2.2c0,0-0.3,0-0.4,0.1
			c0,0,0,0,0-0.1c0-0.2-0.5-0.1-0.5,0.1c0.1,0.4,0.1,0.9,0.1,1.3c-0.2-0.5-0.2-1.1-0.3-1.6c0.5,0,1.1,0,1.6,0.1c0,0,0,0,0,0.1
			c0.1,0.2,0.1,0.3,0.1,0.5c0,0,0,0,0,0c0,0.4,0,0.8,0,1.2C21.3,23.2,21.3,23.3,21.3,23.4z M20.9,18.8c-0.1-0.4-0.2-0.9-0.2-1.4
			c0.1,0.2,0.2,0.4,0.3,0.7c0.1,0.2,0.1,0.4,0.2,0.5c0,0.1,0.1,0.2,0.1,0.2c0.2,0.4,0.3,1,0.7,1.3c-0.2,0-0.5,0-0.7,0
			C21,19.7,20.9,19.1,20.9,18.8z M24.9,22.3c0-0.1,0-0.3-0.1-0.4c0.2,0,0.3-0.1,0.5-0.2c0,0.6,0.1,1.2,0.1,1.8
			c-0.1-0.4-0.1-0.8-0.1-1.2C25.2,22.2,25,22.2,24.9,22.3z M20.1,48c-3.3-2.4-6.8-4.8-10.5-6.6c0,0,0,0,0,0C8.8,38.2,9,35,8.7,31.8
			C8.4,28.3,8,24.8,8,21.3c0-0.1-0.5-0.1-0.9,0c0.3-0.2,0.4-0.5,0.1-0.7c0.2,0,0.5-0.1,0.3-0.3c-1.4-1-1.8-2.9-2.3-4.4
			c0-0.1-0.3-0.1-0.4,0c-0.3-0.7-0.6-1.4-0.8-2.1c-0.1-0.2-0.6-0.1-0.5,0.1c0.3,0.9,0.7,1.9,1.1,2.8c0.1,0.1,0.2,0.1,0.3,0.1
			c0.4,1.4,1,2.9,2.2,3.9c0,0-0.1,0-0.1,0c-4.8-1.6-6.3-11-2.8-14.6c0,0.1,0.4,0.1,0.5,0C4.8,5.5,5.1,5.2,5.3,5
			c0.1-0.1,0.1-0.2,0-0.2c0-0.2-0.3-0.3-0.6-0.4C14.2,1.3,24,0.6,33.9,1C40.5,1.3,48.3,1.6,55,3.4c-4.1,0-8.4,0.9-12.1,1.6
			C36.9,6,30.4,6.4,24.9,9.4c-2.7,1.5-4.4,4.7-4.2,7.5c0,0-0.1,0-0.1,0.1c0-0.1,0-0.3-0.1-0.4c0-0.1-0.2-0.1-0.4-0.1
			c-0.1-1.2,0.1-2.4,0.1-3.6c0-0.2-0.5-0.1-0.5,0.1c-0.1,1.5-0.3,2.9-0.1,4.4c0,0.1,0.3,0.1,0.4,0c0.1,0.6,0.2,1.2,0.3,1.8
			c0,0.2,0.1,0.5,0.2,0.8c-0.2,0-0.3,0-0.5,0c-0.6-0.5-0.8-1.5-1-2.4c0.1,0,0.1-0.1,0.1-0.1c-0.1-0.2-0.2-0.3-0.2-0.5
			c0-0.2-0.1-0.5-0.1-0.7c0,0,0,0-0.1,0c-0.2-1.1,0-2.4,0.2-3.5c0-0.2-0.5-0.1-0.5,0.1c-0.2,1.4-0.5,3,0,4.3c0.2,1,0.3,2.2,0.9,2.9
			c-0.3,0-0.6,0-0.9,0c-0.4-0.5-0.5-1.2-0.6-1.7c-0.1-0.3-0.1-0.6-0.2-0.9c0,0,0,0,0,0c-0.2-0.4-0.3-0.9-0.3-1.3c0-0.3,0-0.7,0-1
			c0,0,0-0.1,0-0.1c0-0.6,0.1-1.3,0.4-1.9c0-0.1-0.4-0.1-0.5,0.1c-0.4,1-0.4,2-0.3,3c0,0.5,0,1,0,1.5c0,0.2,0.3,0.2,0.4,0
			c0.1,0.4,0.2,0.7,0.2,1.1c0.1,0.4,0.2,0.8,0.4,1.2c-0.4,0-0.7-0.1-1.1-0.1c0.2,0,0.3-0.1,0.2-0.2c-0.7-0.7-0.9-1.8-1.1-2.8
			c0,0,0.1,0,0.1,0c0.2,0,0.4-0.3,0.1-0.3c0.1,0,0-0.3,0-0.4c0-0.2,0-0.5,0-0.7c0-0.4,0-0.8,0-1.2c0-0.2-0.5-0.1-0.5,0.1
			c0,0.6,0,1.2,0,1.7c0,0,0,0,0,0c-0.1,0-0.2,0.1-0.2,0.2c0.2,1.1,0.3,2.6,1.2,3.5c0,0,0,0,0.1,0c-0.4,0-0.9-0.1-1.3-0.2
			c-0.3-0.3-0.3-0.9-0.4-1.3c-0.1-0.4-0.1-0.8-0.2-1.3c0-0.1,0.1-0.1,0.1-0.2c0,0-0.1-0.1-0.1-0.1c0-0.1,0-0.2,0-0.3c0,0-0.1,0-0.1,0
			c0-0.8,0.1-1.5,0.1-2.3c0-0.1-0.5,0-0.5,0.1c0,1-0.3,2-0.1,2.9c0,0.1,0.1,0.1,0.2,0.1c0,0.4,0.1,0.7,0.1,1.1c0,0.3,0.1,0.7,0.2,1
			c-0.2,0-0.4-0.1-0.6-0.2c-0.1-0.4-0.1-0.8-0.2-1.1C14,17.7,14,17,14,16.3c0-0.1-0.4-0.1-0.4,0.1c0,0-0.1,0-0.1,0
			c-0.1-0.9,0-1.8,0-2.7c0-0.1-0.5,0-0.5,0.1c0,1-0.2,2,0,3c0,0.1,0.4,0,0.4,0c0,0,0.1-0.1,0.1-0.1c0,0.6,0,1.2,0.1,1.8
			c0,0.2,0,0.5,0.1,0.8c-0.1,0-0.1,0-0.2-0.1c-0.2-0.5-0.3-1.1-0.4-1.5c-0.1-0.6-0.2-1.3-0.3-2c0-0.2-0.5-0.1-0.5,0.1
			c0.1,0.8,0.2,1.6,0.4,2.3c0.1,0.2,0.1,0.5,0.2,0.8c-0.3-0.1-0.6-0.3-0.9-0.5c-0.2-0.7-0.3-1.5-0.3-2.2c0.1,0,0.2,0,0.2-0.1
			c0.1-0.1,0.2-0.2,0.4-0.3c0.2-0.1-0.1-0.2-0.3-0.1c-0.2-0.7-0.1-1.5-0.1-2.2c0-0.2-0.5-0.1-0.5,0.1c0,0.4,0,0.9,0,1.3
			c-0.1,0-0.3,0.1-0.3,0.2c0.2,0.9,0.2,2,0.4,3c-0.2,0-0.4,0-0.6,0c-0.1-0.3-0.1-0.6-0.2-0.7c-0.2-0.8-0.4-1.6-0.6-2.4
			c0-0.1-0.3-0.1-0.4,0c0-0.6,0-2,0-2.2c0-0.1-0.5,0-0.5,0.1c0.1,0.9,0,1.7,0.1,2.6c0,0,0.1,0,0.1,0c0.2,0,0.3,0,0.4-0.1
			c0.2,0.7,0.3,1.5,0.5,2.2c0,0.2,0.1,0.4,0.2,0.6c-0.3,0.2-0.5,0.4-0.4,0.6c-0.1-0.1-0.2-0.3-0.2-0.3c-0.2-0.4-0.4-0.8-0.6-1.3
			c-0.2-0.6-0.5-1.2-0.6-1.8c0.1,0,0.1-0.1,0.1-0.2c-0.2-0.8-0.3-1.6-0.4-2.4c0-0.2-0.5-0.1-0.5,0.1c0.1,0.6,0.2,1.3,0.3,1.9
			c-0.1,0-0.2,0.1-0.2,0.1c0.2,1,0.7,2,1.1,3c0.2,0.4,0.5,1.5,1,1.4c0.2,0,0.4-0.3,0.1-0.2c0,0,0-0.1,0-0.1c0,0,0.1,0.1,0.1,0.1
			c0.1,0.1,0.3,0.2,0.4,0.2c-0.2-0.1-0.5,0.1-0.4,0.3c0.6,0.8,1,1.6,1.4,2.4c0.1,0.1,0.2,0.1,0.3,0c0,0.1,0,0.2,0,0.3
			c-0.1,0-0.1,0.1-0.1,0.1c0,1.6-0.4,3.3-1,4.8c-0.1,0.3,0.4,0.2,0.5,0c0.4-1.2,0.8-2.4,0.9-3.7c0.1,0,0.3-0.1,0.3-0.2
			c0-0.7-0.1-1.3-0.3-1.9c0.2,0.3,0.4,0.6,0.5,1c0,0.1,0.2,0.1,0.3,0c0,0.1,0,0.1,0,0.2c-0.1,0-0.4,0-0.4,0.2
			c-0.1,0.7-0.2,1.3-0.3,1.9c-0.1,0.4-0.2,1.7-0.5,1.9c-0.3,0.2,0.1,0.3,0.3,0.2c0.4-0.3,0.5-1.2,0.6-1.6c0.2-0.7,0.3-1.4,0.4-2.2
			c0,0.2,0.1,0.4,0.1,0.6c0,0.1,0.5,0,0.5-0.1c0-0.4-0.1-0.8-0.2-1.2c0.1,0.2,0.2,0.3,0.4,0.5c0,0,0,0,0,0c0,1.5-0.6,2.9-1,4.3
			c0,0.2,0.4,0.1,0.5-0.1c0.4-1.4,0.9-2.7,1-4.1c0,0,0,0,0.1,0c0.1,0.3,0.1,0.7,0.2,1c0,0,0,0,0,0c-0.1,1.1-0.5,2.3-1,3.3
			c-0.1,0.1,0.4,0.1,0.5-0.1c0.6-1.2,1.1-2.6,1.1-3.9c0,0,0,0,0.1,0c0.1,0,0.6-0.2,0.3-0.2c-0.4-0.1-0.6-1.1-0.7-1.4
			c-0.1-0.3-0.2-0.7-0.3-1c0.4,0.1,0.7,0.1,1.1,0.1c0,0.1,0.1,0.2,0.1,0.3c0,0,0,0,0,0.1c0.1,0.2,0.1,0.3,0.2,0.5
			c0.1,0.3,0.2,0.6,0.2,0.9c0,0.3,0.1,0.5,0.1,0.8c0,0,0,0,0,0.1c-0.1,0.6-0.2,1.2-0.4,1.8c-0.1,0.2-0.1,0.4-0.2,0.5
			c0,0.1,0,0.3-0.1,0.4c-0.1,0-0.3,0.1-0.2,0.2c0,0.1,0.1,0.1,0.1,0.2c0.1,0.1,0.3,0,0.3,0c0.3-0.2,0.3-0.8,0.4-1.1
			c0.2-0.5,0.3-1,0.4-1.6c0.1,0,0.2-0.1,0.2-0.1c0-0.4,0-0.7-0.1-1.1c0,0,0,0,0,0c0,0,0-0.1,0-0.1c0-0.3-0.1-0.6-0.2-0.9
			c-0.1-0.2-0.1-0.5-0.2-0.7c0.3,0,0.5,0,0.8,0.1c0,0.1,0.1,0.3,0.1,0.4c-0.1,0-0.1,0.1-0.1,0.1c0.3,0.6,0.3,1.2,0.3,1.8
			c-0.1,0-0.2,0.1-0.2,0.1c-0.4,1.3-1.3,2.6-1.4,3.9c0,0.2,0.5,0.1,0.5-0.1c0.1-1.2,0.8-2.3,1.2-3.4c0,0.1,0,0.2,0.1,0.3
			c0.1,0.2,0.5,0,0.5-0.1c-0.2-0.4-0.2-0.8-0.2-1.2c0.1,0,0.2-0.1,0.1-0.1c-0.2-0.6-0.2-1.2-0.4-1.7c0.3,0,0.6,0,0.8,0
			c0,0-0.1,0-0.1,0c-0.1,0-0.5,0.1-0.4,0.2c0.2,0.8,0.3,1.5,0.4,2.3c-0.2,0.8-0.4,1.5-0.6,2.3c-0.5,0.7-0.9,1.5-1.2,2.3
			c-0.1,0.1,0.4,0.1,0.5-0.1c0.2-0.5,0.4-0.9,0.6-1.3c0.1,0,0.3-0.1,0.3-0.1c0.1-0.3,0.2-0.5,0.2-0.8c0.1-0.1,0.1-0.2,0.2-0.4
			c0-0.1,0-0.1-0.1-0.1c0.1-0.5,0.2-0.9,0.4-1.4c0,0.2,0,0.3,0.1,0.5c0,0.2,0.5,0.1,0.5-0.1c-0.2-1.1-0.1-2.1-0.4-3.2
			c0,0,0,0-0.1-0.1c0.2,0,0.4,0,0.6,0c0,0-0.1,0.1-0.1,0.1c0.2,0.6,0.1,1.3,0.5,1.8c0.1,0.1,0.3,0,0.4-0.1c0.1,0.5,0.1,1,0.2,1.5
			c0,0.2,0.5,0.1,0.5-0.1c0-0.2,0-0.3-0.1-0.5c0.1,0,0.2,0,0.2-0.1c-0.2,1-0.5,1.9-0.8,2.9c0,0.1,0.4,0.1,0.5-0.1
			c0.3-1,0.7-2,0.9-3.1c0,0.1,0.1,0.3,0.2,0.4c0.1,0.1,0.1,0.1,0.2,0c0,0.1,0,0.3,0,0.5c-0.2,1-0.6,2-0.9,3c0,0.1,0.4,0,0.5-0.1
			c0.2-0.8,0.5-1.6,0.8-2.4c0.1,0,0.2-0.1,0.3-0.2c0,0,0-0.1,0-0.1c0-0.1,0-0.2-0.1-0.2c0-0.1,0-0.2,0-0.3c0.1-0.4,0.2-0.9,0.2-1.3
			c0,0.3,0,0.8,0.3,1c0,0,0,0,0.1,0c-0.4,1.5-1.1,2.9-1.6,4.4c-0.1,0.2,0.4,0.1,0.5-0.1c0.3-0.8,0.6-1.5,0.9-2.3c0,0,0.1,0,0.1,0
			c0.2,0,0.3,0,0.5-0.1c-0.3,1.1-0.7,2.2-1.4,3.2c0,0.1,0.4,0,0.5-0.1c0.4-0.7,0.7-1.4,1-2.1c0.1,0,0.2,0,0.3,0
			c-0.2,0.3-0.3,0.7-0.5,1c0,0.1-0.1,0.2-0.2,0.3c-0.1,0.1-0.2,0.2-0.1,0.2c-0.2,0.4-0.4,0.9-0.3,1.4c0,0.2,0.5,0.1,0.5-0.1
			c-0.1-0.3,0-0.8,0.2-1.2c0.3,0,0.7,0.1,1,0.1c-0.2,0.4-0.4,0.8-0.6,1.3c0,0-0.1,0-0.1,0c-0.2-0.1-0.6,0.2-0.4,0.3
			c0.1,0.1,0.2,0.1,0.3,0.1c-0.2,0.4-0.4,0.8-0.6,1.3c-0.1,0.2,0.4,0.2,0.5,0c0.2-0.4,0.4-0.8,0.5-1.2c0.3,0.1,0.6,0.1,0.9,0.1
			c-0.2,0.5-0.5,0.9-0.7,1.4C24,32,23.9,32,23.8,32c-0.1-0.1-0.6,0.1-0.4,0.2c0.2,0.1,0.3,0.1,0.5,0.2c-0.2,0.4-0.4,0.8-0.6,1.3
			c-0.1,0.2,0.4,0.1,0.5-0.1c0.2-0.4,0.3-0.7,0.5-1.1c0.2,0.1,0.5,0.2,0.7,0.2c-0.2,0.3-0.4,0.7-0.6,1c-0.2,0-0.4,0.2-0.3,0.2
			c0.1,0,0.1,0,0.2,0.1c-0.3,0.5-0.6,1-0.8,1.5c-0.1,0.2,0.4,0.1,0.4,0c0,0,0,0,0-0.1c0,0,0,0,0.1,0.1c0.2,0.1,0.5,0.3,0.7,0.4
			c-0.5,0.6-1,1.1-1.3,1.8c0,0,0.4,0,0.5-0.1c0.3-0.5,0.7-1,1.1-1.5c0.3,0.2,0.5,0.3,0.8,0.5c0.2,0.1,0.6-0.1,0.4-0.3
			c-0.3-0.2-0.6-0.4-0.9-0.6c0.2-0.3,0.5-0.6,0.7-0.9c0,0-0.4,0-0.5,0.1c-0.2,0.2-0.3,0.4-0.5,0.6c-0.2-0.1-0.4-0.2-0.6-0.4
			c-0.1-0.1-0.3,0-0.4,0.1c0.2-0.4,0.4-0.8,0.6-1.2c0.2,0.1,0.4,0.2,0.6,0.3c0.1,0.1,0.5-0.1,0.5-0.2c-0.3-0.1-0.6-0.3-0.8-0.4
			c0.2-0.3,0.4-0.7,0.7-1c0.2,0,0.5-0.2,0.2-0.2c0,0-0.1,0-0.1,0c0,0,0,0,0,0c0.1-0.2-0.2-0.1-0.4-0.1c-0.3-0.1-0.5-0.2-0.8-0.3
			c0.3-0.5,0.6-1,0.8-1.6c0.2,0,0.2-0.2,0.2-0.3c0,0,0.1-0.1,0.1-0.1c0.1-0.2-0.4-0.1-0.4,0c0,0,0,0.1,0,0.1c-0.3,0-0.6,0-1-0.1
			c0.2-0.5,0.4-0.9,0.6-1.4c0.2,0,0.3,0,0.5,0c0.3,0,0.4-0.3,0-0.3c-0.1,0-0.2,0-0.4,0c0.1-0.4,0.3-0.7,0.4-1.1
			c0.1-0.2-0.4-0.2-0.5,0c-0.1,0.4-0.2,0.7-0.3,1.1c-0.3,0-0.6,0-1-0.1c0.2-0.3,0.3-0.6,0.5-0.9c0.1-0.1,0.1-0.2,0.2-0.4
			c0.1,0,0.1,0,0.2,0c0.2,0,0.6-0.2,0.3-0.3c-0.1,0-0.2,0-0.3,0c0.3-0.5,0.5-1.1,0.7-1.6c0.1-0.2-0.4-0.1-0.5,0.1
			c0,0.1-0.1,0.3-0.2,0.4c-0.2,0-0.3,0-0.5,0c0.1-0.4,0.2-0.8,0.4-1.2c0.1,0.1,0.4,0,0.4-0.1c0,0,0.1-0.1,0-0.1
			c0.2-0.1,0.1-0.1-0.1-0.1c-0.1-0.2-0.1-0.9-0.1-1c0-0.4,0-0.7,0-1.1c0-0.1-0.5,0-0.5,0.1c0,0.4,0,0.8,0.1,1.3c0,0.1,0,0.1,0,0.2
			c0,0,0,0-0.1,0c-0.1,0.2-0.2,0.5-0.2,0.8c-0.1-0.4-0.2-0.7-0.2-1.1c0-0.1,0.1-0.2,0.1-0.3c0-0.1,0-0.1-0.1-0.1c0-0.5,0-0.9-0.1-1.4
			c0.3,0,0.6,0.1,1,0.2c0.1,0.4,0.1,0.9,0.2,1.3c0.1,0.4,0.3,1.2,0.2,1.7c-0.1,0.3,0.4,0.3,0.5,0.1c0-0.2,0-0.4,0-0.6
			c0.1,0,0.2,0,0.3,0c0.3,4.5,1.3,9,2,13.5c0.9,5.5,0.2,11.1,0.4,16.7C25,52.6,22.8,50,20.1,48z M14.1,21.5
			C14.1,21.5,14.1,21.5,14.1,21.5c0.1,0.5,0.2,1,0.3,1.5c-0.6-0.6-1-1.5-1.2-2.3c0.2,0.1,0.4,0.1,0.7,0.1
			C14,21.1,14.1,21.3,14.1,21.5z M12.9,22c-0.3-0.5-0.6-1.1-0.9-1.6c0.2,0.1,0.4,0.2,0.6,0.2c0,0.2,0.1,0.5,0.2,0.7c0,0,0,0,0,0
			C12.8,21.6,12.9,21.8,12.9,22z M11.7,20.8c-0.1,0-0.2,0.1-0.2,0.2c0.1,0.2,0.1,0.4,0.2,0.6c-0.3-0.6-0.7-1.3-1.1-1.8c0,0,0,0,0,0
			c0.3,0.2,0.5,0.3,0.8,0.4C11.5,20.3,11.6,20.6,11.7,20.8z"/>
		<path fill="#583214" d="M19.8,9.7C19.8,9.7,19.8,9.7,19.8,9.7c0.3-0.4,0.8-0.7,1.2-1.1c0,0,0.1-0.1,0.1-0.1c0.1,0.1,0.3,0.1,0.4,0
			c0.5-0.4,1.1-0.6,1.7-1c0.3-0.2-0.1-0.3-0.3-0.2c-0.5,0.4-1.1,0.6-1.7,1c0,0,0,0-0.1,0.1c-0.1-0.1-0.3-0.1-0.4,0
			c-0.5,0.4-1,0.8-1.4,1.2c-0.4-0.1-0.8-0.3-1.3-0.4c0.6-0.4,1.3-0.9,1.9-1.4c0,0.1,0.2,0.2,0.3,0.1c0.7-0.3,1.3-0.5,1.9-0.9
			c0.3-0.2-0.1-0.3-0.3-0.2c-0.6,0.4-1.2,0.6-1.8,0.8c0.2-0.2-0.3-0.3-0.4-0.1c-0.6,0.6-1.3,1-2,1.5c-0.3-0.1-0.6-0.2-0.8-0.3
			c0.1,0,0.1,0,0.1-0.1c0.7-0.7,1.5-1.4,2.2-2c0.1-0.1-0.2-0.1-0.4,0c0.3-0.2,0.6-0.3,0.9-0.5c0.3-0.2-0.1-0.2-0.3-0.1
			c-0.7,0.4-1.4,0.7-2,1.2c-0.2,0.1,0.3,0.1,0.4,0.1c0.3-0.2,0.6-0.4,0.9-0.6c-0.7,0.6-1.5,1.2-2.2,1.9c-0.3-0.1-0.5-0.2-0.8-0.3
			c-0.2-0.1-0.3-0.1-0.5,0c0.2-0.5,0.5-0.9,0.8-1.2c0.1-0.1-0.4,0-0.4,0c-0.4,0.4-0.7,0.8-0.9,1.3c-0.1,0-0.2,0.1-0.3,0.1
			c0,0-0.9,0.4-0.6,0.5c0.2,0.1,0.4,0.1,0.6,0.2c-0.1,0.2-0.1,0.3-0.2,0.5c0,0.1,0.4,0,0.5-0.1c0-0.1,0-0.1,0.1-0.2
			c1.1,0.4,2.2,0.9,3.3,1.2c0.2,0,0.4,0,0.6,0c0.1,0.1,0.3,0,0.4-0.1c0,0,0,0,0,0c0.1,0,0.2-0.1,0.3-0.1C19.7,10.1,20.2,9.8,19.8,9.7
			z"/>
		<path fill="#583214" d="M97.5,58.5c0-0.2-0.1-0.3-0.2-0.4c-0.8-2.7-6.9-2.5-9.1-2.1c0.1-0.2,0-0.4-0.4-0.6
			c-3.9-1.6-7.9-2.9-11.8-4.6c-2.1-1-4.9-2.4-7.3-1.8c-8.3,2-15.2,8.9-23.9,9.7c-0.5,0-0.8,0.3-0.9,0.6c-0.3,0.2-0.5,0.5-0.5,0.7
			c-0.2,0.1-0.4,0.2-0.4,0.4c-0.4,3.5,0.9,5.1,3.8,6.6c2,1.1,3.9,2.6,5.9,3.8c2.1,1.3,4.3,2.3,6.3,3.7c0.1,0.1,0.2,0.1,0.3,0.1
			c0.6,0.9,1.8,1.5,2.9,1.7c0.6,3.3,1.4,6.1,5.3,7c3.6,0.9,7.3,0.8,10.6-1.1c5.1-2.9,8.8-7.6,13.1-11.5c1.7-1.6,4.4-3,5.7-5.1
			C98.4,63.4,97.5,61.3,97.5,58.5z M94.8,65.8c-0.1,0.2-0.2,0.3-0.4,0.5c-0.2-0.9,0.1-1.9,0.1-2.8c0.1-0.1,0.3-0.3,0.4-0.4
			c0,0.9-0.2,1.8-0.4,2.7C94.5,65.8,94.6,65.8,94.8,65.8z M66.6,51.1c3.4-1.8,6.4,0,9.5,1.5c3.4,1.6,7.1,2.7,10.6,4.1
			c0.1,0,0.2,0,0.3,0.1c0.1,0,0.3,0,0.6,0c4.9-0.9,10.3,1.4,5.8,6.5c-0.7,0.8-1.5,1.5-2.3,2.2c-0.1-0.1-0.4,0-0.4,0.1
			c0,0.1,0,0.2,0,0.3c-1.6,1.4-3.4,2.6-5,3.9c-3.7,3.1-9.7,8.5-14.8,8c-2.1-0.2-9-2.4-4.6-5.1c0.4-0.2,0.1-0.3-0.3-0.3
			c0-0.1-0.2-0.3-0.4-0.4c-3.8-1.8-6.8-4.8-10.5-6.8c-3.1-1.8-6.4-2.9-9.2-5.1c5.7-0.9,10.9-4.1,16.1-6.3
			C63.5,52.9,65,51.9,66.6,51.1z M90.5,69.6c0,0.1,0.2,0.1,0.3,0c-0.2,0.2-0.5,0.4-0.7,0.6c-0.1-0.9-0.2-1.9,0-2.9
			c0-0.1-0.1-0.1-0.2-0.1c0.2-0.1,0.3-0.3,0.5-0.4c0,0,0.1,0,0.1-0.1c0,0.3,0,0.6,0,1C90.5,68.4,90.3,69,90.5,69.6z M84.4,75.5
			c-0.3-1-0.7-2-0.9-3c0.2-0.1,0.4-0.3,0.5-0.4c0.3,1,0.6,2,0.7,3.1c-0.1,0.1-0.1,0.1-0.2,0.2C84.5,75.4,84.5,75.4,84.4,75.5z
			 M83.7,76.2c-0.3-1-1-2-1.3-3c0.2-0.1,0.4-0.3,0.6-0.4c0.2,1.1,0.7,2.1,0.9,3.2C83.9,76,83.8,76.1,83.7,76.2z M74.8,77.7
			c0-0.1-0.1-0.1-0.2-0.1c0.1-0.1,0.3-0.1,0.4-0.2c0.2,0.7,0.5,1.4,0.8,2.1c0.3,0.7,0.3,1.4,0.6,2.1c-0.1,0-0.2,0.1-0.2,0.1
			C75.7,80.5,75.3,79.1,74.8,77.7z M75.7,82c-0.2,0.1-0.3,0.1-0.5,0.2c-0.1-0.7-0.4-1.4-0.5-2c-0.2-0.8-0.4-1.5-0.9-2.1
			c0-0.1-0.2-0.1-0.3,0c0.3-0.1,0.5-0.2,0.8-0.3c0,0,0,0.1,0,0.1C74.9,79.2,75.2,80.6,75.7,82z M76.3,79.5c-0.3-0.7-0.6-1.4-0.8-2.2
			c0,0,0,0,0,0c0.2-0.1,0.4-0.2,0.6-0.3c0.1,0.8,0.4,1.6,0.6,2.3c0.2,0.7,0.3,1.4,0.4,2.1c-0.1,0-0.2,0.1-0.2,0.1
			C76.7,80.8,76.6,80.1,76.3,79.5z M77.2,79.2c-0.2-0.8-0.5-1.6-0.6-2.4c0.2-0.1,0.4-0.2,0.5-0.3c0.2,0.7,0.4,1.5,0.5,2.2
			c0.1,0.7,0.2,1.5,0.3,2.2c-0.1,0.1-0.3,0.2-0.4,0.2C77.5,80.5,77.4,79.9,77.2,79.2z M78.2,78.9c-0.1-0.9-0.4-1.8-0.6-2.7
			c0.2-0.1,0.4-0.2,0.6-0.4c0.2,0.7,0.5,1.3,0.7,2c0.2,0.7,0.2,1.5,0.4,2.3c-0.3,0.2-0.5,0.4-0.8,0.6C78.3,80.1,78.3,79.5,78.2,78.9z
			 M79.5,78c-0.2-0.8-0.5-1.6-0.8-2.4c0.2-0.1,0.4-0.3,0.6-0.4c0.3,1.4,0.4,2.9,0.8,4.3c-0.1,0.1-0.2,0.2-0.4,0.3
			C79.6,79.2,79.6,78.6,79.5,78z M79.7,75C79.7,75,79.7,75,79.7,75c0.2-0.1,0.3-0.2,0.5-0.3c0.2,1.4,0.4,2.9,0.5,4.3
			c-0.1,0.1-0.2,0.1-0.3,0.2C80.2,77.8,80.1,76.4,79.7,75z M80.7,74.3c0.2-0.1,0.3-0.2,0.5-0.3c0.4,1.3,0.5,2.6,0.6,4
			c-0.2,0.2-0.4,0.4-0.6,0.6C81.1,77.1,80.9,75.7,80.7,74.3z M81.7,73.7C81.7,73.7,81.7,73.7,81.7,73.7c0.2-0.1,0.3-0.2,0.4-0.3
			c0.3,1,1,1.9,1.2,2.9c-0.1,0-0.4,0-0.4,0.2c0,0.1,0,0.1,0,0.2c0,0.1,0.1,0.2,0.2,0.1c-0.2,0.2-0.5,0.5-0.7,0.7
			C82.2,76.3,82,75,81.7,73.7z M84.5,71.7c0.2-0.2,0.4-0.3,0.6-0.5c0.1,1.1,0.2,2.1,0.4,3.2c-0.1,0.1-0.2,0.2-0.3,0.3
			C85,73.7,84.8,72.7,84.5,71.7z M85.6,70.9c0.2-0.1,0.3-0.2,0.5-0.4c0,0.6,0,1.1,0,1.7c0,0.4,0,1.1,0.1,1.6C86.1,73.9,86,73.9,86,74
			C85.8,73,85.6,71.9,85.6,70.9z M86.6,73.4c-0.1-0.4,0-1,0-1.3c0-0.6,0-1.3,0-1.9c0,0,0.1-0.1,0.1-0.1c0.1,0.3,0.1,0.7,0.1,1.1
			c0,0.5-0.1,1.3,0.1,1.7c0,0.1,0.3,0,0.4,0C87,73,86.8,73.2,86.6,73.4z M87.3,72.7c0,0,0-0.1,0-0.1c0,0,0,0-0.1,0
			c-0.1-0.4,0-1,0-1.3c0-0.5-0.1-1-0.2-1.5c0.2-0.1,0.3-0.3,0.5-0.4c0,0.9,0.4,1.9,0.4,2.8C87.7,72.3,87.5,72.6,87.3,72.7
			C87.3,72.7,87.3,72.7,87.3,72.7z M88,68.9c0.3-0.2,0.5-0.4,0.7-0.6c0,1,0.1,2,0.2,2.9c-0.2,0.2-0.4,0.3-0.6,0.5
			C88.3,70.8,88,69.9,88,68.9z M89.3,67.9c0.1-0.1,0.3-0.2,0.4-0.3c-0.2,0.9-0.2,1.9,0,2.9c0,0,0.1,0,0.2,0c-0.1,0.1-0.3,0.2-0.4,0.4
			C89.4,69.8,89.3,68.9,89.3,67.9z M62.6,72.3c-0.1,0-0.1,0.1-0.1,0.1c0.1,0.6,0,1.2,0.1,1.8c-0.1,0-0.3,0.1-0.4,0.2
			c-0.1-0.8,0-1.6,0-2.3C62.4,72.2,62.5,72.2,62.6,72.3z M63.8,73.2c0-0.1,0-0.2,0-0.2c0-0.1-0.5,0-0.5,0.1c0,0.2,0,0.4,0,0.6
			c-0.1,0.1-0.1,0.2-0.2,0.2c-0.1-0.5,0-1-0.1-1.5c0.3,0.2,0.6,0.3,1,0.5C63.9,73.1,63.8,73.2,63.8,73.2z M53.8,66.4
			c0,1.2,0.1,2.3,0.4,3.5c-0.2-0.1-0.4-0.2-0.6-0.4c-0.1-1.2-0.2-2.3-0.5-3.5c0.1,0.1,0.3,0.1,0.4,0.2C53.6,66.2,53.7,66.3,53.8,66.4
			z M54.3,66.6c0.3,0.1,0.5,0.3,0.8,0.4c0.1,1.1,0.2,2.2,0.3,3.4c-0.2-0.1-0.3-0.2-0.5-0.3C54.5,69,54.3,67.8,54.3,66.6z M55.6,67.4
			c0.3,0.2,0.6,0.4,0.9,0.6c0,0.6,0,1.2-0.1,1.8c0,0.4,0,0.8,0.1,1.2c-0.2-0.1-0.4-0.2-0.6-0.4C55.7,69.6,55.7,68.5,55.6,67.4z
			 M56.9,69.9c0-0.5,0-1,0-1.6c0.3,0.2,0.5,0.4,0.8,0.6c0,0-0.1,0.1-0.1,0.1c0,0.9,0,1.8,0,2.7c-0.2-0.1-0.3-0.2-0.5-0.3
			C56.9,71,56.9,70.4,56.9,69.9z M58.1,69.2c0.2,0.2,0.4,0.3,0.6,0.5c0,0-0.1,0-0.1,0.1c0,0.7,0,1.3,0,2c0,0.1,0,0.4,0,0.7
			c-0.2-0.1-0.4-0.2-0.6-0.4C58.1,71.1,58.1,70.2,58.1,69.2z M59.2,71.6c0-0.5,0-1.1,0-1.6c0.2,0.2,0.4,0.3,0.6,0.5
			c0,0.6-0.1,1.2-0.1,1.9c0,0.2,0,0.5-0.1,0.8c-0.2-0.1-0.3-0.2-0.5-0.3C59.1,72.3,59.2,71.7,59.2,71.6z M60.6,73.5
			c-0.1,0-0.2,0-0.4,0c0,0,0,0,0,0c0-0.1,0-0.1-0.1-0.1c0-0.4,0.1-1,0.1-1.3c0-0.4,0-0.8,0.1-1.2c0.1,0.1,0.2,0.1,0.2,0.2
			C60.5,71.8,60.5,72.7,60.6,73.5z M51.6,68.2c0,0,0,0.1,0,0.1C51.6,68.3,51.5,68.3,51.6,68.2C51.5,68.2,51.6,68.2,51.6,68.2z
			 M51.5,65.3c0,0.7,0,1.4,0,2c-0.1-0.7-0.3-1.5-0.3-2.2C51.3,65.1,51.4,65.2,51.5,65.3C51.5,65.2,51.5,65.3,51.5,65.3z M46.6,62.7
			c0.2,0.1,0.4,0.2,0.6,0.4c0.2,0.9,0.3,1.9,0.5,2.8c-0.2-0.1-0.3-0.2-0.5-0.4c0,0,0,0,0,0C47.3,64.5,46.8,63.6,46.6,62.7z
			 M47.7,63.3c0.3,0.2,0.6,0.3,0.9,0.5c0,0.9,0,1.8,0.2,2.7c-0.2-0.1-0.3-0.2-0.5-0.3C48.1,65.3,47.9,64.3,47.7,63.3z M49.1,64
			c0.1,0,0.2,0.1,0.3,0.1c0,0-0.1,0.1-0.1,0.1c0.1,0.9,0.2,1.8,0.3,2.8c-0.2-0.1-0.3-0.2-0.5-0.3c0.1,0,0.2-0.1,0.2-0.2
			C49.1,65.7,49.1,64.9,49.1,64z M44.9,61.5c0.4,0.3,0.7,0.5,1.1,0.8c0,0,0,0,0,0c0.1,1,0.7,1.8,0.7,2.8C45.7,64.2,45,63.2,44.9,61.5
			z M50.1,67.4c-0.1-1-0.2-2-0.3-3c0.3,0.1,0.6,0.3,0.9,0.4c0,1.1,0.2,2.1,0.4,3.2c-0.2-0.1-0.3-0.2-0.5-0.3
			C50.4,67.6,50.3,67.5,50.1,67.4z M52.2,68.7c-0.3-1-0.2-2.2-0.2-3.2c0.2,0.1,0.4,0.2,0.5,0.3c0.3,1.1,0.4,2.3,0.5,3.4
			C52.7,69,52.5,68.8,52.2,68.7z M61.3,74.2c0-0.1,0.1-0.1,0.2-0.2c0.1-0.1-0.1-0.2-0.3-0.1C61,73,61,72.1,61,71.3
			c0.3,0.2,0.5,0.4,0.8,0.5c0,0,0,0,0,0c0,0.9-0.1,1.9,0,2.8C61.6,74.5,61.4,74.4,61.3,74.2z M69.9,82.6c-4-0.6-5-2.9-5.6-5.9
			c1.1,0.7,2.7,1.3,3.9,1.6c1.8,0.4,3.6,0.2,5.3-0.3c-0.1,0-0.2,0.1-0.2,0.1c0.4,0.7,0.7,1.4,0.9,2.1c0.2,0.7,0.5,1.4,0.5,2
			c-0.2,0.1-0.5,0.1-0.7,0.2c0,0,0,0,0,0c-0.3-0.5-0.4-1.2-0.5-1.8c-0.2-0.8-0.4-1.5-0.6-2.3c-0.1-0.2-0.5,0-0.5,0.1
			c0.2,0.7,0.4,1.3,0.6,2c0.2,0.7,0.2,1.4,0.6,2.1C72.4,82.8,71.2,82.8,69.9,82.6z M90.9,69.5C90.9,69.5,91,69.5,90.9,69.5
			c-0.1-0.6,0-1.2,0.1-1.7c0-0.4,0-0.9,0-1.3c0.2-0.2,0.4-0.3,0.6-0.5c-0.1,0.7-0.1,1.5-0.1,2.2c0,0.1,0.5,0,0.5-0.1
			c0-0.8,0.1-1.7,0.1-2.5c0.3-0.2,0.5-0.4,0.8-0.7c-0.1,0.9-0.1,1.7,0,2.6c0,0.1,0.1,0.1,0.2,0.1C92.4,68.2,91.7,68.9,90.9,69.5z
			 M93.4,67.3c-0.1-1,0-1.9,0-2.9c0.2-0.2,0.4-0.3,0.6-0.5c-0.1,0.9-0.3,2,0,2.8c-0.1,0.1-0.2,0.3-0.4,0.4
			C93.5,67.2,93.5,67.3,93.4,67.3z M95.1,65.2c0.2-0.9,0.3-1.7,0.3-2.6c0,0,0,0,0,0c0.1-0.1,0.2-0.2,0.3-0.3
			C95.7,63.3,95.6,64.2,95.1,65.2z"/>
		<path fill="#583214" d="M35.4,27.8c-0.3-0.2-0.8-0.1-1.1,0.1C34,28,34.4,28,34.5,27.9c0.2-0.1,0.5,0.1,0.6,0.2
			c0.2,0.2,0.2,0.5,0.1,0.7c-0.2,0.6-1.1-0.6-1.2-0.8c0-0.1-0.5,0-0.5,0.1c0.3,0.8,1.4,1.4,2.1,0.7C36.1,28.5,35.8,28,35.4,27.8z"/>
		<path fill="#583214" d="M34,24c0.2-0.2,0.3-0.6,0.2-0.9c-0.2-0.3-0.8-0.1-1.1,0c-0.3,0.1,0,0.2,0.2,0.1c0.6-0.2,0.6,0.3,0.4,0.7
			c-0.1,0.1-0.3,0.4-0.3,0.4c-0.2-0.1-0.3-0.4-0.3-0.6c0-0.1-0.5,0-0.5,0.1c0.1,0.4,0.2,0.7,0.7,0.7C33.5,24.4,33.8,24.2,34,24z"/>
		<path fill="#583214" d="M38.3,32.1c-0.4-0.1-0.8-0.1-1.2,0.1c-0.1,0-0.1,0.1-0.1,0.1c-0.1-0.1-0.1-0.2-0.1-0.2c0-0.2-0.5,0-0.5,0.1
			c0.2,0.8,1.4,1.4,2.1,0.8C38.8,32.7,38.7,32.3,38.3,32.1z M37.9,33c-0.3-0.1-0.6-0.3-0.8-0.6c0.1,0,0.2,0,0.3,0
			c0.2-0.1,0.4-0.1,0.6-0.1C38.2,32.4,38.3,33.1,37.9,33z"/>
		<path fill="#583214" d="M53.4,25.1c-0.1,0.9,0,2.6,1.3,2c0.4-0.2,0.6-0.8,0.5-1.2c-0.1-0.6-0.7-0.7-1.2-0.6c-0.1,0-0.2,0.1-0.2,0.1
			c0-0.1,0-0.3,0-0.4C53.9,24.8,53.4,24.9,53.4,25.1z M54.1,25.5c1.1-0.3,0.6,1.6,0.1,1.3c-0.4-0.2-0.4-0.9-0.4-1.4
			C53.9,25.5,53.9,25.6,54.1,25.5z"/>
		<path fill="#583214" d="M45.1,24.7c-0.4,0-0.7,0.2-1,0.5c-0.1,0-0.3,0.1-0.3,0.2c0,0.1,0,0.1,0,0.2c0,0,0,0.1,0,0.1
			c0,0.1,0,0.1,0.1,0.1c0.2,0.5,0.5,0.8,1.1,0.8c0.7,0,1.1-0.6,1.1-1.2C46.1,24.8,45.6,24.6,45.1,24.7z M44.9,26.2
			c-0.3-0.1-0.4-0.4-0.5-0.7c0.2-0.5,1-0.9,1.2-0.2C45.7,25.8,45.4,26.5,44.9,26.2z"/>
		<path fill="#583214" d="M40.7,24c0.1,0,0.3,0,0.4-0.1c0.1-0.2,0.4-0.9,0-0.9c-0.2,0-0.4,0.1-0.5,0.2c-0.1,0-0.1,0.1,0,0.1
			c0,0,0,0,0,0c0,0,0.1,0,0.2,0c0,0.1,0,0.3-0.1,0.4c-0.1-0.1-0.2-0.2-0.3-0.4c-0.1-0.1-0.5,0-0.5,0.1C40.2,23.8,40.3,24,40.7,24z"/>
		<path fill="#583214" d="M43,28.6c-0.1-0.1-0.3,0-0.4,0.1c-0.2,0.3-0.2,0.4,0,0.7c0,0.1,0.1,0.1,0.2,0.1c0,0.3,0,0.4,0.5,0.5
			c0.1,0,0.3-0.1,0.3-0.2C43.7,29.2,43.5,28.9,43,28.6z"/>
		<path fill="#583214" d="M40.3,26.7c-0.1-0.1-0.4,0-0.4,0.1c0,0.1-0.1,0.1-0.1,0.1c-0.1,0-0.4,0.1-0.4,0.2c0.1,0.2,0.2,0.3,0.3,0.5
			c0,0,0,0.1,0,0.1c0,0,0.1,0,0.2,0c0,0,0.1,0,0.1,0.1c0.1,0.1,0.4,0,0.5-0.1C40.6,27.3,40.7,27.1,40.3,26.7z"/>
		<path fill="#583214" d="M49,35.4c0.4-0.5,0.1-2-0.7-2c-0.4,0-0.7,0.1-1,0.4c-0.3,0.3-0.1,0.9,0.3,1c0,0,0.1,0,0.1,0
			c0.3,0.2,0.5,0.5,0.8,0.7C48.6,35.6,48.9,35.5,49,35.4z M48,33.6c0.1,0,0.3,0.2,0.3,0.3c0.3,0.3,0.4,0.8,0.3,1.3
			c-0.2-0.2-0.5-0.4-0.7-0.6c0,0-0.1,0-0.1,0c-0.1-0.1-0.2-0.3-0.2-0.4C47.7,33.9,47.8,33.5,48,33.6z"/>
		<path fill="#583214" d="M48,26.5c-0.1,0.1,0,0.2,0.2,0.2c0.1,0.4,0.4,0.7,0.8,0.8c0.1,0,0.3,0,0.4-0.2C49.7,26.4,48.6,25.9,48,26.5
			z M48.7,26.5c0.1,0,0.2,0.2,0.2,0.4C48.8,26.8,48.7,26.7,48.7,26.5z"/>
		<path fill="#583214" d="M51.9,18.7c0.1-0.2,0.2-0.6,0-0.8c-0.2-0.2-0.5-0.1-0.8,0c0,0,0-0.1,0-0.1c0-0.1-0.5,0-0.5,0.1
			c0,0.3,0.1,1.2,0.5,1.2C51.5,19.2,51.8,19,51.9,18.7z M51.5,18.7c0,0.1-0.1,0.1-0.1,0.1c-0.2-0.2-0.2-0.5-0.2-0.7
			C51.6,17.9,51.6,18.4,51.5,18.7z"/>
		<path fill="#583214" d="M41.4,15.9c0.5,0,1.1-0.3,1.1-0.9c0-0.5-0.3-1.1-0.7-1.3c-0.5-0.2-0.8,0.2-1,0.6c0,0.1,0.4,0.1,0.5-0.1
			c0-0.1,0.2-0.3,0.1-0.4c0.1,0,0.2,0.2,0.3,0.2c0.2,0.2,0.3,0.5,0.3,0.8c0.1,0.4-0.2,0.8-0.7,0.6c-0.4-0.2-0.7-0.6-0.9-1
			c-0.1-0.1-0.5,0-0.5,0.1C40.2,15.2,40.8,15.9,41.4,15.9z"/>
		<path fill="#583214" d="M51.1,12.1c0,0.1,0,0.1,0.1,0.1c0.3,0.3,0.6,0.6,0.9,0.8c0.4,0.2,0.9,0.1,1-0.4c0.2-1.1-1.3-1.8-1.8-1
			c-0.2,0-0.4,0.1-0.3,0.2C50.9,11.9,51,12,51.1,12.1C51.1,12.1,51.1,12.1,51.1,12.1z M52.2,11.7c0.3,0.3,0.4,0.7,0.4,1
			c0,0.2-0.5-0.3-0.6-0.4c-0.1-0.1-0.2-0.3-0.4-0.4c0-0.1,0-0.2,0.1-0.4C51.8,11.4,52.1,11.6,52.2,11.7z"/>
		<path fill="#583214" d="M56.9,13.3c-0.3-0.2-0.7-0.1-0.9,0.1c0-0.1-0.1-0.1-0.1-0.2c-0.1-0.2-0.5,0-0.5,0.1
			c0.2,0.6,1.2,1.6,1.8,0.8C57.4,13.9,57.1,13.4,56.9,13.3z M56.7,14.1c-0.2-0.1-0.4-0.3-0.6-0.5c0.1,0,0.1,0,0.1-0.1
			c0.2-0.2,0.4,0.1,0.5,0.2C56.7,13.9,56.9,14.2,56.7,14.1z"/>
		<path fill="#583214" d="M27.3,15.3c-0.1,0-0.1,0.1-0.1,0.1c0,0.4,0,0.7,0.3,1c0.1,0.1,0.4,0,0.5-0.1c0.2-0.4,0.2-0.8-0.2-1.1
			C27.7,15.1,27.4,15.2,27.3,15.3z"/>
		<path fill="#583214" d="M33.2,16.4c0-0.2-0.5-0.1-0.5,0.1c0.1,0.5,0.4,0.8,0.9,0.8c0.1,0,0.3,0,0.3-0.1c0.4-0.9-0.2-1.9-1.2-1.4
			c-0.3,0.2,0,0.3,0.2,0.2c0.5-0.3,0.7,0.5,0.6,0.9C33.4,16.9,33.3,16.7,33.2,16.4z"/>
		<path fill="#583214" d="M52.7,62.1c0.3,0.1,0.6-0.1,0.8-0.3c0.1-0.1,0.3-0.5,0.1-0.7c-0.2-0.3-0.8-0.1-1,0c0,0,0,0,0,0
			c0-0.1,0-0.2-0.1-0.3c0-0.1-0.5,0-0.5,0.1C52.1,61.4,52.3,62,52.7,62.1z M52.8,61.3c0.4-0.1,0.6,0.1,0.4,0.5
			c-0.1,0.2-0.1,0.2-0.3,0c-0.1-0.1-0.2-0.3-0.3-0.5C52.7,61.3,52.7,61.3,52.8,61.3z"/>
		<path fill="#583214" d="M57.3,61.7C57.3,61.7,57.3,61.7,57.3,61.7c0.2,0.4,0.5,0.7,0.9,0.7c0.3-0.1,0.5-0.4,0.5-0.7
			c0.1-0.3,0-0.7-0.3-0.8c-0.3-0.1-0.6,0-0.9,0.2c0-0.9,0-1.7,0-2.6c0-0.3-0.5-0.2-0.5,0c0,0.9,0,1.9,0,2.8c0,0,0,0.1,0.1,0.1
			C57,61.5,57.1,61.7,57.3,61.7z M58.3,61.6c0,0.7-0.3,0.3-0.5-0.1c0,0,0,0-0.1,0C58,61.2,58.3,61,58.3,61.6z"/>
		<path fill="#583214" d="M60.8,56.8c0.2-0.1,0.4-0.3,0.5,0c0,0.2,0,0.4-0.1,0.6c0,0.1-0.1,0.2-0.2,0.3c0,0,0,0,0,0
			c-0.1-0.2,0-0.6,0-0.8c0-0.2-0.5-0.1-0.5,0.1c0,0.3-0.1,1.1,0.3,1.1c0.4,0,0.6-0.3,0.8-0.6c0.1-0.3,0.3-0.7,0.1-1
			c-0.3-0.4-0.9,0-1.2,0.1C60.2,56.8,60.6,56.9,60.8,56.8z M60.9,57.8C60.9,57.9,60.9,57.9,60.9,57.8L60.9,57.8z"/>
		<path fill="#583214" d="M63.1,62.9c0.4,0,0.8-0.1,0.9-0.6c0.3-1-0.8-1-1.4-0.4c0,0,0-0.1,0-0.1c0-0.1-0.5,0-0.5,0.1
			C62.2,62.4,62.6,62.9,63.1,62.9z M62.9,62.2c0.1-0.2,0.3-0.6,0.6-0.4c0.2,0.1,0.1,0.6,0.1,0.8c-0.1,0.3-0.4,0-0.6-0.1
			C62.9,62.4,62.9,62.3,62.9,62.2C62.8,62.2,62.9,62.2,62.9,62.2z"/>
		<path fill="#583214" d="M63.5,66.2c-0.1-0.2-0.5,0-0.5,0.1c0.1,0.3,0.4,0.9,0.8,0.9c0.3,0,0.6-0.2,0.7-0.4c0.1-0.2,0.1-0.5-0.1-0.6
			c-0.3-0.1-0.7,0.1-0.9,0.2C63.5,66.3,63.5,66.2,63.5,66.2z M63.8,66.5c0.1-0.1,0.2-0.3,0.3-0.1c0,0.1,0,0.2,0,0.3
			c0,0.1-0.1,0.1-0.1,0.2c0,0,0,0-0.1-0.1c-0.1-0.1-0.2-0.2-0.2-0.3C63.7,66.6,63.8,66.5,63.8,66.5z"/>
		<path fill="#583214" d="M70.4,66.8C70.4,66.8,70.4,66.8,70.4,66.8c-0.1,0-0.4,0.2-0.3,0.3c0.4,0.7,1.8,1.2,2.1,0.1
			C72.5,66,70.8,65.7,70.4,66.8z M71.6,67.5c-0.3,0.3-1-0.4-1.1-0.6c0,0,0,0-0.1,0c0.1,0,0.4,0,0.4-0.1
			C71.2,65.8,72.1,66.9,71.6,67.5z"/>
		<path fill="#583214" d="M71.7,59.2c-0.1,0.1,0.3,0.1,0.4,0c0.4,0.4,1,0.9,0.8,1.6c0,0.2-0.2,0.3-0.4,0.2c-0.3-0.1-0.4-0.5-0.4-0.8
			c0-0.2-0.5,0-0.5,0.1c0.1,0.4,0.3,0.9,0.8,1c0.3,0.1,0.8-0.1,0.9-0.4C73.8,59.9,72.2,58,71.7,59.2z"/>
		<path fill="#583214" d="M70.4,55.3c0,0-0.4-0.6-0.2-0.6c0.2-0.1,0.6,0,0.8,0.1c0.2,0.1,0.4,0.3,0.5,0.5c0.1,0.2,0.1,0.4,0,0.6
			c-0.2,0.3-0.4-0.1-0.5-0.3c-0.1-0.1-0.5,0-0.5,0.1c0.2,0.6,0.8,0.6,1.3,0.3c0.5-0.4,0.2-1.1-0.2-1.4c-0.7-0.4-2.6-0.3-1.6,0.8
			C70.1,55.6,70.5,55.4,70.4,55.3z"/>
		<path fill="#583214" d="M82.8,60.5c-0.3-0.3-0.7-0.3-1-0.2c-0.1-0.1-0.5,0-0.4,0.2c0,0.1,0,0.2,0.1,0.3c0,0.1,0,0.1,0,0.2
			c0,0,0,0.1,0.1,0.1c0.2,0.7,0.6,1.4,1.3,1.8c0.1,0.1,0.4,0,0.4-0.1C83.7,62,83.5,61,82.8,60.5z M81.8,60.6c0-0.1,0.1-0.2,0.3-0.1
			c0.2,0.1,0.4,0.3,0.6,0.5c0.3,0.4,0.4,1,0.2,1.4C82.3,62,81.9,61.3,81.8,60.6z"/>
		<path fill="#583214" d="M79.2,66.5c0.1-0.9,1.4-1.3,1.7-0.3c0.1,0.4,0,0.9-0.5,0.9c-0.4,0-0.7-0.4-0.7-0.8c0-0.3-0.5-0.2-0.5,0
			c0,1.4,2.3,1.4,2.2,0c-0.2-1.7-2.5-1.3-2.7,0.2C78.7,66.8,79.2,66.7,79.2,66.5z"/>
		<path fill="#583214" d="M35.2,44.9c-0.2,0.2,0.3,0.2,0.4,0.1c0.4-0.4,0.8-0.3,1,0.3c0.1,0.3,0.1,0.7,0,1.1
			c-0.3-0.1-0.6-0.3-0.8-0.6c-0.1-0.2-0.6,0-0.4,0.2c0.3,0.4,0.7,0.7,1.2,0.8c0.1,0,0.3,0,0.4-0.1c0.3-0.6,0.3-1.4-0.2-1.9
			C36.3,44.2,35.6,44.5,35.2,44.9z"/>
		<path fill="#583214" d="M40.6,39.8C40.5,39.8,40.5,39.8,40.6,39.8C40.5,39.8,40.5,39.8,40.6,39.8c-0.1,0-0.1,0-0.1,0
			c0,0-0.1,0-0.1,0.1c0,0,0,0,0,0c0,0-0.1,0.1-0.1,0.1c0,1.1,0.6,2.1,1.7,2.3c0.1,0,0.3,0,0.4-0.1C43.1,41,41.9,39.5,40.6,39.8z
			 M40.8,40c0.9-0.1,1.5,1.1,1.2,2C41.2,41.7,40.8,40.9,40.8,40z"/>
		<path fill="#583214" d="M49.6,47.3c0.5,0.3,0.9,0,1.2-0.4c0.7-1.2-1-1.5-1.8-1.2c-0.3,0.1-0.1,0.3,0.1,0.3
			C49.1,46.4,49.3,47,49.6,47.3z M50.5,46.5c0,0.1-0.2,0.6-0.4,0.5c-0.1-0.1-0.2-0.3-0.3-0.4c-0.1-0.2-0.2-0.5-0.1-0.8
			C50.1,45.8,50.5,46,50.5,46.5z"/>
		<path fill="#583214" d="M57.3,40.5c-0.4,0-0.5-0.7-0.5-0.9c0-0.2-0.5-0.1-0.5,0.1c0.1,0.4,0.3,1,0.8,1.1c0.4,0,0.8-0.2,1-0.5
			c0.3-0.3,0.4-0.8,0.3-1.2c-0.2-0.6-0.9-0.7-1.4-0.8c-0.2,0-0.5,0.3-0.2,0.3c0.8,0.1,1.4,0.6,1,1.4C57.7,40.2,57.5,40.5,57.3,40.5z"
			/>
		<path fill="#583214" d="M57.8,31.5c0,0-0.1,0-0.1,0c0,0,0,0,0,0c0-0.2-0.5-0.1-0.5,0.1c0.2,0.8,0.6,1.1,1.4,0.8
			c0.1,0,0.2-0.1,0.2-0.2C58.7,31.6,58.4,31.7,57.8,31.5z M57.8,31.9c0.2,0,0.4,0,0.5,0.3C58,32.2,57.8,32.1,57.8,31.9z"/>
		<path fill="#583214" d="M20.8,46.9c1.8,1.5,3.8,2.6,5.6,4.1c0.1,0.1,0.5-0.1,0.5-0.2c-1.8-1.4-3.8-2.6-5.6-4.1
			C21.1,46.7,20.7,46.8,20.8,46.9z"/>
		<path fill="#583214" d="M23,45.7c-0.1-0.2-0.6,0-0.4,0.2c1,1.4,2.7,2.1,4.1,3c0.2,0.1,0.6-0.1,0.4-0.3C25.7,47.8,24,47.1,23,45.7z"
			/>
		<path fill="#583214" d="M23.4,44.6C23.4,44.6,23.4,44.6,23.4,44.6c0,0.1,0,0.1,0.1,0.1c0.9,0.8,2.1,1.3,3,2
			c0.1,0.1,0.6-0.1,0.4-0.2c-0.3-0.3-0.7-0.5-1.1-0.7c0,0,0,0,0,0c0.2-0.2,0.3-0.5,0.4-0.7c0.1,0,0.2,0.1,0.2,0.1
			c0.1,0.1,0.6-0.1,0.4-0.2c-0.8-0.5-1.6-0.9-2.3-1.4c0.1-0.1,0.2-0.3,0.3-0.4c0.1-0.2-0.4-0.1-0.4,0c0,0.1-0.1,0.1-0.1,0.2
			c-0.2-0.2-0.4-0.3-0.6-0.5c-0.1-0.1-0.6,0-0.4,0.2c0.2,0.3,0.5,0.5,0.7,0.7c-0.2,0.2-0.3,0.3-0.5,0.5c-0.2,0-0.5,0.1-0.4,0.2
			C23.3,44.5,23.3,44.5,23.4,44.6z M26.1,44.9c-0.1,0-0.2,0.1-0.2,0.1c-0.1,0.2-0.2,0.4-0.3,0.6c-0.6-0.4-1.2-0.7-1.7-1.2
			c0.1-0.2,0.2-0.4,0.4-0.6C24.9,44.2,25.5,44.6,26.1,44.9z"/>
		<path fill="#583214" d="M9.9,24.3c0,0.1,0.3,0.1,0.4,0c-0.3,1-0.6,2-0.6,3.1c0,0.1,0.5,0,0.5-0.1c0-1.2,0.3-2.3,0.7-3.4
			c0,0,0,0,0,0.1c0,0.1,0.5,0,0.5-0.1c-0.1-0.2-0.1-0.4-0.2-0.6c0-0.1,0.1-0.2,0.1-0.3c0,0-0.1,0-0.2,0c0-0.1-0.1-0.2-0.1-0.4
			c0.1,0,0.2-0.1,0.2-0.2c-0.3-0.8-0.8-1.5-1.2-2.3c-0.1-0.2-0.6,0-0.4,0.2c0.2,0.4,0.4,0.7,0.6,1.1c0,0,0,0,0,0
			c0.2,0.6,0.4,1.3,0.6,2c-0.1,0.3-0.2,0.5-0.3,0.8c-0.3-1-0.5-2.1-0.8-3.1c-0.1-0.2-0.5-0.1-0.5,0.1c0.2,0.8,0.4,1.6,0.6,2.4
			c-0.1,0-0.4,0-0.4,0.1c-0.3,0.8-0.6,1.6-0.8,2.5c0,0.1,0.5,0,0.5-0.1c0.1-0.8,0.4-1.6,0.7-2.4C9.8,23.9,9.8,24.1,9.9,24.3z"/>
		<path fill="#583214" d="M21.6,10c-0.4,0.6-0.9,1.3-1.3,1.9c-0.1,0.2,0.4,0.1,0.4,0c0.4-0.7,0.9-1.3,1.3-1.9
			C22.2,9.8,21.7,9.8,21.6,10z"/>
		<path fill="#583214" d="M21.6,9.2c0.1-0.1-0.3,0-0.4,0c-0.4,0.4-0.9,0.7-1.1,1.2c0,0.1,0.4,0,0.5-0.1C20.8,9.9,21.2,9.6,21.6,9.2z"
			/>
		<path fill="#583214" d="M14.3,6.8c-0.7,0.8-1.2,1.8-1.5,2.8c-0.1,0.2,0.4,0.2,0.5,0c0.2-1,0.7-1.9,1.4-2.7
			C14.9,6.7,14.4,6.7,14.3,6.8z"/>
		<path fill="#583214" d="M12.7,6.5c-0.6,0.7-0.8,1.6-1.1,2.4c0,0.1,0.4,0,0.5-0.1c0.3-0.8,0.4-1.7,1-2.4C13.3,6.4,12.8,6.4,12.7,6.5
			z"/>
		<path fill="#583214" d="M12.1,6.3C12.4,6.1,12,6,11.8,6.1c-0.4,0.3-0.7,0.7-1,1.2c-0.3,0.5-0.5,1.1-0.9,1.4
			C9.7,8.9,10.1,9,10.2,8.9C11.1,8.2,11.2,6.9,12.1,6.3z"/>
		<path fill="#583214" d="M10.3,5.7C9.8,6.6,9.4,7.6,8.7,8.3C8.6,8.6,9,8.6,9.1,8.4c0.7-0.8,1.1-1.8,1.6-2.7
			C10.8,5.5,10.4,5.5,10.3,5.7z"/>
		<path fill="#583214" d="M9,5.6C8.5,6.4,8,7.2,7.5,8.1C7.4,8.3,7.9,8.2,8,8.1c0.4-0.9,0.9-1.7,1.5-2.4C9.6,5.5,9.1,5.5,9,5.6z"/>
		<path fill="#583214" d="M7.7,5.3C7.3,5.9,6.9,6.5,6.6,7.1C6.5,7.2,7,7.2,7.1,7c0.3-0.6,0.7-1.2,1.1-1.8C8.3,5.1,7.8,5.2,7.7,5.3z"
			/>
		<path fill="#583214" d="M5.7,7C6.1,6.2,6.5,5.3,7,4.5c0.1-0.2-0.4-0.2-0.5,0C6,5.3,5.6,6.1,5.2,6.9C5.1,7.2,5.6,7.1,5.7,7z"/>
		<path fill="#583214" d="M69.8,79.4c0.1,0,0.5-0.2,0.2-0.2c-1.3,0.1-2.8,0.2-3.9-0.6c-0.1-0.1-0.5,0.1-0.5,0.2
			C66.8,79.7,68.4,79.5,69.8,79.4z"/>
		<path fill="#583214" d="M70,80.1c0.2,0,0.4-0.3,0.1-0.2c-1.1,0.2-2.3,0.5-3.4-0.1c-0.1-0.1-0.6,0.1-0.4,0.2
			C67.5,80.6,68.8,80.3,70,80.1z"/>
		<path fill="#583214" d="M71.5,79.5c0.2,0.4,0.4,0.9,0.5,1.4c-0.1,0-0.2,0.1-0.3,0.1c-0.2-0.3-0.3-0.7-0.5-1
			c-0.1-0.2-0.5-0.1-0.5,0.1c0.1,0.4,0.3,0.7,0.5,1c-1.3,0.3-2.7,0.5-3.7-0.2c-0.1-0.1-0.6,0.1-0.4,0.2c1.2,0.8,2.8,0.6,4.2,0.2
			c0,0,0,0,0,0c0.1,0.2,0.6,0.1,0.5-0.1c0,0,0,0,0,0c0.1,0,0.2-0.1,0.3-0.1c0.1,0.2,0.2,0.4,0.2,0.7c-0.1-0.1-0.2-0.1-0.3-0.1
			c-0.8,0.3-1.5,0.3-2.3,0.1c-0.2-0.1-0.6,0.2-0.3,0.3c0.9,0.3,1.9,0.3,2.8-0.1c0.1-0.1,0.2-0.1,0.1-0.2c0,0,0,0,0,0
			c0.1,0.2,0.5,0,0.5-0.1c-0.3-0.8-0.5-1.6-0.9-2.3C71.9,79.2,71.4,79.4,71.5,79.5z"/>
		<path fill="#583214" d="M42.1,54.5c-0.8,0.1-1.7,0.3-2.5,0.5C40.5,54.8,41.3,54.6,42.1,54.5z"/>
		<path fill="#583214" d="M55.6,62.2c0-1-0.1-1.9,0-2.9c0-0.2-0.5-0.1-0.5,0.1c-0.1,1,0,1.9,0,2.9C55.1,62.4,55.6,62.3,55.6,62.2z"/>
		<path fill="#583214" d="M56.6,61.8c-0.1-0.9-0.2-1.7-0.1-2.6c0-0.3-0.5-0.2-0.5,0c-0.1,0.9,0,1.8,0.1,2.7
			C56.1,62.2,56.6,62.1,56.6,61.8z"/>
		<path fill="#583214" d="M58.6,60.3c0.2-0.6,0.1-1.1,0.1-1.7c0-0.2-0.5-0.1-0.5,0.1c0.1,0.6,0.1,1.1-0.1,1.6
			C58,60.6,58.5,60.5,58.6,60.3z"/>
		<path fill="#583214" d="M66.9,65.3c0-0.7-0.1-1.4-0.1-2.2c0-0.2-0.5-0.1-0.5,0.1c0.1,0.7,0.1,1.4,0.1,2.1
			C66.5,65.6,66.9,65.5,66.9,65.3z"/>
		<path fill="#583214" d="M67.9,65.9c-0.2-0.9,0-1.8-0.2-2.7c0-0.1-0.5,0-0.5,0.1c0.2,0.9,0,1.8,0.2,2.7C67.5,66.2,68,66.1,67.9,65.9
			z"/>
		<path fill="#583214" d="M69.2,66c0-1.2,0.1-2.4,0.1-3.6c0-0.2-0.5-0.1-0.5,0.1c0,1.2-0.1,2.4-0.1,3.6C68.8,66.2,69.2,66.1,69.2,66z
			"/>
		<path fill="#583214" d="M70.5,65.5c0-1.1,0-2.2,0-3.3c0-0.2-0.5-0.1-0.5,0.1c0,1.1,0,2.2,0,3.3C70,65.8,70.5,65.7,70.5,65.5z"/>
		<path fill="#583214" d="M72.1,62.3c0-0.1-0.5,0-0.5,0.1c0,1-0.1,2-0.3,2.9c0,0,0.5,0,0.5-0.1C72,64.2,72.1,63.2,72.1,62.3z"/>
		<path fill="#583214" d="M73.3,63.1c-0.1-0.2-0.5,0-0.5,0.1c0.2,0.6,0.1,1.1-0.1,1.7c-0.1,0.2,0.4,0.1,0.5-0.1
			C73.4,64.3,73.5,63.8,73.3,63.1z"/>
		<path fill="#583214" d="M68.8,72.3c0,0.9,0,1.8,0,2.6c0,0.2,0.5,0.1,0.5-0.1c0-0.9,0-1.8,0-2.6C69.3,72,68.8,72.1,68.8,72.3z"/>
		<path fill="#583214" d="M70.5,71.5c0,1.4,0,2.9,0,4.3c0,0.2,0.5,0.2,0.5,0c0-1.4,0-2.9,0-4.3C71,71.2,70.5,71.3,70.5,71.5z"/>
		<path fill="#583214" d="M72.1,70.6c0,1.6,0.1,3.2-0.1,4.8c0,0.1,0.5,0,0.5-0.1c0.2-1.6,0.1-3.2,0.1-4.8
			C72.6,70.4,72.1,70.5,72.1,70.6z"/>
		<path fill="#583214" d="M73,70.5c0.2,1.5,0,3,0,4.5c0,0.2,0.5,0.2,0.5,0c0-1.5,0.2-3,0-4.5C73.5,70.2,73,70.3,73,70.5z"/>
		<path fill="#583214" d="M74.6,74.6c0-1.3,0-2.7,0-4c0-0.2-0.5-0.2-0.5,0c0,1.3,0,2.7,0,4C74.1,74.8,74.6,74.8,74.6,74.6z"/>
		<path fill="#583214" d="M76.2,73.6c-0.1-0.9-0.1-1.8-0.1-2.7c0-0.2-0.5-0.1-0.5,0c0,0.9,0.1,1.9,0.1,2.8
			C75.8,73.9,76.3,73.8,76.2,73.6z"/>
		<path fill="#583214" d="M77.6,72.8c-0.2-0.7,0-1.5,0-2.3c0-0.2-0.5-0.1-0.5,0.1c0,0.8-0.2,1.6,0,2.4C77.1,73.1,77.6,72.9,77.6,72.8
			z"/>
		<path fill="#583214" d="M79.1,71.5c0-0.3-0.1-0.7-0.1-1c0-0.1-0.5,0-0.5,0.1c0,0.3,0.1,0.7,0.1,1C78.6,71.8,79.1,71.7,79.1,71.5z"
			/>
		<path fill="#583214" d="M79.8,58.6c0.8-0.6,1.6-1,2.3-1.7c0.1-0.1-0.3,0-0.4,0c-0.7,0.6-1.5,1.1-2.3,1.7
			C79.2,58.7,79.7,58.6,79.8,58.6z"/>
		<path fill="#583214" d="M80.6,59.5c1.1-0.6,2.1-1.2,2.8-2.1c0.1-0.2-0.4-0.1-0.4,0c-0.7,0.9-1.7,1.5-2.7,2
			C80,59.5,80.4,59.6,80.6,59.5z"/>
		<path fill="#583214" d="M82.4,59.6c0.7-0.5,1.5-0.9,2-1.6c0.2-0.3-0.3-0.3-0.4-0.2c-0.5,0.7-1.3,1.1-2,1.5
			C81.8,59.5,82.2,59.7,82.4,59.6z"/>
		<path fill="#583214" d="M83.4,60.2c1.4-0.4,2.8-1.3,3.7-2.5c0,0-0.4,0-0.5,0.1c-0.8,1.1-2.1,1.9-3.3,2.3
			C82.9,60.2,83.2,60.2,83.4,60.2z"/>
		<path fill="#583214" d="M84.5,60.8c-0.3,0.1-0.2,0.4,0.1,0.3c1.5-0.4,3.2-1.6,3.9-3c0.1-0.2-0.4-0.2-0.5,0
			C87.4,59.4,85.9,60.4,84.5,60.8z"/>
		<path fill="#583214" d="M85.5,61.5c-0.3,0.1-0.2,0.4,0.1,0.3c1.5-0.3,2.8-1.4,3.8-2.6c0.2-0.2-0.3-0.3-0.4-0.1
			C88,60.2,86.9,61.2,85.5,61.5z"/>
		<path fill="#583214" d="M86.2,62.3c-0.3,0-0.4,0.4,0,0.3c1.6-0.2,3.4-1.4,4.3-2.8c0.1-0.2-0.4-0.2-0.5,0
			C89.2,61,87.6,62.1,86.2,62.3z"/>
		<path fill="#583214" d="M86.5,63.6c-0.2,0-0.4,0.2-0.1,0.2c0.8-0.2,1.6-0.5,2.4-0.9c1-0.6,1.5-1.4,2.2-2.2c0.1-0.1-0.4-0.1-0.4,0
			c-0.4,0.4-0.7,1-1.1,1.4C88.7,62.9,87.5,63.5,86.5,63.6z"/>
		<path fill="#583214" d="M86.4,65.2c-0.2,0-0.4,0.3-0.1,0.3c1.2-0.1,2.1-0.7,3.1-1.2c0.9-0.5,1.9-1,2.5-1.9c0.1-0.2-0.4-0.2-0.5,0
			c-0.4,0.7-1.2,1.1-1.9,1.5C88.6,64.4,87.6,65.1,86.4,65.2z"/>
		<path fill="#583214" d="M84.8,67.3c-0.5,0.3-1,0.4-1.5,0.3c-0.2,0-0.6,0.2-0.3,0.3c0.7,0.2,1.5-0.1,2.1-0.4
			C85.4,67.3,85,67.2,84.8,67.3z"/>
		<path fill="#583214" d="M47.2,49.7c0.3,0.5,0.6,0.9,0.7,1.5c0.1,0.2,0.5,0.1,0.5-0.1c-0.1-0.6-0.4-1.1-0.8-1.5
			C47.5,49.3,47,49.5,47.2,49.7z"/>
		<path fill="#583214" d="M48.6,49.7c0.3,0.6,0.6,1.2,0.9,1.8c0.1,0.1,0.5-0.1,0.5-0.1c-0.3-0.6-0.7-1.1-0.9-1.8
			C49,49.5,48.5,49.6,48.6,49.7z"/>
		<path fill="#583214" d="M49.7,48.7c0.4,1.1,1,2.1,1.4,3.1c0,0.1,0.5,0,0.5-0.1c-0.4-1.1-1-2-1.4-3.1C50.1,48.5,49.7,48.6,49.7,48.7
			z"/>
		<path fill="#583214" d="M51.1,47.9c0.1,1.4,0.9,2.7,1.4,4c0.1,0.2,0.6,0,0.5-0.1c-0.5-1.3-1.3-2.6-1.4-4
			C51.5,47.6,51.1,47.7,51.1,47.9z"/>
		<path fill="#583214" d="M52.3,46.5c0.2,1.7,1.2,3,1.6,4.6c0,0.2,0.5,0.1,0.5-0.1c-0.3-1.6-1.4-3-1.6-4.6
			C52.7,46.2,52.2,46.3,52.3,46.5z"/>
		<path fill="#583214" d="M53.6,44.9c0.7,2,1.5,3.9,2.1,5.9c0,0.1,0.5,0,0.5-0.1c-0.6-2-1.4-3.9-2.1-5.9C54,44.6,53.5,44.8,53.6,44.9
			z"/>
		<path fill="#583214" d="M56.3,45.3c0.8,1.9,1.3,3.9,1.9,5.8c0.1,0.2,0.5,0,0.5-0.1c-0.7-1.9-1.2-3.9-1.9-5.8
			C56.7,45,56.2,45.2,56.3,45.3z"/>
		<path fill="#583214" d="M57.6,45.6c0.6,1.5,1.1,3,1.7,4.5c0.1,0.2,0.6,0.1,0.5-0.1c-0.6-1.5-1.1-3-1.7-4.5
			C58,45.2,57.6,45.4,57.6,45.6z"/>
		<path fill="#583214" d="M58.6,44.2c0.4,1.8,1.3,3.4,1.8,5.1c0.1,0.2,0.5,0.1,0.5-0.1c-0.5-1.8-1.4-3.4-1.8-5.1
			C59,43.9,58.5,44,58.6,44.2z"/>
		<path fill="#583214" d="M59.5,43.4c0.5,1.4,1.1,2.8,1.6,4.2c0.1,0.2,0.6,0.1,0.5-0.1c-0.5-1.4-1.1-2.8-1.6-4.2
			C59.9,43.1,59.4,43.2,59.5,43.4z"/>
		<path fill="#583214" d="M9,19.5c-1.2-0.4-1.8-2.2-2.2-3.4c0,0.1,0.1,0.2,0.2,0.3c0.1,0.1,0.5-0.1,0.5-0.1c-0.6-0.8-0.4-2.1-0.6-3.1
			c0-0.1-0.5,0-0.5,0.1c0.2,0.8,0,1.9,0.4,2.7c0-0.1-0.1-0.2-0.1-0.3c-0.1-0.2-0.6-0.1-0.5,0.1c0.5,1.3,1.1,3.4,2.5,3.9
			C9,19.9,9.3,19.6,9,19.5z"/>
		<path fill="#583214" d="M5.1,13.4c0,1.2,0.6,2.2,0.9,3.4c0,0.1,0.5,0,0.5-0.1c-0.3-1.1-0.9-2.2-0.9-3.4C5.6,13.1,5.1,13.2,5.1,13.4
			z"/>
		<path fill="#583214" d="M10.7,13c0-0.2-0.5-0.1-0.5,0.1c0,0.9-0.2,1.9,0.1,2.8c0.1,0.2,0.5,0,0.5-0.1C10.5,14.9,10.7,13.9,10.7,13z
			"/>
		<path fill="#583214" d="M24.2,8.7c-0.6,0.3-1,0.7-1.5,1c-0.2,0.1,0.3,0.1,0.4,0c0.5-0.4,0.9-0.7,1.5-1C24.7,8.6,24.3,8.7,24.2,8.7z
			"/>
		<path fill="#583214" d="M24.3,7.6C23.7,8,23,8.3,22.5,8.9C22.4,9,22.9,9,23,8.9c0.5-0.6,1.1-0.8,1.7-1.2
			C24.9,7.5,24.4,7.6,24.3,7.6z"/>
		<path fill="#583214" d="M19.3,7.3c0.5-0.2,0.9-0.5,1.3-0.7c0.3-0.1-0.2-0.1-0.3-0.1C19.9,6.7,19.4,7,19,7.2
			C18.7,7.3,19.1,7.4,19.3,7.3z"/>
		<path fill="#583214" d="M16.5,6.8c0.6-0.5,1.3-0.7,2-1c0.3-0.1,0-0.3-0.2-0.2c-0.7,0.3-1.5,0.6-2.2,1.1C15.9,6.9,16.3,6.9,16.5,6.8
			z"/>
		<path fill="#583214" d="M16.8,5.1c-0.8,0.3-1.7,0.6-2.5,1c-0.3,0.1,0.2,0.1,0.3,0.1c0.8-0.4,1.6-0.7,2.4-1
			C17.3,5.1,17,5.1,16.8,5.1z"/>
		<path fill="#583214" d="M15.8,5.1c-0.9,0.1-1.7,0.5-2.6,0.6c-0.2,0-0.4,0.3-0.1,0.3c0.9-0.1,1.7-0.5,2.6-0.6
			C15.9,5.3,16.1,5,15.8,5.1z"/>
		<path fill="#583214" d="M14.4,4.6c-0.8,0.2-1.7,0.4-2.5,0.7c-0.3,0.1-0.2,0.3,0.1,0.2c0.8-0.3,1.7-0.5,2.5-0.7
			C14.8,4.7,14.7,4.5,14.4,4.6z"/>
		<path fill="#583214" d="M13.2,4c-0.9,0.4-1.8,0.6-2.7,0.8c-0.3,0.1-0.2,0.2,0,0.2c0.9-0.2,1.9-0.5,2.8-0.8C13.7,4,13.4,3.9,13.2,4z
			"/>
		<path fill="#583214" d="M11.7,4.1c0.2,0,0.4-0.3,0.1-0.2c-0.7,0.1-1.4,0.3-2.2,0.3c-0.2,0-0.5,0.2-0.2,0.2
			C10.2,4.4,10.9,4.1,11.7,4.1z"/>
		<path fill="#583214" d="M7.3,3.9c0.6-0.3,1.2-0.3,1.8-0.5c0.3-0.1,0.2-0.2,0-0.1C8.4,3.4,7.7,3.5,7,3.8C6.7,3.9,7.2,3.9,7.3,3.9z"
			/>
		<path fill="#583214" d="M12,3.1c4.3-0.4,8.6-0.9,12.9-1.1c-1.2,0.2-2.4,0.4-3.5,0.7C21.1,2.8,21.2,3,21.5,3c2.7-0.8,5.5-1,8.4-1
			c0.2,0,0.5-0.3,0.2-0.3c-1,0-2.1,0.1-3.1,0.1c0-0.1,0-0.2-0.2-0.2c-4.9,0-9.8,0.6-14.7,1.1C11.8,2.7,11.7,3.1,12,3.1z"/>
		<path fill="#583214" d="M30.9,1.5c0.9,0.1,1.8,0.3,2.6,0.2c-0.1,0.1-0.1,0.1,0.1,0.1c0.7,0,1.4,0,2,0c-2.6,0.6-5.2,0.5-7.8,0.7
			c-3.5,0.2-6.9,0.8-10.4,0.9c-0.2,0-0.5,0.3-0.2,0.3c3.1-0.1,6.1-0.4,9.2-0.8c3.2-0.3,6.4-0.1,9.5-0.9C36,2,36.1,1.9,36,1.8
			c0.2,0,0.4,0,0.6,0c0.2,0,0.5-0.3,0.2-0.3c-0.9,0-1.8,0-2.7,0c0.2,0,0.3-0.1,0.5-0.1c0.3-0.1,0-0.2-0.2-0.1c-1.1,0.4-2.2,0.1-3.3,0
			C31,1.3,30.6,1.5,30.9,1.5z"/>
		<path fill="#583214" d="M37.2,2c1.3,0,2.7,0,4,0c0.1,0,0.6-0.2,0.3-0.2c-1.3,0-2.7,0-4,0C37.4,1.8,37,2,37.2,2z"/>
		<path fill="#583214" d="M42.9,2.2c0,0-0.1,0-0.2,0.1c-0.4,0-0.8,0-1.2,0.1c-6.3,0-12.2,1-18.6,1.7c-0.1,0-0.5,0.2-0.2,0.2
			c3.4-0.4,6.7-0.8,10-1.2c-0.4,0.1-0.7,0.1-1.1,0.1c-3.6,0.6-7.4,0.7-10.7,2.2c-0.3,0.1,0,0.3,0.2,0.2c3.3-1.4,7-1.4,10.5-2.1
			c1.9-0.4,3.7-0.6,5.6-0.7C32.8,3.1,28.5,4.1,24.7,6c-0.3,0.1,0.2,0.2,0.3,0.1C31.1,3,38.5,2.6,45.3,2.8c0.1,0,0.3-0.1,0.4-0.1
			c0.1,0,0.2,0,0.3,0c0.1,0,0.6-0.2,0.3-0.2c-0.7-0.1-1.3-0.1-1.9-0.1c0,0,0.1,0,0.1-0.1c0.2,0,0.4,0,0.6-0.1c0.1,0,0.5-0.2,0.2-0.2
			c-0.3,0-0.7,0.1-1,0.1c-0.1,0-0.2,0-0.4,0C43.6,2.2,43.3,2.2,42.9,2.2z M41,2.5c0.3,0,0.7,0,1,0c0.5,0,1.1,0,1.6,0
			C42.7,2.5,41.9,2.5,41,2.5z"/>
		<path fill="#583214" d="M43.7,3.2c-0.1,0-0.3,0.1-0.3,0.2c-6.2,0.4-12.6,0.6-18,4c-0.3,0.2,0.1,0.2,0.3,0.1
			C30.9,4.2,37.1,4,43.1,3.6c-2,0.4-3.9,0.7-5.9,1C34.1,5,31.1,6,28.1,7.1c-0.3,0.1,0,0.3,0.2,0.2c5.4-2,11.3-3,17.1-3.8
			c0.6,0,1.2-0.1,1.8-0.2c0.1,0,0.2-0.1,0.2-0.1c0.2,0,0.4-0.1,0.6-0.1c0.2,0,0.4-0.3,0.1-0.3c-0.3,0-0.7,0.1-1,0.2c0,0-0.1,0-0.1,0
			C45.9,3.1,44.8,3.2,43.7,3.2z"/>
		<path fill="#583214" d="M46.5,3.5c-0.2,0.1-0.5,0.1-0.7,0.1c-0.2,0-0.5,0.3-0.2,0.3c0.4,0,0.7,0,1.1-0.2C47,3.6,46.7,3.4,46.5,3.5z
			"/>
		<path fill="#583214" d="M25.7,39.2c-0.1-0.1-0.6,0.1-0.5,0.2c0.2,0.2,0.4,0.3,0.6,0.4c-0.1,0-0.1,0.1-0.1,0.1
			c-0.2,0.3-0.4,0.6-0.7,0.9c-0.4-0.2-0.7-0.5-1.1-0.8c-0.1-0.1-0.6,0.1-0.4,0.2c0.4,0.4,0.8,0.7,1.2,0.9c-0.2,0.2-0.3,0.3-0.5,0.5
			c-0.1-0.1-0.2-0.2-0.3-0.3c-0.1-0.2-0.6,0-0.4,0.2c0.8,1,1.9,1.7,3.1,2.2c0.2,0.1,0.6-0.2,0.3-0.3c-0.8-0.3-1.7-0.8-2.4-1.5
			c0,0,0,0,0,0c0.2-0.2,0.4-0.4,0.5-0.6c0.4,0.2,0.7,0.4,1.1,0.6c0.1,0.1,0.6-0.1,0.4-0.2c-0.4-0.2-0.8-0.5-1.2-0.7
			c0.3-0.3,0.6-0.7,0.8-1.1c0.2,0.1,0.4,0.2,0.6,0.2c0.1,0.1,0.6-0.2,0.4-0.2C26.6,39.8,26.1,39.6,25.7,39.2z"/>
		<path fill="#583214" d="M29.8,12.7c0.6,1,1.2,1.9,1.7,2.9c0.1,0.2,0.6,0.1,0.5-0.1c-0.5-1-1.2-2-1.8-3
			C30.1,12.3,29.7,12.5,29.8,12.7z"/>
		<path fill="#583214" d="M32.8,14.9c-0.4-1.1-0.8-2.2-1.3-3.3c-0.1-0.2-0.5,0-0.5,0.1c0.5,1.1,0.9,2.2,1.3,3.3
			C32.4,15.2,32.9,15,32.8,14.9z"/>
		<path fill="#583214" d="M34.4,15.1c-0.3-1.7-1-3.3-1.8-4.8c-0.1-0.2-0.6,0-0.4,0.2c0.8,1.5,1.5,3,1.8,4.7
			C34,15.5,34.5,15.4,34.4,15.1z"/>
		<path fill="#583214" d="M36,15.5c0.1,0.2,0.6,0,0.4-0.2c-0.6-0.7-0.7-1.7-1-2.5c-0.3-1-1-2-1.5-3c-0.1-0.2-0.6-0.1-0.5,0.1
			c0.5,1.1,1.2,2.1,1.5,3.3C35.3,13.9,35.4,14.8,36,15.5z"/>
		<path fill="#583214" d="M37.7,13.8c-0.5-1.4-1.1-2.7-1.6-4.1c-0.1-0.2-0.6-0.1-0.5,0.1c0.5,1.4,1.1,2.7,1.6,4.1
			C37.3,14.1,37.8,14,37.7,13.8z"/>
		<path fill="#583214" d="M37.3,10.3c0.4,0.8,0.5,1.7,0.9,2.5c0.1,0.1,0.5,0,0.5-0.1c-0.4-0.8-0.5-1.7-0.9-2.5
			C37.7,10.1,37.3,10.2,37.3,10.3z"/>
		<path fill="#583214" d="M39.1,10.9c-0.1-0.2-0.6-0.1-0.5,0.1c0.1,0.3,0.2,0.5,0.2,0.8c0,0.2,0.5,0.1,0.5,0
			C39.3,11.5,39.2,11.2,39.1,10.9z"/>
		<path fill="#583214" d="M45.1,12.1c0.4,0.9,0.9,1.8,1.4,2.6c0.1,0.1,0.6,0,0.4-0.2c-0.5-0.8-0.9-1.7-1.4-2.5
			C45.5,11.8,45,12,45.1,12.1z"/>
		<path fill="#583214" d="M49,15.6c-0.5-1.3-1-2.6-1.6-3.9c-0.1-0.2-0.6,0-0.4,0.2c0.6,1.2,1.1,2.5,1.6,3.8
			C48.6,15.9,49.1,15.8,49,15.6z"/>
		<path fill="#583214" d="M50.5,15.9c-0.4-1.4-1.2-2.7-1.7-4.1c-0.1-0.2-0.6-0.1-0.5,0.1c0.5,1.4,1.3,2.7,1.7,4.1
			C50.1,16.2,50.6,16.1,50.5,15.9z"/>
		<path fill="#583214" d="M51.9,17c-0.4-1.2-1-2.4-1.3-3.6c0-0.2-0.5,0-0.5,0.1c0.3,1.2,0.9,2.4,1.3,3.6C51.5,17.3,52,17.1,51.9,17z"
			/>
		<path fill="#583214" d="M53.1,17.5c-0.3-1-0.5-2-0.9-3c0-0.1-0.5,0.1-0.5,0.1c0.4,1,0.7,2,0.9,3C52.6,17.7,53.1,17.6,53.1,17.5z"/>
		<path fill="#583214" d="M54.4,17.8c-0.3-0.8-0.4-1.7-0.7-2.5c-0.1-0.2-0.6-0.1-0.5,0.1c0.2,0.8,0.4,1.7,0.7,2.5
			C54,18.1,54.5,18,54.4,17.8z"/>
		<path fill="#583214" d="M55.5,12.5c-0.2-0.9-0.5-1.7-0.9-2.5c-0.1-0.1-0.5,0-0.5,0.1c0.5,0.8,0.7,1.6,0.9,2.5
			C55,12.8,55.5,12.6,55.5,12.5z"/>
		<path fill="#583214" d="M56.8,12.3c-0.2-1.1-0.6-2.2-0.9-3.2c-0.1-0.2-0.6-0.1-0.5,0.1c0.4,1.1,0.7,2.1,0.9,3.2
			C56.4,12.6,56.9,12.5,56.8,12.3z"/>
		<path fill="#583214" d="M56.5,8.6c0.4,1.4,0.6,2.8,0.9,4.2c0,0.1,0.5,0,0.5-0.1c-0.2-1.4-0.5-2.8-0.9-4.2C57,8.4,56.5,8.5,56.5,8.6
			z"/>
		<path fill="#583214" d="M59.1,14.1c0.2-0.1,0.2-0.1,0.4-0.3c0.1-0.1-0.1-0.1-0.2-0.1c-0.2-1.7-0.4-3.4-0.8-5c0-0.2-0.5-0.1-0.5,0.1
			c0.4,1.7,0.6,3.5,0.9,5.2C58.8,14.2,59,14.2,59.1,14.1z"/>
		<path fill="#583214" d="M60.8,13.8c0.1,0.1,0.6-0.1,0.4-0.2c-0.6-0.5-0.6-1.7-0.7-2.4c-0.1-0.9-0.1-2-0.5-2.9
			c-0.1-0.2-0.5,0-0.5,0.1c0.3,0.9,0.4,1.9,0.5,2.9C60.1,12.1,60.2,13.2,60.8,13.8z"/>
		<path fill="#583214" d="M62.6,12.4c-0.4-1.2-0.6-2.4-0.8-3.7c0-0.2-0.5-0.1-0.5,0.1c0.1,1.2,0.3,2.5,0.8,3.7
			C62.2,12.8,62.7,12.6,62.6,12.4z"/>
		<path fill="#583214" d="M63.3,11.2c0-0.4,0-0.7-0.1-1c0-0.2-0.5-0.1-0.5,0.1c0.1,0.3,0.1,0.6,0.1,1C62.8,11.5,63.3,11.4,63.3,11.2z
			"/>
		<path fill="#583214" d="M56.1,22.4c0.6,1.3,1.3,2.6,1.8,4c0.1,0.2,0.5,0,0.5-0.1c-0.5-1.4-1.1-2.7-1.8-4
			C56.5,22.1,56,22.2,56.1,22.4z"/>
		<path fill="#583214" d="M57.6,21.6c0.1,1.4,0.9,2.6,1.6,3.8c0.1,0.2,0.6,0,0.4-0.2c-0.7-1.2-1.4-2.3-1.5-3.7
			C58,21.3,57.6,21.4,57.6,21.6z"/>
		<path fill="#583214" d="M60.5,23.8c-0.8-1.1-1-2.3-1.5-3.5c-0.1-0.2-0.6-0.1-0.5,0.1c0.5,1.2,0.8,2.5,1.6,3.6
			C60.2,24.2,60.6,24,60.5,23.8z"/>
		<path fill="#583214" d="M59.1,19.3c0.2,1,0.7,1.9,1.1,2.8c0.1,0.1,0.5,0,0.5-0.1c-0.4-0.9-0.9-1.8-1.1-2.8
			C59.5,19.1,59,19.2,59.1,19.3z"/>
		<path fill="#583214" d="M53,30.4c0.6,1.1,1.2,2.2,1.8,3.4c0.1,0.1,0.5,0,0.5-0.1c-0.5-1.2-1.2-2.2-1.8-3.4
			C53.4,30.2,52.9,30.4,53,30.4z"/>
		<path fill="#583214" d="M54.7,29.6c-0.1-0.2-0.5-0.1-0.5,0.1c0.3,0.9,0.6,1.9,1.2,2.6c0.1,0.1,0.6,0,0.4-0.2
			C55.3,31.5,55,30.5,54.7,29.6z"/>
		<path fill="#583214" d="M56.7,31.3c-0.5-0.9-1-1.9-1.1-2.9c0-0.1-0.5,0-0.5,0.1c0.2,1,0.6,2,1.1,2.9C56.3,31.6,56.7,31.4,56.7,31.3
			z"/>
		<path fill="#583214" d="M56.3,28.1c0.2,0.9,0.6,1.6,0.9,2.4c0,0.1,0.5,0,0.5-0.1c-0.3-0.8-0.7-1.6-0.9-2.4
			C56.8,27.9,56.3,28,56.3,28.1z"/>
		<path fill="#583214" d="M58.2,29c-0.1-0.4-0.3-0.9-0.5-1.3c-0.1-0.2-0.6,0-0.5,0.1c0.2,0.5,0.3,0.9,0.5,1.4c0.1,0.3,0.2,0.8,0.6,1
			c0.1,0.1,0.6-0.1,0.4-0.2C58.4,29.8,58.3,29.3,58.2,29z"/>
		<path fill="#583214" d="M59.6,29.4c-0.3-0.7-0.4-1.4-0.6-2.1c0-0.1-0.5,0-0.5,0.1c0.2,0.7,0.3,1.4,0.6,2.1
			C59.2,29.7,59.7,29.5,59.6,29.4z"/>
		<path fill="#583214" d="M60.4,29.4c-0.1-0.6-0.3-1.1-0.5-1.7c-0.1-0.2-0.6-0.1-0.5,0.1c0.2,0.6,0.4,1.1,0.5,1.7
			C59.9,29.7,60.4,29.6,60.4,29.4z"/>
		<path fill="#583214" d="M59.1,36.4c-0.3-0.6-0.6-1.3-0.7-2c0-0.2-0.5-0.1-0.5,0.1c0.1,0.7,0.4,1.4,0.7,2
			C58.7,36.8,59.1,36.6,59.1,36.4z"/>
		<path fill="#583214" d="M59.7,36.8c-0.1-1.1-0.2-2.2-0.7-3.2c-0.1-0.2-0.5,0-0.5,0.1c0.5,1,0.6,2.1,0.7,3.2
			C59.3,37.1,59.8,37,59.7,36.8z"/>
		<path fill="#583214" d="M61.1,37.1c-0.3-1.7-0.8-3.3-1.3-4.9c-0.1-0.2-0.5-0.1-0.5,0.1c0.6,1.7,1.1,3.4,1.4,5.1
			c0,0.2,0.4,0.1,0.4,0c0.1-0.1,0.1-0.1,0.1-0.3C61.3,37.2,61.2,37.1,61.1,37.1z"/>
		<path fill="#583214" d="M60.1,30.4c0.3,1.2,0.8,2.3,1.1,3.4c0,0.2,0.5,0.1,0.5-0.1c-0.3-1.2-0.8-2.3-1.1-3.4
			C60.5,30.1,60,30.2,60.1,30.4z"/>
		<path fill="#583214" d="M18.9,27.5c0.4-1.3,1-2.6,1.1-4c0-0.1-0.5,0-0.5,0.1c0,1.4-0.7,2.6-1.1,4C18.4,27.7,18.8,27.7,18.9,27.5z"
			/>
		<path fill="#583214" d="M24.3,39c0.3-0.3,0.6-0.6,0.8-0.9c0.4,0.2,0.8,0.4,1.1,0.6c0.1,0.1,0.5-0.1,0.5-0.2
			c-0.4-0.2-0.9-0.5-1.4-0.7c0.1-0.1,0.2-0.2,0.3-0.4c0.2-0.3-0.3-0.4-0.4-0.2c-0.1,0.1-0.2,0.2-0.3,0.3c0,0,0,0-0.1,0
			c-0.1-0.1-0.5,0.1-0.5,0.2c0.1,0.1,0.2,0.1,0.3,0.2c-0.3,0.3-0.5,0.6-0.8,0.9C23.7,39,24.2,39.1,24.3,39z"/>
		<path fill="#583214" d="M18,29.3c0.3-0.5,0.6-0.9,1.1-1.2c0.2-0.2-0.1-0.4-0.3-0.2c-0.5,0.4-0.9,0.9-1.2,1.4
			C17.4,29.5,17.9,29.5,18,29.3z"/>
		<path fill="#583214" d="M18.1,30.5c0.5-0.4,1-0.8,1.4-1.2c0.2-0.2-0.3-0.2-0.4-0.1c-0.5,0.4-1,0.8-1.4,1.2
			C17.5,30.6,18,30.6,18.1,30.5z"/>
		<path fill="#583214" d="M19.6,30.5c-0.6,0.6-1.2,1.1-1.8,1.7c-0.2,0.2,0.3,0.3,0.4,0.1c0.6-0.6,1.2-1.1,1.8-1.7
			C20.2,30.4,19.7,30.4,19.6,30.5z"/>
		<path fill="#583214" d="M18.1,34.2c0,0,0.4,0,0.5-0.1c0.4-0.5,0.9-1,1.5-1.3c0.3-0.1-0.2-0.1-0.3-0.1
			C19.1,33.1,18.6,33.6,18.1,34.2z"/>
		<path fill="#583214" d="M18.2,35.9c-0.3,0.2,0.1,0.3,0.3,0.2c0.6-0.4,1.3-0.9,1.9-1.2c0.3-0.2-0.1-0.3-0.3-0.2
			C19.4,35,18.8,35.4,18.2,35.9z"/>
		<path fill="#583214" d="M17.2,38.2c-0.3,0.2,0.1,0.2,0.3,0.1c0.9-0.5,1.9-1.1,2.8-1.6c0.3-0.2-0.2-0.2-0.3-0.1
			c-0.4,0.3-0.8,0.5-1.2,0.8c0-0.1,0-0.2-0.2-0.1c-2.2,0.6-4.2,1.6-6.4,1.9c-0.2,0-0.4,0.3-0.1,0.3c2.3-0.3,4.3-1.2,6.5-1.9
			C18.1,37.7,17.7,38,17.2,38.2z"/>
		<path fill="#583214" d="M20.1,38.9c-0.9,0.5-2,0.7-2.8,1.4c-0.1,0.1,0.4,0,0.4,0c0.8-0.7,1.8-0.9,2.7-1.4
			C20.7,38.8,20.2,38.8,20.1,38.9z"/>
		<path fill="#583214" d="M18.5,41.8c-0.3,0.2,0,0.4,0.2,0.3c0.7-0.4,1.4-0.8,2.1-1.2c0.3-0.2-0.1-0.3-0.3-0.2
			C19.8,41,19.1,41.4,18.5,41.8z"/>
		<path fill="#583214" d="M21,42.2c-1,0.5-2.1,0.8-3,1.5c-0.3,0.2,0.1,0.3,0.3,0.2c0.9-0.7,1.9-1,2.9-1.5
			C21.5,42.3,21.3,42.1,21,42.2z"/>
		<path fill="#583214" d="M21.6,43.5C21,43.8,20.5,44,20,44.2c-0.4,0.2-0.9,0.5-0.9,1c0,0.3,0.5,0.2,0.5,0c0-0.4,0.6-0.7,1-0.9
			c0.4-0.2,0.8-0.4,1.3-0.5C22.1,43.7,21.8,43.4,21.6,43.5z"/>
		<path fill="#583214" d="M18,40.2c-1.3,0.7-2.8,1.3-4.3,1.1c-0.2,0-0.6,0.2-0.3,0.3c1.7,0.2,3.4-0.4,4.9-1.2
			C18.6,40.2,18.1,40.1,18,40.2z"/>
		<path fill="#583214" d="M17.2,38.8c-1.4,0.7-2.9,1.1-4.4,1.5c-0.3,0.1-0.2,0.3,0.1,0.3c1.6-0.4,3.1-0.9,4.6-1.6
			C17.7,38.9,17.4,38.7,17.2,38.8z"/>
		<path fill="#583214" d="M17.7,35.6c-2.2,0.9-4.3,1.9-6.7,1.9c-0.3,0-0.4,0.3,0,0.3c2.5,0,4.7-1,6.9-2C18.2,35.7,18,35.5,17.7,35.6z
			"/>
		<path fill="#583214" d="M11.7,34.9c-0.2,0-0.4,0.4-0.1,0.3c1.9-0.3,3.7-0.4,5.4-1.3c0.3-0.2,0-0.4-0.2-0.2
			C15.3,34.5,13.5,34.7,11.7,34.9z"/>
		<path fill="#583214" d="M16.5,31.9c-2.3,0.7-4.5,1.4-6.9,1.6c-0.3,0-0.4,0.4,0,0.4c2.4-0.2,4.7-0.9,7.1-1.6
			C16.9,32.2,16.8,31.8,16.5,31.9z"/>
		<path fill="#583214" d="M9.7,31.8c2.5,0,4.8-0.4,7.1-1.2c0.3-0.1,0-0.3-0.2-0.2c-2.2,0.8-4.4,1.1-6.7,1.2
			C9.7,31.5,9.3,31.8,9.7,31.8z"/>
		<path fill="#583214" d="M9.8,29.2c-0.2-0.1-0.6,0.2-0.3,0.3c2.2,0.6,4.4,0.6,6.6-0.2c0.3-0.1,0-0.4-0.2-0.3
			C14,29.7,11.8,29.7,9.8,29.2z"/>
		<path fill="#583214" d="M10.8,28.2c1.6,0.5,3.3,0.4,4.9,0.4c0.3,0,0.4-0.4,0-0.4c-1.6,0-3.2,0.1-4.7-0.4
			C10.9,27.8,10.5,28.1,10.8,28.2z"/>
	</g>
</svg>