<svg version="1.1" xmlns="http://www.w3.org/2000/svg" xmlns:xlink="http://www.w3.org/1999/xlink" x="0px" y="0px" viewBox="0 0 64 54" enable-background="new 0 0 64 54" xml:space="preserve">
	<g>
		<g>
			<rect x="18" y="4" fill="#888888" width="28" height="2"/>
			<polygon fill="#888888" points="64,54 0,54 0,4 12,4 12,6 2,6 2,52 62,52 62,6 52,6 52,4 64,4"/>
			<path fill="#888888" d="M19,10h-8V0h8V10z M13,8h4V2h-4V8z"/>
			<path fill="#888888" d="M53,10h-8V0h8V10z M47,8h4V2h-4V8z"/>
			<path fill="#888888" d="M21,30H9V18h12V30z M11,28h8v-8h-8V28z"/>
			<path fill="#888888" d="M21,48H9V36h12V48z M11,46h8v-8h-8V46z"/>
			<path fill="#888888" d="M55,30H43V18h12V30z M45,28h8v-8h-8V28z"/>
			<path fill="#888888" d="M55,48H43V36h12V48z M45,46h8v-8h-8V46z"/>
			<path fill="#888888" d="M38,30H26V18h12V30z M28,28h8v-8h-8V28z"/>
			<path fill="#888888" d="M38,48H26V36h12V48z M28,46h8v-8h-8V46z"/>
		</g>
		<line fill="none" stroke="#888888" stroke-width="2" stroke-miterlimit="10" x1="1" y1="13" x2="63" y2="13"/>
	</g>
</svg>