<svg version="1.1" xmlns="http://www.w3.org/2000/svg" xmlns:xlink="http://www.w3.org/1999/xlink" x="0px" y="0px" viewBox="0 0 62 68" enable-background="new 0 0 62 68" xml:space="preserve">
	<path fill="#efefef" d="M59.4,14.1c-1.1-1.1-2.7-1.6-4.6-1.6c-4,0-9.1,2.4-12.5,5.8c-3.4,3.4-4.4,7.1-2.9,10.6l0,0.1
		c0.3,0.8,0.9,2,0.7,2.2c-0.2,0.2-0.4,0.3-0.6,0.5l-5,4.4l-0.1-2.6l1.1-32.9l0-0.3h-0.3c-4.1,0-7.3,9.1-7.3,20.8v12.1
		c0,0.3,0.2,0.5,0.5,0.5h0.6c0.1,0,0.1,0,0.2,0.1c0,0,0.1,0.1,0.1,0.2L29.2,36L24,31.4c-0.3-0.3-0.5-0.5-0.8-0.7
		c-0.3-0.3-0.6-1.5-0.4-2.9l0.3-2.4c0.1-0.8-0.3-1.8-0.9-2.3L8.6,11.6C8.2,11.3,7.7,11,7.3,11C7.1,11,7,11,7,11.1
		c-0.3,0.3,0.1,1.1,0.5,1.6l8.9,9.7c0.2,0.3,0.4,0.5,0.4,0.6c-0.1-0.1-0.3-0.2-0.6-0.4l-9.7-8.9c-0.4-0.4-0.9-0.7-1.2-0.7
		c-0.2,0-0.3,0.1-0.4,0.1c-0.3,0.3,0,1.1,0.5,1.6l8.9,9.7c0.2,0.3,0.4,0.5,0.4,0.6c-0.1-0.1-0.3-0.2-0.6-0.4l-9.7-8.9
		c-0.4-0.4-0.9-0.6-1.2-0.6c-0.2,0-0.3,0.1-0.4,0.1c-0.3,0.3,0,1.1,0.5,1.6l8.9,9.7c0.2,0.3,0.4,0.5,0.4,0.6
		c-0.1-0.1-0.3-0.2-0.6-0.4l-9.7-8.9c-0.4-0.3-0.9-0.7-1.2-0.7C1.2,16.9,1.1,17,1,17c-0.3,0.3,0.1,1.1,0.5,1.6L13,32.3
		c0.4,0.5,1.2,0.9,1.9,0.9c0.1,0,0.2,0,0.3,0l2.7-0.5c0.4-0.1,0.7-0.1,1.1-0.1c1,0,1.6,0.2,1.8,0.4c0.2,0.3,0.5,0.5,0.7,0.8l6.6,7.7
		L12.3,55.2c-1.2,1-1.9,2.4-1.9,3.8c0,1.1,0.4,2.1,1.1,2.8c0.7,0.7,1.7,1.1,2.7,1.1c1.4,0,2.8-0.7,3.9-1.9l10.2-11.5l-0.8,13.1
		c-0.1,1.6,0.4,3,1.3,4c0.7,0.8,1.7,1.2,2.8,1.2c1,0,2-0.4,2.8-1.2c1-1,1.5-2.5,1.4-4l-0.6-13l9.9,11.5c1.1,1.2,2.5,1.9,3.9,1.9
		c0,0,0,0,0,0c1,0,2-0.4,2.7-1.1c0.7-0.7,1.1-1.7,1.1-2.8c0-1.4-0.7-2.8-1.9-3.8L35.5,41.5L42,34c0.2-0.2,0.4-0.4,0.5-0.6
		c0,0,0,0,0.1,0c0.4,0,1.2,0.3,2.1,0.7l0.1,0.1c1,0.4,2,0.6,3,0.6c0,0,0,0,0,0c2.5,0,5.1-1.2,7.4-3.5c2.4-2.4,4.4-5.8,5.3-9
		C61.5,18.7,61.1,15.8,59.4,14.1z M22,33.5c-0.2-0.3-0.5-0.5-0.7-0.8C21,32.3,20.2,32,19.2,32c-0.4,0-0.8,0-1.2,0.1l-2.7,0.5
		c-0.1,0-0.2,0-0.2,0c-0.6,0-1.2-0.3-1.5-0.7L2,18.3c-0.3-0.4-0.5-0.7-0.5-0.8c0.2,0,0.5,0.2,0.8,0.5l9.7,8.9
		c0.3,0.3,0.8,0.7,1.1,0.7c0.2,0,0.3-0.1,0.4-0.2c0.1-0.3-0.1-0.7-0.6-1.3l-8.9-9.7c-0.4-0.4-0.5-0.7-0.5-0.9c0.2,0,0.5,0.2,0.9,0.5
		l9.7,8.9c0.3,0.3,0.8,0.7,1.1,0.7c0.2,0,0.3-0.1,0.4-0.2c0.1-0.3-0.1-0.7-0.6-1.3l-8.9-9.7c-0.4-0.4-0.5-0.7-0.5-0.9
		c0.2,0,0.5,0.2,0.9,0.5l9.7,8.9c0.3,0.3,0.8,0.7,1.1,0.7c0.2,0,0.3-0.1,0.4-0.2c0.1-0.3-0.1-0.7-0.6-1.3l-8.9-9.7
		c-0.3-0.4-0.5-0.7-0.5-0.8c0.2,0,0.5,0.2,0.8,0.5l13.7,11.5c0.5,0.4,0.8,1.2,0.7,1.8l-0.3,2.4c-0.2,1.2,0,2.8,0.6,3.4
		c0.3,0.2,0.5,0.5,0.8,0.7l5.5,4.8l-0.3,4.3l-0.3,0.2L22,33.5z M17.8,60.7c-1,1.1-2.3,1.7-3.5,1.7c-0.9,0-1.7-0.3-2.4-0.9
		c-0.6-0.6-1-1.5-0.9-2.5c0-1.2,0.7-2.5,1.7-3.4l15.9-13.7l0.2,0.3l-0.4,6.5L17.8,60.7z M35.4,62.6c0.1,1.4-0.4,2.7-1.2,3.6
		c-0.7,0.7-1.5,1.1-2.4,1.1c-0.9,0-1.7-0.4-2.4-1.1c-0.8-0.9-1.3-2.2-1.2-3.6l1.7-28.7c0-0.2-0.1-0.4-0.2-0.5
		c-0.1-0.1-0.3-0.2-0.5-0.2l-0.6,0V21c0-5.5,0.7-10.6,2.1-14.4C31.7,3,33.4,0.9,35,0.7l-1.1,32.6L35.4,62.6z M50.7,55.6
		c1,0.9,1.7,2.2,1.7,3.4c0,1-0.3,1.8-0.9,2.5c-0.6,0.6-1.4,0.9-2.3,0.9c-1.3,0-2.6-0.6-3.5-1.7l-10.4-12l-0.3-6.6l0.2-0.2L50.7,55.6z
		 M54.9,30.8c-2.2,2.2-4.6,3.4-7,3.4c0,0,0,0,0,0c-1,0-1.9-0.2-2.8-0.6L45,33.6c-1-0.4-1.8-0.7-2.3-0.7c-0.2,0-0.4,0.1-0.5,0.2
		c-0.2,0.2-0.3,0.4-0.5,0.6l-6.6,7.5l-0.2-0.2l-0.2-4.3L40,32c0.2-0.2,0.4-0.3,0.6-0.5c0.5-0.4,0-1.4-0.6-2.8l0-0.1
		c-1.4-3.3-0.5-6.8,2.7-10C46,15.3,51,13,54.8,13c1.8,0,3.3,0.5,4.2,1.5C62.5,17.8,59.6,26.2,54.9,30.8z"/>
</svg>