<svg version="1.1" xmlns="http://www.w3.org/2000/svg" xmlns:xlink="http://www.w3.org/1999/xlink" x="0px" y="0px" viewBox="0 0 70 70" enable-background="new 0 0 70 70" xml:space="preserve">
	<g>
		<g>
			<path fill="#888888" d="M55.1,69.4H14.9c-0.6,0-1-0.4-1-1v-7.9c0-0.6,0.4-1,1-1h40.2c0.6,0,1,0.4,1,1v7.9C56.1,69,55.7,69.4,55.1,69.4z M15.9,67.4h38.2v-5.9H15.9V67.4z"/>
			<path fill="#888888" d="M55.1,61.5H14.9c-0.6,0-1-0.4-1-1V42.8C6.4,42.2,0.5,36,0.5,28.4C0.5,20.4,6.9,14,14.9,14c2,0,3.9,0.4,5.7,1.2c0-0.1,0-0.1,0-0.2C20.6,7,27.1,0.6,35,0.6C42.9,0.6,49.4,7,49.4,15c0,0.1,0,0.1,0,0.2c1.8-0.8,3.7-1.2,5.7-1.2c7.9,0,14.4,6.5,14.4,14.4c0,7.6-5.9,13.9-13.4,14.4v17.7C56.1,61,55.7,61.5,55.1,61.5z M15.9,59.5h38.2V41.8c0-0.6,0.4-1,1-1c6.8,0,12.4-5.6,12.4-12.4C67.5,21.5,62,16,55.1,16c-2.2,0-4.4,0.6-6.3,1.8c-0.3,0.2-0.7,0.2-1.1,0c-0.3-0.2-0.5-0.6-0.4-1c0.1-0.7,0.1-1.2,0.1-1.8c0-6.8-5.6-12.4-12.4-12.4c-6.8,0-12.4,5.6-12.4,12.4c0,0.5,0,1.1,0.1,1.8c0.1,0.4-0.1,0.8-0.4,1c-0.3,0.2-0.7,0.2-1.1,0c-1.9-1.2-4.1-1.8-6.3-1.8C8,16,2.5,21.5,2.5,28.4c0,6.8,5.6,12.4,12.4,12.4c0.6,0,1,0.4,1,1V59.5z"/>
		</g>
		<path fill="#888888" d="M14.9,42.8v-2c2.2,0,4.3-0.6,6.2-1.7l1,1.7C19.9,42.1,17.4,42.8,14.9,42.8z"/>
		<path fill="#888888" d="M55.1,42.8c-4.4,0-8.6-2-11.3-5.5l1.6-1.2c2.4,3,5.9,4.7,9.8,4.7V42.8z"/>
	</g>
</svg>