<svg version="1.1" id="Layer_1" xmlns="http://www.w3.org/2000/svg" xmlns:xlink="http://www.w3.org/1999/xlink" x="0px" y="0px" viewBox="0 0 242 70" enable-background="new 0 0 242 70" xml:space="preserve">
	<g>
		<g>
			<path fill="#cfcfcf" d="M98.8,42.5c1.1-1.4,3-1.7,4.5-0.8c2.1,1.3,2.8,4,1.5,6.2c-0.8,1.3-2.2,2.3-3.7,2.7c-2.6,0.6-5.1-0.6-6.7-2.7
				c-1.5-2-1.9-4.8-1.1-7.1c0.5-1.4,1.3-2.7,2.5-3.7c2-1.7,4.3-2.4,6.8-2.5c7.2-0.2,13.8,4.4,16.3,11c1,2.6,1.5,5.6,1.7,8.5
				c-1.7,0.5-3,2.1-3,3.9c0,2.3,1.9,4.1,4.1,4.1c2.3,0,4.1-1.8,4.1-4.1c0-1.9-1.3-3.4-3-3.9c0.2-3,0.7-5.9,1.7-8.5
				c2.5-6.6,9.1-11.2,16.3-11c2.5,0.1,4.8,0.8,6.8,2.5c1.2,1,2,2.2,2.5,3.7c0.8,2.3,0.4,5.1-1.1,7.1c-1.5,2.1-4,3.3-6.7,2.7
				c-1.6-0.4-3-1.4-3.7-2.7c-1.3-2.1-0.7-4.8,1.5-6.2c1.5-0.9,3.5-0.6,4.5,0.8c-0.3-0.1-0.6-0.2-1-0.1c-1.7,0-3,1.4-2.9,3
				c0,1.6,1.4,2.9,3.1,2.9c1.6,0,2.8-1.3,3.3-2.8c0.4-1.2,0.3-2.6-0.5-3.8c-1.6-2.5-5-3.3-7.5-1.7c-3.2,2-4,6.2-1.9,9.3
				c1.1,1.6,2.8,2.8,4.8,3.2c3.5,0.8,6.8-0.8,8.8-3.5c1.8-2.5,2.4-5.9,1.4-8.9c-0.6-1.8-1.7-3.4-3.1-4.6c-2.3-2-5.2-2.9-8.1-3
				c-8-0.3-15.5,4.9-18.3,12.3c-0.4,0.9-0.7,1.9-0.9,2.9c-0.2-1-0.5-2-0.9-2.9c-2.8-7.4-10.2-12.6-18.3-12.3c-2.9,0.1-5.7,1-8.1,3
				c-1.5,1.2-2.5,2.8-3.1,4.6c-1,3-0.4,6.4,1.4,8.9c2,2.8,5.3,4.3,8.8,3.5c2-0.5,3.7-1.6,4.8-3.2c2.1-3.1,1.3-7.3-1.9-9.3
				c-2.6-1.6-5.9-0.8-7.5,1.7c-0.7,1.2-0.9,2.6-0.5,3.8c0.5,1.4,1.7,2.7,3.3,2.8c1.7,0,3-1.3,3.1-2.9c0-1.6-1.3-3-2.9-3
				C99.4,42.4,99.1,42.4,98.8,42.5L98.8,42.5z M121.7,70c1.4,0,2.5-1.1,2.5-2.4c0-1.3-1.1-2.4-2.5-2.4c-1.4,0-2.5,1.1-2.5,2.4
				C119.2,68.9,120.3,70,121.7,70z"/>
			<path fill="#cfcfcf" d="M240.9,1.9c0.5-0.2,0.7-0.9,0.5-1.4c-0.2-0.5-0.9-0.7-1.4-0.5c-18.2,9-37.6,15.9-57.8,20.7c-19.7,4.6-40.1,7-61.2,7
				c-21.1,0-41.6-2.4-61.2-7C39.5,16.1,20.2,9.1,2,0.1c-0.5-0.2-1.1,0-1.4,0.5c-0.3,0.5,0,1.1,0.5,1.4c18.3,9,37.8,16.1,58.3,20.8
				c19.8,4.6,40.5,7,61.7,7c21.2,0,41.9-2.4,61.7-7C203.1,18,222.6,10.9,240.9,1.9z"/>
		</g>
		<g>
			<path fill="#cfcfcf" fill-rule="evenodd" clip-rule="evenodd" d="M121,20c4.5,0,8.2-1,8.2-2.3c0-1.3-3.7-2.3-8.2-2.3c-4.5,0-8.2,1-8.2,2.3
				C112.8,19,116.5,20,121,20z"/>
			<path fill="#cfcfcf" d="M192.5,8c0.4-0.1,0.8,0.1,0.9,0.4c0.1,0.3-0.1,0.7-0.5,0.8c-9.3,2.4-18.9,4.4-28.7,5.9c-9.6,1.5-19.5,2.4-29.4,2.9
				c-0.4,0-0.8-0.2-0.8-0.6c0-0.3,0.3-0.6,0.7-0.7c9.9-0.5,19.7-1.4,29.3-2.9C173.7,12.4,183.2,10.4,192.5,8L192.5,8z M107.3,16.8
				c0.4,0,0.7,0.3,0.7,0.7c0,0.3-0.4,0.6-0.8,0.6c-10-0.5-19.8-1.5-29.4-2.9C68,13.6,58.4,11.7,49,9.2c-0.4-0.1-0.6-0.5-0.5-0.8
				c0.1-0.3,0.5-0.5,0.9-0.4c9.3,2.4,18.8,4.4,28.6,5.9C87.6,15.3,97.3,16.3,107.3,16.8z"/>
		</g>
	</g>
</svg>