<svg version="1.1" xmlns="http://www.w3.org/2000/svg" xmlns:xlink="http://www.w3.org/1999/xlink" x="0px" y="0px" viewBox="0 0 58 34" enable-background="new 0 0 58 34" xml:space="preserve">
	<g id="dish">
		<path fill="#888888" d="M56.3,29.5C55,17.2,45.3,8.1,32.8,6.7c0.5-0.7,0.8-1.5,0.8-2.4c0-2.2-1.8-4-4-4s-4,1.8-4,4c0,0.9,0.3,1.7,0.8,2.4C13.7,8.1,4,17.2,2.7,29.5l-0.1,1h53.8L56.3,29.5z M29.5,2.1c1.2,0,2.2,1,2.2,2.2c0,1.2-1,2.2-2.2,2.2c-1.2,0-2.2-1-2.2-2.2C27.3,3.1,28.3,2.1,29.5,2.1z M4.6,28.7C6.4,16.9,16.7,8.4,29.5,8.4c12.8,0,23.1,8.5,24.9,20.3H4.6z"/>
		<rect x="0.1" y="31.9" fill="#888888" width="57.9" height="1.8"/>
		<g>
			<path fill="#888888" d="M20.8,12.7c-3.4,1.1-6.4,3.4-8.3,6.4c-0.2,0.4-0.1,0.8,0.2,1c0.1,0.1,0.3,0.1,0.4,0.1c0.2,0,0.5-0.1,0.6-0.4c1.7-2.7,4.4-4.8,7.5-5.8c0.4-0.1,0.6-0.5,0.5-0.9C21.6,12.8,21.2,12.6,20.8,12.7z"/>
			<path fill="#888888" d="M12,21.9c-0.4-0.1-0.8,0.1-1,0.5c-0.1,0.2-0.1,0.3-0.2,0.5c-0.1,0.4,0.1,0.8,0.5,0.9c0.1,0,0.1,0,0.2,0c0.3,0,0.6-0.2,0.7-0.5c0-0.1,0.1-0.3,0.1-0.4C12.6,22.4,12.4,22,12,21.9z"/>
		</g>
	</g>
</svg>