<?xml version="1.0" encoding="utf-8"?>
<!-- Generator: Adobe Illustrator 18.0.0, SVG Export Plug-In . SVG Version: 6.00 Build 0)  -->
<!DOCTYPE svg PUBLIC "-//W3C//DTD SVG 1.1//EN" "http://www.w3.org/Graphics/SVG/1.1/DTD/svg11.dtd">
<svg version="1.1" id="Layer_1" xmlns="http://www.w3.org/2000/svg" xmlns:xlink="http://www.w3.org/1999/xlink" x="0px" y="0px"
	 viewBox="0 0 284 52" enable-background="new 0 0 284 52" xml:space="preserve">
<path fill="#FFCB47" d="M186.6,13.2c1.5-2,0.7-4.4-0.2-5.7c-1.5-1.7-3.7-2-5.2-1.5c-1.2,0.5-2.5,1.7-2.5,3c0,0.2,0.2,0.5,0.5,0.5
	c0.2,0,0.5-0.2,0.5-0.5c0-1,1-1.5,1.5-1.7c1-0.2,2.7,0,4,1.2c0.7,1,0.7,2.5,0,3.7c-0.5,0.7-1.7,2.5-4.5,2.2c-2.5-0.2-3.7-2-5.7-4
	c-2-2.2-4.2-4.9-8.5-6.9c-3.2-1.5-7.5-2-11.5-1.2c0,0-0.2,0-0.5,0c-1.5,0-4,0.2-5.7,0.2c-1.5,0-4-1.5-4.5-2c-0.7-0.5-1-0.5-0.7,0.2
	s1,2.2,2.5,3.5c0.2,0.2-2.2,1-2.5,4.4c-0.2,2.5,0,2.5,1,1.5c1-1.2,3-3.5,5.2-4.9c5-2.5,11.7-2.7,16.7-0.5c4,1.7,6.2,4.2,8.2,6.4
	s3.5,4,6.5,4.7C183.1,16.2,185.6,14.9,186.6,13.2z M278.2,18.6l-27.2-1.5c0.5,0.7,0.5,1.5,0.5,2.2c0,1-0.2,1.5-0.7,2.2l27.2-1.5
	C286,19.6,286,18.9,278.2,18.6z M112.1,18.6H91.7C77.5,5,63.8,3.1,55.8,7.5C57,7.3,58.3,7.8,58,8.7c-0.2,1.2-1.5,2-2,2.7
	c-1.2,1-2.5,1.5-3,1.5c-1.2,0.5-2.2-0.5-2.2-1.7c0-1,0.7-1.7,0-1.5c-0.7,0.2-2.5,2.5-1.5,4.2c1.7,2.5,5.2,1,6.2-0.5
	c0,0,0-0.2,0.2-0.2c-1,1.7-1.5,3.5-1.5,5.2H39.9c-0.2-1-1.2-2-2.5-2c-1.5,0-2.5,1-2.5,2.5c0,1.5,1.2,2.5,2.5,2.5s2.5-0.7,2.5-2h14.4
	c0,0.5,0.2,1.2,0.5,1.7c1.2,4,5.2,6.2,9.7,5.9c3.2,0,6.5-2.2,7.5-4.9c0.2-0.7,0.2-1.7,0.2-2.5h19.2c1,1,1.7,1.7,2.7,2.7
	c1.5,1.5,3,3,4.2,4.4c0,0.2,0.2,0.2,0.5,0.5c3.5,4,2.7,6.2,2.2,7.4c-1.5,2-4,2.2-5.5,1s0.2,4,4.5,3c3.5-1,4-4.7,2.2-7.2
	c6.2,5.4,12.5,8.4,18.9,8.4c5.5,0,11.5-2.2,15.4-7.9c3.7-5.2,4-12.1,1-17.5c-2.7-5.2-8.2-7.9-14.2-6.9c-7.2,1-11.2,5.9-11.7,10.1
	C112.1,17.6,112.1,18.1,112.1,18.6z M56.8,19.9H71c0.2,0.7,0,1.5,0,2.2c-0.7,2.5-3,4-5.7,4c-4.7,0.2-7.2-2.5-8-5.2
	C56.8,20.6,56.8,20.1,56.8,19.9z M64,18.9C64,18.6,64,18.6,64,18.9c0-0.7,0.2-1.2,1-1.7c0.5-0.2,2-1,4,0.2c0.5,0.5,1,1,1.2,1.5H64z
	 M89.9,18.9H71.5c-0.5-1-1-1.7-1.7-2.5c-2-1.2-4-1-5-0.2c-1,0.5-1.7,1.7-1.5,2.5h-6.5c0-3,1.2-6.4,5-8.4
	C67.3,7.3,77.2,6.8,89.9,18.9z M92.9,19.9h19.4c0.5,3.2,2.7,5.9,6.2,6.9c3.7,1.2,7.2,0,9-2.5c1.5-2,1.2-4.4,0-6.2
	c-1-1.2-2.5-1.7-4-1.5c-1.2,0.2-2.2,1-2.5,2.2h-6.5c0-0.7,0-1.2,0-2c0-1.7,1.2-7.9,9.7-8.9c5.5-0.7,10.5,1.7,13,6.4
	c2.5,4.4,2,11.6-2,15.8c-3.7,4-8.5,5.9-13.7,5.9c-8.2,0-17.7-5.4-27.4-15.3C93.4,20.6,93.2,20.1,92.9,19.9L92.9,19.9z M121.6,19.9
	v-0.5c0.2-1,1-1.7,2-2c1-0.2,2.5,0.2,3,1c1,1.5,1,3.5,0,4.9c-1.5,2-4.5,2.7-7.7,1.7c-2.2-0.7-4-2.7-4.5-5.4
	C114.3,19.9,121.6,19.9,121.6,19.9z M33.1,21.6c-0.5-0.7-0.7-1.5-0.7-2.2c0-0.7,0.2-1.5,0.5-2.2L6,18.6c-8,0.5-8,1.2,0,1.5
	L33.1,21.6z M140.5,8.5c-0.2-3.7-3-4.2-2.5-4.4c1.5-1.2,2.2-2.7,2.5-3.5c0.2-0.7-0.2-0.7-0.7-0.2c-0.5,0.5-3,2-4.5,2
	c-1.5,0.2-4,0-5.7-0.2c0,0-0.2,0-0.5,0c-4-0.5-8.2-0.2-11.5,1.2c-4.2,2-6.5,4.7-8.5,6.9c-1.7,2-3.2,3.7-5.7,4
	c-3,0.2-4.2-1.5-4.5-2.2c-0.7-1.2-0.7-2.7,0-3.7c1-1.2,2.7-1.5,4-1.2c0.5,0.2,1.5,0.5,1.5,1.7c0,0.2,0.2,0.5,0.5,0.5
	s0.5-0.2,0.5-0.5c0-1.2-1.2-2.5-2.5-3c-1.5-0.5-3.7-0.2-5.2,1.5c-1,1.2-1.7,3.5-0.2,5.7c1.2,2,4,3,6.5,2.5c2.7-0.5,4.5-2.5,6.5-4.7
	s4.2-4.7,8.2-6.4c5-2.2,11.7-2,16.7,0.5c2.5,1.5,4.2,4,5.2,4.9C140.7,11.2,140.7,11,140.5,8.5z M249.3,19.4c0-1.5-1.2-2.5-2.5-2.5
	c-1.2,0-2.5,0.7-2.5,2h-14.4c0-1.7-0.5-3.5-1.5-5.2c0,0,0,0.2,0.2,0.2c1,1.5,4.5,3,6.2,0.5c1.2-1.7-0.5-3.7-1.5-4.2
	c-0.7-0.2,0,0.5,0,1.5s-1,2-2.2,1.7c-0.5,0-1.7-0.5-3-1.5c-0.7-0.5-1.7-1.5-2-2.7c-0.2-1,1-1.5,2.2-1.2c-8.2-4.7-21.7-2.7-35.9,11.1
	h-20.4c0-0.5,0-1.2,0-1.7c-0.5-4-4.5-9.1-11.7-10.1c-6-0.7-11.2,2-14.2,6.9c-3,5.4-2.5,12.6,1,17.5c4,5.7,10,7.9,15.4,7.9
	c6.5,0,12.7-3,18.9-8.4c-1.5,2.5-1,6.4,2.2,7.2c4.2,1,5.7-4.2,4.5-3c-1.5,1.5-4,1.2-4.7-0.7c-0.5-1.2-1.2-3.5,2.2-7.4
	c0-0.2,0.2-0.2,0.5-0.5c1.5-1.5,3-3,4.2-4.4c1-1,1.7-2,2.7-2.7h19.2c0,0.7,0,1.7,0.2,2.5c0.7,2.7,4,4.9,7.5,4.9
	c4.2,0.2,8.5-2,9.7-5.9c0.2-0.5,0.2-1,0.5-1.7h14.4c0.2,1,1.2,2,2.5,2C248.3,21.8,249.6,20.6,249.3,19.4z M171.6,19.6h19.4
	c-0.2,0.5-0.7,0.7-1,1.2c-9.7,10.1-18.9,15.3-27.4,15.3c-5.2,0-9.7-2-13.7-5.9c-4.2-4.4-4.5-11.6-2-15.8c2.5-4.9,7.5-7.2,13-6.4
	c8.5,1,9.7,7.2,9.7,8.9c0,0.7,0,1.5,0,2h-6.5c-0.5-1.2-1.5-2-2.5-2.2c-1.5-0.2-3,0.2-4,1.5c-1.5,1.7-1.5,4.2,0,6.2
	c1.7,2.5,5.2,3.7,9,2.5C168.6,25.6,170.9,23.1,171.6,19.6L171.6,19.6z M165.2,25.3c-3.2,1-6.2,0.5-7.7-1.7c-1.2-1.5-1.2-3.5,0-4.9
	c0.7-1,2-1.2,3-1c1,0.2,1.5,1,2,2v0.5h7.2C168.9,22.3,167.4,24.6,165.2,25.3z M213.2,19.9h14.2c0,0.2,0,0.7-0.2,1
	c-1,2.7-3.5,5.4-8,5.2c-3,0-5-1.5-5.7-4C213,21.4,213,20.6,213.2,19.9z M213.5,18.9c0.2-0.7,0.7-1.2,1.2-1.5c2-1.2,3.5-0.5,4-0.2
	c0.7,0.5,1.2,1.2,1.2,1.7l0,0H213.5z M227.4,18.9h-6.5c0-1-0.5-2-1.5-2.5c-1.2-0.7-3.2-1-5,0.2c-1,0.5-1.5,1.5-1.7,2.5h-18.2
	c12.7-12.1,22.7-11.6,28.4-8.4C226.2,12.5,227.7,15.9,227.4,18.9z M142.2,33c-0.5-1-0.5-1-1,0c-0.7,1.7-2.2,3.2-4,4
	c-1.2,0.5-1.2,0.5-0.2,1.5c2,1.5,3.7,5.2,4.5,7.9c0.2,0.5,0.2,0.7,0.2,0.7c-1.2,0-2.5,1-2.5,2.5s1,2.5,2.5,2.5s2.5-1,2.5-2.5
	s-1-2.5-2.5-2.5c0,0,0.2-0.5,0.2-0.7c0.7-2.7,2.5-6.2,4.5-7.9c1-0.7,1-1-0.2-1.5C145,36.2,143.2,34.7,142.2,33z"/>
</svg>
