<svg version="1.1" xmlns="http://www.w3.org/2000/svg" xmlns:xlink="http://www.w3.org/1999/xlink" x="0px" y="0px" viewBox="0 0 32 32" enable-background="new 0 0 32 32" xml:space="preserve">
	<g>
		<path fill="#777777" d="M16.3,30.4L2.2,17.3C0.8,15.6,0,13.4,0,11.1c0-5.2,4.3-9.5,9.5-9.5c2.4,0,4.8,0.9,6.5,2.5c1.7-1.6,4.1-2.5,6.5-2.5c5.2,0,9.5,4.3,9.5,9.5c0,2.2-0.8,4.4-2.2,6.2l-0.1,0.1l-11,10l-1.3-1.5L28.3,16c1.1-1.3,1.7-3.1,1.7-4.8c0-4.1-3.4-7.5-7.5-7.5c-2.2,0-4.3,1-5.7,2.6L16,7.2l-0.8-0.9c-1.4-1.7-3.5-2.6-5.7-2.6C5.4,3.6,2,7,2,11.1c0,1.7,0.6,3.5,1.7,4.8l14,12.9L16.3,30.4L16.3,30.4z"/>
		<path fill="#777777" d="M15.2,23.9L5.1,14.5c-0.7-1-1.1-2.2-1.1-3.4c0-3,2.5-5.5,5.5-5.5v2C7.6,7.6,6,9.2,6,11.1c0,0.7,0.2,1.5,0.7,2.1l9.9,9.2L15.2,23.9z M19.4,9.6l-1.8-1c0.7-1.3,1.9-2.2,3.3-2.6c1.4-0.4,2.9-0.2,4.2,0.5l-1,1.8c-0.8-0.4-1.8-0.6-2.7-0.3C20.6,8.2,19.9,8.8,19.4,9.6z"/>
	</g>
</svg>