<svg version="1.1" xmlns="http://www.w3.org/2000/svg" xmlns:xlink="http://www.w3.org/1999/xlink" x="0px" y="0px" viewBox="0 0 22 32" enable-background="new 0 0 22 32" xml:space="preserve">
	<g>
		<path fill="#ffffff" d="M3.2,19.2c-4.3-4.4-4.3-11.5,0-15.8C5.3,1.2,8.1,0.1,11,0.1c0,0,0,0,0,0c2.9,0,5.7,1.2,7.8,3.3c4.3,4.4,4.3,11.5,0,15.8l-1.4-1.4c3.5-3.6,3.5-9.4,0-13c-1.7-1.7-4-2.7-6.4-2.7h0c-2.4,0-4.7,1-6.4,2.7c-3.5,3.6-3.5,9.4,0,13L3.2,19.2z"/>
		<path fill="#ffffff" d="M11,31.9l-5.8-9.4l1.7-1.1l4.2,6.6l4.2-6.6l1.7,1.1L11,31.9z"/>
		<path fill="#ffffff" d="M11,17.1c-3.3,0-6-2.7-6-6c0-3.3,2.7-6,6-6c3.3,0,6,2.7,6,6C17,14.4,14.3,17.1,11,17.1z M11,7.1c-2.2,0-4,1.8-4,4c0,2.2,1.8,4,4,4c2.2,0,4-1.8,4-4C15,8.9,13.2,7.1,11,7.1z"/>
	</g>
</svg>