<svg version="1.1" id="Layer_1" xmlns="http://www.w3.org/2000/svg" xmlns:xlink="http://www.w3.org/1999/xlink" x="0px" y="0px" viewBox="0 0 808 486" enable-background="new 0 0 808 486" xml:space="preserve">
	<g>
		<g>
			<g>
				<path fill="#4D4D4E" d="M220.4,170.3l-24.2-8.1l-22.3,7.6l-12.2-26.4l-32.7-1.1l-45.8-8.9l-1.8,0.4l1-1.5l-0.5-26.3L72,88
					l-6.1-13.2l-15.6-8L32.5,73L3.6,88.7l-0.7-1.4L31,72L18.4,54.2l20.9-31.8l22.8-9.5l29.3,21.4l1.7-0.6l-0.8,1.2l16.1,9.2l17.3-3.2
					l0.1-0.8l0.5,0.4L143,19.5l0.1,0.5l17.6-9.8l6.4,26.6l14.1,21.7l21.6-24.8l8.9-24.6l51.6,4.5l-27.8,10.8l-22.9,21.1l15.8,15.3
					l1.3-0.4l-0.6,1.3l12.2,23.8L209,102.1l8.8,14.5l14.8-2.9l10.2,26.9l-26.5,10.5L220.4,170.3z M197.2,161l21.1,7l-3.6-16.8
					l-10.4-4.8L197.2,161z M184.2,137.1l-8.7,30.6l20.2-6.9l7.3-15.1L184.2,137.1z M163.2,143.1l10.9,23.5l8.4-29.5L163.2,143.1z
					 M205,145l10,4.6l15.8-33.9l-12.8,2.5L205,145z M232,116.6l-15.1,32.6l23.9-9.4L232,116.6z M185.4,135.9l18.2,8.4l12.1-25
					L185.4,135.9z M130.1,140.8l31.3,1.1l2.7-40.4l-29.6,18.8L130.1,140.8z M165.6,102.8l-2.6,38.8l19.5-6.1L165.6,102.8z
					 M86.7,132.5l41.8,8.1l4.2-19.8L86.7,132.5z M166.3,100.8l17.7,34.1l32.3-17.7l-8.9-14.6L166.3,100.8z M108.1,95.7l-23.2,35.7
					l47.4-12L108.1,95.7z M83.4,106.4l0.5,23.7l22-33.8L83.4,106.4z M109.2,94.7l24.2,23.7l19.3-53.6L109.2,94.7z M154.2,65.3
					l-18.9,52.6l28.7-18.2l-0.3-0.6l0.3,0L154.2,65.3z M95,67.7l-11.1,36.8l23.1-10.4L95,67.7z M73.7,87.7l8.8,16.1l10.8-35.6
					L73.7,87.7z M167.1,99.3l40.3,1.7l19.3-38.1l-20.3,5.9L167.1,99.3z M228.2,63.3l-18.6,36.6l29.5-15.3L228.2,63.3z M181.5,60.8
					l-14.8,36.8l37.7-29.2L181.5,60.8z M155.3,63.5l9.8,34.1l14.8-36.8L155.3,63.5z M96.3,66.7L108.2,93l13.8-19.3L96.3,66.7z
					 M124.1,72.6l0.4,0.1l-13.3,18.7L152.6,63L126,52.6L124.1,72.6z M67.4,74.3l5.5,12L94,65.2l-3.3-27.8L67.4,74.3z M51.5,65.7
					l14,7.2l-3.9-25.3L51.5,65.7z M96.1,65l26.4,7.2l2-20.1l-16-6.2L96.1,65z M62.9,45.7L67,72l22.4-35.5L62.9,45.7z M36.2,51.4
					l-3.1,19.8l16.7-5.8l10.6-19.1L36.2,51.4z M20.7,54.7l11,15.6l2.9-18.5L20.7,54.7z M182.4,59.4l23.1,7.6l5.1-21.4l-0.3-0.3
					L234.7,23l21.8-8.5l-43.7-3.8l-8.6,23.8L182.4,59.4z M211.9,46.9l-4.8,20l19.6-5.7L211.9,46.9z M92.2,36.6l3.2,26.7l11.8-18.1
					L92.2,36.6z M166.5,38.8l-10.9,23.1l24.2-2.7L166.5,38.8z M127.5,41.4l25.4,19.4l-10.6-37.8L127.5,41.4z M143.6,21.6l10.9,38.9
					l11.1-23.5l-5.9-24.5L143.6,21.6z M126.2,51l23.2,9L127,43L126.2,51z M38.5,26.5L21,53l13.8-2.9L38.5,26.5z M111.1,45.2l13.6,5.3
					l0.8-8L111.1,45.2z M40.5,23.6l-4.1,26.2l24.7-5.2V14.9L40.5,23.6z M62.8,15.3v28.8l26.8-9.2L62.8,15.3z"/>
			</g>
			<g>
				<path fill="#4D4D4E" d="M162.2,224.5L147,209.6l-20.6,1.7l-7,12.9L108.8,208L96,202.8l-20.1-7.6l-8.2-16l-2.2,0.1l1.9-1.4
					l5.4-28.4l9.6-17.3l0.7,0.4l0.7-0.4L96,156.4l0.7-1.4l0,1.8l32-16l0.4,0.7l0.7,0.3l-12.2,31.8l27.3-16.2l17.9-16.6l-0.6,38.5
					l11.8-11.4l20,7.3l1.3-13.9l1.6,0.1l-1.3,13.8l23.5-6.9l0.4,1.5l-24.1,7.1l0,0.1l-0.3,0l-15,18.5l1.1,0.9l-2,0l-11.4,7l0.9,0.3
					l-2,0.6L162.2,224.5z M148.8,209.2l12.5,12.2l3.7-16.7L148.8,209.2z M111,208.5l8.3,12.7l5.4-10L111,208.5z M140.6,196.7
					L128,209.6l18.2-1.5L140.6,196.7z M112.2,207.1l12.6,2.5L123,203L112.2,207.1z M124.5,202.5l1.8,6.6l11.5-11.7L124.5,202.5z
					 M142.4,196.7l5.4,11.1l15.6-4.3L142.4,196.7z M97.5,201.7l11.3,4.5l5.9-27.5L97.5,201.7z M116.3,178.7l-5.9,27.4l12.2-4.6
					L116.3,178.7z M145.9,196.2l19.1,6.3l-1.2-6.1L145.9,196.2z M168.5,196.4l-1.3,5.6l9.1-5.6L168.5,196.4z M78.4,194.5l17.1,6.4
					l-0.1-14.6L78.4,194.5z M117.6,177.6l6.5,23.3l14.5-5.5l-2.7-0.9l2.8,0L117.6,177.6z M165.3,196.3l0.7,3.6l0.9-3.6L165.3,196.3z
					 M97,185.6l0.1,14.2l16.6-22.2L97,185.6z M168.9,194.8l7.9,0.1l-6.6-5.5L168.9,194.8z M165,194.8l2.3,0l1.5-6.5l-6.1-5.1
					L165,194.8z M143.4,194.6l20,0.1l-2.5-12.2L143.4,194.6z M170.6,187.7l8.3,6.8l14-17.1l-20.6,3L170.6,187.7z M118.8,176.6
					l21.5,17.3l1.8-14.4L118.8,176.6z M143.6,179.8l-1.7,14l17.5-12L143.6,179.8z M69.4,179.1l7,13.8l7.9-14.7L69.4,179.1z
					 M86.2,178.1l-7.9,14.8l17.1-8.3l0-7.1L86.2,178.1z M163.3,181.8l5.9,4.8l1.4-5.9L163.3,181.8z M96.9,177.4l0,6.4l15.3-7.4
					L96.9,177.4z M143.8,178.2l16.1,2l-13.8-20L143.8,178.2z M172.9,171.3l-9.1,8.8l7.3-1.1L172.9,171.3z M174.8,169.9l-2.1,8.9
					l18.9-2.8L174.8,169.9z M146.5,158.2l14.2,20.6l0.6-34.3L146.5,158.2z M118.5,175l23.7,3l2.3-18.4L118.5,175z M93.7,160.8
					l-22.9,16.7l14.4-0.9L93.7,160.8z M74.2,150.9l-4.9,25.7l25.1-18.3L74.2,150.9z M95.3,161.2L87,176.5l8.3-0.5L95.3,161.2z
					 M96.8,159.8l0.1,16.1l17.3-1.1L96.8,159.8z M97.4,158.3l18.4,15.9l11.8-31L97.4,158.3z M74.7,149.4l19.7,7.2l-11.3-22.4
					L74.7,149.4z"/>
			</g>
			<g>
				<path fill="#4D4D4E" d="M217.6,473l-13.5-15.1l-0.5,1.8l-12.2-56.8l-1.2-1.3l1.2,0.1l5.7-33.5l-1.1-0.2l0.7-0.5l-12.6-11.7
					l-0.6,0l0.1-0.6l-29.4-42.9l-1-0.1l0.7-1l7.1-35.6L140,263.9l-16-13.2l-0.2,0.1l-0.2-0.4L95.8,240l-3.5,0.7l2.7-1.9l-2.5-21
					l-0.2,0l0.1-0.3L92,217l0.2-0.1l-14.3-19l5.7,28.2l-1.5,0.3L75,191.4l17.9,23.9l2.6-13.3l1.5,0.3l-2.6,13.3l14.5-8.8l0.8,1.3
					l-14.3,8.8l25,5.3l-4.3,12.8l0.8,0.7l-0.5,0.1l8,13.1l21.2-11.5l-4.3,25.6l20.7,11.4l22.1-7l0.9-1.4l0.2,1.5l22.6,7.9l22.9,11.7
					l5.9,13.8l1.2-0.8l-0.5,1.4l22.3,6l19.2,9.7l-15.9,18.3l0.3,2.4l-0.6-0.7l-3.6,24.5l-18.3,13.8l0,0l-0.4,0.3l0,0.6l-0.4-0.1
					l-12.7,29.1l0.2,0.8l-0.7-0.1l-14.1,18.9l0.7,2.7l-1.1-1.2l-7.8,29.8l14.2,15.9L217.6,473z M193.5,405.2l10.3,47.7l7.3-28.1
					L193.5,405.2z M207.9,404.5l4.5,18.3l12.7-17L207.9,404.5z M194,403.4l16.5,18.4l-4.2-17.4L194,403.4z M207.5,402.9l18,1.4
					l-4.2-16.2l-22-18.4L207.5,402.9z M193.1,401.8l12.8,1l-7.6-31.4L193.1,401.8z M223,387.9l3.8,14.8l11-25.2L223,387.9z
					 M220.9,372.6l1.8,13.6l14.9-10.5L220.9,372.6z M200.9,368.8l20.2,16.9l-1.7-13.4L200.9,368.8z M220.7,370.9l16.5,3.1l-18.5-18.2
					L220.7,370.9z M239.1,345.6l1.2,28.2l17.4-13.1l3.6-24.3L239.1,345.6z M219.1,353.9l19.7,19.4l-1.1-27.1L219.1,353.9z M200,367.1
					l19,3.5l-2-15.6L200,367.1z M186.5,355.6l11.7,10.9l16.9-12L186.5,355.6z M188.4,335.4l-2.9,18.7l29.7-1.2L188.4,335.4z
					 M156.4,312.4l27.7,40.5l2.8-18.4l-0.6-0.4l0.6-0.4l-0.5-18l-0.2,0.1l0.1-0.8L156.4,312.4z M235.9,305.9L219,352.2l18.5-7.7
					L235.9,305.9z M216.6,351.5l0.7,0.7l17.6-48.3l-45.7,30.2l27.5,18L216.6,351.5z M237.4,304.3l1.7,39.6l22-9.1L237.4,304.3z
					 M260.4,309.4l2.5,23.8l13.6-15.6L260.4,309.4z M188.1,314.7l0.5,18l45.8-30.2l-22.1-2.8L188.1,314.7z M238.5,303.3l22.7,29.2
					l-2.5-23.8L238.5,303.3z M156.2,310.8l30.4,2.6l2-17.4l-4.3-26L156.2,310.8z M190,296.9l-1.8,15.9l21.6-13.4L190,296.9z
					 M162.7,275.8l-6.4,32.1l26.5-38.5L162.7,275.8z M214.3,298.3l20.9,2.6l-5.3-12.3L214.3,298.3z M190.9,295.4l21,2.6l16.8-10.5
					l-20.9-10.7L190.9,295.4z M185.7,269.1l4.2,25.2l16.4-18L185.7,269.1z M125.5,250l14.4,11.9l3.6-21.7L125.5,250z M98.7,239.4
					l23.6,8.9l-7.5-12.3L98.7,239.4z M94.3,219l2.2,18.8l11.1-7.8L94.3,219z M108.9,231l-9.4,6.6l13.9-2.9L108.9,231z M110.2,230
					l4.6,3.8l3.1-9.1L110.2,230z M96.3,218.6L109,229l8.5-5.9L96.3,218.6z M178.2,195.8l-4.8-26.8l1.5-0.3l4.8,26.8L178.2,195.8z
					 M195.8,162.1l-34.1-18.9l-28.4-22.9l1-1.2l28.3,22.9l34,18.7L195.8,162.1z M128.4,141.9l-21.7-48.3l58.4,5.6l-0.2,1.6l-55.7-5.4
					l20.6,45.9L128.4,141.9z M210.9,45.9l-8.6-12.2l31-10.2l-21.4-12.9l0.8-1.3L237,23.9l-32.3,10.6l7.4,10.5L210.9,45.9z"/>
			</g>
			<g>
				<path fill="#4D4D4E" d="M275.1,117.2l-13.3-17.7l12.8-23.1l-0.6-0.6l0.5-0.1l-11.2-30.4l-0.9-0.1l0-0.1l-20.1-2.9l17.2-29.2
					l21.2,7.8l0.2-0.3l0.4,0.4l33.8-5.1l28.1,13.8l-10.7,33.3l1.2,0.7l-1.7,0.4l-11.6,18.5l-28.4,10.8l-0.3,0.9l-0.3-0.3L275.1,117.2
					z M263.7,99.4l10.7,14.2l0.4-34.2L263.7,99.4z M276.4,78.2l-0.5,35.2l14.7-20.7L276.4,78.2z M298.6,71.7l-5.8,19.5l26.8-10.1
					l10.5-16.7L298.6,71.7z M277.1,76.7l14.1,14.3l5.7-18.9L277.1,76.7z M265.1,45.5l11,29.9l21.3-4.9l6.4-21.4L265.1,45.5z
					 M305.3,49.5L299.1,70l30.5-7.1L305.3,49.5z M306.5,48.4l24.8,13.7l9.8-30.6L306.5,48.4z M265.4,43.9l37.5,3.5L281.1,23
					L265.4,43.9z M315.6,17.7l-9.5,29.1L340.6,30L315.6,17.7z M282.6,22.3l21.8,24.5l9.5-29.2L282.6,22.3z M244.9,41.1l18.6,2.7
					l16.3-21.6L260.3,15L244.9,41.1z"/>
			</g>
			<g>
				<path fill="#4D4D4E" d="M327.2,256.2l-3.8-18.8l20-19.6l9.3-17.1l-4.7-22.3l17.2-2.9l-3.3-29l-23,2.4l21.1-23.8l3.2,19.7l0,0
					l0.1,0.6l7.1,10.9l16-16.1l14,5.8l3.2-14.8l-0.3,0.2l0.4-1l-20.4-0.8l-2.1,2l1-2.8l-6.3-15.9l15.3-9.3l0-0.1l0.1,0l8.8-17.4
					l-1.1-0.9l1.9-0.1l19.4-10.3l18.4,7.7l0.9-0.1l-0.1,0.3l24.8,5l17-11.9l-13.3-13.6l5.1-17l17-9.2l0.7,1.4l-16.5,8.9l-4.7,15.5
					L482.8,75l20.1,2.4l-5.7-15.1l15.9-9.2l19.1,4.5l-1.4-19.3l24.8-20.4L528.2,6.8l0.6-1.4l28.5,11.5h16.9l-0.8,18l29.8-14.5
					l20.2,10.2L641.3,15L619.9,4.2l0.7-1.4L643,14.1l17.2,3.8l16.9-8l14.2,8.4l11.4-12.3l21.3-3.4l23.6,3L760,18.1l-22,4.7l8.1,14
					l-5.9,19.6l-18.6,2l8.8,26.2l0,0.1l-1.2,23.5L715.4,81l4.3-22.5L708.2,58l-9,18.7L676,80.5l-0.5,20.9l12.4,4.5l12,20.2l-1.3,0.8
					l-10.8-18.2l-3.9,18.9l1.4,27.1l-12.6-20.2l-28.4-18l-1.7,14.7l-27.2,7.9l-25.3-1.3l-27.2,6.4l-39.6-15.3L502,148.2l-24.8,6.1
					l-6.8,23.5l0.3-0.1l-0.7,1.5l-0.5,1.6l-0.2-0.3l-11.8,23.3l1.5,0.5l-31.9,9.3l-19.8,3.9l-20-14.5l-33.4-1.3l-9.3,17.2L325,238
					l3.7,17.9L327.2,256.2z M354.6,200.1l33.1,1.3l19.9,14.3l19.1-3.7l27.1-7.9l-30.2-10.4l-19.8,5.5l-0.1-12.2l-37.3-10L354.6,200.1
					z M425.9,193l28.9,10l-8.6-17.4L425.9,193z M447.7,185.1l8.7,17.4l11.4-22.4L447.7,185.1z M349.7,179.7l4,18.8l10.8-21.3
					L349.7,179.7z M405.2,187.6l0.1,9.7l15.7-4.4L405.2,187.6z M422.2,162.3l2.1,29.6l22.1-8.1l21.6-5.4l-9.8-15.9l-19.1,6.1
					L422.2,162.3z M405.6,186.1l17.1,5.8l-2-28.4L405.6,186.1z M368.2,176l34.1,9.1l-14.9-18.4L368.2,176z M403.2,164.4l1.7,19.8
					l14.8-22.1L403.2,164.4z M389,166.3l14.3,17.7l-1.7-19.4L389,166.3z M459,160.7l10,16.3l6.9-24l25.3-6.2l21.5-19.7l40.1,15.5
					l27-6.3l25.2,1.3L641,130l1.9-16.2l30.8,19.5l9.6,15.3l-1.1-21.3l0-0.1l4.2-20.3l-12.5-4.6l0.6-23.3l23.6-3.8l9.1-18.9l13.3,0.5
					l18.5-2l5.4-18l-8.9-15.3l21.3-4.6L746.8,6.9L723.9,4l-20.5,3.3l-11.8,12.9L677,11.6l-16.6,7.9l-17.4-3.8l-19.2,16.8l-20.5-10.4
					l-31.5,15.3l0.8-19h-15.1l-25,20.5l1.5,20.6l-20.6-4.8L499.1,63l6.1,16.3l-22.6-2.7l-18.1,12.6L438.9,84l-8.2,29.7l0.2-0.1
					l-0.7,2l-0.4,1.5l-0.1-0.1l-6.6,17.8l0.9,0.3l-1.2,0.7l-0.7,24.9l17.1,6.4L459,160.7z M370.8,158.6l-3.7,16.1l18.7-9L370.8,158.6
					z M363.6,148.9l2.6,22.7l3.2-13.9L363.6,148.9z M400.3,149.2l-11.1,15.5l12.3-1.7L400.3,149.2z M371.5,157.3l15.2,7.2l-0.9-21.6
					L371.5,157.3z M387.4,142.3l0.9,21.2l11.5-16L387.4,142.3z M401.9,148.6l1.2,14.2l16.2-2.2L401.9,148.6z M402.4,147.1l18.2,12.5
					l0.6-23.1L402.4,147.1z M358.9,128.6l-16.3,18.3l19-1.9L358.9,128.6z M405.3,130.6l-3.2,14.9l18-10.1L405.3,130.6z M406.6,129.4
					l15,4.9l6.4-17.1L406.6,129.4z M384.8,128l18.6,0.7l-6.3-12.3L384.8,128z M416.5,99.2l-10.3,28.7l22.1-12.7L416.5,99.2z
					 M398.3,115.4l6.3,12.3l9.8-27.3L398.3,115.4z M377.7,113.4l5.2,13l7.3-20.6L377.7,113.4z M391.8,106l-7.1,19.9l11.7-10.9
					L391.8,106z M392.8,104.5l4.8,9.4l15.8-14.8L392.8,104.5z M417.3,97.6l11.9,16l8.2-29.6l-18.1,1.2l-2,11.2l0.3-0.1l-0.3,0.9
					l0.3,0.2L417.3,97.6z M401.2,86.9l-8.1,15.9l21.3-5.7L401.2,86.9z M717,80.8l10.9,21.6l0.9-17.5l-8-24L717,80.8z M403,86.3
					l12.6,9.8l1.9-10.8L403,86.3z M419.1,76.9l-14.6,7.8l13.4-0.9L419.1,76.9z M420.8,76.6l-1.3,7.1l15.5-1.1L420.8,76.6z"/>
			</g>
			<g>
				<path fill="#4D4D4E" d="M652.2,231.7l-25.3-2.6l-3.3,2l2.2-2.8l-12.5-17.9l-37.3,4.5l-11.6-16.1l-0.4,0.2l-0.1-0.8L545,183.7
					l-25.5-15.6l-0.1,0.2l-0.2-0.2l-17.9,12l0,0.4l-0.3,0l-10.3,15.2l-23.7-17.7l32.9,0.8l1.1-31.3L488.4,117l-11.7,38.8l-12-24.3
					l-5.5,31.6l-20-16.2l-0.4,1l-0.5-1.8l-0.7-0.5l0.4-0.3l-9.4-30.2l35-27.1v-1.6l0.9,1l1.9-1.5l-1.1,2.4l22.7,24.8l0.2-0.8l0.1,0.3
					l14.9-34.3l-0.3-0.7l0.6,0l1.4-3.3l-0.1,3.3l23.3-0.5l4.3-19.6l54.9,20L572.1,37l-40.4,2.4l-0.1-1.6l41.6-2.5l15.8,41.9
					l34.9-47.3l0.4,1.1l25.3,15L660,17l17,21.9l14.4-21.1L702,31.9l19.7-5.9l1.5-25.1l14.2,20.9l-0.6,0.4L737,23l-13.8,4.2l-2,32.8
					l-19.8-26.2L679,40.5l29.1,16.1l-0.8,1.4l-28.1-15.6l21.7,35.9l-38.7-23l-20.6,19.5l33.7,4.2l-0.2,1.6l-32.5-4.1l33.6,25.6
					L645.8,115l39,12.2l-11,7.2L660.1,165l16.2,3.2l7.2-16.8l1.4,0.6l-7.7,18l-17.4-3.4l2,14.5l13.7,17.3l3.2-0.4l-2.9,1.7l-8,20.7
					L652.2,231.7z M629.2,227.8l22.6,2.3l14.8-10.8l7.1-18.4L629.2,227.8z M614.4,209.3l12.4,17.7l18.7-24.2l-29.9-17.7L614.4,209.3z
					 M647,203.3l-17.1,22.2l41.8-25.2L647,203.3z M590.6,184.7l-13,28.3L612,209L590.6,184.7z M565.6,198l10.5,14.5l12.6-27.3
					L565.6,198z M592.2,184.1l20.7,23.5l1-23L592.2,184.1z M647.5,173.7l-0.1,28l26.3-3.2l-13.1-16.6L647.5,173.7z M615.9,183.6
					l29.9,17.7l0.1-28.5l-15.4-9.7L615.9,183.6z M562,171.6l3.2,24.9l23.5-13.1L562,171.6z M546.7,183l16.8,12.9l-3.1-24.1L546.7,183
					z M471.7,179.8l18.5,13.7l8.8-13.1L471.7,179.8z M591.9,182.6l21.5,0.5L603,166.2L591.9,182.6z M604.3,165.4l10.5,17l13.9-19.5
					L604.3,165.4z M562.5,170.1l27.6,12.2l11.8-17.3l-18.2-11.8L562.5,170.1z M535.3,150.4l10.5,31.4l14-11.4L535.3,150.4z
					 M520.4,166.9l23.6,14.4l-10.6-31.6L520.4,166.9z M647.5,171.8l12.6,7.9l-1.9-13.9L647.6,149L647.5,171.8z M502.3,151.2l-1,27
					l16.8-11.3l-15.7-17.5L502.3,151.2L502.3,151.2z M631.6,161.8l14.3,9l0.1-22.8L631.6,161.8z M535.5,148.6l24.8,20.2l1.6-24.4
					L535.5,148.6z M563.5,144.5l-1.6,24.1l20.2-16.2L563.5,144.5z M503.4,148.3l15.8,17.6l12.9-17.1L503.4,148.3z M603.1,163.3
					l0.4,0.6l26.5-2.7l0.2-0.3l0.1,0.1l15.7-14.9l-5.4-16.4l32.4,3.4l8.2-5.4l-36.7-11.5l0,0.5l-1.3-0.8l-1.9-0.6l0.6-0.3l-21.5-14.3
					l-31.4,38.7l1.8-27.1l-26.7,30.8l20,8.5l18.7,12.1L603.1,163.3z M647.6,145.9l11.3,18l13.2-29.3l-29.2-3.1L647.6,145.9z
					 M440.2,145.7l17.9,14.5l5.2-29.5L440.2,145.7z M465.1,128.8l11.2,22.7l11.1-36.7l-22.3-24.4V128.8z M502.4,146.7l29.9,0.5
					l-9-16.7l-0.1,0.7l-1-2.7l-19-7.3L502.4,146.7z M534,146.4l0.3,0.8l27.4-4.4l-17-31.8l-20.6,17.2l9.9,18.5L534,146.4z M489.7,116
					l11.2,27.8l0.8-23.1L489.7,116z M463.6,92.1l-22.9,51.5l22.9-14.9V92.1z M430.4,115.6l8.6,27.8l23.4-52.5L430.4,115.6z
					 M545.8,110l17.1,32l27.5-31.8l-26.1-13.3L545.8,110z M592.5,110.3l-1.6,24.3L619,99.9l-29.4-19.4l2.8,29.1l0.1,0l0,0.5
					L592.5,110.3L592.5,110.3z M503.4,119.6l18.2,7l-16.9-44.3L503.4,119.6z M529.3,80.5l-5.3,45.6l19.9-16.6L529.3,80.5z
					 M505.2,79.1l17.3,45.6l5.4-46L505.2,79.1z M489.4,114.2l12.5,4.8l1.3-36.5L489.4,114.2z M640.8,77.1l3.4,36.9l29-12.3
					L640.8,77.1z M621.3,99.5l21.3,14.1l-3.3-36.2L621.3,99.5z M565.8,95.9l24.9,12.8l-2.7-28.4L565.8,95.9z M530.6,79.6l14.5,29
					l17.7-12.5L530.6,79.6z M591.1,79.5L620,98.6l18.1-22.4L591.1,79.5z M529.7,77.4l34.6,17.7l22.8-16l-53.4-19.5L529.7,77.4z
					 M623.4,33.1L590.4,78l47.4-3.2l-0.7-0.5l1.6,0.2L623.4,33.1z M663.4,54.2l32.9,19.5l-19.5-32.2L663.4,54.2z M625.2,33.3
					l14.7,39.8l9.2-25.6L625.2,33.3z M650.4,48.3l-8.7,24.2l19.1-18.1L650.4,48.3z M703,33.2l16.9,22.4l1.7-28L703,33.2z M651,46.8
					l11,6.6l13.7-12.9L675,40l0.7-0.2l-15.2-19.6L651,46.8z M691.5,20.5l-12.6,18.4l21.5-6.5L691.5,20.5z M724.6,5.6l-1.2,19.9
					l12.2-3.7L724.6,5.6z M697.4,200.3l-1.1-15.4l14.5-9.6l0.7-13.1l-2.8-14.8l1.5-0.3l2.9,15l-0.8,14.1l-14.4,9.5l1,14.5
					L697.4,200.3z"/>
			</g>
			<g>
				<path fill="#4D4D4E" d="M771.2,483.9l-18.3-8.3l20.8-10.9l0.1-0.3l0.3,0l16.6-15l0.1-0.4l0,0l3.5-18.7l11.5,20.2l-16.8,16.3
					l-13.9-0.7L771.2,483.9z M756.4,475.5l13.6,6.1l3.2-14.9L756.4,475.5z M776.3,464.6l11.7,0.6l2.2-13.2L776.3,464.6z M792,450.7
					l-2.2,13.1l13.1-12.7L792,450.7z M792.3,449.1l11.1,0.4l-8.4-14.7L792.3,449.1z M715.5,469.4l-8.1-19.2l17-1L715.5,469.4z
					 M709.7,451.6l5.8,13.8l6.4-14.5L709.7,451.6z M728.4,437.2l-0.9-0.9l-18.3-2.3l-5.2-19.5l-0.2,0.1l0-0.9l-14.9-8.4l-0.8,0.9
					l-0.1-1l-39.6,8.4l9.7-20.8l-0.5,0.1l1.1-1.6l0.7-26.4l20.1-3.5l0.7-1l0.2,0.5l20.1-13.7l-0.2-3.3l1.4,2.7l21.6-7.8l-2.7,13.5
					l0,0l0,0.1l10.9,4.8l9.5-17.6l6.5,25.9l0.8-0.2l-0.6,1.2l8.3,24.4l-12.2,23.7l-15.2,21.1L728.4,437.2z M710.5,432.6l15.1,1.9
					L706,415.8L710.5,432.6z M705.8,413.4l21.5,20.5l5.3-37.3L705.8,413.4z M734,397.7l-4.9,34.8l13.2-18.3L734,397.7z M734.7,395.7
					l8.5,16.9l10.6-20.5L734.7,395.7z M704,387.9l1.2,24l27.1-17l-17.7-19.2L704,387.9z M689.9,404.2l13.7,7.7l-1.1-22.3L689.9,404.2
					z M660,392.3l-8.9,19.2l36.8-7.8l-1.4-18.6L660,392.3z M688,384.3l1.4,18.2l13.1-15l-1.8-35.9L688,384.3z M746.8,368.7
					l-11.9,25.3l19.3-3.7L746.8,368.7z M716.1,375l16.9,18.4l0.1-0.8l0.4,0.8l12-25.5L716.1,375z M679.7,364l-18.3,26.3l24.8-6.8
					L679.7,364z M660.9,366.4l-0.6,22.7l17.9-25.7L660.9,366.4z M702.2,351.4l1.7,34.3l9.7-11.1l0-0.1l0.1-0.1L702.2,351.4z
					 M680.8,362.6l6.4,19.2l12.4-32L680.8,362.6z M731.9,359.3l-14.6,13.7l27.5-6.7L731.9,359.3z M702.7,349l11.6,23.3l4.3-18.6
					L702.7,349z M720.2,354.1l-4.2,18l14.4-13.6L720.2,354.1z M732.9,358.1l12.9,7l-5.3-21.1L732.9,358.1z M703.8,347.7l15.2,4.4
					l2.1-10.7L703.8,347.7z M418.6,396l-8.5-22.9l-0.6-0.1l0.3-0.6l-11.3-18.1l-0.8-18.4l5.1-15.2l-1.1-1.4l0.1,0L391,305l0.7-14.9
					l-0.1,0.1l0.1-0.9l-19.5-7.8l-12.2-16.2l-12.8,23L333.5,274l-1.3,0.5l0.7-1.4l-5.6-16.7l1.5-0.5l5.1,15.2l9.2-18.6l-20.7-15.1
					l30.4-5.9l-9.4-12.6l1.3-0.9l10,13.5l23.4,17.7l9.3-49.9l12.2,36.4l7.8-20.4l23.5,28.1l-4.9-32l30.2,21.3l2.1-11.9l-2.5-15.7
					l-2.2-0.6l37.7-10.7l-1,18.7l22.7-12.6l1.8-10.5l-14.8-9l-23.5-25.6l-17.4,7.7l-0.6-1.4l18.4-8.2l24.2,26.4l14,8.4l4.2-24.8
					l5.8,30.3l20.9-11.1l5.6,30.1l12.3-14.7l1.2,1l-12.3,14.7l23.5,0.3l0,0.8l0.6-0.5l15.7,17.3l12.3,1.3l8.1-22.9l1.5,0.5l-7.8,22.1
					l19.7-4.3l0.4-0.7l12.8,16.4l12-13l1.2,1.1l-12.1,13l15.5,12.4l-10.8,11.6l0.4,1.9l-0.6-0.5l-2.5,27.8l4.8,19.7l21.2,8.3
					l29.6,2.7l-0.1,1.6l-29.8-2.7l-20.4-7.9l0.2,0.9L629,304l-14.3-21.5l24.9,13.2l-12.1-21.8l2.2-17l-15.4-7.5l-9.5-15.6l-0.8,0.2
					l0.1-0.4l-11.7-1.3L582,250.7l0.9,0.3l-1.3,0.6l1.3,13.7l-10.3,12.3l-11.3-17.4l-9.7-17.7l-0.6,0.6l0-1.4l-2-0.7l1.1-0.3
					l-13.7-11l-0.2,0.2l-0.3-0.6l-26-6l-1.1,0.5l0.1-0.8l-17.8-7.6l10.4,18l19.1,4.7l-16.3,12.3l0.1,0.9l-1-0.4l-20,6.8l-6.5-18.2
					l-0.4-0.2l0.1-0.2l-17.2-16.9l-2,11.3l0.7,0.5l-0.5,0.3l7,17.6l2,0.4l-1.3,0.6l16.9,19.3l1.3-0.8l-0.3,0.8l20.6-3.8l-2.4,15.8
					l1.9,1.2l-2.5,0L471.9,306l1.5,31.2l-15.5,14.9l0.5,15.1l-21,23L418.6,396z M411.9,373.3l7.7,20.8l16.1-4.9l-11.9-14.7
					L411.9,373.3z M425.3,373.9l11.2,13.8l3.1-25.5L425.3,373.9z M441.3,361.5l-3.2,25.8l18.2-20L441.3,361.5z M411.9,371.7l11.4,1.2
					l-0.5-23.4L411.9,371.7z M424.4,348l0.5,24.2l14.5-11.7L424.4,348z M400.5,354.6l10.2,16.2l11.4-23.2L400.5,354.6z M442.5,360.3
					l14.3,5.5l-0.4-12.8L442.5,360.3z M441.2,350l0.2,9.2l13.3-7L441.2,350z M426.3,347.5l13.5,11.2l-0.2-9L426.3,347.5z
					 M399.3,337.3l0.7,15.8l21.3-6.9L399.3,337.3z M441.1,348.4l15.3,2.5l2.9-19.5l-18.7-1.9L441.1,348.4z M460.8,331.9l-2.6,17.8
					l13-12.6L460.8,331.9z M425.2,345.8l14.4,2.4l-0.4-17.5L425.2,345.8z M405.6,321.9l18.1,23.2l14.7-15.9L405.6,321.9z
					 M399.5,335.7l21.7,8.8l-17.3-22.1L399.5,335.7z M460.9,330.2l10.8,5.4l-1.5-29.8l-6.6-19.1l-7.6,15.3L460.9,330.2z M440.7,328
					l18.6,1.9l-4.7-27.6l-12-14.3L440.7,328z M405.3,320.3l33.8,7.5l1.9-39.9L405.3,320.3z M393,305.1l10.1,13.6l3.2-18.6L393,305.1z
					 M408.1,299.5l-3.3,19.1l33.6-30.5L408.1,299.5z M630.3,303.1l15,12.6l-4.3-17.5l-21.5-11.4L630.3,303.1z M393.3,289.3l-0.7,14.3
					l14-5.3l3-17.6L393.3,289.3z M478.8,285.4l-6.2,18.2l25.7-18.4L478.8,285.4z M464.9,285.4l6.1,17.8l6.1-17.9L464.9,285.4z
					 M443.5,286.7l11.6,13.8l7.4-15L443.5,286.7z M411.4,280.2l-3,17.5l30.8-11.5L411.4,280.2z M629.3,273.6l11.8,21.4l2.4-26.5
					L631.3,258L629.3,273.6z M373.2,280.2l18.7,7.5l1.7-12.8l-31.6-9.6L373.2,280.2z M395.2,275.4l-1.6,12l15.1-7.9L395.2,275.4z
					 M335.1,273.4l11.8,12.3l11.4-20.4L335.1,273.4z M431.1,268.4l11.2,16.8l19.9-1.2l-11-13.4L431.1,268.4z M412.8,278.9l27.4,5.9
					l-10.9-16.3L412.8,278.9z M480.7,274.9l-14.1,8.9l11.1-0.1L480.7,274.9z M482.6,274.3l-3.2,9.5l18.6-0.1L482.6,274.3z
					 M453.4,270.8l10.6,12.9l15.8-10L453.4,270.8z M484.3,273.5l15.8,9.6l2-12.9L484.3,273.5z M395.4,273.8l14.2,4.3l-9.9-36.3
					L395.4,273.8z M400.9,240.4l10.3,37.6l16-10.1l-0.7-0.1l1.7-0.7L400.9,240.4z M563.2,260.1l9.6,14.8l8.5-10.1l-1.2-12.5
					L563.2,260.1z M361.7,263.5l32.2,9.8l4.6-34L379,251.1L361.7,263.5z M452,269.1l28.2,3l-16.3-18.6l-18.2,7.9L452,269.1z
					 M344.3,253.4l-9.1,18.4l23.1-8.1L344.3,253.4z M432.6,267l17.2,1.9l-5.6-6.8L432.6,267z M640.6,246.5l4.2,20.1l8.9-9.6
					L640.6,246.5z M432.5,247.8l-2,18.4l12.6-5.5L432.5,247.8z M631.8,256.4l11.3,9.8l-4.1-19.7L631.8,256.4z M402,239.3l27,26.5
					l2.1-19.3l-1.6-0.3l0.1-0.1L402,239.3z M359.9,262.4l0.3,0.4l17.1-12.3l-22.9-17.3l-9.3,18.8l14.7,10.7L359.9,262.4z M433.9,247
					l10.7,13l16.9-7.3L433.9,247z M553.5,242.5l8.9,16.2l16.4-7.5L553.5,242.5z M479,240.3l5.5,15.3l16.9-5.8L479,240.3z
					 M616.1,248.5l14.3,7l7.8-10.8l-0.1-0.1l0.1-0.1l-11.5-14.8L616.1,248.5z M434.3,245.5l28.5,5.9l-6.6-16.5L434.3,245.5z
					 M326.1,238.1l17.6,12.9l8.9-18L326.1,238.1z M554.7,241.2l25.8,8.9l10.1-17.4L554.7,241.2z M387.7,205.4l-8.1,43.5l18.8-11.4
					L387.7,205.4z M478.7,238.5l23.9,10.2l-2.2-14.4l-10.9-18.9L478.7,238.5z M502,235l2.1,13.5l13-9.8L502,235z M606.6,233.5
					l8.4,13.8l10.2-17.8L606.6,233.5z M427.9,214.6l4.6,30.1l22.6-10.9L427.9,214.6z M400.4,237.3l29.3,7.2l-22-26.3L400.4,237.3z
					 M576.3,215.2l-22.2,24.6l36.5-8.6L576.3,215.2z M537.6,228.5l13.5,10.9l-0.7-23.8L537.6,228.5z M551.9,214.5l0.7,24.6l21.9-24.3
					L551.9,214.5z M460.5,221l16.9,16.5l10.6-22.8L460.5,221z M512.3,222.2l22.6,5.2l-7-12.3L512.3,222.2z M528.9,213.9l7.6,13.4
					l13.3-13.5L525.6,196L528.9,213.9z M491.9,213.9l17.4,7.4l3.3-19.6l-21.2,11.8l1.1,0.3L491.9,213.9z M514.3,200.7l-3.5,20.4
					l16.5-7.4l-3.4-18.3L514.3,200.7z M457.4,205.4l2.2,14.3l26.6-6.1L457.4,205.4z M487.5,212l1.1,0.5l0.9-16.8l-30.3,8.6l28.5,8.1
					L487.5,212z M526,194.3l24,17.6l-5.1-27.6L526,194.3z M516.1,190.1l-1.5,8.7l8.3-4.6L516.1,190.1z M516.4,188.4l7,4.2l-4.1-21.1
					L516.4,188.4z M483.3,371.5l1.7-22.8l13.8-13.3l-1.8,26.2L483.3,371.5z M486.4,350.9l-1.3,17.3l9.9-7.2L486.4,350.9z M486.8,349
					l8.7,10.1l1.4-19.9L486.8,349z M766,336.5l-19-10.3l-0.4,0.3l-0.1-0.2l-12.8,4.4l-16.6-27.3l21.6,4.7l0.4-1.4l0.8,1.8l15.2,10.8
					L766,336.5z M748.4,325.2l13.1,7.1l-7.1-11.4L748.4,325.2z M739.6,311.3l-4.4,17.2l10.7-3.7L739.6,311.3z M720.4,305.7l13.4,22
					l4.7-18.1L720.4,305.7z M741.3,311.3l5.9,12.8l6.1-4.3L741.3,311.3z M689.5,312.7l-6.5-9l-15.9,3.7l-9.5-14.4l14.4-14.6
					l11.7,23.3l12.3-7.7l0.8,1.3l-12.3,7.7l6.3,8.7L689.5,312.7z M672.1,282.3l-3.8,23.3l13.8-3.2L672.1,282.3z M659.6,293.2
					l7.4,11.2l3.6-22.4L659.6,293.2z M697.7,275.6l-1.6-0.2l2.4-16.9l-16.4-13.3l1-1.2l17.1,13.9L697.7,275.6z M144.9,158.6
					l-16.4-16.5l1.1-1.1l16.4,16.5L144.9,158.6z"/>
			</g>
			<g>
				<polygon fill="#4D4D4E" points="603.7,165.1 602.3,164.5 615,136.7 631,161.5 629.7,162.4 615.3,139.9 			"/>
			</g>
			<g>
				
					<rect x="586" y="136.4" transform="matrix(0.9261 0.3774 -0.3774 0.9261 97.9552 -210.7366)" fill="#4D4D4E" width="1.6" height="16.4"/>
			</g>
			<g>
				<polygon fill="#4D4D4E" points="614.5,138.8 589.9,109 643.6,114.4 643.4,115.9 593.5,111 615.7,137.8 			"/>
			</g>
			<g>
				<polygon fill="#4D4D4E" points="533.4,59.2 532.7,57.8 572.4,35.4 623.6,30.7 623.7,32.3 572.9,36.9 			"/>
			</g>
			<g>
				<polygon fill="#4D4D4E" points="438.4,167.8 438.1,147.3 421.9,161.7 420.9,160.5 439.6,143.9 440,167.8 			"/>
			</g>
			<g>
				<polygon fill="#4D4D4E" points="438.4,146.3 421.6,135.9 422.5,134.6 439.2,145 			"/>
			</g>
			<g>
				
					<rect x="138" y="51.6" transform="matrix(0.319 0.9478 -0.9478 0.319 158.9228 -85.1921)" fill="#4D4D4E" width="1.6" height="32.8"/>
			</g>
		</g>
		<g>
			<path fill-rule="evenodd" clip-rule="evenodd" fill="#4D4D4E" d="M241.8,137c1.8,0,3.2,1.4,3.2,3.2c0,1.8-1.4,3.2-3.2,3.2
				c-1.8,0-3.2-1.4-3.2-3.2C238.6,138.4,240,137,241.8,137L241.8,137z"/>
			<path fill-rule="evenodd" clip-rule="evenodd" fill="#4D4D4E" d="M215.4,147.4c1.8,0,3.2,1.4,3.2,3.2s-1.4,3.2-3.2,3.2
				c-1.8,0-3.2-1.4-3.2-3.2S213.6,147.4,215.4,147.4L215.4,147.4z"/>
			<path fill-rule="evenodd" clip-rule="evenodd" fill="#4D4D4E" d="M219.4,165.9c1.8,0,3.2,1.4,3.2,3.2c0,1.8-1.4,3.2-3.2,3.2
				s-3.2-1.4-3.2-3.2C216.1,167.4,217.6,165.9,219.4,165.9L219.4,165.9z"/>
			<path fill-rule="evenodd" clip-rule="evenodd" fill="#4D4D4E" d="M196.2,158.2c1.8,0,3.2,1.4,3.2,3.2c0,1.8-1.4,3.2-3.2,3.2
				c-1.8,0-3.2-1.4-3.2-3.2C192.9,159.7,194.4,158.2,196.2,158.2L196.2,158.2z"/>
			<path fill-rule="evenodd" clip-rule="evenodd" fill="#4D4D4E" d="M194.7,170.8c3.1,0,5.6,2.5,5.6,5.6c0,3.1-2.5,5.6-5.6,5.6
				c-3.1,0-5.6-2.5-5.6-5.6C189.2,173.3,191.7,170.8,194.7,170.8L194.7,170.8z"/>
			<path fill-rule="evenodd" clip-rule="evenodd" fill="#4D4D4E" d="M162.1,139.4c1.8,0,3.2,1.4,3.2,3.2c0,1.8-1.4,3.2-3.2,3.2
				c-1.8,0-3.2-1.4-3.2-3.2C158.9,140.9,160.4,139.4,162.1,139.4L162.1,139.4z"/>
			<path fill-rule="evenodd" clip-rule="evenodd" fill="#4D4D4E" d="M129.1,138.3c1.8,0,3.2,1.4,3.2,3.2c0,1.8-1.4,3.2-3.2,3.2
				c-1.8,0-3.2-1.4-3.2-3.2C125.9,139.8,127.3,138.3,129.1,138.3L129.1,138.3z"/>
			<path fill-rule="evenodd" clip-rule="evenodd" fill="#4D4D4E" d="M83.1,129.4c1.8,0,3.2,1.4,3.2,3.2c0,1.8-1.4,3.2-3.2,3.2
				c-1.8,0-3.2-1.4-3.2-3.2C79.9,130.8,81.3,129.4,83.1,129.4L83.1,129.4z"/>
			<path fill-rule="evenodd" clip-rule="evenodd" fill="#4D4D4E" d="M82.6,102.7c1.8,0,3.2,1.4,3.2,3.2c0,1.8-1.4,3.2-3.2,3.2
				c-1.8,0-3.2-1.4-3.2-3.2C79.4,104.1,80.8,102.7,82.6,102.7L82.6,102.7z"/>
			<path fill-rule="evenodd" clip-rule="evenodd" fill="#4D4D4E" d="M72.7,84.4c1.8,0,3.2,1.4,3.2,3.2s-1.4,3.2-3.2,3.2
				c-1.8,0-3.2-1.4-3.2-3.2S70.9,84.4,72.7,84.4L72.7,84.4z"/>
			<path fill-rule="evenodd" clip-rule="evenodd" fill="#4D4D4E" d="M66.5,71c1.8,0,3.2,1.4,3.2,3.2c0,1.8-1.4,3.2-3.2,3.2
				s-3.2-1.4-3.2-3.2C63.3,72.4,64.7,71,66.5,71L66.5,71z"/>
			<path fill-rule="evenodd" clip-rule="evenodd" fill="#4D4D4E" d="M91.2,31.9c1.8,0,3.2,1.4,3.2,3.2c0,1.8-1.4,3.2-3.2,3.2
				c-1.8,0-3.2-1.4-3.2-3.2C88,33.3,89.5,31.9,91.2,31.9L91.2,31.9z"/>
			<path fill-rule="evenodd" clip-rule="evenodd" fill="#4D4D4E" d="M108.3,41.7c1.8,0,3.2,1.4,3.2,3.2c0,1.8-1.4,3.2-3.2,3.2
				c-1.8,0-3.2-1.4-3.2-3.2C105,43.1,106.5,41.7,108.3,41.7L108.3,41.7z"/>
			<path fill-rule="evenodd" clip-rule="evenodd" fill="#4D4D4E" d="M126.4,38.3c1.8,0,3.2,1.4,3.2,3.2c0,1.8-1.4,3.2-3.2,3.2
				c-1.8,0-3.2-1.4-3.2-3.2C123.2,39.7,124.6,38.3,126.4,38.3L126.4,38.3z"/>
			<path fill-rule="evenodd" clip-rule="evenodd" fill="#4D4D4E" d="M154.3,59.6c1.8,0,3.2,1.4,3.2,3.2c0,1.8-1.4,3.2-3.2,3.2
				c-1.8,0-3.2-1.4-3.2-3.2C151,61,152.5,59.6,154.3,59.6L154.3,59.6z"/>
			<path fill-rule="evenodd" clip-rule="evenodd" fill="#4D4D4E" d="M123.2,70c1.8,0,3.2,1.4,3.2,3.2c0,1.8-1.4,3.2-3.2,3.2
				c-1.8,0-3.2-1.4-3.2-3.2C120,71.4,121.4,70,123.2,70L123.2,70z"/>
			<path fill-rule="evenodd" clip-rule="evenodd" fill="#4D4D4E" d="M94.9,62.3c1.8,0,3.2,1.4,3.2,3.2c0,1.8-1.4,3.2-3.2,3.2
				c-1.8,0-3.2-1.4-3.2-3.2C91.6,63.7,93.1,62.3,94.9,62.3L94.9,62.3z"/>
			<path fill-rule="evenodd" clip-rule="evenodd" fill="#4D4D4E" d="M108,91.3c1.8,0,3.2,1.4,3.2,3.2c0,1.8-1.4,3.2-3.2,3.2
				c-1.8,0-3.2-1.4-3.2-3.2C104.8,92.8,106.2,91.3,108,91.3L108,91.3z"/>
			<path fill-rule="evenodd" clip-rule="evenodd" fill="#4D4D4E" d="M133.8,116.5c1.8,0,3.2,1.4,3.2,3.2c0,1.8-1.4,3.2-3.2,3.2
				c-1.8,0-3.2-1.4-3.2-3.2C130.6,118,132,116.5,133.8,116.5L133.8,116.5z"/>
			<path fill-rule="evenodd" clip-rule="evenodd" fill="#4D4D4E" d="M165,96.7c1.8,0,3.2,1.4,3.2,3.2c0,1.8-1.4,3.2-3.2,3.2
				c-1.8,0-3.2-1.4-3.2-3.2C161.7,98.2,163.2,96.7,165,96.7L165,96.7z"/>
			<path fill-rule="evenodd" clip-rule="evenodd" fill="#4D4D4E" d="M183.7,132.8c1.8,0,3.2,1.4,3.2,3.2c0,1.8-1.4,3.2-3.2,3.2
				c-1.8,0-3.2-1.4-3.2-3.2C180.4,134.2,181.9,132.8,183.7,132.8L183.7,132.8z"/>
			<path fill-rule="evenodd" clip-rule="evenodd" fill="#4D4D4E" d="M207.9,98.5c1.8,0,3.2,1.4,3.2,3.2c0,1.8-1.4,3.2-3.2,3.2
				c-1.8,0-3.2-1.4-3.2-3.2C204.7,100,206.1,98.5,207.9,98.5L207.9,98.5z"/>
			<path fill-rule="evenodd" clip-rule="evenodd" fill="#4D4D4E" d="M232.1,111.4c1.8,0,3.2,1.4,3.2,3.2c0,1.8-1.4,3.2-3.2,3.2
				c-1.8,0-3.2-1.4-3.2-3.2C228.9,112.8,230.3,111.4,232.1,111.4L232.1,111.4z"/>
			<path fill-rule="evenodd" clip-rule="evenodd" fill="#4D4D4E" d="M217.4,114.2c1.8,0,3.2,1.4,3.2,3.2s-1.4,3.2-3.2,3.2
				c-1.8,0-3.2-1.4-3.2-3.2S215.6,114.2,217.4,114.2L217.4,114.2z"/>
			<path fill-rule="evenodd" clip-rule="evenodd" fill="#4D4D4E" d="M240.2,81.8c1.8,0,3.2,1.4,3.2,3.2c0,1.8-1.4,3.2-3.2,3.2
				c-1.8,0-3.2-1.4-3.2-3.2C237,83.3,238.5,81.8,240.2,81.8L240.2,81.8z"/>
			<path fill-rule="evenodd" clip-rule="evenodd" fill="#4D4D4E" d="M206.1,64.8c1.8,0,3.2,1.4,3.2,3.2c0,1.8-1.4,3.2-3.2,3.2
				c-1.8,0-3.2-1.4-3.2-3.2C202.9,66.3,204.3,64.8,206.1,64.8L206.1,64.8z"/>
			<path fill-rule="evenodd" clip-rule="evenodd" fill="#4D4D4E" d="M228.2,58.4c1.8,0,3.2,1.4,3.2,3.2s-1.4,3.2-3.2,3.2
				c-1.8,0-3.2-1.4-3.2-3.2S226.5,58.4,228.2,58.4L228.2,58.4z"/>
			<path fill-rule="evenodd" clip-rule="evenodd" fill="#4D4D4E" d="M211.5,42.2c1.8,0,3.2,1.4,3.2,3.2c0,1.8-1.4,3.2-3.2,3.2
				c-1.8,0-3.2-1.4-3.2-3.2C208.3,43.6,209.7,42.2,211.5,42.2L211.5,42.2z"/>
			<path fill-rule="evenodd" clip-rule="evenodd" fill="#4D4D4E" d="M235.2,20.5c1.8,0,3.2,1.4,3.2,3.2c0,1.8-1.4,3.2-3.2,3.2
				c-1.8,0-3.2-1.4-3.2-3.2C231.9,21.9,233.4,20.5,235.2,20.5L235.2,20.5z"/>
			<path fill-rule="evenodd" clip-rule="evenodd" fill="#4D4D4E" d="M260,10.8c1.8,0,3.2,1.4,3.2,3.2c0,1.8-1.4,3.2-3.2,3.2
				c-1.8,0-3.2-1.4-3.2-3.2C256.7,12.2,258.2,10.8,260,10.8L260,10.8z"/>
			<path fill-rule="evenodd" clip-rule="evenodd" fill="#4D4D4E" d="M212.3,6.7c1.8,0,3.2,1.4,3.2,3.2s-1.4,3.2-3.2,3.2
				c-1.8,0-3.2-1.4-3.2-3.2S210.5,6.7,212.3,6.7L212.3,6.7z"/>
			<path fill-rule="evenodd" clip-rule="evenodd" fill="#4D4D4E" d="M203.5,30.9c1.8,0,3.2,1.4,3.2,3.2c0,1.8-1.4,3.2-3.2,3.2
				c-1.8,0-3.2-1.4-3.2-3.2C200.3,32.3,201.7,30.9,203.5,30.9L203.5,30.9z"/>
			<path fill-rule="evenodd" clip-rule="evenodd" fill="#4D4D4E" d="M181.1,56.6c1.8,0,3.2,1.4,3.2,3.2c0,1.8-1.4,3.2-3.2,3.2
				s-3.2-1.4-3.2-3.2C177.9,58,179.3,56.6,181.1,56.6L181.1,56.6z"/>
			<path fill-rule="evenodd" clip-rule="evenodd" fill="#4D4D4E" d="M166.4,34c1.8,0,3.2,1.4,3.2,3.2c0,1.8-1.4,3.2-3.2,3.2
				c-1.8,0-3.2-1.4-3.2-3.2C163.2,35.4,164.6,34,166.4,34L166.4,34z"/>
			<path fill-rule="evenodd" clip-rule="evenodd" fill="#4D4D4E" d="M142.7,18c1.8,0,3.2,1.4,3.2,3.2s-1.4,3.2-3.2,3.2
				c-1.8,0-3.2-1.4-3.2-3.2S140.9,18,142.7,18L142.7,18z"/>
			<path fill-rule="evenodd" clip-rule="evenodd" fill="#4D4D4E" d="M160.2,8.2c1.8,0,3.2,1.4,3.2,3.2c0,1.8-1.4,3.2-3.2,3.2
				c-1.8,0-3.2-1.4-3.2-3.2C157,9.7,158.4,8.2,160.2,8.2L160.2,8.2z"/>
			<path fill-rule="evenodd" clip-rule="evenodd" fill="#4D4D4E" d="M62,10.5c1.8,0,3.2,1.4,3.2,3.2c0,1.8-1.4,3.2-3.2,3.2
				c-1.8,0-3.2-1.4-3.2-3.2C58.8,12,60.2,10.5,62,10.5L62,10.5z"/>
			<path fill-rule="evenodd" clip-rule="evenodd" fill="#4D4D4E" d="M39.8,19.8c1.8,0,3.2,1.4,3.2,3.2c0,1.8-1.4,3.2-3.2,3.2
				c-1.8,0-3.2-1.4-3.2-3.2C36.6,21.3,38,19.8,39.8,19.8L39.8,19.8z"/>
			<path fill-rule="evenodd" clip-rule="evenodd" fill="#4D4D4E" d="M62,41.9c1.8,0,3.2,1.4,3.2,3.2c0,1.8-1.4,3.2-3.2,3.2
				c-1.8,0-3.2-1.4-3.2-3.2C58.8,43.4,60.2,41.9,62,41.9L62,41.9z"/>
			<path fill-rule="evenodd" clip-rule="evenodd" fill="#4D4D4E" d="M19.3,50.9c1.8,0,3.2,1.4,3.2,3.2c0,1.8-1.4,3.2-3.2,3.2
				c-1.8,0-3.2-1.4-3.2-3.2C16.1,52.4,17.6,50.9,19.3,50.9L19.3,50.9z"/>
			<path fill-rule="evenodd" clip-rule="evenodd" fill="#4D4D4E" d="M32.2,69.1c1.8,0,3.2,1.4,3.2,3.2c0,1.8-1.4,3.2-3.2,3.2
				c-1.8,0-3.2-1.4-3.2-3.2C28.9,70.5,30.4,69.1,32.2,69.1L32.2,69.1z"/>
			<path fill-rule="evenodd" clip-rule="evenodd" fill="#4D4D4E" d="M3.2,84.8c1.8,0,3.2,1.4,3.2,3.2c0,1.8-1.4,3.2-3.2,3.2
				C1.4,91.2,0,89.8,0,88C0,86.2,1.4,84.8,3.2,84.8L3.2,84.8z"/>
			<path fill-rule="evenodd" clip-rule="evenodd" fill="#4D4D4E" d="M50.4,62.8c1.8,0,3.2,1.4,3.2,3.2s-1.4,3.2-3.2,3.2
				c-1.8,0-3.2-1.4-3.2-3.2S48.6,62.8,50.4,62.8L50.4,62.8z"/>
			<path fill-rule="evenodd" clip-rule="evenodd" fill="#4D4D4E" d="M179,190.1c3.1,0,5.6,2.5,5.6,5.6s-2.5,5.6-5.6,5.6
				c-3.1,0-5.6-2.5-5.6-5.6S175.9,190.1,179,190.1L179,190.1z"/>
			<path fill-rule="evenodd" clip-rule="evenodd" fill="#4D4D4E" d="M174.2,165.7c1.8,0,3.2,1.4,3.2,3.2c0,1.8-1.4,3.2-3.2,3.2
				c-1.8,0-3.2-1.4-3.2-3.2C171,167.1,172.5,165.7,174.2,165.7L174.2,165.7z"/>
			<path fill-rule="evenodd" clip-rule="evenodd" fill="#4D4D4E" d="M161.5,178c1.8,0,3.2,1.4,3.2,3.2c0,1.8-1.4,3.2-3.2,3.2
				c-1.8,0-3.2-1.4-3.2-3.2C158.3,179.5,159.7,178,161.5,178L161.5,178z"/>
			<path fill-rule="evenodd" clip-rule="evenodd" fill="#4D4D4E" d="M166,200.4c1.8,0,3.2,1.4,3.2,3.2c0,1.8-1.4,3.2-3.2,3.2
				c-1.8,0-3.2-1.4-3.2-3.2C162.8,201.9,164.2,200.4,166,200.4L166,200.4z"/>
			<path fill-rule="evenodd" clip-rule="evenodd" fill="#4D4D4E" d="M161.7,219.7c1.8,0,3.2,1.4,3.2,3.2c0,1.8-1.4,3.2-3.2,3.2
				c-1.8,0-3.2-1.4-3.2-3.2C158.5,221.2,160,219.7,161.7,219.7L161.7,219.7z"/>
			<path fill-rule="evenodd" clip-rule="evenodd" fill="#4D4D4E" d="M147.3,205.6c1.8,0,3.2,1.4,3.2,3.2c0,1.8-1.4,3.2-3.2,3.2
				c-1.8,0-3.2-1.4-3.2-3.2C144.1,207,145.5,205.6,147.3,205.6L147.3,205.6z"/>
			<path fill-rule="evenodd" clip-rule="evenodd" fill="#4D4D4E" d="M125.9,207.4c1.8,0,3.2,1.4,3.2,3.2c0,1.8-1.4,3.2-3.2,3.2
				c-1.8,0-3.2-1.4-3.2-3.2C122.7,208.8,124.1,207.4,125.9,207.4L125.9,207.4z"/>
			<path fill-rule="evenodd" clip-rule="evenodd" fill="#4D4D4E" d="M119.3,219.5c1.8,0,3.2,1.4,3.2,3.2c0,1.8-1.4,3.2-3.2,3.2
				c-1.8,0-3.2-1.4-3.2-3.2C116.1,220.9,117.6,219.5,119.3,219.5L119.3,219.5z"/>
			<path fill-rule="evenodd" clip-rule="evenodd" fill="#4D4D4E" d="M109.3,204.1c1.8,0,3.2,1.4,3.2,3.2c0,1.8-1.4,3.2-3.2,3.2
				c-1.8,0-3.2-1.4-3.2-3.2C106.1,205.6,107.6,204.1,109.3,204.1L109.3,204.1z"/>
			<path fill-rule="evenodd" clip-rule="evenodd" fill="#4D4D4E" d="M96.3,198.9c1.8,0,3.2,1.4,3.2,3.2c0,1.8-1.4,3.2-3.2,3.2
				c-1.8,0-3.2-1.4-3.2-3.2C93.1,200.3,94.5,198.9,96.3,198.9L96.3,198.9z"/>
			<path fill-rule="evenodd" clip-rule="evenodd" fill="#4D4D4E" d="M76.4,189.2c3,0,5.4,2.4,5.4,5.4c0,3-2.4,5.4-5.4,5.4
				c-3,0-5.4-2.4-5.4-5.4C71,191.6,73.4,189.2,76.4,189.2L76.4,189.2z"/>
			<path fill-rule="evenodd" clip-rule="evenodd" fill="#4D4D4E" d="M68.2,175.2c1.8,0,3.2,1.4,3.2,3.2c0,1.8-1.4,3.2-3.2,3.2
				c-1.8,0-3.2-1.4-3.2-3.2C65,176.6,66.4,175.2,68.2,175.2L68.2,175.2z"/>
			<path fill-rule="evenodd" clip-rule="evenodd" fill="#4D4D4E" d="M73.6,146.6c1.8,0,3.2,1.4,3.2,3.2c0,1.8-1.4,3.2-3.2,3.2
				c-1.8,0-3.2-1.4-3.2-3.2C70.4,148.1,71.8,146.6,73.6,146.6L73.6,146.6z"/>
			<path fill-rule="evenodd" clip-rule="evenodd" fill="#4D4D4E" d="M96,154.9c1.8,0,3.2,1.4,3.2,3.2c0,1.8-1.4,3.2-3.2,3.2
				c-1.8,0-3.2-1.4-3.2-3.2C92.8,156.3,94.2,154.9,96,154.9L96,154.9z"/>
			<path fill-rule="evenodd" clip-rule="evenodd" fill="#4D4D4E" d="M145.5,154.9c1.8,0,3.2,1.4,3.2,3.2c0,1.8-1.4,3.2-3.2,3.2
				c-1.8,0-3.2-1.4-3.2-3.2C142.3,156.3,143.7,154.9,145.5,154.9L145.5,154.9z"/>
			<path fill-rule="evenodd" clip-rule="evenodd" fill="#4D4D4E" d="M140.9,192.2c1.8,0,3.2,1.4,3.2,3.2c0,1.8-1.4,3.2-3.2,3.2
				c-1.8,0-3.2-1.4-3.2-3.2C137.6,193.6,139.1,192.2,140.9,192.2L140.9,192.2z"/>
			<path fill-rule="evenodd" clip-rule="evenodd" fill="#4D4D4E" d="M116.2,172.2c1.8,0,3.2,1.4,3.2,3.2c0,1.8-1.4,3.2-3.2,3.2
				c-1.8,0-3.2-1.4-3.2-3.2C112.9,173.7,114.4,172.2,116.2,172.2L116.2,172.2z"/>
			<path fill-rule="evenodd" clip-rule="evenodd" fill="#4D4D4E" d="M115.1,231.9c1.8,0,3.2,1.4,3.2,3.2c0,1.8-1.4,3.2-3.2,3.2
				c-1.8,0-3.2-1.4-3.2-3.2C111.9,233.3,113.4,231.9,115.1,231.9L115.1,231.9z"/>
			<path fill-rule="evenodd" clip-rule="evenodd" fill="#4D4D4E" d="M124.1,246.6c1.8,0,3.2,1.4,3.2,3.2c0,1.8-1.4,3.2-3.2,3.2
				c-1.8,0-3.2-1.4-3.2-3.2C120.9,248,122.3,246.6,124.1,246.6L124.1,246.6z"/>
			<path fill-rule="evenodd" clip-rule="evenodd" fill="#4D4D4E" d="M144.6,235.5c1.8,0,3.2,1.4,3.2,3.2c0,1.8-1.4,3.2-3.2,3.2
				c-1.8,0-3.2-1.4-3.2-3.2C141.4,237,142.8,235.5,144.6,235.5L144.6,235.5z"/>
			<path fill-rule="evenodd" clip-rule="evenodd" fill="#4D4D4E" d="M82.9,223.1c1.8,0,3.2,1.4,3.2,3.2s-1.4,3.2-3.2,3.2
				c-1.8,0-3.2-1.4-3.2-3.2S81.1,223.1,82.9,223.1L82.9,223.1z"/>
			<path fill-rule="evenodd" clip-rule="evenodd" fill="#4D4D4E" d="M93.3,213.9c1.8,0,3.2,1.4,3.2,3.2c0,1.8-1.4,3.2-3.2,3.2
				s-3.2-1.4-3.2-3.2C90.1,215.4,91.5,213.9,93.3,213.9L93.3,213.9z"/>
			<path fill-rule="evenodd" clip-rule="evenodd" fill="#4D4D4E" d="M95.9,235.9c1.8,0,3.2,1.4,3.2,3.2c0,1.8-1.4,3.2-3.2,3.2
				c-1.8,0-3.2-1.4-3.2-3.2C92.7,237.4,94.1,235.9,95.9,235.9L95.9,235.9z"/>
			<path fill-rule="evenodd" clip-rule="evenodd" fill="#4D4D4E" d="M140.5,260.1c1.8,0,3.2,1.4,3.2,3.2c0,1.8-1.4,3.2-3.2,3.2
				c-1.8,0-3.2-1.4-3.2-3.2C137.3,261.5,138.7,260.1,140.5,260.1L140.5,260.1z"/>
			<path fill-rule="evenodd" clip-rule="evenodd" fill="#4D4D4E" d="M162,271.9c1.8,0,3.2,1.4,3.2,3.2c0,1.8-1.4,3.2-3.2,3.2
				c-1.8,0-3.2-1.4-3.2-3.2C158.8,273.4,160.2,271.9,162,271.9L162,271.9z"/>
			<path fill-rule="evenodd" clip-rule="evenodd" fill="#4D4D4E" d="M184.7,264.7c1.8,0,3.2,1.4,3.2,3.2c0,1.8-1.4,3.2-3.2,3.2
				c-1.8,0-3.2-1.4-3.2-3.2C181.5,266.2,182.9,264.7,184.7,264.7L184.7,264.7z"/>
			<path fill-rule="evenodd" clip-rule="evenodd" fill="#4D4D4E" d="M207.6,272.7c1.8,0,3.2,1.4,3.2,3.2s-1.4,3.2-3.2,3.2
				c-1.8,0-3.2-1.4-3.2-3.2S205.8,272.7,207.6,272.7L207.6,272.7z"/>
			<path fill-rule="evenodd" clip-rule="evenodd" fill="#4D4D4E" d="M230.3,284.3c1.8,0,3.2,1.4,3.2,3.2c0,1.8-1.4,3.2-3.2,3.2
				c-1.8,0-3.2-1.4-3.2-3.2C227.1,285.7,228.5,284.3,230.3,284.3L230.3,284.3z"/>
			<path fill-rule="evenodd" clip-rule="evenodd" fill="#4D4D4E" d="M236.5,298.7c1.8,0,3.2,1.4,3.2,3.2c0,1.8-1.4,3.2-3.2,3.2
				c-1.8,0-3.2-1.4-3.2-3.2C233.3,300.1,234.7,298.7,236.5,298.7L236.5,298.7z"/>
			<path fill-rule="evenodd" clip-rule="evenodd" fill="#4D4D4E" d="M259.4,304.9c1.8,0,3.2,1.4,3.2,3.2c0,1.8-1.4,3.2-3.2,3.2
				c-1.8,0-3.2-1.4-3.2-3.2C256.2,306.3,257.7,304.9,259.4,304.9L259.4,304.9z"/>
			<path fill-rule="evenodd" clip-rule="evenodd" fill="#4D4D4E" d="M277.7,314.1c1.8,0,3.2,1.4,3.2,3.2c0,1.8-1.4,3.2-3.2,3.2
				c-1.8,0-3.2-1.4-3.2-3.2C274.5,315.6,276,314.1,277.7,314.1L277.7,314.1z"/>
			<path fill-rule="evenodd" clip-rule="evenodd" fill="#4D4D4E" d="M262.3,331.9c1.8,0,3.2,1.4,3.2,3.2c0,1.8-1.4,3.2-3.2,3.2
				c-1.8,0-3.2-1.4-3.2-3.2C259,333.3,260.5,331.9,262.3,331.9L262.3,331.9z"/>
			<path fill-rule="evenodd" clip-rule="evenodd" fill="#4D4D4E" d="M258.4,357.9c1.8,0,3.2,1.4,3.2,3.2c0,1.8-1.4,3.2-3.2,3.2
				s-3.2-1.4-3.2-3.2C255.2,359.3,256.6,357.9,258.4,357.9L258.4,357.9z"/>
			<path fill-rule="evenodd" clip-rule="evenodd" fill="#4D4D4E" d="M226.5,401.9c1.8,0,3.2,1.4,3.2,3.2c0,1.8-1.4,3.2-3.2,3.2
				c-1.8,0-3.2-1.4-3.2-3.2C223.3,403.4,224.8,401.9,226.5,401.9L226.5,401.9z"/>
			<path fill-rule="evenodd" clip-rule="evenodd" fill="#4D4D4E" d="M239.6,372c1.8,0,3.2,1.4,3.2,3.2c0,1.8-1.4,3.2-3.2,3.2
				c-1.8,0-3.2-1.4-3.2-3.2C236.4,373.5,237.8,372,239.6,372L239.6,372z"/>
			<path fill-rule="evenodd" clip-rule="evenodd" fill="#4D4D4E" d="M189.3,292.8c1.8,0,3.2,1.4,3.2,3.2c0,1.8-1.4,3.2-3.2,3.2
				c-1.8,0-3.2-1.4-3.2-3.2C186.1,294.2,187.5,292.8,189.3,292.8L189.3,292.8z"/>
			<path fill-rule="evenodd" clip-rule="evenodd" fill="#4D4D4E" d="M154.8,308.2c1.8,0,3.2,1.4,3.2,3.2c0,1.8-1.4,3.2-3.2,3.2
				c-1.8,0-3.2-1.4-3.2-3.2C151.6,309.7,153,308.2,154.8,308.2L154.8,308.2z"/>
			<path fill-rule="evenodd" clip-rule="evenodd" fill="#4D4D4E" d="M187.3,311c1.8,0,3.2,1.4,3.2,3.2c0,1.8-1.4,3.2-3.2,3.2
				c-1.8,0-3.2-1.4-3.2-3.2C184,312.5,185.5,311,187.3,311L187.3,311z"/>
			<path fill-rule="evenodd" clip-rule="evenodd" fill="#4D4D4E" d="M187.8,330.9c1.8,0,3.2,1.4,3.2,3.2c0,1.8-1.4,3.2-3.2,3.2
				c-1.8,0-3.2-1.4-3.2-3.2C184.6,332.3,186,330.9,187.8,330.9L187.8,330.9z"/>
			<path fill-rule="evenodd" clip-rule="evenodd" fill="#4D4D4E" d="M217.7,350.4c1.8,0,3.2,1.4,3.2,3.2c0,1.8-1.4,3.2-3.2,3.2
				c-1.8,0-3.2-1.4-3.2-3.2C214.5,351.9,215.9,350.4,217.7,350.4L217.7,350.4z"/>
			<path fill-rule="evenodd" clip-rule="evenodd" fill="#4D4D4E" d="M198.1,364.3c1.8,0,3.2,1.4,3.2,3.2c0,1.8-1.4,3.2-3.2,3.2
				c-1.8,0-3.2-1.4-3.2-3.2C194.9,365.7,196.3,364.3,198.1,364.3L198.1,364.3z"/>
			<path fill-rule="evenodd" clip-rule="evenodd" fill="#4D4D4E" d="M222.1,384.4c1.8,0,3.2,1.4,3.2,3.2c0,1.8-1.4,3.2-3.2,3.2
				c-1.8,0-3.2-1.4-3.2-3.2C218.8,385.8,220.3,384.4,222.1,384.4L222.1,384.4z"/>
			<path fill-rule="evenodd" clip-rule="evenodd" fill="#4D4D4E" d="M192.2,399.3c1.8,0,3.2,1.4,3.2,3.2c0,1.8-1.4,3.2-3.2,3.2
				c-1.8,0-3.2-1.4-3.2-3.2C188.9,400.7,190.4,399.3,192.2,399.3L192.2,399.3z"/>
			<path fill-rule="evenodd" clip-rule="evenodd" fill="#4D4D4E" d="M184.6,351.7c1.8,0,3.2,1.4,3.2,3.2c0,1.8-1.4,3.2-3.2,3.2
				c-1.8,0-3.2-1.4-3.2-3.2C181.3,353.1,182.8,351.7,184.6,351.7L184.6,351.7z"/>
			<path fill-rule="evenodd" clip-rule="evenodd" fill="#4D4D4E" d="M212,421.4c1.8,0,3.2,1.4,3.2,3.2s-1.4,3.2-3.2,3.2
				c-1.8,0-3.2-1.4-3.2-3.2S210.2,421.4,212,421.4L212,421.4z"/>
			<path fill-rule="evenodd" clip-rule="evenodd" fill="#4D4D4E" d="M203.8,453.1c1.8,0,3.2,1.4,3.2,3.2s-1.4,3.2-3.2,3.2
				c-1.8,0-3.2-1.4-3.2-3.2S202,453.1,203.8,453.1L203.8,453.1z"/>
			<path fill-rule="evenodd" clip-rule="evenodd" fill="#4D4D4E" d="M218.2,469.3c1.8,0,3.2,1.4,3.2,3.2c0,1.8-1.4,3.2-3.2,3.2
				c-1.8,0-3.2-1.4-3.2-3.2C215,470.7,216.4,469.3,218.2,469.3L218.2,469.3z"/>
			<path fill-rule="evenodd" clip-rule="evenodd" fill="#4D4D4E" d="M342.4,26.8c1.8,0,3.2,1.4,3.2,3.2c0,1.8-1.4,3.2-3.2,3.2
				s-3.2-1.4-3.2-3.2C339.2,28.2,340.6,26.8,342.4,26.8L342.4,26.8z"/>
			<path fill-rule="evenodd" clip-rule="evenodd" fill="#4D4D4E" d="M331.7,60c1.8,0,3.2,1.4,3.2,3.2c0,1.8-1.4,3.2-3.2,3.2
				c-1.8,0-3.2-1.4-3.2-3.2C328.5,61.5,330,60,331.7,60L331.7,60z"/>
			<path fill-rule="evenodd" clip-rule="evenodd" fill="#4D4D4E" d="M320.1,78.5c1.8,0,3.2,1.4,3.2,3.2c0,1.8-1.4,3.2-3.2,3.2
				c-1.8,0-3.2-1.4-3.2-3.2C316.9,80,318.3,78.5,320.1,78.5L320.1,78.5z"/>
			<path fill-rule="evenodd" clip-rule="evenodd" fill="#4D4D4E" d="M291.6,89.3c1.8,0,3.2,1.4,3.2,3.2c0,1.8-1.4,3.2-3.2,3.2
				c-1.8,0-3.2-1.4-3.2-3.2C288.3,90.8,289.8,89.3,291.6,89.3L291.6,89.3z"/>
			<path fill-rule="evenodd" clip-rule="evenodd" fill="#4D4D4E" d="M275.1,112.7c1.8,0,3.2,1.4,3.2,3.2s-1.4,3.2-3.2,3.2
				s-3.2-1.4-3.2-3.2S273.3,112.7,275.1,112.7L275.1,112.7z"/>
			<path fill-rule="evenodd" clip-rule="evenodd" fill="#4D4D4E" d="M262.7,96.2c1.8,0,3.2,1.4,3.2,3.2c0,1.8-1.4,3.2-3.2,3.2
				c-1.8,0-3.2-1.4-3.2-3.2C259.5,97.6,260.9,96.2,262.7,96.2L262.7,96.2z"/>
			<path fill-rule="evenodd" clip-rule="evenodd" fill="#4D4D4E" d="M275.6,73.1c1.8,0,3.2,1.4,3.2,3.2c0,1.8-1.4,3.2-3.2,3.2
				s-3.2-1.4-3.2-3.2C272.4,74.5,273.8,73.1,275.6,73.1L275.6,73.1z"/>
			<path fill-rule="evenodd" clip-rule="evenodd" fill="#4D4D4E" d="M263.9,41.4c1.8,0,3.2,1.4,3.2,3.2c0,1.8-1.4,3.2-3.2,3.2
				c-1.8,0-3.2-1.4-3.2-3.2C260.7,42.8,262.1,41.4,263.9,41.4L263.9,41.4z"/>
			<path fill-rule="evenodd" clip-rule="evenodd" fill="#4D4D4E" d="M243.7,38.4c1.8,0,3.2,1.4,3.2,3.2s-1.4,3.2-3.2,3.2
				c-1.8,0-3.2-1.4-3.2-3.2S241.9,38.4,243.7,38.4L243.7,38.4z"/>
			<path fill-rule="evenodd" clip-rule="evenodd" fill="#4D4D4E" d="M281.1,18.6c1.8,0,3.2,1.4,3.2,3.2c0,1.8-1.4,3.2-3.2,3.2
				c-1.8,0-3.2-1.4-3.2-3.2C277.9,20,279.3,18.6,281.1,18.6L281.1,18.6z"/>
			<path fill-rule="evenodd" clip-rule="evenodd" fill="#4D4D4E" d="M315.1,13.4c1.8,0,3.2,1.4,3.2,3.2c0,1.8-1.4,3.2-3.2,3.2
				c-1.8,0-3.2-1.4-3.2-3.2C311.9,14.9,313.3,13.4,315.1,13.4L315.1,13.4z"/>
			<path fill-rule="evenodd" clip-rule="evenodd" fill="#4D4D4E" d="M304.8,45.1c1.8,0,3.2,1.4,3.2,3.2c0,1.8-1.4,3.2-3.2,3.2
				c-1.8,0-3.2-1.4-3.2-3.2C301.6,46.6,303,45.1,304.8,45.1L304.8,45.1z"/>
			<path fill-rule="evenodd" clip-rule="evenodd" fill="#4D4D4E" d="M420.2,72.3c1.8,0,3.2,1.4,3.2,3.2c0,1.8-1.4,3.2-3.2,3.2
				c-1.8,0-3.2-1.4-3.2-3.2C417,73.7,418.4,72.3,420.2,72.3L420.2,72.3z"/>
			<path fill-rule="evenodd" clip-rule="evenodd" fill="#4D4D4E" d="M400.9,82.5c1.8,0,3.2,1.4,3.2,3.2c0,1.8-1.4,3.2-3.2,3.2
				c-1.8,0-3.2-1.4-3.2-3.2C397.7,83.9,399.2,82.5,400.9,82.5L400.9,82.5z"/>
			<path fill-rule="evenodd" clip-rule="evenodd" fill="#4D4D4E" d="M391.7,100.8c1.8,0,3.2,1.4,3.2,3.2c0,1.8-1.4,3.2-3.2,3.2
				c-1.8,0-3.2-1.4-3.2-3.2C388.4,102.3,389.9,100.8,391.7,100.8L391.7,100.8z"/>
			<path fill-rule="evenodd" clip-rule="evenodd" fill="#4D4D4E" d="M376.7,109.9c1.8,0,3.2,1.4,3.2,3.2s-1.4,3.2-3.2,3.2
				c-1.8,0-3.2-1.4-3.2-3.2S375,109.9,376.7,109.9L376.7,109.9z"/>
			<path fill-rule="evenodd" clip-rule="evenodd" fill="#4D4D4E" d="M382.9,123.6c2.8,0,5.1,2.3,5.1,5.1c0,2.8-2.3,5.1-5.1,5.1
				c-2.8,0-5.1-2.3-5.1-5.1C377.8,125.9,380.1,123.6,382.9,123.6L382.9,123.6z"/>
			<path fill-rule="evenodd" clip-rule="evenodd" fill="#4D4D4E" d="M404.7,126.4c1.8,0,3.2,1.4,3.2,3.2c0,1.8-1.4,3.2-3.2,3.2
				c-1.8,0-3.2-1.4-3.2-3.2C401.5,127.8,402.9,126.4,404.7,126.4L404.7,126.4z"/>
			<path fill-rule="evenodd" clip-rule="evenodd" fill="#4D4D4E" d="M416.2,94.3c1.8,0,3.2,1.4,3.2,3.2c0,1.8-1.4,3.2-3.2,3.2
				s-3.2-1.4-3.2-3.2C413,95.8,414.4,94.3,416.2,94.3L416.2,94.3z"/>
			<path fill-rule="evenodd" clip-rule="evenodd" fill="#4D4D4E" d="M429.4,112.1c1.8,0,3.2,1.4,3.2,3.2c0,1.8-1.4,3.2-3.2,3.2
				c-1.8,0-3.2-1.4-3.2-3.2C426.2,113.6,427.7,112.1,429.4,112.1L429.4,112.1z"/>
			<path fill-rule="evenodd" clip-rule="evenodd" fill="#4D4D4E" d="M438.4,79.9c1.8,0,3.2,1.4,3.2,3.2c0,1.8-1.4,3.2-3.2,3.2
				c-1.8,0-3.2-1.4-3.2-3.2C435.1,81.4,436.6,79.9,438.4,79.9L438.4,79.9z"/>
			<path fill-rule="evenodd" clip-rule="evenodd" fill="#4D4D4E" d="M422.1,130c2.9,0,5.3,2.4,5.3,5.3c0,2.9-2.4,5.3-5.3,5.3
				c-2.9,0-5.3-2.4-5.3-5.3C416.8,132.3,419.1,130,422.1,130L422.1,130z"/>
			<path fill-rule="evenodd" clip-rule="evenodd" fill="#4D4D4E" d="M400.9,143.8c1.8,0,3.2,1.4,3.2,3.2c0,1.8-1.4,3.2-3.2,3.2
				c-1.8,0-3.2-1.4-3.2-3.2C397.7,145.3,399.2,143.8,400.9,143.8L400.9,143.8z"/>
			<path fill-rule="evenodd" clip-rule="evenodd" fill="#4D4D4E" d="M386.5,137.8c1.8,0,3.2,1.4,3.2,3.2c0,1.8-1.4,3.2-3.2,3.2
				c-1.8,0-3.2-1.4-3.2-3.2C383.3,139.3,384.7,137.8,386.5,137.8L386.5,137.8z"/>
			<path fill-rule="evenodd" clip-rule="evenodd" fill="#4D4D4E" d="M370.2,154.3c1.8,0,3.2,1.4,3.2,3.2c0,1.8-1.4,3.2-3.2,3.2
				c-1.8,0-3.2-1.4-3.2-3.2C367,155.7,368.4,154.3,370.2,154.3L370.2,154.3z"/>
			<path fill-rule="evenodd" clip-rule="evenodd" fill="#4D4D4E" d="M359.4,123.6c1.8,0,3.2,1.4,3.2,3.2c0,1.8-1.4,3.2-3.2,3.2
				c-1.8,0-3.2-1.4-3.2-3.2C356.2,125.1,357.6,123.6,359.4,123.6L359.4,123.6z"/>
			<path fill-rule="evenodd" clip-rule="evenodd" fill="#4D4D4E" d="M340.7,144.7c1.8,0,3.2,1.4,3.2,3.2c0,1.8-1.4,3.2-3.2,3.2
				c-1.8,0-3.2-1.4-3.2-3.2C337.5,146.1,338.9,144.7,340.7,144.7L340.7,144.7z"/>
			<path fill-rule="evenodd" clip-rule="evenodd" fill="#4D4D4E" d="M362.5,142.5c1.8,0,3.2,1.4,3.2,3.2c0,1.8-1.4,3.2-3.2,3.2
				c-1.8,0-3.2-1.4-3.2-3.2C359.3,143.9,360.7,142.5,362.5,142.5L362.5,142.5z"/>
			<path fill-rule="evenodd" clip-rule="evenodd" fill="#4D4D4E" d="M365.9,173c1.8,0,3.2,1.4,3.2,3.2c0,1.8-1.4,3.2-3.2,3.2
				c-1.8,0-3.2-1.4-3.2-3.2C362.7,174.4,364.1,173,365.9,173L365.9,173z"/>
			<path fill-rule="evenodd" clip-rule="evenodd" fill="#4D4D4E" d="M348.7,175.9c1.8,0,3.2,1.4,3.2,3.2c0,1.8-1.4,3.2-3.2,3.2
				s-3.2-1.4-3.2-3.2C345.5,177.3,347,175.9,348.7,175.9L348.7,175.9z"/>
			<path fill-rule="evenodd" clip-rule="evenodd" fill="#4D4D4E" d="M353.4,197.7c1.8,0,3.2,1.4,3.2,3.2c0,1.8-1.4,3.2-3.2,3.2
				c-1.8,0-3.2-1.4-3.2-3.2C350.2,199.1,351.6,197.7,353.4,197.7L353.4,197.7z"/>
			<path fill-rule="evenodd" clip-rule="evenodd" fill="#4D4D4E" d="M343.9,215.1c1.8,0,3.2,1.4,3.2,3.2c0,1.8-1.4,3.2-3.2,3.2
				c-1.8,0-3.2-1.4-3.2-3.2C340.7,216.6,342.2,215.1,343.9,215.1L343.9,215.1z"/>
			<path fill-rule="evenodd" clip-rule="evenodd" fill="#4D4D4E" d="M324.2,234.5c1.8,0,3.2,1.4,3.2,3.2c0,1.8-1.4,3.2-3.2,3.2
				c-1.8,0-3.2-1.4-3.2-3.2C321,235.9,322.4,234.5,324.2,234.5L324.2,234.5z"/>
			<path fill-rule="evenodd" clip-rule="evenodd" fill="#4D4D4E" d="M327.9,252.8c1.8,0,3.2,1.4,3.2,3.2c0,1.8-1.4,3.2-3.2,3.2
				c-1.8,0-3.2-1.4-3.2-3.2C324.7,254.3,326.2,252.8,327.9,252.8L327.9,252.8z"/>
			<path fill-rule="evenodd" clip-rule="evenodd" fill="#4D4D4E" d="M387.6,160.5c2.9,0,5.3,2.4,5.3,5.2c0,2.9-2.4,5.2-5.3,5.2
				s-5.3-2.4-5.3-5.2C382.3,162.8,384.6,160.5,387.6,160.5L387.6,160.5z"/>
			<path fill-rule="evenodd" clip-rule="evenodd" fill="#4D4D4E" d="M404.4,181.1c3,0,5.4,2.4,5.4,5.3c0,3-2.4,5.3-5.4,5.3
				c-3,0-5.4-2.4-5.4-5.3C399,183.5,401.4,181.1,404.4,181.1L404.4,181.1z"/>
			<path fill-rule="evenodd" clip-rule="evenodd" fill="#4D4D4E" d="M404.5,195.1c1.8,0,3.2,1.4,3.2,3.2c0,1.8-1.4,3.2-3.2,3.2
				c-1.8,0-3.2-1.4-3.2-3.2C401.3,196.5,402.7,195.1,404.5,195.1L404.5,195.1z"/>
			<path fill-rule="evenodd" clip-rule="evenodd" fill="#4D4D4E" d="M387.5,199c1.8,0,3.2,1.4,3.2,3.2c0,1.8-1.4,3.2-3.2,3.2
				c-1.8,0-3.2-1.4-3.2-3.2C384.3,200.5,385.7,199,387.5,199L387.5,199z"/>
			<path fill-rule="evenodd" clip-rule="evenodd" fill="#4D4D4E" d="M423.6,189.8c1.8,0,3.2,1.4,3.2,3.2c0,1.8-1.4,3.2-3.2,3.2
				c-1.8,0-3.2-1.4-3.2-3.2C420.4,191.2,421.8,189.8,423.6,189.8L423.6,189.8z"/>
			<path fill-rule="evenodd" clip-rule="evenodd" fill="#4D4D4E" d="M439.2,164.6c1.8,0,3.2,1.4,3.2,3.2c0,1.8-1.4,3.2-3.2,3.2
				c-1.8,0-3.2-1.4-3.2-3.2C436,166,437.5,164.6,439.2,164.6L439.2,164.6z"/>
			<path fill-rule="evenodd" clip-rule="evenodd" fill="#4D4D4E" d="M469.3,175.7c1.8,0,3.2,1.4,3.2,3.2s-1.4,3.2-3.2,3.2
				s-3.2-1.4-3.2-3.2S467.5,175.7,469.3,175.7L469.3,175.7z"/>
			<path fill-rule="evenodd" clip-rule="evenodd" fill="#4D4D4E" d="M458.6,158.4c1.8,0,3.2,1.4,3.2,3.2c0,1.8-1.4,3.2-3.2,3.2
				c-1.8,0-3.2-1.4-3.2-3.2C455.4,159.8,456.9,158.4,458.6,158.4L458.6,158.4z"/>
			<path fill-rule="evenodd" clip-rule="evenodd" fill="#4D4D4E" d="M446.6,181.4c1.8,0,3.2,1.4,3.2,3.2s-1.4,3.2-3.2,3.2
				c-1.8,0-3.2-1.4-3.2-3.2S444.8,181.4,446.6,181.4L446.6,181.4z"/>
			<path fill-rule="evenodd" clip-rule="evenodd" fill="#4D4D4E" d="M456.4,201.1c1.8,0,3.2,1.4,3.2,3.2c0,1.8-1.4,3.2-3.2,3.2
				c-1.8,0-3.2-1.4-3.2-3.2C453.2,202.5,454.6,201.1,456.4,201.1L456.4,201.1z"/>
			<path fill-rule="evenodd" clip-rule="evenodd" fill="#4D4D4E" d="M426.9,209.7c1.8,0,3.2,1.4,3.2,3.2c0,1.8-1.4,3.2-3.2,3.2
				c-1.8,0-3.2-1.4-3.2-3.2C423.6,211.1,425.1,209.7,426.9,209.7L426.9,209.7z"/>
			<path fill-rule="evenodd" clip-rule="evenodd" fill="#4D4D4E" d="M407.5,213.4c1.8,0,3.2,1.4,3.2,3.2c0,1.8-1.4,3.2-3.2,3.2
				c-1.8,0-3.2-1.4-3.2-3.2C404.2,214.9,405.7,213.4,407.5,213.4L407.5,213.4z"/>
			<path fill-rule="evenodd" clip-rule="evenodd" fill="#4D4D4E" d="M421.4,157.9c1.8,0,3.2,1.4,3.2,3.2c0,1.8-1.4,3.2-3.2,3.2
				c-1.8,0-3.2-1.4-3.2-3.2C418.2,159.3,419.6,157.9,421.4,157.9L421.4,157.9z"/>
			<path fill-rule="evenodd" clip-rule="evenodd" fill="#4D4D4E" d="M476.5,150.4c1.8,0,3.2,1.4,3.2,3.2c0,1.8-1.4,3.2-3.2,3.2
				c-1.8,0-3.2-1.4-3.2-3.2C473.3,151.9,474.8,150.4,476.5,150.4L476.5,150.4z"/>
			<path fill-rule="evenodd" clip-rule="evenodd" fill="#4D4D4E" d="M501.6,144.3c1.8,0,3.2,1.4,3.2,3.2c0,1.8-1.4,3.2-3.2,3.2
				c-1.8,0-3.2-1.4-3.2-3.2C498.4,145.7,499.8,144.3,501.6,144.3L501.6,144.3z"/>
			<path fill-rule="evenodd" clip-rule="evenodd" fill="#4D4D4E" d="M522.9,124.7c1.8,0,3.2,1.4,3.2,3.2c0,1.8-1.4,3.2-3.2,3.2
				c-1.8,0-3.2-1.4-3.2-3.2C519.7,126.2,521.1,124.7,522.9,124.7L522.9,124.7z"/>
			<path fill-rule="evenodd" clip-rule="evenodd" fill="#4D4D4E" d="M562.8,140.2c1.8,0,3.2,1.4,3.2,3.2c0,1.8-1.4,3.2-3.2,3.2
				c-1.8,0-3.2-1.4-3.2-3.2C559.6,141.6,561,140.2,562.8,140.2L562.8,140.2z"/>
			<path fill-rule="evenodd" clip-rule="evenodd" fill="#4D4D4E" d="M589.9,133.8c1.8,0,3.2,1.4,3.2,3.2c0,1.8-1.4,3.2-3.2,3.2
				c-1.8,0-3.2-1.4-3.2-3.2C586.7,135.2,588.1,133.8,589.9,133.8L589.9,133.8z"/>
			<path fill-rule="evenodd" clip-rule="evenodd" fill="#4D4D4E" d="M615.1,135.1c1.8,0,3.2,1.4,3.2,3.2c0,1.8-1.4,3.2-3.2,3.2
				c-1.8,0-3.2-1.4-3.2-3.2C611.9,136.5,613.4,135.1,615.1,135.1L615.1,135.1z"/>
			<path fill-rule="evenodd" clip-rule="evenodd" fill="#4D4D4E" d="M641.7,127.4c1.8,0,3.2,1.4,3.2,3.2c0,1.8-1.4,3.2-3.2,3.2
				c-1.8,0-3.2-1.4-3.2-3.2C638.5,128.8,639.9,127.4,641.7,127.4L641.7,127.4z"/>
			<path fill-rule="evenodd" clip-rule="evenodd" fill="#4D4D4E" d="M643.5,111.9c1.8,0,3.2,1.4,3.2,3.2c0,1.8-1.4,3.2-3.2,3.2
				c-1.8,0-3.2-1.4-3.2-3.2C640.3,113.4,641.7,111.9,643.5,111.9L643.5,111.9z"/>
			<path fill-rule="evenodd" clip-rule="evenodd" fill="#4D4D4E" d="M673.1,130.7c1.8,0,3.2,1.4,3.2,3.2c0,1.8-1.4,3.2-3.2,3.2
				c-1.8,0-3.2-1.4-3.2-3.2C669.9,132.1,671.4,130.7,673.1,130.7L673.1,130.7z"/>
			<path fill-rule="evenodd" clip-rule="evenodd" fill="#4D4D4E" d="M682.9,124.3c1.8,0,3.2,1.4,3.2,3.2c0,1.8-1.4,3.2-3.2,3.2
				c-1.8,0-3.2-1.4-3.2-3.2C679.7,125.7,681.2,124.3,682.9,124.3L682.9,124.3z"/>
			<path fill-rule="evenodd" clip-rule="evenodd" fill="#4D4D4E" d="M684.2,148.4c1.8,0,3.2,1.4,3.2,3.2c0,1.8-1.4,3.2-3.2,3.2
				c-1.8,0-3.2-1.4-3.2-3.2C681,149.9,682.4,148.4,684.2,148.4L684.2,148.4z"/>
			<path fill-rule="evenodd" clip-rule="evenodd" fill="#4D4D4E" d="M699.2,123.2c1.8,0,3.2,1.4,3.2,3.2s-1.4,3.2-3.2,3.2
				c-1.8,0-3.2-1.4-3.2-3.2S697.4,123.2,699.2,123.2L699.2,123.2z"/>
			<path fill-rule="evenodd" clip-rule="evenodd" fill="#4D4D4E" d="M687.3,103.3c1.8,0,3.2,1.4,3.2,3.2c0,1.8-1.4,3.2-3.2,3.2
				c-1.8,0-3.2-1.4-3.2-3.2C684.1,104.7,685.5,103.3,687.3,103.3L687.3,103.3z"/>
			<path fill-rule="evenodd" clip-rule="evenodd" fill="#4D4D4E" d="M674.7,98.7c1.8,0,3.2,1.4,3.2,3.2c0,1.8-1.4,3.2-3.2,3.2
				s-3.2-1.4-3.2-3.2C671.5,100.1,672.9,98.7,674.7,98.7L674.7,98.7z"/>
			<path fill-rule="evenodd" clip-rule="evenodd" fill="#4D4D4E" d="M675.2,76.6c1.8,0,3.2,1.4,3.2,3.2c0,1.8-1.4,3.2-3.2,3.2
				c-1.8,0-3.2-1.4-3.2-3.2C672,78,673.5,76.6,675.2,76.6L675.2,76.6z"/>
			<path fill-rule="evenodd" clip-rule="evenodd" fill="#4D4D4E" d="M698.6,72.8c1.8,0,3.2,1.4,3.2,3.2c0,1.8-1.4,3.2-3.2,3.2
				c-1.8,0-3.2-1.4-3.2-3.2C695.4,74.2,696.9,72.8,698.6,72.8L698.6,72.8z"/>
			<path fill-rule="evenodd" clip-rule="evenodd" fill="#4D4D4E" d="M707.7,54c1.8,0,3.2,1.4,3.2,3.2c0,1.8-1.4,3.2-3.2,3.2
				c-1.8,0-3.2-1.4-3.2-3.2C704.5,55.5,705.9,54,707.7,54L707.7,54z"/>
			<path fill-rule="evenodd" clip-rule="evenodd" fill="#4D4D4E" d="M720.6,54.5c1.8,0,3.2,1.4,3.2,3.2c0,1.8-1.4,3.2-3.2,3.2
				c-1.8,0-3.2-1.4-3.2-3.2C717.3,56,718.8,54.5,720.6,54.5L720.6,54.5z"/>
			<path fill-rule="evenodd" clip-rule="evenodd" fill="#4D4D4E" d="M716.2,77.7c1.8,0,3.2,1.4,3.2,3.2c0,1.8-1.4,3.2-3.2,3.2
				c-1.8,0-3.2-1.4-3.2-3.2C713,79.1,714.4,77.7,716.2,77.7L716.2,77.7z"/>
			<path fill-rule="evenodd" clip-rule="evenodd" fill="#4D4D4E" d="M728.6,102.1c1.8,0,3.2,1.4,3.2,3.2c0,1.8-1.4,3.2-3.2,3.2
				c-1.8,0-3.2-1.4-3.2-3.2C725.3,103.6,726.8,102.1,728.6,102.1L728.6,102.1z"/>
			<path fill-rule="evenodd" clip-rule="evenodd" fill="#4D4D4E" d="M729.6,81.6c1.8,0,3.2,1.4,3.2,3.2c0,1.8-1.4,3.2-3.2,3.2
				c-1.8,0-3.2-1.4-3.2-3.2C726.4,83,727.8,81.6,729.6,81.6L729.6,81.6z"/>
			<path fill-rule="evenodd" clip-rule="evenodd" fill="#4D4D4E" d="M739.6,52.5c1.8,0,3.2,1.4,3.2,3.2c0,1.8-1.4,3.2-3.2,3.2
				c-1.8,0-3.2-1.4-3.2-3.2C736.4,53.9,737.9,52.5,739.6,52.5L739.6,52.5z"/>
			<path fill-rule="evenodd" clip-rule="evenodd" fill="#4D4D4E" d="M745.3,33.7c1.8,0,3.2,1.4,3.2,3.2c0,1.8-1.4,3.2-3.2,3.2
				c-1.8,0-3.2-1.4-3.2-3.2C742.1,35.1,743.5,33.7,745.3,33.7L745.3,33.7z"/>
			<path fill-rule="evenodd" clip-rule="evenodd" fill="#4D4D4E" d="M736.8,19c1.8,0,3.2,1.4,3.2,3.2c0,1.8-1.4,3.2-3.2,3.2
				c-1.8,0-3.2-1.4-3.2-3.2C733.6,20.5,735,19,736.8,19L736.8,19z"/>
			<path fill-rule="evenodd" clip-rule="evenodd" fill="#4D4D4E" d="M758.5,14.4c1.8,0,3.2,1.4,3.2,3.2s-1.4,3.2-3.2,3.2
				c-1.8,0-3.2-1.4-3.2-3.2S756.7,14.4,758.5,14.4L758.5,14.4z"/>
			<path fill-rule="evenodd" clip-rule="evenodd" fill="#4D4D4E" d="M747.1,3c1.8,0,3.2,1.4,3.2,3.2c0,1.8-1.4,3.2-3.2,3.2
				c-1.8,0-3.2-1.4-3.2-3.2C743.9,4.4,745.3,3,747.1,3L747.1,3z"/>
			<path fill-rule="evenodd" clip-rule="evenodd" fill="#4D4D4E" d="M723.9,0c1.8,0,3.2,1.4,3.2,3.2c0,1.8-1.4,3.2-3.2,3.2
				c-1.8,0-3.2-1.4-3.2-3.2C720.7,1.4,722.1,0,723.9,0L723.9,0z"/>
			<path fill-rule="evenodd" clip-rule="evenodd" fill="#4D4D4E" d="M703,3.3c1.8,0,3.2,1.4,3.2,3.2c0,1.8-1.4,3.2-3.2,3.2
				c-1.8,0-3.2-1.4-3.2-3.2C699.8,4.8,701.3,3.3,703,3.3L703,3.3z"/>
			<path fill-rule="evenodd" clip-rule="evenodd" fill="#4D4D4E" d="M691.4,16c1.8,0,3.2,1.4,3.2,3.2c0,1.8-1.4,3.2-3.2,3.2
				c-1.8,0-3.2-1.4-3.2-3.2C688.2,17.4,689.7,16,691.4,16L691.4,16z"/>
			<path fill-rule="evenodd" clip-rule="evenodd" fill="#4D4D4E" d="M677,7.5c1.8,0,3.2,1.4,3.2,3.2c0,1.8-1.4,3.2-3.2,3.2
				c-1.8,0-3.2-1.4-3.2-3.2C673.8,8.9,675.2,7.5,677,7.5L677,7.5z"/>
			<path fill-rule="evenodd" clip-rule="evenodd" fill="#4D4D4E" d="M660.3,15.4c1.8,0,3.2,1.4,3.2,3.2c0,1.8-1.4,3.2-3.2,3.2
				c-1.8,0-3.2-1.4-3.2-3.2C657,16.9,658.5,15.4,660.3,15.4L660.3,15.4z"/>
			<path fill-rule="evenodd" clip-rule="evenodd" fill="#4D4D4E" d="M642.7,11.6c1.8,0,3.2,1.4,3.2,3.2c0,1.8-1.4,3.2-3.2,3.2
				c-1.8,0-3.2-1.4-3.2-3.2C639.5,13,640.9,11.6,642.7,11.6L642.7,11.6z"/>
			<path fill-rule="evenodd" clip-rule="evenodd" fill="#4D4D4E" d="M623.7,28.3c1.8,0,3.2,1.4,3.2,3.2c0,1.8-1.4,3.2-3.2,3.2
				c-1.8,0-3.2-1.4-3.2-3.2C620.4,29.7,621.9,28.3,623.7,28.3L623.7,28.3z"/>
			<path fill-rule="evenodd" clip-rule="evenodd" fill="#4D4D4E" d="M603.3,18c1.8,0,3.2,1.4,3.2,3.2s-1.4,3.2-3.2,3.2
				c-1.8,0-3.2-1.4-3.2-3.2S601.5,18,603.3,18L603.3,18z"/>
			<path fill-rule="evenodd" clip-rule="evenodd" fill="#4D4D4E" d="M572.6,32.9c1.8,0,3.2,1.4,3.2,3.2c0,1.8-1.4,3.2-3.2,3.2
				c-1.8,0-3.2-1.4-3.2-3.2C569.4,34.4,570.8,32.9,572.6,32.9L572.6,32.9z"/>
			<path fill-rule="evenodd" clip-rule="evenodd" fill="#4D4D4E" d="M573.4,14.4c1.8,0,3.2,1.4,3.2,3.2s-1.4,3.2-3.2,3.2
				c-1.8,0-3.2-1.4-3.2-3.2S571.6,14.4,573.4,14.4L573.4,14.4z"/>
			<path fill-rule="evenodd" clip-rule="evenodd" fill="#4D4D4E" d="M620.3,0.3c1.8,0,3.2,1.4,3.2,3.2c0,1.8-1.4,3.2-3.2,3.2
				c-1.8,0-3.2-1.4-3.2-3.2C617.1,1.7,618.5,0.3,620.3,0.3L620.3,0.3z"/>
			<path fill-rule="evenodd" clip-rule="evenodd" fill="#4D4D4E" d="M557.1,14.4c1.8,0,3.2,1.4,3.2,3.2s-1.4,3.2-3.2,3.2
				c-1.8,0-3.2-1.4-3.2-3.2S555.4,14.4,557.1,14.4L557.1,14.4z"/>
			<path fill-rule="evenodd" clip-rule="evenodd" fill="#4D4D4E" d="M528.5,2.8c1.8,0,3.2,1.4,3.2,3.2c0,1.8-1.4,3.2-3.2,3.2
				c-1.8,0-3.2-1.4-3.2-3.2C525.3,4.3,526.8,2.8,528.5,2.8L528.5,2.8z"/>
			<path fill-rule="evenodd" clip-rule="evenodd" fill="#4D4D4E" d="M531.6,35.4c1.8,0,3.2,1.4,3.2,3.2c0,1.8-1.4,3.2-3.2,3.2
				c-1.8,0-3.2-1.4-3.2-3.2C528.4,36.8,529.9,35.4,531.6,35.4L531.6,35.4z"/>
			<path fill-rule="evenodd" clip-rule="evenodd" fill="#4D4D4E" d="M533,55.3c1.8,0,3.2,1.4,3.2,3.2c0,1.8-1.4,3.2-3.2,3.2
				c-1.8,0-3.2-1.4-3.2-3.2C529.8,56.8,531.3,55.3,533,55.3L533,55.3z"/>
			<path fill-rule="evenodd" clip-rule="evenodd" fill="#4D4D4E" d="M513.2,50.7c1.8,0,3.2,1.4,3.2,3.2c0,1.8-1.4,3.2-3.2,3.2
				c-1.8,0-3.2-1.4-3.2-3.2C510,52.1,511.4,50.7,513.2,50.7L513.2,50.7z"/>
			<path fill-rule="evenodd" clip-rule="evenodd" fill="#4D4D4E" d="M498.1,59.4c1.8,0,3.2,1.4,3.2,3.2c0,1.8-1.4,3.2-3.2,3.2
				c-1.8,0-3.2-1.4-3.2-3.2C494.9,60.9,496.3,59.4,498.1,59.4L498.1,59.4z"/>
			<path fill-rule="evenodd" clip-rule="evenodd" fill="#4D4D4E" d="M504,73.3c2.8,0,5.1,2.3,5.1,5c0,2.8-2.3,5-5.1,5
				c-2.8,0-5-2.3-5-5C499,75.6,501.3,73.3,504,73.3L504,73.3z"/>
			<path fill-rule="evenodd" clip-rule="evenodd" fill="#4D4D4E" d="M482.4,72.6c1.8,0,3.2,1.4,3.2,3.2c0,1.8-1.4,3.2-3.2,3.2
				c-1.8,0-3.2-1.4-3.2-3.2C479.2,74,480.6,72.6,482.4,72.6L482.4,72.6z"/>
			<path fill-rule="evenodd" clip-rule="evenodd" fill="#4D4D4E" d="M464.4,85.2c1.8,0,3.2,1.4,3.2,3.2c0,1.8-1.4,3.2-3.2,3.2
				c-1.8,0-3.2-1.4-3.2-3.2C461.1,86.6,462.6,85.2,464.4,85.2L464.4,85.2z"/>
			<path fill-rule="evenodd" clip-rule="evenodd" fill="#4D4D4E" d="M473.6,42.4c1.8,0,3.2,1.4,3.2,3.2c0,1.8-1.4,3.2-3.2,3.2
				c-1.8,0-3.2-1.4-3.2-3.2C470.4,43.9,471.9,42.4,473.6,42.4L473.6,42.4z"/>
			<path fill-rule="evenodd" clip-rule="evenodd" fill="#4D4D4E" d="M490.4,33.4c1.8,0,3.2,1.4,3.2,3.2c0,1.8-1.4,3.2-3.2,3.2
				c-1.8,0-3.2-1.4-3.2-3.2C487.2,34.9,488.6,33.4,490.4,33.4L490.4,33.4z"/>
			<path fill-rule="evenodd" clip-rule="evenodd" fill="#4D4D4E" d="M468.7,58.7c1.8,0,3.2,1.4,3.2,3.2c0,1.8-1.4,3.2-3.2,3.2
				c-1.8,0-3.2-1.4-3.2-3.2C465.5,60.1,467,58.7,468.7,58.7L468.7,58.7z"/>
			<path fill-rule="evenodd" clip-rule="evenodd" fill="#4D4D4E" d="M438.8,142.4c1.8,0,3.2,1.4,3.2,3.2c0,1.8-1.4,3.2-3.2,3.2
				c-1.8,0-3.2-1.4-3.2-3.2C435.6,143.8,437.1,142.4,438.8,142.4L438.8,142.4z"/>
			<path fill-rule="evenodd" clip-rule="evenodd" fill="#4D4D4E" d="M464.4,123.6c3,0,5.4,2.4,5.4,5.4c0,3-2.4,5.4-5.4,5.4
				c-3,0-5.4-2.4-5.4-5.4C459,126,461.4,123.6,464.4,123.6L464.4,123.6z"/>
			<path fill-rule="evenodd" clip-rule="evenodd" fill="#4D4D4E" d="M488.3,111.4c1.8,0,3.2,1.4,3.2,3.2c0,1.8-1.4,3.2-3.2,3.2
				c-1.8,0-3.2-1.4-3.2-3.2C485.1,112.8,486.5,111.4,488.3,111.4L488.3,111.4z"/>
			<path fill-rule="evenodd" clip-rule="evenodd" fill="#4D4D4E" d="M528.8,74.6c1.8,0,3.2,1.4,3.2,3.2c0,1.8-1.4,3.2-3.2,3.2
				c-1.8,0-3.2-1.4-3.2-3.2C525.6,76.1,527,74.6,528.8,74.6L528.8,74.6z"/>
			<path fill-rule="evenodd" clip-rule="evenodd" fill="#4D4D4E" d="M544.8,106.5c1.8,0,3.2,1.4,3.2,3.2c0,1.8-1.4,3.2-3.2,3.2
				c-1.8,0-3.2-1.4-3.2-3.2C541.6,108,543,106.5,544.8,106.5L544.8,106.5z"/>
			<path fill-rule="evenodd" clip-rule="evenodd" fill="#4D4D4E" d="M588.7,75.6c1.8,0,3.2,1.4,3.2,3.2c0,1.8-1.4,3.2-3.2,3.2
				c-1.8,0-3.2-1.4-3.2-3.2C585.5,77.1,586.9,75.6,588.7,75.6L588.7,75.6z"/>
			<path fill-rule="evenodd" clip-rule="evenodd" fill="#4D4D4E" d="M591.7,106.8c1.8,0,3.2,1.4,3.2,3.2c0,1.8-1.4,3.2-3.2,3.2
				c-1.8,0-3.2-1.4-3.2-3.2C588.5,108.2,589.9,106.8,591.7,106.8L591.7,106.8z"/>
			<path fill-rule="evenodd" clip-rule="evenodd" fill="#4D4D4E" d="M639.9,72.2c1.8,0,3.2,1.4,3.2,3.2c0,1.8-1.4,3.2-3.2,3.2
				c-1.8,0-3.2-1.4-3.2-3.2C636.7,73.6,638.1,72.2,639.9,72.2L639.9,72.2z"/>
			<path fill-rule="evenodd" clip-rule="evenodd" fill="#4D4D4E" d="M677,37c1.8,0,3.2,1.4,3.2,3.2c0,1.8-1.4,3.2-3.2,3.2
				c-1.8,0-3.2-1.4-3.2-3.2C673.8,38.5,675.2,37,677,37L677,37z"/>
			<path fill-rule="evenodd" clip-rule="evenodd" fill="#4D4D4E" d="M709.5,144.1c1.8,0,3.2,1.4,3.2,3.2c0,1.8-1.4,3.2-3.2,3.2
				s-3.2-1.4-3.2-3.2C706.3,145.5,707.7,144.1,709.5,144.1L709.5,144.1z"/>
			<path fill-rule="evenodd" clip-rule="evenodd" fill="#4D4D4E" d="M712.3,159c1.8,0,3.2,1.4,3.2,3.2c0,1.8-1.4,3.2-3.2,3.2
				c-1.8,0-3.2-1.4-3.2-3.2C709.1,160.4,710.5,159,712.3,159L712.3,159z"/>
			<path fill-rule="evenodd" clip-rule="evenodd" fill="#4D4D4E" d="M711.5,172.6c1.8,0,3.2,1.4,3.2,3.2c0,1.8-1.4,3.2-3.2,3.2
				c-1.8,0-3.2-1.4-3.2-3.2C708.3,174.1,709.8,172.6,711.5,172.6L711.5,172.6z"/>
			<path fill-rule="evenodd" clip-rule="evenodd" fill="#4D4D4E" d="M697.1,182.2c1.8,0,3.2,1.4,3.2,3.2c0,1.8-1.4,3.2-3.2,3.2
				c-1.8,0-3.2-1.4-3.2-3.2C693.9,183.6,695.3,182.2,697.1,182.2L697.1,182.2z"/>
			<path fill-rule="evenodd" clip-rule="evenodd" fill="#4D4D4E" d="M698.1,197.1c1.8,0,3.2,1.4,3.2,3.2c0,1.8-1.4,3.2-3.2,3.2
				c-1.8,0-3.2-1.4-3.2-3.2C694.9,198.5,696.4,197.1,698.1,197.1L698.1,197.1z"/>
			<path fill-rule="evenodd" clip-rule="evenodd" fill="#4D4D4E" d="M676.8,165.8c1.8,0,3.2,1.4,3.2,3.2c0,1.8-1.4,3.2-3.2,3.2
				c-1.8,0-3.2-1.4-3.2-3.2C673.5,167.3,675,165.8,676.8,165.8L676.8,165.8z"/>
			<path fill-rule="evenodd" clip-rule="evenodd" fill="#4D4D4E" d="M658.9,162.4c1.8,0,3.2,1.4,3.2,3.2c0,1.8-1.4,3.2-3.2,3.2
				c-1.8,0-3.2-1.4-3.2-3.2C655.7,163.8,657.2,162.4,658.9,162.4L658.9,162.4z"/>
			<path fill-rule="evenodd" clip-rule="evenodd" fill="#4D4D4E" d="M661.1,178.1c1.8,0,3.2,1.4,3.2,3.2c0,1.8-1.4,3.2-3.2,3.2
				s-3.2-1.4-3.2-3.2C657.9,179.6,659.4,178.1,661.1,178.1L661.1,178.1z"/>
			<path fill-rule="evenodd" clip-rule="evenodd" fill="#4D4D4E" d="M675.2,195.9c1.8,0,3.2,1.4,3.2,3.2s-1.4,3.2-3.2,3.2
				c-1.8,0-3.2-1.4-3.2-3.2S673.4,195.9,675.2,195.9L675.2,195.9z"/>
			<path fill-rule="evenodd" clip-rule="evenodd" fill="#4D4D4E" d="M667.2,216.6c1.8,0,3.2,1.4,3.2,3.2c0,1.8-1.4,3.2-3.2,3.2
				c-1.8,0-3.2-1.4-3.2-3.2C664,218.1,665.4,216.6,667.2,216.6L667.2,216.6z"/>
			<path fill-rule="evenodd" clip-rule="evenodd" fill="#4D4D4E" d="M652,227.7c1.8,0,3.2,1.4,3.2,3.2c0,1.8-1.4,3.2-3.2,3.2
				s-3.2-1.4-3.2-3.2C648.8,229.1,650.2,227.7,652,227.7L652,227.7z"/>
			<path fill-rule="evenodd" clip-rule="evenodd" fill="#4D4D4E" d="M626.7,223.1c2.9,0,5.2,2.3,5.2,5.2c0,2.9-2.3,5.2-5.2,5.2
				c-2.9,0-5.2-2.3-5.2-5.2C621.5,225.5,623.9,223.1,626.7,223.1L626.7,223.1z"/>
			<path fill-rule="evenodd" clip-rule="evenodd" fill="#4D4D4E" d="M613.6,206.3c1.8,0,3.2,1.4,3.2,3.2c0,1.8-1.4,3.2-3.2,3.2
				c-1.8,0-3.2-1.4-3.2-3.2C610.4,207.8,611.8,206.3,613.6,206.3L613.6,206.3z"/>
			<path fill-rule="evenodd" clip-rule="evenodd" fill="#4D4D4E" d="M646.8,143c1.8,0,3.2,1.4,3.2,3.2c0,1.8-1.4,3.2-3.2,3.2
				c-1.8,0-3.2-1.4-3.2-3.2C643.6,144.5,645.1,143,646.8,143L646.8,143z"/>
			<path fill-rule="evenodd" clip-rule="evenodd" fill="#4D4D4E" d="M630.4,158.7c1.8,0,3.2,1.4,3.2,3.2s-1.4,3.2-3.2,3.2
				c-1.8,0-3.2-1.4-3.2-3.2S628.6,158.7,630.4,158.7L630.4,158.7z"/>
			<path fill-rule="evenodd" clip-rule="evenodd" fill="#4D4D4E" d="M603,161.6c1.8,0,3.2,1.4,3.2,3.2c0,1.8-1.4,3.2-3.2,3.2
				c-1.8,0-3.2-1.4-3.2-3.2C599.8,163,601.3,161.6,603,161.6L603,161.6z"/>
			<path fill-rule="evenodd" clip-rule="evenodd" fill="#4D4D4E" d="M583.7,149c1.8,0,3.2,1.4,3.2,3.2c0,1.8-1.4,3.2-3.2,3.2
				c-1.8,0-3.2-1.4-3.2-3.2C580.4,150.4,581.9,149,583.7,149L583.7,149z"/>
			<path fill-rule="evenodd" clip-rule="evenodd" fill="#4D4D4E" d="M561,167.1c1.8,0,3.2,1.4,3.2,3.2c0,1.8-1.4,3.2-3.2,3.2
				c-1.8,0-3.2-1.4-3.2-3.2C557.8,168.5,559.2,167.1,561,167.1L561,167.1z"/>
			<path fill-rule="evenodd" clip-rule="evenodd" fill="#4D4D4E" d="M545.4,179.8c1.8,0,3.2,1.4,3.2,3.2c0,1.8-1.4,3.2-3.2,3.2
				c-1.8,0-3.2-1.4-3.2-3.2C542.2,181.3,543.6,179.8,545.4,179.8L545.4,179.8z"/>
			<path fill-rule="evenodd" clip-rule="evenodd" fill="#4D4D4E" d="M564.5,194.5c1.8,0,3.2,1.4,3.2,3.2c0,1.8-1.4,3.2-3.2,3.2
				c-1.8,0-3.2-1.4-3.2-3.2C561.3,195.9,562.7,194.5,564.5,194.5L564.5,194.5z"/>
			<path fill-rule="evenodd" clip-rule="evenodd" fill="#4D4D4E" d="M576.3,210.8c1.8,0,3.2,1.4,3.2,3.2c0,1.8-1.4,3.2-3.2,3.2
				c-1.8,0-3.2-1.4-3.2-3.2C573.1,212.2,574.5,210.8,576.3,210.8L576.3,210.8z"/>
			<path fill-rule="evenodd" clip-rule="evenodd" fill="#4D4D4E" d="M614.8,180.6c1.8,0,3.2,1.4,3.2,3.2c0,1.8-1.4,3.2-3.2,3.2
				c-1.8,0-3.2-1.4-3.2-3.2C611.5,182,613,180.6,614.8,180.6L614.8,180.6z"/>
			<path fill-rule="evenodd" clip-rule="evenodd" fill="#4D4D4E" d="M646.6,199.4c1.8,0,3.2,1.4,3.2,3.2c0,1.8-1.4,3.2-3.2,3.2
				c-1.8,0-3.2-1.4-3.2-3.2C643.4,200.8,644.8,199.4,646.6,199.4L646.6,199.4z"/>
			<path fill-rule="evenodd" clip-rule="evenodd" fill="#4D4D4E" d="M590.4,180.1c1.8,0,3.2,1.4,3.2,3.2c0,1.8-1.4,3.2-3.2,3.2
				c-1.8,0-3.2-1.4-3.2-3.2C587.2,181.5,588.6,180.1,590.4,180.1L590.4,180.1z"/>
			<path fill-rule="evenodd" clip-rule="evenodd" fill="#4D4D4E" d="M533.7,144.8c1.8,0,3.2,1.4,3.2,3.2s-1.4,3.2-3.2,3.2
				c-1.8,0-3.2-1.4-3.2-3.2S531.9,144.8,533.7,144.8L533.7,144.8z"/>
			<path fill-rule="evenodd" clip-rule="evenodd" fill="#4D4D4E" d="M519.3,162c2.8,0,5.1,2.3,5.1,5.1c0,2.8-2.3,5.1-5.1,5.1
				c-2.8,0-5.1-2.3-5.1-5.1C514.1,164.3,516.4,162,519.3,162L519.3,162z"/>
			<path fill-rule="evenodd" clip-rule="evenodd" fill="#4D4D4E" d="M500.4,176.5c1.8,0,3.2,1.4,3.2,3.2c0,1.8-1.4,3.2-3.2,3.2
				c-1.8,0-3.2-1.4-3.2-3.2C497.2,177.9,498.7,176.5,500.4,176.5L500.4,176.5z"/>
			<path fill-rule="evenodd" clip-rule="evenodd" fill="#4D4D4E" d="M490.4,191.4c1.8,0,3.2,1.4,3.2,3.2c0,1.8-1.4,3.2-3.2,3.2
				c-1.8,0-3.2-1.4-3.2-3.2C487.2,192.9,488.6,191.4,490.4,191.4L490.4,191.4z"/>
			<path fill-rule="evenodd" clip-rule="evenodd" fill="#4D4D4E" d="M456.6,230.6c1.8,0,3.2,1.4,3.2,3.2c0,1.8-1.4,3.2-3.2,3.2
				c-1.8,0-3.2-1.4-3.2-3.2C453.4,232.1,454.8,230.6,456.6,230.6L456.6,230.6z"/>
			<path fill-rule="evenodd" clip-rule="evenodd" fill="#4D4D4E" d="M464.1,249.3c1.8,0,3.2,1.4,3.2,3.2c0,1.8-1.4,3.2-3.2,3.2
				c-1.8,0-3.2-1.4-3.2-3.2C460.9,250.7,462.3,249.3,464.1,249.3L464.1,249.3z"/>
			<path fill-rule="evenodd" clip-rule="evenodd" fill="#4D4D4E" d="M482.1,269.9c1.8,0,3.2,1.4,3.2,3.2c0,1.8-1.4,3.2-3.2,3.2
				c-1.8,0-3.2-1.4-3.2-3.2C478.9,271.3,480.4,269.9,482.1,269.9L482.1,269.9z"/>
			<path fill-rule="evenodd" clip-rule="evenodd" fill="#4D4D4E" d="M503,266c1.8,0,3.2,1.4,3.2,3.2c0,1.8-1.4,3.2-3.2,3.2
				c-1.8,0-3.2-1.4-3.2-3.2C499.8,267.5,501.2,266,503,266L503,266z"/>
			<path fill-rule="evenodd" clip-rule="evenodd" fill="#4D4D4E" d="M500.7,281.2c1.8,0,3.2,1.4,3.2,3.2c0,1.8-1.4,3.2-3.2,3.2
				c-1.8,0-3.2-1.4-3.2-3.2C497.5,282.6,498.9,281.2,500.7,281.2L500.7,281.2z"/>
			<path fill-rule="evenodd" clip-rule="evenodd" fill="#4D4D4E" d="M471.1,302.4c1.8,0,3.2,1.4,3.2,3.2c0,1.8-1.4,3.2-3.2,3.2
				c-1.8,0-3.2-1.4-3.2-3.2C467.8,303.9,469.3,302.4,471.1,302.4L471.1,302.4z"/>
			<path fill-rule="evenodd" clip-rule="evenodd" fill="#4D4D4E" d="M472.6,333.7c1.8,0,3.2,1.4,3.2,3.2c0,1.8-1.4,3.2-3.2,3.2
				c-1.8,0-3.2-1.4-3.2-3.2C469.4,335.1,470.8,333.7,472.6,333.7L472.6,333.7z"/>
			<path fill-rule="evenodd" clip-rule="evenodd" fill="#4D4D4E" d="M457.1,348.6c1.8,0,3.2,1.4,3.2,3.2c0,1.8-1.4,3.2-3.2,3.2
				s-3.2-1.4-3.2-3.2C453.9,350.1,455.4,348.6,457.1,348.6L457.1,348.6z"/>
			<path fill-rule="evenodd" clip-rule="evenodd" fill="#4D4D4E" d="M457.7,363.8c1.8,0,3.2,1.4,3.2,3.2c0,1.8-1.4,3.2-3.2,3.2
				c-1.8,0-3.2-1.4-3.2-3.2C454.4,365.2,455.9,363.8,457.7,363.8L457.7,363.8z"/>
			<path fill-rule="evenodd" clip-rule="evenodd" fill="#4D4D4E" d="M437,386.4c1.8,0,3.2,1.4,3.2,3.2s-1.4,3.2-3.2,3.2
				c-1.8,0-3.2-1.4-3.2-3.2S435.3,386.4,437,386.4L437,386.4z"/>
			<path fill-rule="evenodd" clip-rule="evenodd" fill="#4D4D4E" d="M419.1,391.8c1.8,0,3.2,1.4,3.2,3.2c0,1.8-1.4,3.2-3.2,3.2
				c-1.8,0-3.2-1.4-3.2-3.2C415.9,393.3,417.3,391.8,419.1,391.8L419.1,391.8z"/>
			<path fill-rule="evenodd" clip-rule="evenodd" fill="#4D4D4E" d="M410.7,369.2c1.8,0,3.2,1.4,3.2,3.2s-1.4,3.2-3.2,3.2
				c-1.8,0-3.2-1.4-3.2-3.2S409,369.2,410.7,369.2L410.7,369.2z"/>
			<path fill-rule="evenodd" clip-rule="evenodd" fill="#4D4D4E" d="M399.3,350.9c1.8,0,3.2,1.4,3.2,3.2c0,1.8-1.4,3.2-3.2,3.2
				c-1.8,0-3.2-1.4-3.2-3.2C396,352.4,397.5,350.9,399.3,350.9L399.3,350.9z"/>
			<path fill-rule="evenodd" clip-rule="evenodd" fill="#4D4D4E" d="M398.5,332.9c1.8,0,3.2,1.4,3.2,3.2c0,1.8-1.4,3.2-3.2,3.2
				c-1.8,0-3.2-1.4-3.2-3.2C395.3,334.4,396.7,332.9,398.5,332.9L398.5,332.9z"/>
			<path fill-rule="evenodd" clip-rule="evenodd" fill="#4D4D4E" d="M403.7,317.5c1.8,0,3.2,1.4,3.2,3.2c0,1.8-1.4,3.2-3.2,3.2
				s-3.2-1.4-3.2-3.2C400.4,318.9,401.9,317.5,403.7,317.5L403.7,317.5z"/>
			<path fill-rule="evenodd" clip-rule="evenodd" fill="#4D4D4E" d="M391.8,301.5c1.8,0,3.2,1.4,3.2,3.2c0,1.8-1.4,3.2-3.2,3.2
				c-1.8,0-3.2-1.4-3.2-3.2C388.6,303,390,301.5,391.8,301.5L391.8,301.5z"/>
			<path fill-rule="evenodd" clip-rule="evenodd" fill="#4D4D4E" d="M392.6,285.6c1.8,0,3.2,1.4,3.2,3.2c0,1.8-1.4,3.2-3.2,3.2
				c-1.8,0-3.2-1.4-3.2-3.2C389.3,287,390.8,285.6,392.6,285.6L392.6,285.6z"/>
			<path fill-rule="evenodd" clip-rule="evenodd" fill="#4D4D4E" d="M372.7,277.6c1.8,0,3.2,1.4,3.2,3.2c0,1.8-1.4,3.2-3.2,3.2
				c-1.8,0-3.2-1.4-3.2-3.2C369.5,279,370.9,277.6,372.7,277.6L372.7,277.6z"/>
			<path fill-rule="evenodd" clip-rule="evenodd" fill="#4D4D4E" d="M347.1,283.8c1.8,0,3.2,1.4,3.2,3.2c0,1.8-1.4,3.2-3.2,3.2
				c-1.8,0-3.2-1.4-3.2-3.2C343.9,285.2,345.3,283.8,347.1,283.8L347.1,283.8z"/>
			<path fill-rule="evenodd" clip-rule="evenodd" fill="#4D4D4E" d="M333.7,269.9c1.8,0,3.2,1.4,3.2,3.2c0,1.8-1.4,3.2-3.2,3.2
				c-1.8,0-3.2-1.4-3.2-3.2C330.4,271.3,331.9,269.9,333.7,269.9L333.7,269.9z"/>
			<path fill-rule="evenodd" clip-rule="evenodd" fill="#4D4D4E" d="M360,260.6c1.8,0,3.2,1.4,3.2,3.2c0,1.8-1.4,3.2-3.2,3.2
				s-3.2-1.4-3.2-3.2C356.7,262.1,358.2,260.6,360,260.6L360,260.6z"/>
			<path fill-rule="evenodd" clip-rule="evenodd" fill="#4D4D4E" d="M378.5,247.2c1.8,0,3.2,1.4,3.2,3.2c0,1.8-1.4,3.2-3.2,3.2
				c-1.8,0-3.2-1.4-3.2-3.2C375.3,248.7,376.7,247.2,378.5,247.2L378.5,247.2z"/>
			<path fill-rule="evenodd" clip-rule="evenodd" fill="#4D4D4E" d="M354,228.7c1.8,0,3.2,1.4,3.2,3.2c0,1.8-1.4,3.2-3.2,3.2
				c-1.8,0-3.2-1.4-3.2-3.2C350.8,230.2,352.3,228.7,354,228.7L354,228.7z"/>
			<path fill-rule="evenodd" clip-rule="evenodd" fill="#4D4D4E" d="M399.4,234.6c1.8,0,3.2,1.4,3.2,3.2c0,1.8-1.4,3.2-3.2,3.2
				c-1.8,0-3.2-1.4-3.2-3.2C396.2,236.1,397.6,234.6,399.4,234.6L399.4,234.6z"/>
			<path fill-rule="evenodd" clip-rule="evenodd" fill="#4D4D4E" d="M431.9,242.6c1.8,0,3.2,1.4,3.2,3.2c0,1.8-1.4,3.2-3.2,3.2
				c-1.8,0-3.2-1.4-3.2-3.2C428.7,244.1,430.1,242.6,431.9,242.6L431.9,242.6z"/>
			<path fill-rule="evenodd" clip-rule="evenodd" fill="#4D4D4E" d="M429.6,264.2c1.8,0,3.2,1.4,3.2,3.2s-1.4,3.2-3.2,3.2
				c-1.8,0-3.2-1.4-3.2-3.2S427.8,264.2,429.6,264.2L429.6,264.2z"/>
			<path fill-rule="evenodd" clip-rule="evenodd" fill="#4D4D4E" d="M410.7,276.1c1.8,0,3.2,1.4,3.2,3.2c0,1.8-1.4,3.2-3.2,3.2
				c-1.8,0-3.2-1.4-3.2-3.2C407.5,277.5,409,276.1,410.7,276.1L410.7,276.1z"/>
			<path fill-rule="evenodd" clip-rule="evenodd" fill="#4D4D4E" d="M441.9,282.7c1.8,0,3.2,1.4,3.2,3.2c0,1.8-1.4,3.2-3.2,3.2
				c-1.8,0-3.2-1.4-3.2-3.2C438.7,284.2,440.2,282.7,441.9,282.7L441.9,282.7z"/>
			<path fill-rule="evenodd" clip-rule="evenodd" fill="#4D4D4E" d="M463.8,281.5c1.8,0,3.2,1.4,3.2,3.2c0,1.8-1.4,3.2-3.2,3.2
				c-1.8,0-3.2-1.4-3.2-3.2C460.6,282.9,462.1,281.5,463.8,281.5L463.8,281.5z"/>
			<path fill-rule="evenodd" clip-rule="evenodd" fill="#4D4D4E" d="M455.3,298.7c1.8,0,3.2,1.4,3.2,3.2c0,1.8-1.4,3.2-3.2,3.2
				c-1.8,0-3.2-1.4-3.2-3.2C452.1,300.1,453.6,298.7,455.3,298.7L455.3,298.7z"/>
			<path fill-rule="evenodd" clip-rule="evenodd" fill="#4D4D4E" d="M439.9,325.5c1.8,0,3.2,1.4,3.2,3.2c0,1.8-1.4,3.2-3.2,3.2
				c-1.8,0-3.2-1.4-3.2-3.2C436.6,326.9,438.1,325.5,439.9,325.5L439.9,325.5z"/>
			<path fill-rule="evenodd" clip-rule="evenodd" fill="#4D4D4E" d="M423.6,343.1c1.8,0,3.2,1.4,3.2,3.2c0,1.8-1.4,3.2-3.2,3.2
				c-1.8,0-3.2-1.4-3.2-3.2C420.4,344.5,421.8,343.1,423.6,343.1L423.6,343.1z"/>
			<path fill-rule="evenodd" clip-rule="evenodd" fill="#4D4D4E" d="M440.6,357.2c1.8,0,3.2,1.4,3.2,3.2c0,1.8-1.4,3.2-3.2,3.2
				c-1.8,0-3.2-1.4-3.2-3.2C437.4,358.7,438.9,357.2,440.6,357.2L440.6,357.2z"/>
			<path fill-rule="evenodd" clip-rule="evenodd" fill="#4D4D4E" d="M424.2,370.6c1.8,0,3.2,1.4,3.2,3.2c0,1.8-1.4,3.2-3.2,3.2
				s-3.2-1.4-3.2-3.2C420.9,372,422.4,370.6,424.2,370.6L424.2,370.6z"/>
			<path fill-rule="evenodd" clip-rule="evenodd" fill="#4D4D4E" d="M460.2,327.5c1.8,0,3.2,1.4,3.2,3.2c0,1.8-1.4,3.2-3.2,3.2
				c-1.8,0-3.2-1.4-3.2-3.2C457,329,458.5,327.5,460.2,327.5L460.2,327.5z"/>
			<path fill-rule="evenodd" clip-rule="evenodd" fill="#4D4D4E" d="M497.9,334.1c1.8,0,3.2,1.4,3.2,3.2c0,1.8-1.4,3.2-3.2,3.2
				c-1.8,0-3.2-1.4-3.2-3.2C494.6,335.5,496.1,334.1,497.9,334.1L497.9,334.1z"/>
			<path fill-rule="evenodd" clip-rule="evenodd" fill="#4D4D4E" d="M485.7,345.8c1.8,0,3.2,1.4,3.2,3.2c0,1.8-1.4,3.2-3.2,3.2
				s-3.2-1.4-3.2-3.2C482.5,347.2,484,345.8,485.7,345.8L485.7,345.8z"/>
			<path fill-rule="evenodd" clip-rule="evenodd" fill="#4D4D4E" d="M484.2,366.6c1.8,0,3.2,1.4,3.2,3.2c0,1.8-1.4,3.2-3.2,3.2
				s-3.2-1.4-3.2-3.2C481,368.1,482.4,366.6,484.2,366.6L484.2,366.6z"/>
			<path fill-rule="evenodd" clip-rule="evenodd" fill="#4D4D4E" d="M496.2,357.9c1.8,0,3.2,1.4,3.2,3.2c0,1.8-1.4,3.2-3.2,3.2
				c-1.8,0-3.2-1.4-3.2-3.2C493,359.3,494.4,357.9,496.2,357.9L496.2,357.9z"/>
			<path fill-rule="evenodd" clip-rule="evenodd" fill="#4D4D4E" d="M518.9,235.2c1.8,0,3.2,1.4,3.2,3.2s-1.4,3.2-3.2,3.2
				c-1.8,0-3.2-1.4-3.2-3.2S517.1,235.2,518.9,235.2L518.9,235.2z"/>
			<path fill-rule="evenodd" clip-rule="evenodd" fill="#4D4D4E" d="M501.1,230.8c1.8,0,3.2,1.4,3.2,3.2c0,1.8-1.4,3.2-3.2,3.2
				c-1.8,0-3.2-1.4-3.2-3.2C497.9,232.2,499.3,230.8,501.1,230.8L501.1,230.8z"/>
			<path fill-rule="evenodd" clip-rule="evenodd" fill="#4D4D4E" d="M489.4,210.5c1.8,0,3.2,1.4,3.2,3.2c0,1.8-1.4,3.2-3.2,3.2
				c-1.8,0-3.2-1.4-3.2-3.2C486.1,211.9,487.6,210.5,489.4,210.5L489.4,210.5z"/>
			<path fill-rule="evenodd" clip-rule="evenodd" fill="#4D4D4E" d="M509.8,219.2c1.8,0,3.2,1.4,3.2,3.2c0,1.8-1.4,3.2-3.2,3.2
				c-1.8,0-3.2-1.4-3.2-3.2C506.6,220.6,508.1,219.2,509.8,219.2L509.8,219.2z"/>
			<path fill-rule="evenodd" clip-rule="evenodd" fill="#4D4D4E" d="M536.4,225.4c1.8,0,3.2,1.4,3.2,3.2c0,1.8-1.4,3.2-3.2,3.2
				c-1.8,0-3.2-1.4-3.2-3.2C533.2,226.8,534.6,225.4,536.4,225.4L536.4,225.4z"/>
			<path fill-rule="evenodd" clip-rule="evenodd" fill="#4D4D4E" d="M551.9,237.9c1.8,0,3.2,1.4,3.2,3.2c0,1.8-1.4,3.2-3.2,3.2
				c-1.8,0-3.2-1.4-3.2-3.2C548.6,239.3,550.1,237.9,551.9,237.9L551.9,237.9z"/>
			<path fill-rule="evenodd" clip-rule="evenodd" fill="#4D4D4E" d="M562,256.5c1.8,0,3.2,1.4,3.2,3.2c0,1.8-1.4,3.2-3.2,3.2
				c-1.8,0-3.2-1.4-3.2-3.2C558.8,257.9,560.3,256.5,562,256.5L562,256.5z"/>
			<path fill-rule="evenodd" clip-rule="evenodd" fill="#4D4D4E" d="M572.7,273c1.8,0,3.2,1.4,3.2,3.2c0,1.8-1.4,3.2-3.2,3.2
				c-1.8,0-3.2-1.4-3.2-3.2C569.5,274.4,571,273,572.7,273L572.7,273z"/>
			<path fill-rule="evenodd" clip-rule="evenodd" fill="#4D4D4E" d="M582.2,261.8c1.8,0,3.2,1.4,3.2,3.2c0,1.8-1.4,3.2-3.2,3.2
				c-1.8,0-3.2-1.4-3.2-3.2C578.9,263.2,580.4,261.8,582.2,261.8L582.2,261.8z"/>
			<path fill-rule="evenodd" clip-rule="evenodd" fill="#4D4D4E" d="M580.9,247.9c1.8,0,3.2,1.4,3.2,3.2c0,1.8-1.4,3.2-3.2,3.2
				c-1.8,0-3.2-1.4-3.2-3.2C577.6,249.3,579.1,247.9,580.9,247.9L580.9,247.9z"/>
			<path fill-rule="evenodd" clip-rule="evenodd" fill="#4D4D4E" d="M503.5,246.7c1.8,0,3.2,1.4,3.2,3.2c0,1.8-1.4,3.2-3.2,3.2
				c-1.8,0-3.2-1.4-3.2-3.2C500.3,248.2,501.8,246.7,503.5,246.7L503.5,246.7z"/>
			<path fill-rule="evenodd" clip-rule="evenodd" fill="#4D4D4E" d="M483.9,253.4c1.8,0,3.2,1.4,3.2,3.2c0,1.8-1.4,3.2-3.2,3.2
				c-1.8,0-3.2-1.4-3.2-3.2C480.7,254.9,482.2,253.4,483.9,253.4L483.9,253.4z"/>
			<path fill-rule="evenodd" clip-rule="evenodd" fill="#4D4D4E" d="M477.6,235.7c1.8,0,3.2,1.4,3.2,3.2s-1.4,3.2-3.2,3.2
				c-1.8,0-3.2-1.4-3.2-3.2S475.9,235.7,477.6,235.7L477.6,235.7z"/>
			<path fill-rule="evenodd" clip-rule="evenodd" fill="#4D4D4E" d="M459,217.4c1.8,0,3.2,1.4,3.2,3.2c0,1.8-1.4,3.2-3.2,3.2
				c-1.8,0-3.2-1.4-3.2-3.2C455.7,218.8,457.2,217.4,459,217.4L459,217.4z"/>
			<path fill-rule="evenodd" clip-rule="evenodd" fill="#4D4D4E" d="M551.1,210.5c1.8,0,3.2,1.4,3.2,3.2s-1.4,3.2-3.2,3.2
				c-1.8,0-3.2-1.4-3.2-3.2S549.3,210.5,551.1,210.5L551.1,210.5z"/>
			<path fill-rule="evenodd" clip-rule="evenodd" fill="#4D4D4E" d="M528.2,210.9c1.8,0,3.2,1.4,3.2,3.2s-1.4,3.2-3.2,3.2
				c-1.8,0-3.2-1.4-3.2-3.2S526.4,210.9,528.2,210.9L528.2,210.9z"/>
			<path fill-rule="evenodd" clip-rule="evenodd" fill="#4D4D4E" d="M524.5,191c1.8,0,3.2,1.4,3.2,3.2c0,1.8-1.4,3.2-3.2,3.2
				c-1.8,0-3.2-1.4-3.2-3.2C521.3,192.4,522.7,191,524.5,191L524.5,191z"/>
			<path fill-rule="evenodd" clip-rule="evenodd" fill="#4D4D4E" d="M592.1,228.3c1.8,0,3.2,1.4,3.2,3.2c0,1.8-1.4,3.2-3.2,3.2
				c-1.8,0-3.2-1.4-3.2-3.2C588.9,229.8,590.4,228.3,592.1,228.3L592.1,228.3z"/>
			<path fill-rule="evenodd" clip-rule="evenodd" fill="#4D4D4E" d="M605.3,229.8c1.8,0,3.2,1.4,3.2,3.2s-1.4,3.2-3.2,3.2
				c-1.8,0-3.2-1.4-3.2-3.2S603.6,229.8,605.3,229.8L605.3,229.8z"/>
			<path fill-rule="evenodd" clip-rule="evenodd" fill="#4D4D4E" d="M615,245.6c1.8,0,3.2,1.4,3.2,3.2c0,1.8-1.4,3.2-3.2,3.2
				c-1.8,0-3.2-1.4-3.2-3.2C611.8,247.1,613.3,245.6,615,245.6L615,245.6z"/>
			<path fill-rule="evenodd" clip-rule="evenodd" fill="#4D4D4E" d="M628.4,270.5c1.8,0,3.2,1.4,3.2,3.2c0,1.8-1.4,3.2-3.2,3.2
				c-1.8,0-3.2-1.4-3.2-3.2C625.2,272,626.7,270.5,628.4,270.5L628.4,270.5z"/>
			<path fill-rule="evenodd" clip-rule="evenodd" fill="#4D4D4E" d="M630.7,253.3c1.8,0,3.2,1.4,3.2,3.2c0,1.8-1.4,3.2-3.2,3.2
				c-1.8,0-3.2-1.4-3.2-3.2C627.5,254.7,628.9,253.3,630.7,253.3L630.7,253.3z"/>
			<path fill-rule="evenodd" clip-rule="evenodd" fill="#4D4D4E" d="M644.3,265c1.8,0,3.2,1.4,3.2,3.2c0,1.8-1.4,3.2-3.2,3.2
				c-1.8,0-3.2-1.4-3.2-3.2C641.1,266.4,642.5,265,644.3,265L644.3,265z"/>
			<path fill-rule="evenodd" clip-rule="evenodd" fill="#4D4D4E" d="M654.8,253.7c1.8,0,3.2,1.4,3.2,3.2c0,1.8-1.4,3.2-3.2,3.2
				c-1.8,0-3.2-1.4-3.2-3.2C651.6,255.1,653.1,253.7,654.8,253.7L654.8,253.7z"/>
			<path fill-rule="evenodd" clip-rule="evenodd" fill="#4D4D4E" d="M639.4,241.3c1.8,0,3.2,1.4,3.2,3.2c0,1.8-1.4,3.2-3.2,3.2
				c-1.8,0-3.2-1.4-3.2-3.2C636.1,242.8,637.6,241.3,639.4,241.3L639.4,241.3z"/>
			<path fill-rule="evenodd" clip-rule="evenodd" fill="#4D4D4E" d="M641.6,294.4c1.8,0,3.2,1.4,3.2,3.2c0,1.8-1.4,3.2-3.2,3.2
				c-1.8,0-3.2-1.4-3.2-3.2C638.4,295.9,639.9,294.4,641.6,294.4L641.6,294.4z"/>
			<path fill-rule="evenodd" clip-rule="evenodd" fill="#4D4D4E" d="M617.1,281.5c1.8,0,3.2,1.4,3.2,3.2s-1.4,3.2-3.2,3.2
				c-1.8,0-3.2-1.4-3.2-3.2S615.3,281.5,617.1,281.5L617.1,281.5z"/>
			<path fill-rule="evenodd" clip-rule="evenodd" fill="#4D4D4E" d="M629.7,300.4c1.8,0,3.2,1.4,3.2,3.2c0,1.8-1.4,3.2-3.2,3.2
				c-1.8,0-3.2-1.4-3.2-3.2C626.5,301.8,627.9,300.4,629.7,300.4L629.7,300.4z"/>
			<path fill-rule="evenodd" clip-rule="evenodd" fill="#4D4D4E" d="M646.6,314.6c1.8,0,3.2,1.4,3.2,3.2c0,1.8-1.4,3.2-3.2,3.2
				c-1.8,0-3.2-1.4-3.2-3.2C643.4,316,644.8,314.6,646.6,314.6L646.6,314.6z"/>
			<path fill-rule="evenodd" clip-rule="evenodd" fill="#4D4D4E" d="M668.2,323c1.8,0,3.2,1.4,3.2,3.2c0,1.8-1.4,3.2-3.2,3.2
				c-1.8,0-3.2-1.4-3.2-3.2C665,324.5,666.5,323,668.2,323L668.2,323z"/>
			<path fill-rule="evenodd" clip-rule="evenodd" fill="#4D4D4E" d="M697.9,325.7c1.8,0,3.2,1.4,3.2,3.2c0,1.8-1.4,3.2-3.2,3.2
				c-1.8,0-3.2-1.4-3.2-3.2C694.7,327.2,696.2,325.7,697.9,325.7L697.9,325.7z"/>
			<path fill-rule="evenodd" clip-rule="evenodd" fill="#4D4D4E" d="M696.3,291.5c1.8,0,3.2,1.4,3.2,3.2c0,1.8-1.4,3.2-3.2,3.2
				c-1.8,0-3.2-1.4-3.2-3.2C693.1,293,694.5,291.5,696.3,291.5L696.3,291.5z"/>
			<path fill-rule="evenodd" clip-rule="evenodd" fill="#4D4D4E" d="M690.1,309c1.8,0,3.2,1.4,3.2,3.2c0,1.8-1.4,3.2-3.2,3.2
				c-1.8,0-3.2-1.4-3.2-3.2C686.9,310.5,688.3,309,690.1,309L690.1,309z"/>
			<path fill-rule="evenodd" clip-rule="evenodd" fill="#4D4D4E" d="M683.3,299.7c1.8,0,3.2,1.4,3.2,3.2s-1.4,3.2-3.2,3.2
				c-1.8,0-3.2-1.4-3.2-3.2S681.5,299.7,683.3,299.7L683.3,299.7z"/>
			<path fill-rule="evenodd" clip-rule="evenodd" fill="#4D4D4E" d="M667.4,303.4c1.8,0,3.2,1.4,3.2,3.2c0,1.8-1.4,3.2-3.2,3.2
				c-1.8,0-3.2-1.4-3.2-3.2C664.2,304.8,665.6,303.4,667.4,303.4L667.4,303.4z"/>
			<path fill-rule="evenodd" clip-rule="evenodd" fill="#4D4D4E" d="M658.6,289.9c1.8,0,3.2,1.4,3.2,3.2c0,1.8-1.4,3.2-3.2,3.2
				c-1.8,0-3.2-1.4-3.2-3.2C655.3,291.3,656.8,289.9,658.6,289.9L658.6,289.9z"/>
			<path fill-rule="evenodd" clip-rule="evenodd" fill="#4D4D4E" d="M671.8,276.5c1.8,0,3.2,1.4,3.2,3.2c0,1.8-1.4,3.2-3.2,3.2
				c-1.8,0-3.2-1.4-3.2-3.2C668.5,278,670,276.5,671.8,276.5L671.8,276.5z"/>
			<path fill-rule="evenodd" clip-rule="evenodd" fill="#4D4D4E" d="M696.9,272.3c1.8,0,3.2,1.4,3.2,3.2c0,1.8-1.4,3.2-3.2,3.2
				s-3.2-1.4-3.2-3.2C693.7,273.7,695.1,272.3,696.9,272.3L696.9,272.3z"/>
			<path fill-rule="evenodd" clip-rule="evenodd" fill="#4D4D4E" d="M699.4,255c1.8,0,3.2,1.4,3.2,3.2c0,1.8-1.4,3.2-3.2,3.2
				s-3.2-1.4-3.2-3.2C696.2,256.4,697.6,255,699.4,255L699.4,255z"/>
			<path fill-rule="evenodd" clip-rule="evenodd" fill="#4D4D4E" d="M682.7,241.4c1.8,0,3.2,1.4,3.2,3.2c0,1.8-1.4,3.2-3.2,3.2
				c-1.8,0-3.2-1.4-3.2-3.2C679.5,242.8,680.9,241.4,682.7,241.4L682.7,241.4z"/>
			<path fill-rule="evenodd" clip-rule="evenodd" fill="#4D4D4E" d="M718.8,301.3c1.8,0,3.2,1.4,3.2,3.2c0,1.8-1.4,3.2-3.2,3.2
				c-1.8,0-3.2-1.4-3.2-3.2C715.5,302.8,717,301.3,718.8,301.3L718.8,301.3z"/>
			<path fill-rule="evenodd" clip-rule="evenodd" fill="#4D4D4E" d="M739.4,305.8c1.8,0,3.2,1.4,3.2,3.2c0,1.8-1.4,3.2-3.2,3.2
				c-1.8,0-3.2-1.4-3.2-3.2C736.1,307.2,737.6,305.8,739.4,305.8L739.4,305.8z"/>
			<path fill-rule="evenodd" clip-rule="evenodd" fill="#4D4D4E" d="M754.6,316.6c1.8,0,3.2,1.4,3.2,3.2c0,1.8-1.4,3.2-3.2,3.2
				s-3.2-1.4-3.2-3.2C751.4,318,752.9,316.6,754.6,316.6L754.6,316.6z"/>
			<path fill-rule="evenodd" clip-rule="evenodd" fill="#4D4D4E" d="M763.7,331.2c1.8,0,3.2,1.4,3.2,3.2c0,1.8-1.4,3.2-3.2,3.2
				c-1.8,0-3.2-1.4-3.2-3.2C760.5,332.6,762,331.2,763.7,331.2L763.7,331.2z"/>
			<path fill-rule="evenodd" clip-rule="evenodd" fill="#4D4D4E" d="M746.9,322.1c1.8,0,3.2,1.4,3.2,3.2c0,1.8-1.4,3.2-3.2,3.2
				s-3.2-1.4-3.2-3.2C743.7,323.5,745.1,322.1,746.9,322.1L746.9,322.1z"/>
			<path fill-rule="evenodd" clip-rule="evenodd" fill="#4D4D4E" d="M734,326.5c1.8,0,3.2,1.4,3.2,3.2c0,1.8-1.4,3.2-3.2,3.2
				c-1.8,0-3.2-1.4-3.2-3.2C730.8,328,732.3,326.5,734,326.5L734,326.5z"/>
			<path fill-rule="evenodd" clip-rule="evenodd" fill="#4D4D4E" d="M740.7,338.7c1.8,0,3.2,1.4,3.2,3.2c0,1.8-1.4,3.2-3.2,3.2
				c-1.8,0-3.2-1.4-3.2-3.2C737.5,340.1,739,338.7,740.7,338.7L740.7,338.7z"/>
			<path fill-rule="evenodd" clip-rule="evenodd" fill="#4D4D4E" d="M731.8,355.1c1.8,0,3.2,1.4,3.2,3.2c0,1.8-1.4,3.2-3.2,3.2
				s-3.2-1.4-3.2-3.2C728.6,356.6,730,355.1,731.8,355.1L731.8,355.1z"/>
			<path fill-rule="evenodd" clip-rule="evenodd" fill="#4D4D4E" d="M719.6,349.8c1.8,0,3.2,1.4,3.2,3.2c0,1.8-1.4,3.2-3.2,3.2
				c-1.8,0-3.2-1.4-3.2-3.2C716.4,351.3,717.8,349.8,719.6,349.8L719.6,349.8z"/>
			<path fill-rule="evenodd" clip-rule="evenodd" fill="#4D4D4E" d="M722.2,337c1.8,0,3.2,1.4,3.2,3.2c0,1.8-1.4,3.2-3.2,3.2
				c-1.8,0-3.2-1.4-3.2-3.2C719,338.4,720.4,337,722.2,337L722.2,337z"/>
			<path fill-rule="evenodd" clip-rule="evenodd" fill="#4D4D4E" d="M701.2,343.4c2.4,0,4.4,2,4.4,4.4c0,2.4-2,4.4-4.4,4.4
				c-2.4,0-4.4-2-4.4-4.4C696.8,345.3,698.8,343.4,701.2,343.4L701.2,343.4z"/>
			<path fill-rule="evenodd" clip-rule="evenodd" fill="#4D4D4E" d="M679.9,359.1c1.8,0,3.2,1.4,3.2,3.2s-1.4,3.2-3.2,3.2
				c-1.8,0-3.2-1.4-3.2-3.2S678.1,359.1,679.9,359.1L679.9,359.1z"/>
			<path fill-rule="evenodd" clip-rule="evenodd" fill="#4D4D4E" d="M660.2,362.5c1.8,0,3.2,1.4,3.2,3.2c0,1.8-1.4,3.2-3.2,3.2
				c-1.8,0-3.2-1.4-3.2-3.2C656.9,364,658.4,362.5,660.2,362.5L660.2,362.5z"/>
			<path fill-rule="evenodd" clip-rule="evenodd" fill="#4D4D4E" d="M659.5,388.5c1.8,0,3.2,1.4,3.2,3.2c0,1.8-1.4,3.2-3.2,3.2
				c-1.8,0-3.2-1.4-3.2-3.2C656.2,389.9,657.7,388.5,659.5,388.5L659.5,388.5z"/>
			<path fill-rule="evenodd" clip-rule="evenodd" fill="#4D4D4E" d="M649.7,409.4c1.8,0,3.2,1.4,3.2,3.2c0,1.8-1.4,3.2-3.2,3.2
				c-1.8,0-3.2-1.4-3.2-3.2C646.5,410.8,647.9,409.4,649.7,409.4L649.7,409.4z"/>
			<path fill-rule="evenodd" clip-rule="evenodd" fill="#4D4D4E" d="M688.7,401.2c1.8,0,3.2,1.4,3.2,3.2c0,1.8-1.4,3.2-3.2,3.2
				c-1.8,0-3.2-1.4-3.2-3.2C685.5,402.6,686.9,401.2,688.7,401.2L688.7,401.2z"/>
			<path fill-rule="evenodd" clip-rule="evenodd" fill="#4D4D4E" d="M704.5,410.1c1.8,0,3.2,1.4,3.2,3.2c0,1.8-1.4,3.2-3.2,3.2
				c-1.8,0-3.2-1.4-3.2-3.2C701.3,411.5,702.7,410.1,704.5,410.1L704.5,410.1z"/>
			<path fill-rule="evenodd" clip-rule="evenodd" fill="#4D4D4E" d="M709.8,430.1c1.8,0,3.2,1.4,3.2,3.2c0,1.8-1.4,3.2-3.2,3.2
				s-3.2-1.4-3.2-3.2C706.6,431.5,708.1,430.1,709.8,430.1L709.8,430.1z"/>
			<path fill-rule="evenodd" clip-rule="evenodd" fill="#4D4D4E" d="M727.8,432.4c1.8,0,3.2,1.4,3.2,3.2c0,1.8-1.4,3.2-3.2,3.2
				c-1.8,0-3.2-1.4-3.2-3.2C724.6,433.8,726.1,432.4,727.8,432.4L727.8,432.4z"/>
			<path fill-rule="evenodd" clip-rule="evenodd" fill="#4D4D4E" d="M743.2,411.1c1.8,0,3.2,1.4,3.2,3.2c0,1.8-1.4,3.2-3.2,3.2
				c-1.8,0-3.2-1.4-3.2-3.2C740,412.5,741.4,411.1,743.2,411.1L743.2,411.1z"/>
			<path fill-rule="evenodd" clip-rule="evenodd" fill="#4D4D4E" d="M755.2,387.8c1.8,0,3.2,1.4,3.2,3.2c0,1.8-1.4,3.2-3.2,3.2
				c-1.8,0-3.2-1.4-3.2-3.2C752,389.2,753.4,387.8,755.2,387.8L755.2,387.8z"/>
			<path fill-rule="evenodd" clip-rule="evenodd" fill="#4D4D4E" d="M747,363.4c1.8,0,3.2,1.4,3.2,3.2c0,1.8-1.4,3.2-3.2,3.2
				c-1.8,0-3.2-1.4-3.2-3.2C743.7,364.9,745.2,363.4,747,363.4L747,363.4z"/>
			<path fill-rule="evenodd" clip-rule="evenodd" fill="#4D4D4E" d="M733.6,391.9c1.8,0,3.2,1.4,3.2,3.2c0,1.8-1.4,3.2-3.2,3.2
				c-1.8,0-3.2-1.4-3.2-3.2C730.3,393.3,731.8,391.9,733.6,391.9L733.6,391.9z"/>
			<path fill-rule="evenodd" clip-rule="evenodd" fill="#4D4D4E" d="M714.7,371.3c1.8,0,3.2,1.4,3.2,3.2c0,1.8-1.4,3.2-3.2,3.2
				c-1.8,0-3.2-1.4-3.2-3.2C711.4,372.8,712.9,371.3,714.7,371.3L714.7,371.3z"/>
			<path fill-rule="evenodd" clip-rule="evenodd" fill="#4D4D4E" d="M687.2,380.9c1.8,0,3.2,1.4,3.2,3.2c0,1.8-1.4,3.2-3.2,3.2
				c-1.8,0-3.2-1.4-3.2-3.2C684,382.4,685.4,380.9,687.2,380.9L687.2,380.9z"/>
			<path fill-rule="evenodd" clip-rule="evenodd" fill="#4D4D4E" d="M794.6,429.4c1.8,0,3.2,1.4,3.2,3.2c0,1.8-1.4,3.2-3.2,3.2
				c-1.8,0-3.2-1.4-3.2-3.2C791.4,430.8,792.9,429.4,794.6,429.4L794.6,429.4z"/>
			<path fill-rule="evenodd" clip-rule="evenodd" fill="#4D4D4E" d="M791.4,446.7c1.8,0,3.2,1.4,3.2,3.2c0,1.8-1.4,3.2-3.2,3.2
				c-1.8,0-3.2-1.4-3.2-3.2C788.2,448.1,789.6,446.7,791.4,446.7L791.4,446.7z"/>
			<path fill-rule="evenodd" clip-rule="evenodd" fill="#4D4D4E" d="M774.4,462.1c1.8,0,3.2,1.4,3.2,3.2s-1.4,3.2-3.2,3.2
				c-1.8,0-3.2-1.4-3.2-3.2S772.6,462.1,774.4,462.1L774.4,462.1z"/>
			<path fill-rule="evenodd" clip-rule="evenodd" fill="#4D4D4E" d="M754.6,472.4c1.8,0,3.2,1.4,3.2,3.2c0,1.8-1.4,3.2-3.2,3.2
				s-3.2-1.4-3.2-3.2C751.4,473.8,752.9,472.4,754.6,472.4L754.6,472.4z"/>
			<path fill-rule="evenodd" clip-rule="evenodd" fill="#4D4D4E" d="M770.6,479.6c1.8,0,3.2,1.4,3.2,3.2c0,1.8-1.4,3.2-3.2,3.2
				s-3.2-1.4-3.2-3.2C767.4,481,768.8,479.6,770.6,479.6L770.6,479.6z"/>
			<path fill-rule="evenodd" clip-rule="evenodd" fill="#4D4D4E" d="M788.6,462.8c1.8,0,3.2,1.4,3.2,3.2c0,1.8-1.4,3.2-3.2,3.2
				c-1.8,0-3.2-1.4-3.2-3.2C785.4,464.2,786.9,462.8,788.6,462.8L788.6,462.8z"/>
			<path fill-rule="evenodd" clip-rule="evenodd" fill="#4D4D4E" d="M804.8,447.2c1.8,0,3.2,1.4,3.2,3.2c0,1.8-1.4,3.2-3.2,3.2
				c-1.8,0-3.2-1.4-3.2-3.2C801.6,448.6,803,447.2,804.8,447.2L804.8,447.2z"/>
			<path fill-rule="evenodd" clip-rule="evenodd" fill="#4D4D4E" d="M723.2,446.8c1.8,0,3.2,1.4,3.2,3.2c0,1.8-1.4,3.2-3.2,3.2
				c-1.8,0-3.2-1.4-3.2-3.2C720,448.3,721.4,446.8,723.2,446.8L723.2,446.8z"/>
			<path fill-rule="evenodd" clip-rule="evenodd" fill="#4D4D4E" d="M708.6,447.7c1.8,0,3.2,1.4,3.2,3.2c0,1.8-1.4,3.2-3.2,3.2
				c-1.8,0-3.2-1.4-3.2-3.2C705.4,449.1,706.8,447.7,708.6,447.7L708.6,447.7z"/>
			<path fill-rule="evenodd" clip-rule="evenodd" fill="#4D4D4E" d="M715.5,464.2c1.8,0,3.2,1.4,3.2,3.2c0,1.8-1.4,3.2-3.2,3.2
				c-1.8,0-3.2-1.4-3.2-3.2C712.3,465.6,713.7,464.2,715.5,464.2L715.5,464.2z"/>
		</g>
	</g>
	<g>
		<g>
			<g>
				<g>
					<path fill="#FDB515" d="M439.3,132.5c-6.4,0-11.5,5.1-11.5,11.3c-0.1,6.3,11.5,24.7,11.5,24.7s11.5-18.4,11.5-24.7
						C450.7,137.6,445.6,132.5,439.3,132.5z M439.3,152.7c-5.1,0-9.3-4.1-9.3-9.2c0-5.1,4.2-9.2,9.3-9.2c5.1,0,9.3,4.1,9.3,9.2
						C448.6,148.6,444.4,152.7,439.3,152.7z"/>
					<polygon fill="#FDB515" points="438.8,137.2 438.8,141.6 446,139.4 				"/>
					<path fill="#FDB515" d="M438.3,149.5v-12.3H437v12.3c-0.5,0.1-0.8,0.3-0.8,0.6c0,0.3,0.6,0.6,1.4,0.6c0.8,0,1.4-0.3,1.4-0.6
						C439,149.9,438.7,149.6,438.3,149.5z"/>
				</g>
			</g>
		</g>
	</g>
</svg>