<svg version="1.1" xmlns="http://www.w3.org/2000/svg" xmlns:xlink="http://www.w3.org/1999/xlink" x="0px" y="0px" viewBox="0 0 32 50" enable-background="new 0 0 32 50" xml:space="preserve">
	<g>
		<path d="M14.5,30.1c0,0.3,0,0.7,0,1.2c0.4,0,0.9,0,1.3,0c0.5,0,1.1,0,1.6-0.1c0-0.4,0-0.8,0-1.1c3-0.7,3-1.9,3.2-3c0.5-4.8-0.8-20-0.8-20h-0.5l-0.3,16c0,0.3-0.3,0.5-0.6,0.5c-0.4,0-0.6-0.2-0.6-0.5L17.4,7h-0.5l-0.3,16c0,0.3-0.3,0.5-0.6,0.5c-0.4,0-0.6-0.2-0.6-0.5L15.1,7h-0.5l-0.3,16c0,0.3-0.3,0.5-0.6,0.5c-0.4,0-0.6-0.2-0.6-0.5L12.8,7h-0.5c0,0-1.4,15.2-0.8,20C11.5,28.2,11.5,29.3,14.5,30.1z"/>
		<g>
			<g>
				<g>
					<path fill="#040305" d="M32,16.1c0-8.8-7.2-16-16-16c-8.8,0-16,7.2-16,16c0,7.6,11.9,28,15.2,33.4c0.2,0.3,0.5,0.5,0.8,0.5c0.3,0,0.6-0.2,0.8-0.5C20.1,44,32,23.7,32,16.1z M16,28.4c-6.8,0-12.4-5.5-12.4-12.4C3.6,9.2,9.2,3.7,16,3.7c6.8,0,12.4,5.5,12.4,12.4C28.4,22.9,22.8,28.4,16,28.4z"/>
				</g>
			</g>
		</g>
	</g>
</svg>