<svg version="1.1" xmlns="http://www.w3.org/2000/svg" xmlns:xlink="http://www.w3.org/1999/xlink" x="0px" y="0px" viewBox="0 0 33 33" enable-background="new 0 0 33 33" xml:space="preserve">
	<g>
		<path fill="#ffffff" d="M21.6,32.6c-4.7,0-10-2.3-14.3-6.5C0.5,19.3-1.4,9.8,3,4l1.6,1.2c-3.7,4.9-1.9,13.4,4.1,19.4c6,6,14.4,7.7,19.2,3.9l1.3,1.6C27,31.8,24.4,32.6,21.6,32.6z"/>
		<path fill="#ffffff" d="M30.9,27.7l-7.6-7.6L22,21.5c-1.4,1.4-3.3,2.2-5.4,2.2c-2,0-3.9-0.8-5.4-2.2c-3-3-3-7.8,0-10.7l1.4-1.4L5.1,1.8l1.4-1.4l9,9l-2.8,2.8c-2.2,2.2-2.2,5.7,0,7.9c1.1,1.1,2.5,1.6,3.9,1.6c1.5,0,2.9-0.6,3.9-1.6l2.8-2.8l9,9L30.9,27.7z"/>
	</g>
</svg>