<svg version="1.1" xmlns="http://www.w3.org/2000/svg" xmlns:xlink="http://www.w3.org/1999/xlink" x="0px" y="0px" viewBox="0 0 9 13" enable-background="new 0 0 9 13" xml:space="preserve">
	<path fill="#808080" d="M4.5,5.1c1.3,0,2.3-1,2.3-2.3c0-1.3-1-2.3-2.3-2.3c-1.3,0-2.3,1-2.3,2.3C2.2,4,3.2,5.1,4.5,5.1z M4.5,1c1,0,1.8,0.8,1.8,1.8c0,1-0.8,1.8-1.8,1.8c-1,0-1.8-0.8-1.8-1.8C2.7,1.8,3.5,1,4.5,1z M5.7,5.7H3.3c-1.6,0-3,1.3-3,3v3.9h8.3V8.7C8.6,7,7.3,5.7,5.7,5.7z M8.2,12H7V8.5H6.5V12H2.4V8.5H2V12H0.8V8.7c0-1.4,1.1-2.5,2.5-2.5h2.3c1.4,0,2.5,1.1,2.5,2.5V12z"/>
</svg>