<svg version="1.1" xmlns="http://www.w3.org/2000/svg" xmlns:xlink="http://www.w3.org/1999/xlink" x="0px" y="0px"
	 viewBox="0 0 32 32" enable-background="new 0 0 32 32" xml:space="preserve">
	<g>
		<path fill="#444444" d="M6.4,9.3c-1.5,1.9-2.2,3.8-2.2,5.7c0,0.8,0.1,1.5,0.3,2.1c1.1-0.9,2.3-1.3,3.7-1.3c1.8,0,3.3,0.6,4.5,1.7c1.2,1.2,1.9,2.7,1.9,4.7c0,1.2-0.3,2.3-0.9,3.3s-1.4,1.7-2.3,2.3c-1,0.6-2,0.8-3.2,0.8c-2.6,0-4.5-1.1-5.9-3.2c-1.1-1.8-1.7-4-1.7-6.6c0-3.4,0.9-6.4,2.6-9C4.8,7.2,7.3,5,10.8,3.4l0.9,1.8C9.6,6.1,7.9,7.5,6.4,9.3z M23.3,9.3c-1.5,1.9-2.2,3.8-2.2,5.7c0,0.8,0.1,1.5,0.3,2.1c1.1-0.9,2.4-1.3,3.7-1.3c1.8,0,3.3,0.6,4.6,1.7c1.2,1.2,1.8,2.7,1.8,4.7c0,1.8-0.6,3.3-1.9,4.6c-1.2,1.2-2.8,1.8-4.5,1.8c-2.6,0-4.5-1.1-5.9-3.2c-1.1-1.8-1.7-4-1.7-6.6c0-3.4,0.9-6.4,2.6-9c1.7-2.7,4.3-4.8,7.7-6.4l0.9,1.8C26.6,6.1,24.8,7.5,23.3,9.3z"/>
	</g>
</svg>