<svg version="1.1" xmlns="http://www.w3.org/2000/svg" xmlns:xlink="http://www.w3.org/1999/xlink" x="0px" y="0px" viewBox="0 0 32 32" enable-background="new 0 0 32 32" xml:space="preserve">
	<g>
		<path fill="#777777" d="M5,21c-2.8,0-5-2.2-5-5c0-2.8,2.2-5,5-5c2.8,0,5,2.2,5,5C10,18.8,7.8,21,5,21z M5,13c-1.7,0-3,1.3-3,3c0,1.7,1.3,3,3,3c1.7,0,3-1.3,3-3C8,14.3,6.7,13,5,13z"/>
		<path fill="#777777" d="M27,11c-2.8,0-5-2.2-5-5c0-2.8,2.2-5,5-5c2.8,0,5,2.2,5,5C32,8.8,29.8,11,27,11z M27,3c-1.7,0-3,1.3-3,3c0,1.7,1.3,3,3,3c1.7,0,3-1.3,3-3C30,4.3,28.7,3,27,3z"/>
		<path fill="#777777" d="M27,31c-2.8,0-5-2.2-5-5c0-2.8,2.2-5,5-5c2.8,0,5,2.2,5,5C32,28.8,29.8,31,27,31z M27,23c-1.7,0-3,1.3-3,3c0,1.7,1.3,3,3,3c1.7,0,3-1.3,3-3C30,24.3,28.7,23,27,23z"/>
		<path fill="#777777" d="M19.6,8.1l0.9,1.8l-8,4l-0.9-1.8L19.6,8.1z"/>
		<path fill="#777777" d="M12.4,18.1l8,4l-0.9,1.8l-8-4L12.4,18.1L12.4,18.1z"/>
	</g>
</svg>