<svg version="1.1" xmlns="http://www.w3.org/2000/svg" xmlns:xlink="http://www.w3.org/1999/xlink" x="0px" y="0px" viewBox="0 0 108 64" enable-background="new 0 0 108 64" xml:space="preserve">
	<g>
		<path fill-rule="evenodd" clip-rule="evenodd" fill="#060606" d="M65.7,22.8c-1.2,3.1-3.3,5.6-5.3,8.2c-0.6,0.7-1.2,1.5-1.8,2.2c-0.1,0.1-0.1,0.3,0,0.4c0.1,0.2,0.4,0.3,0.6,0.2c0.6-0.3,1.2-0.7,1.9-1.1c0.8-0.5,1.6-1.1,2.4-1.6c0.5-0.3,1.1-0.6,1.6-0.5c1.2,0.2,2.2-0.3,3.2-0.7c0.8-0.3,1.3,0,1.7,0.8c0.1,0.2,0.2,0.5,0.2,0.7c0.3,2.2,0.9,1.8,2.3,1.1c0.5,0.1,0.7,0.4,0.4,0.8c-0.5,0.7-1.2,1-2,1.3c-0.9,0.3-1.6-0.1-1.8-1c-0.1-0.5-0.1-1.1-0.2-1.7c-0.1-0.6-0.5-0.8-1-0.4c-0.9,0.6-1.8,1-2.9,0.4c-0.5-0.3-1.1,0.1-1.6,0.4c-1,0.7-1.9,1.4-2.9,2.1c-0.8,0.6-1.7,1-2.7,0.9c-0.6,0-1.1-0.2-1.6,0.2c-0.6,0.6-1.2,1.1-1.4,1.9c-0.2,0.5-0.3,1.1-0.3,1.6c-0.7,5.2-1.9,10.2-3.1,15.3c-0.2,0.9-0.6,1.8-1,2.7c-0.1,0.2-0.5,0.5-0.8,0.3c-0.2-0.1-0.4-0.3-0.5-0.5c-0.3-0.9-0.3-1.9-0.3-2.8c0-3.8,0.6-7.5,1.7-11.1c0.1-0.5,0.3-0.9,0.4-1.4c0.1-0.2,0.1-0.5-0.1-0.6c-0.2-0.1-0.5,0-0.7,0c-0.4,0.1-0.8,0.3-1.1,0.4c-1.8,0.8-4.2,0-5.3-2.1c-0.5-0.9-0.7-1.9-1-3c-0.7,0.2-0.8,0.8-1.2,1.2c-0.4,0.3-0.6,0.7-1,1.1c-0.4,0.4-0.7,0.8-1.1,1.3c-0.6,0.7-1.2,1.3-2,1.7c-0.8,0.4-1.6,0.1-2-0.7c-0.2-0.6-0.3-1.3-0.5-2c-0.8,0.2-1,0.8-1.5,1.2c-0.4,0.3-0.8,0.8-1.3,1c-1,0.6-1.7,0.4-2.5-0.6c-0.2-0.2-0.2-0.6-0.8-0.6c-0.4,0.7-0.9,1.4-1.3,2.1c-0.3,0.6-0.7,1.1-1.3,1.4c-0.2,0.1-0.5,0.1-0.7,0c-0.2-0.1-0.4-0.4-0.4-0.6c0-1.3,0.3-2.5,0.7-3.8c0.7-2.1,1.1-4.3,1.4-6.6c0.1-0.6,0.1-1.3,0.1-1.9c0-0.8-0.5-1.2-1.2-1.2c-0.6,0-1,0.3-1.1,1c-0.2,0.9-0.4,1.9-0.6,2.8c0.1,0.8-0.1,1.4-0.8,1.9c-1.3-0.1-1.2-1.1-1.2-1.9c0-1-0.1-1.9-0.7-2.8c-0.2-0.3-0.3-0.7-0.3-1.1c0.2-1.5,1.6-1.8,2.4-2.8c0.6-0.3,1.2-0.5,1.8,0c0,0.7,0,1.3,0.9,1.4c1.5,0.2,2,1.3,2,2.6c0,1-0.1,2.1-0.3,3.1c-0.2,1.4-0.6,2.8-0.9,4.2c-0.1,0.5-0.3,1.1,0.1,1.7c0.6-0.8,1.1-1.6,1.6-2.4c0.2-0.2,0.5-0.4,0.7-0.6c0.2-0.2,0.7,0,0.8,0.3c0.1,0.8,0.1,1.6,0.2,2.4c0.1,0.5,0.7,0.8,1.1,0.5c0.7-0.6,1.3-1.2,1.9-1.8c0.6-0.6,1.1-1.2,1.7-1.7c0.1-0.1,0.4-0.2,0.6-0.2c0.3,0,0.4,0.3,0.4,0.5c0,0.5,0,1,0,1.4c0,0.3,0,0.6,0,1c0,0.4,0,0.9,0.4,1c0.4,0.2,0.8-0.1,1.1-0.4c1.7-1.8,3.4-3.6,4.7-5.7c0.4-0.6,0.5-1.2,0.7-1.8c0.3-1.1,0.6-2.2,0.9-3.2c0.1-0.5,0.4-0.9,0.8-1.1c0.4-0.2,0.7-0.4,1.1-0.1c0.4,0.2,0.5,0.7,0.4,1c-0.2,0.8-0.5,1.5-0.8,2.2c-0.4,0.8-0.8,1.6-1.2,2.4c-0.5,1.2-0.7,2.4-0.5,3.7c0.5,2.4,2.3,3.7,4.8,3c1.2-0.3,2.3-0.9,3-1.9c1.1-1.6,2.2-3.3,2.3-5.4c0.2-2.9,0.6-5.7,1.3-8.5c0-0.5,0.1-1,0.6-1.1c1.1,0.1,1.4,0.9,1.3,1.9c-0.1,0.7-0.1,1.4-0.2,2.1c-0.1,0.9-0.8,2.1,0.5,2.5c1,0.3,1.6-0.9,2.2-1.6c1.8-2.3,3.2-4.9,4.8-7.4c0.5-0.8,0.9-2,2.3-1.2C66.8,20.7,66.3,21.8,65.7,22.8z"/>
		<path fill-rule="evenodd" clip-rule="evenodd" fill="#131313" d="M25.5,26.8c-0.3,0.4-0.6,0.8-1,1.3c-1.4-0.4-1-1.4-0.9-2.3c0.8-4.4,1.9-8.7,2.6-13.1c0.2-1.4,1-3.2-0.5-4.2c-1.4-1-3,0-4.3,0.6c-8.8,4.5-15.1,11.4-18.2,21c-0.6,1.8-0.7,3.6-0.4,5.4c0.3,1.9,1.1,3.4,3.1,3.9c1.8,0.5,3-0.7,4-2c0.3-0.4,0.6-0.9,0.9-1.4c0.6-1.4,1.2-2.8,2.7-3.4c1,0,1.9-0.3,2.7-1c1-0.9,2.1-1.6,3.4-2.1c0.8-0.3,1.6-0.7,2.3,0.2c0.1,0.3,0.3,0.5,0.4,0.8c0.3,1.4-1,1.7-1.8,2.2c-5,2.9-8.6,7.1-11,12.3c-1.7,3.5-2,7.4-1.1,11.2c0.2,0.9,0.6,1.7,1.2,2.3c1.3,1.5,3,1.5,4.4,0.1c0.9-0.9,1.2-2.2,1.9-3.3c0.6-0.9,0.9-2.6,2.8-1.8c0,1.1-0.5,2.1-1,3c-0.4,1.5-1.1,2.8-2,4c-2.1,2.6-4.8,2.8-7.2,0.4c-1.5-1.5-2.2-3.5-2.5-5.6c-0.6-4,0.1-7.8,1.7-11.5c0.2-0.6,0.7-1.1,0.6-1.7c-0.4-0.4-0.9-0.2-1.4-0.2c-3.3-0.2-5.3-1.8-6-5.1c-0.5-2.6-0.2-5.1,0.5-7.6c0.8-2.9,2.2-5.6,3.8-8.2C8.8,14.7,14,10.3,20.3,7c1-0.5,2-0.9,3.1-1.3c0.4-0.2,0.8-0.3,1.1-0.3c2.8-0.5,4.9,0.1,4.6,3.9c-0.2,1.7-0.5,3.5-0.8,5.2c-0.8,3.8-1.6,7.5-2.4,11.2C25.8,26,25.6,26.4,25.5,26.8z"/>
		<path fill-rule="evenodd" clip-rule="evenodd" fill="#151515" d="M56.2,23.4c-0.3,0.3-0.6,0.6-0.9,0.9c-0.3-1,0.1-1.9,0.3-2.8c0.7-3.9,1.4-7.9,2.9-11.6c0.8-1.9,1.6-3.8,2.9-5.5c0.7-1,1.5-1.8,2.5-2.6c0.6-0.5,1.3-0.9,2.1-1.1c2.4-0.6,3.9,0.3,4.4,2.7c0.4,2,0.3,4,0,6c-0.8,4.5-2.3,8.8-4.2,12.9c-0.1,0.2-0.3,0.4-0.4,0.6c0.2-1.2,0.9-2.2,0.7-3.5c-1.2-1-0.5-2.1-0.2-3.1c0.9-2.6,1.6-5.2,1.9-7.9c0.1-0.9,0.2-1.8,0.1-2.6c-0.1-0.8-0.2-1.6-1.1-2c-0.9-0.4-1.7,0-2.4,0.6c-2.2,2.1-3.6,4.7-4.6,7.5c-1,2.9-1.4,6.1-2.1,9.1C57.8,22,57.8,23.3,56.2,23.4z"/>
		<path fill-rule="evenodd" clip-rule="evenodd" fill="#131313" d="M84.7,26.4c1.5-0.4,3-0.1,4.4,0.5c1.9,0.9,3.7,0.7,5.5-0.1c1.4-0.7,2.9-1.4,4.3-2.1c0.5,0.1,0.6,0.3,0.4,0.8c-1.7,1.4-3.7,2.3-5.8,3.2c-0.7,0.3-1.5,0.4-2.3,0.5c-1,0.2-1.9,0-2.7-0.7c-0.9-0.7-2-1-3-1.3C85,27.2,84.5,27.2,84.7,26.4z"/>
		<path fill-rule="evenodd" clip-rule="evenodd" fill="#252525" d="M17.7,56.3c0.2-1,0.8-2,0.6-3.1c-0.8-0.7-0.6-1.6-0.3-2.4c1.7-4.5,2.5-9.2,3.7-13.9c0.2-0.9,0.5-1.7,1.6-1.8c0.5-0.5,0.7-1.1,1.1-1.7c0.2,1.5-0.4,3-0.7,4.4c-1,5.8-2.6,11.5-4.9,16.9C18.4,55.3,18.2,55.9,17.7,56.3z"/>
		<path fill-rule="evenodd" clip-rule="evenodd" fill="#2C2C2C" d="M84.7,26.4c0.3,0.3,0.6,0.6,0.8,0.9c-3.8,0.3-7,1.9-10,4.1c-1,0.7-1.9,1.4-2.9,2.1c-0.1-0.3-0.2-0.5-0.4-0.8c2.3-2,4.9-3.7,7.7-5C81.5,26.9,83,26.3,84.7,26.4z"/>
		<path fill-rule="evenodd" clip-rule="evenodd" fill="#383838" d="M99.4,25.5c-0.1-0.3-0.2-0.5-0.4-0.8c2.4-1.7,5.1-2.9,7.7-4.4c0.1-0.1,0.3-0.1,0.4-0.1c0.1,0,0.3,0.1,0.4,0.2c0,0.1,0,0.3-0.1,0.4c-0.1,0.1-0.2,0.2-0.4,0.3C104.5,22.5,102,24.2,99.4,25.5z"/>
		<path fill-rule="evenodd" clip-rule="evenodd" fill="#FFFFFF" d="M22,29.5c-2,0.5-3.5,1.7-5.2,2.8c-0.6,0.4-1.1,0.9-1.7,1.3c-0.3,0.2-0.6,0.7-1,0.2c-0.2-0.2,0-0.6,0-0.9c-0.4-1.2,0.4-2.3,0.3-3.1c-0.1,2.3-1.6,4.5-2.5,6.9c-0.6,0.8-1.2,1.5-1.8,2.3c-1.1,1.5-2.7,2-4.5,1.6c-1.9-0.4-3.1-1.5-3.7-3.4c-0.8-2.6-0.7-5.2,0.2-7.8c2.6-8.1,7.5-14.5,14.6-19.2c1.8-1.2,3.6-2.3,5.7-3.1c1.1-0.4,2.3-0.8,3.5-0.8c1.2,0,1.8,0.5,1.9,1.7c0.1,0.8,0,1.6-0.1,2.4c-0.5,4-1.4,8-2.2,12c-0.4,1.9-1,3.7-1,5.6C23.8,28.8,22.7,28.8,22,29.5z"/>
		<path fill-rule="evenodd" clip-rule="evenodd" fill="#FFFFFF" d="M23.2,35.1c-0.3,1.4-0.7,2.8-0.9,4.2c-0.8,4.2-2,8.3-3.5,12.4c-0.2,0.5-0.3,1.1-0.5,1.6c-0.6,1.3-1.2,2.6-1.9,3.9c-0.4,0.8-0.9,1.7-1.5,2.5c-1.6,2.2-4,2-5.6,0.5c-1.3-1.2-2-2.6-2.3-4.4c-0.8-5.1,0.2-9.8,2.9-14.2c3-4.8,6.9-8.5,12.1-10.9c0.1-0.1,0.2-0.2,0.4-0.3c0.2,0,0.3,0,0.5-0.1c0.8-0.1,1,0.1,1,0.6c0,0.3-0.1,0.6-0.1,0.9C23.5,32.9,23.3,34,23.2,35.1z"/>
		<path fill-rule="evenodd" clip-rule="evenodd" fill="#FFFFFF" d="M56.2,23.4c0.3-0.7,0.5-1.5,0.6-2.3c0.4-2.7,1-5.3,1.7-8c0.6-2.3,1.6-4.5,2.8-6.6c0.8-1.4,1.8-2.6,3-3.7c0.7-0.6,1.4-0.9,2.3-1.1c1.4-0.4,2.2,0.4,2.5,1.6c0.2,0.7,0.2,1.4,0.3,2.1c0.1,3.1-0.5,6-1.4,8.9c-0.5,1.7-1.1,3.3-1.7,5c-1.6,3.3-3.3,6.5-5.6,9.4c-0.7,0.9-1.5,1.7-2.2,2.5c-0.4,0.5-0.8,0.7-1.4,0.2c-0.6-0.5-1.1,0.4-1.8,0.5C55.3,29,56.2,26.2,56.2,23.4z"/>
		<path fill-rule="evenodd" clip-rule="evenodd" fill="#E1E1E1" d="M50.1,53.1c-0.1-0.1-0.3-0.2-0.3-0.4c-0.1-1.6,0.1-3.2,0.3-4.8c0.3-2.6,1-5,1.9-7.4c0.2-0.5,0.3-1.1,0.8-1.4c0.5,0.2,0.4,0.7,0.4,1c-0.7,3.9-1.4,7.9-2.5,11.7C50.6,52.3,50.6,52.8,50.1,53.1z"/>
		<path fill-rule="evenodd" clip-rule="evenodd" fill="#787878" d="M56,34.3c-0.2,0.2-0.3,0.3-0.5,0.4c-0.2,0.1-0.4,0-0.3-0.2c0.1-0.2,0.2-0.4,0.4-0.6c0.1-0.1,0.3-0.1,0.4-0.1C55.9,34,56,34.1,56,34.3z"/>
		<path fill-rule="evenodd" clip-rule="evenodd" fill="#383838" d="M11.9,36.7c0.9-2.5,1.9-4.9,2.2-7.6c0.1-1,0.4-2,0.6-3.1c0-0.2,0.2-0.5,0.4-0.3c0.1,0,0.2,0.3,0.2,0.4c0,0.5,0,1-0.1,1.4c-0.3,1.8-0.5,3.6-1.1,5.4c-0.6,0.6-0.8,1.3-1.1,2C12.7,35.6,12.5,36.2,11.9,36.7z"/>
	</g>
</svg>
