<svg version="1.1" xmlns="http://www.w3.org/2000/svg" xmlns:xlink="http://www.w3.org/1999/xlink" x="0px" y="0px" viewBox="0 0 114 48" enable-background="new 0 0 114 48" xml:space="preserve">
	<path fill="#fff" d="M73.9,22.2c2.9,4.5,4.8,3.8,6.7,3.4c8.2-2,32.1-13.1,32.1-13.1l-0.3-0.9l-26.3,8.9c-0.4,0.1-0.9-0.2-1.1-0.8
		c-0.2-0.6,0-1.2,0.4-1.3l26-9.8l-0.3-0.7l-26.3,8.9c-0.4,0.1-0.9-0.2-1.1-0.8c-0.2-0.6,0-1.2,0.4-1.3l26-9.8l-0.3-0.7L83.5,13
		c-0.4,0.1-0.9-0.2-1.1-0.8c-0.2-0.6,0-1.2,0.4-1.3l26-9.8l-0.3-0.9c0,0-25.6,6.6-33.1,10.3c-1.7,0.9-3.6,1.6-3,6.9
		c-8.5,3-36.6,12.9-54.4,17.2c-18.7,4.5-16.5,11-16.5,11s2.4,6.3,19.7-2.1C37.5,35.5,65.4,25.3,73.9,22.2z"/>
	<path fill="#fff" d="M30.2,2.5c-11-3.9-25.9-3-28.3,3.7C-0.6,13,10.4,23.1,21.4,27c9.7,3.4,16.5,1.1,19.7-4.1C51.6,26.7,77,36.1,92.5,43.5
		c17.5,8.4,19.9,2,19.9,2s2.2-6.5-16.7-11c-16.7-4-42.3-12.8-52.8-16.5C43.7,12,39.8,5.9,30.2,2.5z"/>
</svg>