<svg version="1.1" xmlns="http://www.w3.org/2000/svg" xmlns:xlink="http://www.w3.org/1999/xlink" x="0px" y="0px" viewBox="0 0 54 38" enable-background="new 0 0 54 38" xml:space="preserve">
	<g>
		<g>
			<path fill="#444444" d="M27,30.5c-6.1,0-11.1-5-11.1-11.1c0-6.1,5-11.1,11.1-11.1c6.1,0,11.1,5,11.1,11.1
				C38.1,25.5,33.2,30.5,27,30.5z M27,9.3C21.5,9.3,17,13.8,17,19.4c0,5.6,4.5,10.1,10.1,10.1c5.6,0,10.1-4.5,10.1-10.1
				C37.1,13.8,32.6,9.3,27,9.3z"/>
		</g>
		<g>
			<path fill="#444444" d="M27,33.9c-8,0-14.5-6.5-14.5-14.5c0-8,6.5-14.5,14.5-14.5c8,0,14.5,6.5,14.5,14.5
				C41.5,27.4,35,33.9,27,33.9z M27,5.9c-7.4,0-13.5,6-13.5,13.5c0,7.4,6,13.5,13.5,13.5c7.4,0,13.5-6,13.5-13.5
				C40.5,12,34.5,5.9,27,5.9z"/>
		</g>
		<g>
			<path fill="#444444" d="M0.7,13.6c-0.3,0-0.5-0.2-0.5-0.5V0.9c0-0.3,0.2-0.5,0.5-0.5s0.5,0.2,0.5,0.5v12.1
				C1.2,13.4,0.9,13.6,0.7,13.6z"/>
		</g>
		<g>
			<path fill="#444444" d="M4.8,36.9c-1.6,0-2.9-1-2.9-2.2V23.8c0-1.2,1.3-2.2,2.9-2.2c1.6,0,2.9,1,2.9,2.2v10.8
				C7.7,35.9,6.4,36.9,4.8,36.9z M4.8,22.6c-1,0-1.9,0.6-1.9,1.2v10.8c0,0.7,0.9,1.2,1.9,1.2c1,0,1.9-0.6,1.9-1.2V23.8
				C6.7,23.2,5.8,22.6,4.8,22.6z"/>
		</g>
		<g>
			<path fill="#444444" d="M4.8,22.6c-0.3,0-0.5-0.2-0.5-0.5v-7c0-0.3,0.2-0.5,0.5-0.5c0.3,0,0.5,0.2,0.5,0.5v7
				C5.3,22.4,5.1,22.6,4.8,22.6z"/>
		</g>
		<g>
			<path fill="#444444" d="M4.8,15.7c-1.7,0-3.3-0.8-4.5-2.3c-0.2-0.2-0.1-0.5,0.1-0.7c0.2-0.2,0.5-0.1,0.7,0.1
				c1,1.2,2.4,1.9,3.8,1.9s2.8-0.7,3.8-1.9c0.2-0.2,0.5-0.2,0.7-0.1c0.2,0.2,0.2,0.5,0.1,0.7C8.2,14.9,6.5,15.7,4.8,15.7z"/>
		</g>
		<g>
			<path fill="#444444" d="M9,13.6c-0.3,0-0.5-0.2-0.5-0.5V0.9c0-0.3,0.2-0.5,0.5-0.5c0.3,0,0.5,0.2,0.5,0.5v12.1
				C9.5,13.4,9.3,13.6,9,13.6z"/>
		</g>
		<g>
			<path fill="#444444" d="M3.4,10.7c-0.3,0-0.5-0.2-0.5-0.5V0.9c0-0.3,0.2-0.5,0.5-0.5s0.5,0.2,0.5,0.5v9.2
				C3.9,10.5,3.7,10.7,3.4,10.7z"/>
		</g>
		<g>
			<path fill="#444444" d="M6.2,10.7c-0.3,0-0.5-0.2-0.5-0.5V0.9c0-0.3,0.2-0.5,0.5-0.5s0.5,0.2,0.5,0.5v9.2
				C6.7,10.5,6.4,10.7,6.2,10.7z"/>
		</g>
		<g>
			<path fill="#444444" d="M50.9,37.6c-1.6,0-3-1-3-2.3V23.9c0-1.3,1.3-2.3,3-2.3c1.7,0,3,1,3,2.3v11.4
				C53.8,36.6,52.5,37.6,50.9,37.6z M50.9,22.6c-1.1,0-2,0.6-2,1.3v11.4c0,0.7,0.9,1.3,2,1.3c1.1,0,2-0.6,2-1.3V23.9
				C52.8,23.2,51.9,22.6,50.9,22.6z"/>
		</g>
		<g>
			<path fill="#444444" d="M53.3,21.7H46c-0.3,0-0.5-0.2-0.5-0.5c0-0.3,0.2-0.5,0.5-0.5h6.8V1.1c0-0.3,0.2-0.5,0.5-0.5
				c0.3,0,0.5,0.2,0.5,0.5v20.1C53.8,21.5,53.6,21.7,53.3,21.7z"/>
		</g>
		<g>
			<path fill="#444444" d="M46,21.6c-0.2,0-0.4-0.1-0.5-0.4c-0.1-0.2-0.1-0.5-0.2-0.7c-0.3-1.4-0.5-2.9-0.5-4.3
				c0-6.2,3-12.1,8.1-15.6c0.2-0.2,0.5-0.1,0.7,0.1c0.2,0.2,0.1,0.5-0.1,0.7c-4.8,3.4-7.7,8.9-7.7,14.8c0,1.4,0.2,2.8,0.5,4.1
				c0.1,0.2,0.1,0.5,0.2,0.7c0.1,0.3-0.1,0.5-0.4,0.6C46.1,21.6,46,21.6,46,21.6z"/>
		</g>
	</g>
</svg>