<?xml version="1.0" encoding="utf-8"?>
<!-- Generator: Adobe Illustrator 18.0.0, SVG Export Plug-In . SVG Version: 6.00 Build 0)  -->
<!DOCTYPE svg PUBLIC "-//W3C//DTD SVG 1.1//EN" "http://www.w3.org/Graphics/SVG/1.1/DTD/svg11.dtd">
<svg version="1.1" id="Layer_1" xmlns="http://www.w3.org/2000/svg" xmlns:xlink="http://www.w3.org/1999/xlink" x="0px" y="0px"
	 viewBox="0 0 145 90" enable-background="new 0 0 145 90" xml:space="preserve">
<g>
	<path fill="#373737" d="M22.3,47.5c0.2,0.6,0.2,1.1,0.1,1.6c-0.1,0.5-0.4,0.9-0.7,1.2l2.6,4.4c0.1,0.1,0.1,0.2,0.1,0.3
		c0,0.1-0.1,0.1-0.2,0.1l-1.8,0.5c-0.1,0-0.1,0-0.2,0c-0.1,0-0.1-0.1-0.1-0.1l-2.6-4.2L18,51.6l1.4,4.5c0,0.1,0,0.2,0,0.2
		c0,0.1-0.1,0.1-0.2,0.1l-1.8,0.6c-0.1,0-0.1,0-0.2,0c-0.1,0-0.1-0.1-0.1-0.2l-4.6-13.8c0-0.1,0-0.2,0-0.2c0.1-0.1,0.1-0.1,0.2-0.1
		c1.6-0.5,3.2-1,4.8-1.5c0.9-0.3,1.6-0.2,2.2,0.1c0.6,0.3,1,0.9,1.3,1.8L22.3,47.5L22.3,47.5z M19.1,48.7L19.1,48.7
		c0.2-0.1,0.4-0.2,0.5-0.3c0.1-0.2,0.1-0.4,0-0.6l-1-3.4c-0.1-0.2-0.2-0.4-0.4-0.5c-0.2-0.1-0.4-0.1-0.6,0l-1.8,0.6l1.5,4.8
		L19.1,48.7L19.1,48.7z M33,39.6L33,39.6c0,0.1,0,0.2,0,0.3c0,0.1-0.1,0.1-0.2,0.1c-1.6,0.3-3.2,0.7-4.8,1.1l0.9,3.7
		c1.2-0.3,2.4-0.6,3.6-0.8c0.1,0,0.2,0,0.2,0c0.1,0,0.1,0.1,0.1,0.2l0.4,1.8c0,0.1,0,0.2,0,0.3c0,0.1-0.1,0.1-0.2,0.1
		c-1.2,0.3-2.4,0.5-3.5,0.8l0.9,3.7c1.5-0.3,3-0.7,4.5-1c0.1,0,0.2,0,0.2,0c0.1,0,0.1,0.1,0.1,0.2l0.4,1.8c0,0.1,0,0.2,0,0.2
		c0,0-0.1,0.1-0.2,0.1c-2.2,0.5-4.4,1-6.5,1.5c-0.1,0-0.2,0-0.2,0c-0.1,0-0.1-0.1-0.1-0.2l-3.7-14.1c0-0.1,0-0.2,0-0.2
		c0-0.1,0.1-0.1,0.2-0.1c2.4-0.6,4.7-1.2,7.1-1.7c0.1,0,0.2,0,0.3,0c0.1,0,0.1,0.1,0.1,0.2L33,39.6L33,39.6z M44.2,35.3L44.2,35.3
		c0.1,0,0.2,0,0.2,0.1c0.1,0,0.1,0.1,0.1,0.2l0.3,1.8c0,0.1,0,0.2,0,0.2c0,0.1-0.1,0.1-0.2,0.1l-2.3,0.3l2,12.2c0,0.1,0,0.2,0,0.2
		c0,0-0.1,0.1-0.2,0.1l-1.9,0.3c-0.1,0-0.2,0-0.2,0c-0.1,0-0.1-0.1-0.1-0.2l-2.2-12.1L37.5,39c-0.1,0-0.2,0-0.2,0
		c-0.1,0-0.1-0.1-0.1-0.2l-0.4-1.8c0-0.1,0-0.2,0-0.2c0-0.1,0.1-0.1,0.2-0.1C39.4,36.1,41.8,35.7,44.2,35.3L44.2,35.3z M57.6,41.2
		L57.6,41.2c0.1,0.6,0,1.1-0.2,1.6c-0.2,0.5-0.5,0.8-0.9,1l1.7,4.8c0.1,0.1,0,0.2,0,0.3c0,0.1-0.1,0.1-0.2,0.1L56,49.1
		c-0.1,0-0.2,0-0.2,0c-0.1,0-0.1-0.1-0.1-0.2l-1.7-4.6l-1.3,0.1l0.5,4.7c0,0.1,0,0.2-0.1,0.2c0,0-0.1,0.1-0.2,0.1L51,49.6
		c-0.1,0-0.1,0-0.2,0c0,0-0.1-0.1-0.1-0.2L48.9,35c0-0.1,0-0.2,0-0.2c0.1-0.1,0.1-0.1,0.2-0.1c1.7-0.2,3.3-0.4,5-0.5
		c0.9-0.1,1.6,0.1,2.2,0.5c0.5,0.4,0.8,1.1,0.9,2L57.6,41.2L57.6,41.2z M54.2,41.7L54.2,41.7c0.2,0,0.4-0.1,0.5-0.2
		c0.1-0.1,0.2-0.3,0.1-0.6l-0.3-3.5c0-0.2-0.1-0.4-0.3-0.5c-0.2-0.1-0.4-0.2-0.6-0.1l-1.9,0.2l0.6,5L54.2,41.7L54.2,41.7z
		 M61.4,36.3L61.4,36.3c-0.1-0.9,0.1-1.6,0.6-2.1c0.5-0.5,1.2-0.8,2.1-0.8l2.2-0.1c0.9,0,1.6,0.2,2.1,0.6c0.5,0.5,0.7,1.1,0.8,2
		l0.2,9.7c0,0.9-0.2,1.6-0.6,2c-0.5,0.5-1.1,0.7-2,0.7l-2.1,0.1c-0.8,0-1.5-0.1-2-0.6c-0.5-0.4-0.7-1.1-0.8-2L61.4,36.3L61.4,36.3z
		 M66.3,46L66.3,46c0.2,0,0.4-0.1,0.5-0.2c0.1-0.1,0.2-0.3,0.2-0.6l-0.3-8.7c0-0.3-0.1-0.4-0.2-0.6c-0.1-0.1-0.3-0.2-0.6-0.2
		l-1.1,0.1c-0.3,0-0.5,0.1-0.6,0.2c-0.1,0.1-0.2,0.3-0.1,0.6l0.4,8.7c0,0.3,0.1,0.4,0.2,0.6C64.8,46,65,46,65.2,46L66.3,46L66.3,46z
		 M81.6,39.6L81.6,39.6c0,0.2-0.1,0.4-0.2,0.6c-0.1,0.2-0.3,0.3-0.4,0.4c-0.2,0.1-0.4,0.2-0.6,0.2v0.1c0.2,0,0.4,0.1,0.6,0.3
		c0.2,0.1,0.3,0.3,0.4,0.5c0.1,0.2,0.1,0.4,0.1,0.7l-0.2,3.5c0,0.9-0.3,1.5-0.8,2c-0.5,0.5-1.1,0.7-2,0.6c-1.5,0-2.9-0.1-4.4-0.1
		c-0.1,0-0.2,0-0.2-0.1c0-0.1-0.1-0.1-0.1-0.2l0.1-14.5c0-0.1,0.1-0.2,0.1-0.2c0.1,0,0.1-0.1,0.2-0.1c1.6,0,3.2,0.1,4.8,0.1
		c0.9,0,1.6,0.3,2.1,0.8c0.5,0.5,0.7,1.2,0.6,2.1L81.6,39.6L81.6,39.6z M79.1,36.6L79.1,36.6c0-0.3-0.1-0.5-0.2-0.6
		c-0.1-0.1-0.3-0.2-0.6-0.2l-1.8,0l-0.1,3.8l1.8,0c0.2,0,0.5,0,0.6-0.2c0.1-0.1,0.2-0.3,0.2-0.5L79.1,36.6L79.1,36.6z M78.9,42.9
		L78.9,42.9c0-0.2-0.1-0.4-0.2-0.6c-0.1-0.1-0.3-0.2-0.6-0.2l-1.7,0l-0.1,3.8l1.7,0c0.2,0,0.4-0.1,0.6-0.2c0.1-0.1,0.2-0.3,0.2-0.5
		L78.9,42.9L78.9,42.9z M93.9,41.7L93.9,41.7c-0.1,0.6-0.2,1.1-0.5,1.5c-0.3,0.4-0.6,0.7-1.1,0.8l0.7,5.1c0,0.1,0,0.2-0.1,0.3
		c0,0-0.1,0.1-0.2,0l-1.9-0.2c-0.1,0-0.2,0-0.2-0.1c0-0.1-0.1-0.1-0.1-0.2L89.7,44l-1.3-0.1L88,48.7c0,0.1,0,0.2-0.1,0.2
		c-0.1,0.1-0.1,0.1-0.2,0.1l-1.9-0.1c-0.1,0-0.2,0-0.2-0.1c-0.1-0.1-0.1-0.1-0.1-0.2L86.6,34c0-0.1,0-0.2,0.1-0.2
		c0.1-0.1,0.1-0.1,0.2-0.1c1.7,0.1,3.3,0.3,5,0.4c0.9,0.1,1.6,0.4,2.1,0.9c0.4,0.5,0.6,1.2,0.5,2.1L93.9,41.7L93.9,41.7z M90.5,41.6
		L90.5,41.6c0.2,0,0.5,0,0.6-0.1c0.1-0.1,0.2-0.3,0.3-0.5l0.4-3.5c0-0.2,0-0.5-0.2-0.6c-0.1-0.1-0.3-0.2-0.6-0.3l-1.9-0.2l-0.4,5.1
		L90.5,41.6L90.5,41.6z M103.6,51L103.6,51c-0.1,0-0.1,0-0.2-0.1c-0.1-0.1-0.1-0.1-0.1-0.2l0-2.8l-3.3-0.5L99.1,50
		c0,0.1-0.1,0.1-0.1,0.2c-0.1,0.1-0.1,0.1-0.2,0l-1.9-0.3c-0.1,0-0.2,0-0.2-0.1c0-0.1,0-0.1,0-0.2c1.6-4.7,3.4-9.3,5.2-13.9
		c0-0.1,0.1-0.1,0.1-0.2c0.1,0,0.1-0.1,0.2,0l2.7,0.4c0.1,0,0.2,0,0.2,0.1c0,0,0.1,0.1,0.1,0.2c0.3,5,0.4,9.9,0.5,14.9
		c0,0.1,0,0.2-0.1,0.2c0,0-0.1,0-0.2,0L103.6,51L103.6,51z M103,38.9L103,38.9c-0.8,2.1-1.5,4.2-2.2,6.3l2.4,0.4
		C103.2,43.4,103.1,41.1,103,38.9L103,38.9z M120.7,39.2L120.7,39.2c0.1,0,0.1,0.1,0.2,0.1c0,0.1,0,0.1,0,0.2l-3.7,14
		c0,0.1-0.1,0.2-0.1,0.2c-0.1,0-0.1,0-0.2,0l-1.8-0.4c-0.1,0-0.1,0-0.2-0.1c0,0-0.1-0.1-0.1-0.2c-0.3-2.8-0.6-5.7-0.9-8.5l-0.1,0
		l-1.8,7.8c0,0.1-0.1,0.2-0.1,0.2c-0.1,0-0.1,0-0.2,0l-1.9-0.4c-0.1,0-0.1-0.1-0.2-0.1c0-0.1,0-0.1,0-0.2l3-14.2
		c0-0.1,0.1-0.2,0.1-0.2c0.1-0.1,0.1-0.1,0.2,0l1.9,0.4c0.1,0,0.1,0.1,0.2,0.1c0.1,0.1,0.1,0.1,0.1,0.2c0.4,2.8,0.7,5.7,1,8.5l0.1,0
		l1.9-7.7c0-0.1,0.1-0.2,0.1-0.2c0.1-0.1,0.1-0.1,0.3,0L120.7,39.2L120.7,39.2z M125.5,40.8L125.5,40.8c0-0.1,0.1-0.2,0.1-0.2
		c0.1,0,0.2,0,0.3,0c1.5,0.4,3,0.9,4.5,1.4c0.9,0.3,1.5,0.7,1.8,1.3c0.3,0.6,0.3,1.3,0.1,2.2l-3.1,9.2c-0.3,0.9-0.7,1.4-1.3,1.7
		c-0.6,0.3-1.3,0.3-2.1,0.1c-1.4-0.4-2.8-0.8-4.2-1.2c-0.1,0-0.1-0.1-0.2-0.1c0-0.1,0-0.1,0-0.2L125.5,40.8L125.5,40.8z M126.1,53.8
		L126.1,53.8c0.2,0.1,0.4,0.1,0.6,0c0.1-0.1,0.3-0.2,0.4-0.5l2.6-8.2c0.1-0.3,0.1-0.5,0-0.6c-0.1-0.2-0.3-0.3-0.5-0.4l-1.7-0.5
		l-2.9,9.7L126.1,53.8z"/>
	<path fill-rule="evenodd" clip-rule="evenodd" fill="#555555" d="M46.4,19.1c0,0,0.1-0.1,0.1-0.1c0.1,0,0.1,0,0.1,0.1l0.7,1.4
		c0,0,0.1,0.1,0.1,0.1l1.5-0.2c0,0,0.1,0,0.1,0.1c0,0,0,0.1,0,0.1l-1.1,1c0,0-0.1,0.1,0,0.1l0.7,1.4c0,0,0,0.1,0,0.1
		c0,0-0.1,0-0.1,0l-1.3-0.8c0,0-0.1,0-0.1,0l-1.1,1.1c0,0-0.1,0-0.1,0c-0.1,0-0.1-0.1-0.1-0.1l0.3-1.5c0,0,0-0.1-0.1-0.1l-1.4-0.7
		c0,0-0.1-0.1-0.1-0.1c0-0.1,0.1-0.1,0.1-0.1l1.5-0.2c0,0,0.1,0,0.1-0.1L46.4,19.1L46.4,19.1z M98.6,19.1L98.6,19.1
		c0,0-0.1-0.1-0.1-0.1c0,0-0.1,0-0.1,0.1l-0.7,1.4c0,0-0.1,0.1-0.1,0.1L96,20.4c0,0-0.1,0-0.1,0.1c0,0,0,0.1,0,0.1l1.1,1
		c0,0,0.1,0.1,0,0.1l-0.7,1.4c0,0,0,0.1,0,0.1c0,0,0.1,0,0.1,0l1.3-0.8c0.1,0,0.1,0,0.1,0l1.1,1.1c0,0,0.1,0,0.1,0
		c0,0,0.1-0.1,0-0.1L99.1,22c0,0,0-0.1,0-0.1l1.4-0.7c0,0,0.1-0.1,0.1-0.1s0-0.1-0.1-0.1L99,20.7c0,0-0.1,0-0.1-0.1L98.6,19.1
		L98.6,19.1z M90.4,16.9L90.4,16.9c0-0.1-0.1-0.1-0.1-0.1c-0.1,0-0.1,0-0.2,0.1l-0.8,1.9c0,0.1-0.1,0.1-0.2,0.1l-2-0.2
		c-0.1,0-0.1,0-0.2,0.1c0,0.1,0,0.1,0.1,0.2l1.6,1.3c0,0,0.1,0.1,0,0.2l-0.8,1.9c0,0.1,0,0.1,0.1,0.2c0,0,0.1,0,0.2,0l1.7-1.1
		c0.1,0,0.1,0,0.2,0l1.5,1.3c0.1,0,0.1,0,0.2,0c0.1,0,0.1-0.1,0.1-0.2l-0.4-2c0-0.1,0-0.1,0.1-0.2l1.8-1c0.1,0,0.1-0.1,0.1-0.2
		c0-0.1-0.1-0.1-0.1-0.1L91,19c-0.1,0-0.1-0.1-0.1-0.1L90.4,16.9L90.4,16.9z M54.6,16.9L54.6,16.9c0-0.1,0.1-0.1,0.2-0.1
		c0.1,0,0.1,0,0.2,0.1l0.8,1.9c0,0.1,0.1,0.1,0.2,0.1l2-0.2c0.1,0,0.1,0,0.2,0.1c0,0.1,0,0.1,0,0.2l-1.6,1.3c0,0-0.1,0.1,0,0.2
		l0.8,1.9c0,0.1,0,0.1,0,0.2c0,0-0.1,0-0.2,0l-1.7-1.1c-0.1,0-0.1,0-0.2,0l-1.5,1.3c-0.1,0-0.1,0-0.2,0c-0.1,0-0.1-0.1-0.1-0.2
		l0.4-2c0-0.1,0-0.1-0.1-0.2l-1.8-1c-0.1,0-0.1-0.1-0.1-0.2c0-0.1,0.1-0.1,0.1-0.1l2-0.2c0.1,0,0.1-0.1,0.1-0.1L54.6,16.9z"/>
	<path fill-rule="evenodd" clip-rule="evenodd" fill="#373737" d="M62.7,14.6l0,0.3c0.1,1,0.9,1.8,2,1.8c1,0,1.9-0.9,1.8-1.9l0-0.3
		c-0.6-0.3-1.1-0.9-1.1-1.6c0-1,0.8-1.7,1.8-1.7c1,0,1.8,0.8,1.8,1.7c0,0.7-0.4,1.3-1,1.6l0,0.3c0,1,0.9,1.8,1.9,1.8
		c1,0,1.9-0.8,1.9-1.9l0-2.4c-0.3-0.1-0.6-0.4-0.8-0.6c-0.2-0.3-0.3-0.6-0.3-1c0-0.5,0.2-0.9,0.5-1.2C71.6,9.2,72,9,72.5,9
		c0.5,0,0.9,0.2,1.2,0.5c0.3,0.3,0.5,0.7,0.5,1.2c0,0.4-0.1,0.7-0.3,1c-0.2,0.3-0.4,0.5-0.8,0.6l0,2.4c0,1,0.9,1.9,1.9,1.9
		c1.1,0,1.9-0.8,1.9-1.8l0-0.3c-0.6-0.3-1-0.9-1-1.6c0-1,0.8-1.7,1.8-1.7s1.8,0.8,1.8,1.7c0,0.7-0.4,1.3-1.1,1.6l0,0.3
		c0,1,0.8,1.9,1.8,1.9c1,0,1.9-0.7,2-1.8l0-0.3c-0.6-0.3-1-0.9-1-1.6c0-1,0.8-1.7,1.8-1.7c1,0,1.8,0.8,1.8,1.7
		c0,0.7-0.5,1.4-1.1,1.6l0,0.3l-0.2,4.3c-7.3-0.4-14.7-0.4-22,0L61.3,15l0-0.3c-0.7-0.3-1.1-0.9-1.1-1.6c0-1,0.8-1.7,1.8-1.7
		c1,0,1.8,0.8,1.8,1.7C63.6,13.7,63.2,14.3,62.7,14.6L62.7,14.6z M61.6,20.3L61.6,20.3c7.3-0.4,14.6-0.4,21.9,0l-0.1,1.9
		c-7.2-0.4-14.5-0.4-21.7,0L61.6,20.3z"/>
	<path fill="#555555" d="M21.6,61.7c8.2-2.5,16.6-4.4,25.1-5.7c8.5-1.3,17.1-1.9,25.7-1.9c8.6,0,17.3,0.7,25.8,1.9
		c8.5,1.3,16.9,3.2,25.1,5.7l-0.2,0.5c-8.2-2.5-16.5-4.4-25-5.7c-8.5-1.3-17.1-1.9-25.7-1.9c-8.6,0-17.2,0.6-25.7,1.9
		c-8.5,1.3-16.8,3.2-25,5.7L21.6,61.7L21.6,61.7z M13.5,35.7L13.5,35.7c9.5-2.9,19.3-5.1,29.1-6.6c9.9-1.5,19.9-2.2,29.8-2.2
		c10,0,20,0.7,29.9,2.2c9.9,1.5,19.6,3.7,29.1,6.6l-0.2,0.6c-9.5-2.9-19.2-5.1-29-6.6c-9.9-1.5-19.8-2.2-29.8-2.2
		c-9.9,0-19.9,0.7-29.8,2.2c-9.8,1.5-19.6,3.7-29,6.6L13.5,35.7z"/>
	<g>
		<path fill="#373737" d="M101.1,63c0.4,1.6,0.8,3.1,1.1,4.7c1.3,0.9,2.7,1.8,4.2,2.7C96.6,77.3,84.5,81,72.5,81
			c-12,0-24.1-3.7-33.9-10.6c1.4-0.9,2.8-1.8,4.2-2.7c0.3-1.6,0.7-3.2,1.1-4.7c8.3,5.8,18.4,9,28.6,9C82.7,71.9,92.8,68.8,101.1,63z
			"/>
		<path fill="#FFFFFF" d="M99.1,69c0.2-0.1,0.5-0.1,0.7,0.2c0.1,0.2,0.1,0.5-0.2,0.7c-0.2,0.1-0.5,0.1-0.7-0.2
			C98.8,69.4,98.9,69.1,99.1,69L99.1,69z M46,69.6L46,69.6c-0.1,0.2-0.4,0.3-0.7,0.2c-0.2-0.1-0.3-0.4-0.2-0.7
			c0.1-0.2,0.4-0.3,0.7-0.2C46.1,69.1,46.2,69.4,46,69.6z"/>
		<path fill="#FFFFFF" d="M51,70.2c-0.6-0.3-1.1-0.5-1.7-0.8l-0.2,0.4l0.2,0.1c0.1,0.1,0.2,0.1,0.2,0.1c0,0,0,0.1-0.1,0.2L48.5,72
			c-0.1,0.1-0.1,0.2-0.2,0.2c0,0-0.1,0-0.2-0.1L48,72l-0.2,0.4c0.6,0.3,1.2,0.6,1.8,0.8l0.2-0.4l-0.1,0c-0.1,0-0.2-0.1-0.2-0.1
			c0,0,0-0.1,0.1-0.2l0.3-0.7l0.9,0.4l-0.3,0.7c-0.1,0.1-0.1,0.2-0.1,0.2c0,0-0.1,0-0.2,0l-0.1,0l-0.2,0.5c0.6,0.3,1.2,0.5,1.9,0.8
			l0.2-0.5l-0.2-0.1c-0.1,0-0.2-0.1-0.2-0.1c0,0,0-0.1,0-0.3l0.7-1.8c0.1-0.1,0.1-0.2,0.1-0.2c0,0,0.1,0,0.2,0l0.2,0.1l0.2-0.5
			c-0.6-0.2-1.2-0.5-1.7-0.7l-0.2,0.4l0.1,0c0.1,0,0.1,0.1,0.2,0.1c0,0,0,0.1-0.1,0.2L51,71.7l-0.9-0.4l0.3-0.6
			c0.1-0.1,0.1-0.2,0.1-0.2c0,0,0.1,0,0.2,0l0.1,0L51,70.2L51,70.2z M56.4,74.2L56.4,74.2L55.8,74l0.6-0.9L56.4,74.2L56.4,74.2z
			 M55.8,75.7L55.8,75.7c0.7,0.2,1.4,0.4,2.1,0.6l0.1-0.5l-0.2,0c-0.1,0-0.2-0.1-0.2-0.1c0,0-0.1-0.2-0.1-0.3c0-0.9,0-1.8-0.1-2.7
			l-1.2-0.4c-0.6,0.7-1.1,1.5-1.7,2.2c-0.1,0.1-0.2,0.2-0.2,0.2c-0.1,0-0.2,0-0.2,0l-0.1,0L53.9,75c0.5,0.2,1,0.3,1.5,0.5l0.2-0.5
			L55.4,75c-0.1,0-0.1-0.1-0.2-0.1c0,0,0-0.1,0-0.1c0,0,0,0,0-0.1c0,0,0-0.1,0.1-0.1l0.2-0.3l0.9,0.3l0,0.4l0,0.1c0,0,0,0.1,0,0.1
			c0,0,0,0.1-0.1,0.1c0,0-0.1,0-0.2-0.1l-0.2,0L55.8,75.7L55.8,75.7z M62.5,73.8L62.5,73.8c-0.6-0.1-1.1-0.2-1.6-0.3l-0.1,0.5l0.2,0
			c0.1,0,0.2,0.1,0.2,0.1c0,0,0,0.1,0,0.3l-0.4,1.9c0,0.1-0.1,0.2-0.1,0.2c0,0-0.1,0-0.2,0l-0.2,0l-0.1,0.5c0.5,0.1,1,0.2,1.6,0.3
			l0.1-0.5l-0.2,0c-0.1,0-0.2-0.1-0.2-0.1c0,0,0-0.1,0-0.3l0.3-1.7c0.3,0.9,0.6,1.8,0.9,2.7l1.2,0.2l0.4-2.7c0-0.1,0.1-0.2,0.1-0.2
			c0,0,0.1,0,0.2,0l0.1,0l0.1-0.5l-1.5-0.2l-0.1,0.5l0.2,0c0.1,0,0.2,0,0.2,0.1c0,0,0,0.1,0,0.3l-0.3,1.5
			C63,75.5,62.7,74.6,62.5,73.8L62.5,73.8z M68.9,74.6L68.9,74.6c-0.6,0-1.2-0.1-1.8-0.2L67,74.9l0.2,0c0.1,0,0.2,0,0.2,0.1
			c0,0,0,0.1,0,0.3l-0.2,1.9l0,0c0,0.1,0,0.2-0.1,0.2c0,0-0.1,0-0.2,0l-0.2,0l-0.1,0.5c0.7,0.1,1.3,0.1,2,0.2
			c0.7,0.1,1.3-0.1,1.6-0.3c0.4-0.3,0.5-0.7,0.6-1.3c0-0.6-0.1-1-0.5-1.3C70.1,74.8,69.6,74.6,68.9,74.6L68.9,74.6z M68.4,77.5
			L68.4,77.5l0.2-2.5l0.3,0c0.2,0,0.4,0.1,0.5,0.3c0.1,0.2,0.1,0.5,0.1,1c0,0.4-0.1,0.8-0.2,0.9c-0.1,0.2-0.3,0.3-0.6,0.2L68.4,77.5
			L68.4,77.5z M78.5,74.4L78.5,74.4c-0.7,0.1-1.3,0.1-2,0.2L76,76.7l-0.7-2c-0.6,0-1.3,0.1-1.9,0.1l0,0.5l0.2,0c0.1,0,0.2,0,0.2,0
			c0,0,0.1,0.1,0.1,0.2l0,1.9c0,0.1,0,0.2,0,0.3c0,0-0.1,0.1-0.2,0.1l-0.2,0l0,0.5c0.5,0,1.1,0,1.6-0.1l0-0.5l-0.1,0
			c-0.1,0-0.2,0-0.2,0c0,0-0.1-0.1-0.1-0.2l-0.1-2.1c0.3,1,0.6,1.9,1,2.9l0.8-0.1c0.2-1,0.5-2,0.7-3l0.2,2.1c0,0.1,0,0.2,0,0.3
			c0,0-0.1,0.1-0.2,0.1l-0.1,0l0,0.5c0.7-0.1,1.3-0.1,2-0.2l-0.1-0.5l-0.2,0c-0.1,0-0.2,0-0.2,0c0,0-0.1-0.1-0.1-0.2l-0.2-1.9
			c0-0.1,0-0.2,0-0.3c0,0,0.1-0.1,0.2-0.1l0.2,0L78.5,74.4L78.5,74.4z M82.9,75.6L82.9,75.6l-0.6,0.1l0.1-1.1L82.9,75.6L82.9,75.6z
			 M83.1,77.2L83.1,77.2c0.7-0.1,1.4-0.3,2.2-0.5l-0.1-0.5l-0.2,0c-0.1,0-0.2,0-0.2,0c-0.1,0-0.1-0.1-0.2-0.3
			c-0.5-0.8-0.9-1.6-1.4-2.4l-1.2,0.2c-0.1,0.9-0.3,1.8-0.5,2.7c0,0.1-0.1,0.2-0.1,0.3C81.3,77,81.3,77,81.2,77l-0.1,0l0.1,0.5
			c0.5-0.1,1.1-0.2,1.6-0.3l-0.1-0.5l-0.2,0c-0.1,0-0.1,0-0.2,0c0,0-0.1,0-0.1-0.1c0,0,0,0,0-0.1c0,0,0-0.1,0-0.1l0.1-0.3l0.9-0.2
			l0.2,0.3l0,0.1c0,0,0,0,0,0.1c0,0,0,0.1,0,0.1c0,0-0.1,0-0.2,0.1l-0.2,0L83.1,77.2L83.1,77.2z M88.2,72.3L88.2,72.3
			c-0.6,0.2-1.2,0.4-1.8,0.5l0.1,0.5l0.2,0c0.1,0,0.2,0,0.2,0c0,0,0.1,0.1,0.1,0.2l0.5,1.8l0,0c0,0.1,0,0.2,0,0.2
			c0,0-0.1,0.1-0.2,0.1l-0.2,0l0.1,0.5c0.6-0.2,1.3-0.4,1.9-0.6c0.7-0.2,1.2-0.5,1.4-0.9c0.2-0.4,0.2-0.9,0-1.4
			c-0.2-0.6-0.5-0.9-0.9-1.1C89.4,72.1,88.9,72.1,88.2,72.3L88.2,72.3z M88.9,75.3L88.9,75.3l-0.7-2.4l0.3-0.1
			c0.2-0.1,0.4,0,0.6,0.1c0.2,0.1,0.3,0.4,0.5,0.9c0.1,0.4,0.2,0.7,0.1,1c0,0.2-0.2,0.4-0.4,0.4L88.9,75.3L88.9,75.3z M92.4,70.8
			L92.4,70.8l0.2,0.5l0.2-0.1c0.1,0,0.2-0.1,0.2,0c0,0,0.1,0.1,0.1,0.2l0.7,1.7l0,0c0.1,0.1,0.1,0.2,0,0.2c0,0-0.1,0.1-0.2,0.1
			l-0.2,0.1l0.2,0.5c1.2-0.5,2.3-1,3.5-1.6l-0.6-1.3l-0.5,0.3c0.1,0.2,0.1,0.3,0.1,0.4c0,0.1,0,0.2,0,0.3c0,0.1-0.1,0.2-0.1,0.2
			c-0.1,0.1-0.2,0.1-0.4,0.3L95.1,73l-0.4-1l0.1-0.1c0.1-0.1,0.3-0.1,0.3,0c0.1,0,0.2,0.2,0.3,0.4l0.4-0.2l-0.7-1.4l-0.4,0.2l0,0
			c0.1,0.2,0.1,0.3,0.1,0.4c0,0.1-0.1,0.2-0.3,0.2l-0.1,0.1l-0.4-0.9l0.4-0.2l0.1,0c0.2-0.1,0.3-0.1,0.4-0.2c0.1,0,0.2,0,0.3,0
			c0.1,0,0.2,0.1,0.2,0.1c0.1,0.1,0.2,0.2,0.3,0.3l0.5-0.2l-0.6-1.2C94.6,69.9,93.5,70.4,92.4,70.8z"/>
	</g>
	<path fill="#373737" d="M62,61.7V61c0.3,0,0.5-0.1,0.7-0.2c0.2-0.1,0.3-0.2,0.4-0.4h1.2V64c0,0.1,0,0.2,0.1,0.2
		c0.1,0,0.2,0.1,0.4,0.1H65V65h-3v-0.7h0.2c0.2,0,0.4,0,0.5-0.1c0.1,0,0.1-0.2,0.1-0.4v0v-2.2H62L62,61.7z M70,63
		c-0.2,0.1-0.3,0.2-0.5,0.2c-0.2,0-0.3,0.1-0.5,0.1c-0.5,0-0.8-0.1-1.1-0.4c-0.3-0.3-0.4-0.6-0.4-1c0-0.5,0.2-0.8,0.5-1.1
		c0.3-0.3,0.8-0.4,1.4-0.4c0.7,0,1.2,0.2,1.6,0.6c0.4,0.4,0.6,1,0.6,1.7c0,0.8-0.2,1.4-0.6,1.8c-0.4,0.4-1,0.7-1.7,0.7
		c-0.5,0-0.9-0.1-1.1-0.3c-0.3-0.2-0.4-0.5-0.4-0.8c0-0.2,0.1-0.3,0.2-0.5c0.1-0.1,0.3-0.2,0.5-0.2c0.2,0,0.4,0.1,0.5,0.2
		c0.1,0.1,0.2,0.2,0.2,0.4c0,0.1,0,0.2-0.1,0.3c0,0.1-0.1,0.1-0.2,0.2c0.1,0,0.1,0,0.2,0c0,0,0.1,0,0.1,0c0.3,0,0.5-0.1,0.7-0.4
		C69.9,63.8,70,63.5,70,63L70,63L70,63z M69.4,60.9c-0.2,0-0.3,0.1-0.4,0.2c-0.1,0.1-0.1,0.3-0.1,0.6c0,0.2,0,0.4,0.1,0.6
		c0.1,0.1,0.2,0.2,0.4,0.2c0.2,0,0.3-0.1,0.4-0.2c0.1-0.1,0.1-0.3,0.1-0.6s0-0.5-0.1-0.6C69.6,61,69.5,60.9,69.4,60.9L69.4,60.9z
		 M75.9,63c-0.2,0.1-0.3,0.2-0.5,0.2c-0.2,0-0.3,0.1-0.5,0.1c-0.5,0-0.8-0.1-1.1-0.4c-0.3-0.3-0.4-0.6-0.4-1c0-0.5,0.2-0.8,0.5-1.1
		c0.3-0.3,0.8-0.4,1.4-0.4c0.7,0,1.2,0.2,1.6,0.6c0.4,0.4,0.6,1,0.6,1.7c0,0.8-0.2,1.4-0.6,1.8c-0.4,0.4-1,0.7-1.7,0.7
		c-0.5,0-0.9-0.1-1.1-0.3c-0.3-0.2-0.4-0.5-0.4-0.8c0-0.2,0.1-0.3,0.2-0.5c0.1-0.1,0.3-0.2,0.5-0.2c0.2,0,0.4,0.1,0.5,0.2
		c0.1,0.1,0.2,0.2,0.2,0.4c0,0.1,0,0.2-0.1,0.3c0,0.1-0.1,0.1-0.2,0.2c0.1,0,0.1,0,0.2,0c0,0,0.1,0,0.1,0c0.3,0,0.5-0.1,0.7-0.4
		C75.9,63.8,75.9,63.5,75.9,63L75.9,63L75.9,63z M75.3,60.9c-0.2,0-0.3,0.1-0.4,0.2c-0.1,0.1-0.1,0.3-0.1,0.6c0,0.2,0,0.4,0.1,0.6
		c0.1,0.1,0.2,0.2,0.4,0.2c0.2,0,0.3-0.1,0.4-0.2c0.1-0.1,0.1-0.3,0.1-0.6s0-0.5-0.1-0.6C75.6,61,75.5,60.9,75.3,60.9L75.3,60.9z
		 M80,61.7V61c0.3,0,0.5-0.1,0.7-0.2c0.2-0.1,0.3-0.2,0.4-0.4h1.2V64c0,0.1,0,0.2,0.1,0.2c0.1,0,0.2,0.1,0.4,0.1H83V65h-3v-0.7h0.2
		c0.2,0,0.4,0,0.5-0.1c0.1,0,0.1-0.2,0.1-0.4v0v-2.2H80z"/>
	<path fill-rule="evenodd" clip-rule="evenodd" fill="#555555" d="M85.9,62.4h4.5V63h-4.5V62.4L85.9,62.4z M54.6,62.4h4.5V63h-4.5
		V62.4z"/>
</g>
</svg>
