<?xml version="1.0" encoding="utf-8"?>
<!-- Generator: Adobe Illustrator 18.0.0, SVG Export Plug-In . SVG Version: 6.00 Build 0)  -->
<!DOCTYPE svg PUBLIC "-//W3C//DTD SVG 1.1//EN" "http://www.w3.org/Graphics/SVG/1.1/DTD/svg11.dtd">
<svg version="1.1" id="Layer_1" xmlns="http://www.w3.org/2000/svg" xmlns:xlink="http://www.w3.org/1999/xlink" x="0px" y="0px"
	 viewBox="0 0 145 90" enable-background="new 0 0 145 90" xml:space="preserve">

<g>
	<g display="inline">
		<path fill="#5D534D" d="M29.7,70.9c-0.5-0.2-0.9-0.4-1.4-0.6c-0.2,0.5-0.5,1-0.7,1.6c-0.3-0.1-0.5-0.2-0.8-0.4
			c0.6-1.2,1.2-2.5,1.7-3.7c0.8,0.4,1.5,0.7,2.3,1.1c-0.1,0.2-0.2,0.4-0.3,0.6c-0.5-0.2-1.1-0.5-1.6-0.7c-0.2,0.3-0.3,0.7-0.5,1
			c0.4,0.2,0.9,0.4,1.4,0.6C29.8,70.5,29.8,70.7,29.7,70.9z"/>
		<path fill="#5D534D" d="M34.1,73c-0.2,0.5-0.4,0.8-0.8,0.9c-0.4,0.1-0.8,0.1-1.2,0c-0.4-0.2-0.7-0.5-0.9-0.8
			c-0.2-0.4-0.1-0.8,0.1-1.2c0.1-0.4,0.3-0.7,0.4-1.1c0.2-0.4,0.5-0.7,0.8-0.9c0.4-0.1,0.7-0.1,1.2,0c0.4,0.2,0.7,0.4,0.9,0.8
			c0.2,0.4,0.1,0.8,0,1.2C34.4,72.3,34.3,72.7,34.1,73z M33.8,71.6c0.1-0.3,0.1-0.5,0.1-0.7c0-0.2-0.2-0.3-0.4-0.4
			c-0.2-0.1-0.4-0.1-0.5,0c-0.2,0.1-0.3,0.3-0.4,0.6c-0.1,0.4-0.3,0.7-0.4,1.1c-0.1,0.3-0.1,0.5-0.1,0.7c0,0.2,0.2,0.3,0.4,0.4
			c0.2,0.1,0.4,0.1,0.6,0c0.2-0.1,0.3-0.3,0.4-0.6C33.5,72.4,33.6,72,33.8,71.6z"/>
		<path fill="#5D534D" d="M36.7,73.8c-0.2,0.5-0.4,1-0.6,1.5c-0.3-0.1-0.5-0.2-0.8-0.3c0.5-1.3,1-2.6,1.4-3.9
			c0.4,0.2,0.9,0.3,1.3,0.5c0.4,0.1,0.7,0.4,0.8,0.6c0.2,0.3,0.2,0.6,0.1,1c-0.1,0.2-0.2,0.4-0.3,0.5c-0.1,0.1-0.3,0.2-0.5,0.2
			c0.2,0.1,0.3,0.3,0.3,0.5c0,0.2,0,0.4-0.1,0.6c0,0.1-0.1,0.2-0.1,0.3c0,0.1-0.1,0.2-0.1,0.4c0,0.1,0,0.2,0,0.3c0,0,0,0,0,0.1
			c-0.3-0.1-0.6-0.2-0.8-0.3c0-0.1-0.1-0.2,0-0.3c0-0.1,0.1-0.3,0.1-0.4c0-0.1,0.1-0.2,0.1-0.3c0.1-0.2,0.1-0.4,0-0.5
			c0-0.1-0.1-0.2-0.3-0.3C37,74,36.8,73.9,36.7,73.8z M36.9,73.2c0.2,0.1,0.4,0.1,0.5,0.2c0.2,0.1,0.3,0.1,0.4,0
			c0.1-0.1,0.2-0.2,0.3-0.4c0.1-0.2,0.1-0.3,0-0.5c0-0.1-0.1-0.2-0.3-0.3c-0.2-0.1-0.4-0.1-0.5-0.2C37.1,72.5,37,72.8,36.9,73.2z"/>
		<path fill="#5D534D" d="M43.3,77c0.5,0.1,1,0.3,1.5,0.4c-0.1,0.2-0.1,0.4-0.2,0.6c-0.8-0.2-1.6-0.4-2.4-0.7c0.4-1.3,0.8-2.6,1.2-4
			c0.3,0.1,0.5,0.2,0.8,0.2C43.9,74.8,43.6,75.9,43.3,77z"/>
		<path fill="#5D534D" d="M49.3,77.7c-0.1,0.5-0.3,0.8-0.7,1c-0.3,0.2-0.7,0.2-1.2,0.1c-0.5-0.1-0.8-0.3-1-0.7
			c-0.2-0.3-0.2-0.7-0.1-1.2c0.1-0.4,0.2-0.7,0.3-1.1c0.1-0.5,0.3-0.8,0.7-1c0.3-0.2,0.7-0.2,1.1-0.1c0.4,0.1,0.8,0.3,1,0.7
			c0.2,0.3,0.3,0.7,0.1,1.2C49.5,77,49.4,77.4,49.3,77.7z M48.8,76.4c0.1-0.3,0.1-0.5,0-0.7c-0.1-0.2-0.2-0.3-0.4-0.3
			c-0.2-0.1-0.4,0-0.5,0.1c-0.1,0.1-0.2,0.3-0.3,0.6c-0.1,0.4-0.2,0.8-0.3,1.1c-0.1,0.3-0.1,0.5,0,0.7c0.1,0.2,0.2,0.3,0.4,0.3
			c0.2,0.1,0.4,0,0.5-0.1c0.1-0.1,0.3-0.3,0.3-0.6C48.6,77.2,48.7,76.8,48.8,76.4z"/>
		<path fill="#5D534D" d="M52.2,78.8c0,0.1,0,0.1,0,0.2c0,0,0,0,0,0C52.2,78.9,52.2,78.9,52.2,78.8c0.5-0.9,0.9-1.9,1.4-2.9
			c0.3,0.1,0.6,0.1,0.9,0.2c-0.6,1.3-1.3,2.6-1.9,3.8c-0.3-0.1-0.6-0.1-0.9-0.2c-0.1-1.4-0.2-2.9-0.3-4.3c0.3,0.1,0.6,0.1,0.9,0.2
			C52.1,76.7,52.1,77.7,52.2,78.8z"/>
		<path fill="#5D534D" d="M57.8,79c-0.5-0.1-1-0.1-1.4-0.2c-0.1,0.4-0.1,0.8-0.2,1.2c0.6,0.1,1.1,0.2,1.7,0.3c0,0.2-0.1,0.4-0.1,0.6
			c-0.9-0.1-1.7-0.3-2.6-0.4c0.2-1.4,0.5-2.7,0.7-4.1c0.8,0.1,1.6,0.3,2.5,0.4c0,0.2-0.1,0.4-0.1,0.6c-0.6-0.1-1.1-0.2-1.7-0.3
			c-0.1,0.3-0.1,0.7-0.2,1c0.5,0.1,0.9,0.1,1.4,0.2C57.9,78.6,57.8,78.8,57.8,79z"/>
		<path fill="#5D534D" d="M60.5,79.5c-0.1,0.5-0.1,1.1-0.2,1.6c-0.3,0-0.6-0.1-0.8-0.1c0.2-1.4,0.3-2.7,0.5-4.1
			c0.5,0.1,0.9,0.1,1.4,0.2c0.4,0,0.7,0.2,0.9,0.4c0.2,0.2,0.3,0.5,0.3,0.9c0,0.2-0.1,0.4-0.2,0.5c-0.1,0.1-0.3,0.3-0.5,0.3
			c0.2,0.1,0.4,0.2,0.4,0.4c0.1,0.2,0.1,0.4,0.1,0.6c0,0.1,0,0.2,0,0.3c0,0.1,0,0.2,0,0.4c0,0.1,0.1,0.2,0.1,0.3c0,0,0,0,0,0.1
			c-0.3,0-0.6-0.1-0.9-0.1c-0.1-0.1-0.1-0.2-0.1-0.3c0-0.1,0-0.3,0-0.4c0-0.1,0-0.2,0-0.3c0-0.2,0-0.4-0.1-0.5
			c-0.1-0.1-0.2-0.2-0.4-0.2C60.9,79.6,60.7,79.5,60.5,79.5z M60.6,78.9c0.2,0,0.4,0,0.6,0.1c0.2,0,0.3,0,0.4-0.1
			c0.1-0.1,0.2-0.2,0.2-0.4c0-0.2,0-0.3-0.1-0.5c-0.1-0.1-0.2-0.2-0.4-0.2c-0.2,0-0.4,0-0.6-0.1C60.7,78.1,60.6,78.5,60.6,78.9z"/>
		<path fill="#5D534D" d="M66.2,80.6c0-0.2,0-0.3-0.1-0.4c-0.1-0.1-0.2-0.2-0.4-0.3c-0.4-0.2-0.8-0.4-1-0.6
			c-0.2-0.2-0.3-0.5-0.3-0.8c0-0.3,0.2-0.6,0.5-0.8c0.3-0.2,0.6-0.3,1-0.2c0.4,0,0.7,0.2,1,0.4c0.2,0.3,0.3,0.6,0.3,0.9c0,0,0,0,0,0
			c-0.3,0-0.5,0-0.8-0.1c0-0.2,0-0.3-0.1-0.5c-0.1-0.1-0.2-0.2-0.4-0.2c-0.2,0-0.3,0-0.4,0.1c-0.1,0.1-0.2,0.2-0.2,0.4
			c0,0.1,0,0.3,0.1,0.3c0.1,0.1,0.3,0.2,0.5,0.3c0.4,0.2,0.7,0.3,0.9,0.6c0.2,0.2,0.3,0.5,0.3,0.8c0,0.4-0.2,0.6-0.4,0.8
			c-0.3,0.2-0.6,0.3-1,0.2c-0.4,0-0.8-0.2-1.1-0.4c-0.3-0.3-0.4-0.6-0.4-1c0,0,0,0,0,0c0.3,0,0.5,0,0.8,0.1c0,0.3,0,0.4,0.1,0.6
			c0.1,0.1,0.3,0.2,0.5,0.2c0.2,0,0.3,0,0.4-0.1C66.1,80.9,66.2,80.8,66.2,80.6z"/>
		<path fill="#5D534D" d="M74.2,80.5c0,0.5-0.1,0.9-0.4,1.1c-0.3,0.3-0.6,0.4-1.1,0.4c-0.5,0-0.8-0.1-1.1-0.4
			c-0.3-0.3-0.4-0.7-0.4-1.1c0-0.4,0-0.8,0-1.2c0-0.5,0.2-0.9,0.4-1.1c0.3-0.3,0.6-0.4,1.1-0.4c0.4,0,0.8,0.1,1.1,0.4
			c0.3,0.3,0.4,0.7,0.4,1.1C74.2,79.7,74.2,80.1,74.2,80.5z M73.4,79.3c0-0.3-0.1-0.5-0.2-0.7c-0.1-0.2-0.3-0.2-0.5-0.2
			c-0.2,0-0.4,0.1-0.5,0.2c-0.1,0.1-0.2,0.4-0.2,0.7c0,0.4,0,0.8,0,1.2c0,0.3,0.1,0.5,0.2,0.7c0.1,0.2,0.3,0.2,0.5,0.2
			c0.2,0,0.4-0.1,0.5-0.2c0.1-0.1,0.2-0.4,0.2-0.7C73.4,80.1,73.4,79.7,73.4,79.3z"/>
		<path fill="#5D534D" d="M78.3,80.1c-0.5,0-1,0-1.5,0.1c0,0.6,0,1.1,0.1,1.7c-0.3,0-0.6,0-0.9,0c0-1.4-0.1-2.7-0.1-4.1
			c0.8,0,1.7-0.1,2.5-0.1c0,0.2,0,0.4,0,0.6c-0.6,0-1.1,0.1-1.7,0.1c0,0.4,0,0.7,0,1.1c0.5,0,1,0,1.5-0.1
			C78.3,79.7,78.3,79.9,78.3,80.1z"/>
		<path fill="#5D534D" d="M85.7,80.6c-0.1,0.2-0.3,0.4-0.5,0.5c-0.2,0.2-0.5,0.3-0.9,0.3c-0.5,0-0.9,0-1.2-0.3
			c-0.3-0.2-0.5-0.6-0.5-1.1c0-0.4-0.1-0.8-0.1-1.3c0-0.5,0.1-0.8,0.3-1.1c0.2-0.3,0.6-0.4,1-0.5c0.5,0,0.8,0,1.1,0.2
			c0.3,0.2,0.4,0.5,0.5,0.9c0,0,0,0,0,0c-0.3,0-0.5,0.1-0.8,0.1c0-0.2-0.1-0.4-0.2-0.5c-0.1-0.1-0.3-0.1-0.5-0.1
			c-0.2,0-0.4,0.1-0.5,0.3c-0.1,0.1-0.1,0.4-0.1,0.6c0,0.4,0.1,0.8,0.1,1.3c0,0.3,0.1,0.5,0.2,0.6c0.1,0.1,0.3,0.2,0.5,0.2
			c0.2,0,0.3-0.1,0.4-0.1s0.1-0.1,0.2-0.2c0-0.2-0.1-0.5-0.1-0.7c-0.2,0-0.4,0-0.6,0.1c0-0.2,0-0.4-0.1-0.6c0.5,0,0.9-0.1,1.4-0.1
			C85.6,79.6,85.6,80.1,85.7,80.6z"/>
		<path fill="#5D534D" d="M90.3,79.1c0.1,0.5,0,0.9-0.2,1.2c-0.2,0.3-0.6,0.5-1,0.6c-0.5,0.1-0.8,0-1.2-0.3
			c-0.3-0.2-0.5-0.6-0.6-1.1c0-0.4-0.1-0.8-0.1-1.1c-0.1-0.5,0-0.9,0.3-1.2c0.2-0.3,0.6-0.5,1-0.6c0.4-0.1,0.8,0,1.1,0.2
			c0.3,0.2,0.5,0.6,0.6,1.1C90.2,78.4,90.3,78.7,90.3,79.1z M89.3,78.1c0-0.3-0.1-0.5-0.3-0.6c-0.1-0.1-0.3-0.2-0.5-0.2
			c-0.2,0-0.4,0.1-0.5,0.3C88,77.8,88,78,88,78.3c0.1,0.4,0.1,0.8,0.2,1.2c0,0.3,0.1,0.5,0.3,0.6c0.1,0.1,0.3,0.2,0.5,0.2
			c0.2,0,0.4-0.1,0.5-0.3c0.1-0.2,0.1-0.4,0.1-0.7C89.4,78.9,89.4,78.5,89.3,78.1z"/>
		<path fill="#5D534D" d="M94.9,78.3c0.1,0.5,0,0.9-0.2,1.2c-0.2,0.3-0.6,0.5-1,0.6c-0.5,0.1-0.8,0-1.2-0.2c-0.3-0.2-0.5-0.6-0.6-1
			c-0.1-0.4-0.1-0.8-0.2-1.1c-0.1-0.5,0-0.9,0.2-1.2c0.2-0.3,0.5-0.5,1-0.6c0.4-0.1,0.8,0,1.1,0.2c0.3,0.2,0.5,0.6,0.6,1
			C94.8,77.5,94.8,77.9,94.9,78.3z M93.9,77.3c-0.1-0.3-0.2-0.5-0.3-0.6c-0.1-0.1-0.3-0.2-0.5-0.1c-0.2,0-0.4,0.1-0.4,0.3
			c-0.1,0.2-0.1,0.4,0,0.7c0.1,0.4,0.1,0.8,0.2,1.1c0.1,0.3,0.1,0.5,0.3,0.6c0.1,0.1,0.3,0.2,0.5,0.1c0.2,0,0.4-0.1,0.5-0.3
			c0.1-0.2,0.1-0.4,0-0.7C94,78.1,93.9,77.7,93.9,77.3z"/>
		<path fill="#5D534D" d="M97,79.4c-0.3-1.3-0.6-2.7-0.9-4c0.4-0.1,0.8-0.2,1.2-0.3c0.4-0.1,0.8,0,1.2,0.2c0.4,0.2,0.6,0.6,0.7,1.1
			c0.1,0.2,0.1,0.4,0.2,0.7c0.1,0.5,0.1,0.9-0.1,1.3c-0.2,0.4-0.5,0.6-1,0.7C97.8,79.2,97.4,79.3,97,79.4z M97,75.8
			c0.2,0.9,0.4,1.8,0.6,2.8c0.1,0,0.3-0.1,0.4-0.1c0.2-0.1,0.4-0.2,0.5-0.4c0.1-0.2,0.1-0.5,0-0.8c-0.1-0.2-0.1-0.5-0.2-0.7
			c-0.1-0.3-0.2-0.5-0.4-0.7c-0.2-0.2-0.4-0.2-0.6-0.2C97.3,75.7,97.2,75.7,97,75.8z"/>
		<path fill="#5D534D" d="M103.9,73.3c0.5,0.9,1.1,1.8,1.6,2.7c0,0,0,0,0,0c0-1-0.1-2.1-0.2-3.1c0.3-0.1,0.7-0.2,1-0.3
			c0.4,1.3,0.9,2.6,1.3,3.9c-0.3,0.1-0.5,0.2-0.8,0.3c-0.1-0.4-0.2-0.8-0.4-1.1c-0.1-0.5-0.3-1-0.4-1.5c0,0,0,0,0,0c0,1,0,2,0.1,2.9
			c-0.2,0.1-0.4,0.1-0.5,0.2c-0.5-0.8-1.1-1.6-1.6-2.4c0,0,0,0,0,0c0.2,0.5,0.3,1,0.5,1.5c0.1,0.4,0.2,0.8,0.3,1.1
			c-0.3,0.1-0.5,0.2-0.8,0.2c-0.4-1.3-0.8-2.6-1.1-4C103.2,73.5,103.6,73.4,103.9,73.3z"/>
		<path fill="#5D534D" d="M111.1,73.3c-0.5,0.2-0.9,0.3-1.4,0.5c0.1,0.4,0.3,0.7,0.4,1.1c0.5-0.2,1.1-0.4,1.6-0.6
			c0.1,0.2,0.2,0.4,0.2,0.6c-0.8,0.3-1.6,0.6-2.5,0.9c-0.5-1.3-0.9-2.6-1.4-3.9c0.8-0.3,1.6-0.6,2.4-0.9c0.1,0.2,0.2,0.4,0.2,0.6
			c-0.5,0.2-1.1,0.4-1.6,0.6c0.1,0.3,0.2,0.6,0.3,1c0.5-0.2,0.9-0.3,1.4-0.5C111,72.9,111,73.1,111.1,73.3z"/>
		<path fill="#5D534D" d="M115.1,72.7c-0.4,0.1-0.7,0.3-1.1,0.4c0,0.3,0.1,0.6,0.1,0.9c-0.3,0.1-0.5,0.2-0.8,0.3
			c-0.1-1.4-0.2-2.9-0.4-4.3c0.3-0.1,0.5-0.2,0.8-0.3c0.9,1.1,1.8,2.2,2.7,3.3c-0.3,0.1-0.5,0.2-0.8,0.3
			C115.5,73.2,115.3,72.9,115.1,72.7z M114,72.5c0.2-0.1,0.5-0.2,0.7-0.3c-0.3-0.4-0.6-0.8-0.9-1.2c0,0,0,0,0,0
			C113.8,71.5,113.9,72,114,72.5z"/>
		<path fill="#5D534D" d="M118.5,68.3c-0.3,0.1-0.6,0.3-0.9,0.4c0.5,1.1,1,2.1,1.4,3.2c-0.3,0.1-0.5,0.2-0.8,0.4
			c-0.5-1.1-0.9-2.1-1.4-3.2c-0.3,0.1-0.6,0.3-0.9,0.4c-0.1-0.2-0.2-0.4-0.3-0.6c0.8-0.4,1.7-0.8,2.5-1.2
			C118.3,67.9,118.4,68.1,118.5,68.3z"/>
	</g>
	<g display="inline">
		<path fill="#5D534D" d="M15.8,32.7c0.5-0.2,1.1-0.5,1.6-0.7c-1.3-2.8-2.6-5.7-3.9-8.5c-0.6,0.3-1.1,0.5-1.7,0.8
			c-0.3-0.7-0.7-1.4-1-2.2c2.4-1.1,4.8-2.2,7.2-3.2c1.5-0.6,2.9-1,4.2-0.5c0.8,0.4,1.6,1.1,2,2.1c0.5,1.3,0.2,2.4-0.9,3.5
			c1.8,0,3,0.8,3.6,2.3c0.7,2.1,0,4.3-3.3,5.7c-2.2,0.9-4.5,1.9-6.7,2.9C16.5,34.1,16.2,33.4,15.8,32.7z M19.7,24.2
			c1.1-0.4,1.3-1.3,1-2.2c-0.3-0.9-1-1.3-2.4-0.7c-0.4,0.2-0.8,0.3-1.2,0.5c0.4,1,0.8,2,1.2,2.9C18.8,24.6,19.2,24.4,19.7,24.2z
			 M22,29.9c1.5-0.6,1.6-1.5,1.2-2.5c-0.5-1.2-1.5-1.4-2.5-1c-0.5,0.2-1,0.4-1.5,0.6c0.5,1.2,1,2.3,1.5,3.5
			C21.2,30.3,21.6,30.1,22,29.9z"/>
		<path fill="#5D534D" d="M43.4,25.6c-2.1,0.5-4.2,1-6.3,1.6c-0.2-0.8-0.4-1.5-0.7-2.3c0.6-0.2,1.1-0.3,1.7-0.5
			c-0.4-0.7-0.8-1.4-1.3-2.2c-1.2,0.3-2.3,0.7-3.5,1c0,0.8,0,1.7,0,2.5c0.6-0.2,1.2-0.4,1.8-0.5c0.2,0.8,0.5,1.5,0.7,2.3
			c-1.9,0.6-3.8,1.2-5.7,1.8c-0.3-0.8-0.5-1.5-0.8-2.3c0.5-0.2,1.1-0.4,1.6-0.6c-0.1-3.2-0.2-6.5-0.2-9.8c-0.6,0.2-1.3,0.4-1.9,0.6
			c-0.2-0.8-0.5-1.5-0.7-2.3c3.1-1,6.2-1.9,9.3-2.7c0.2,0.8,0.4,1.5,0.6,2.3c-0.6,0.2-1.3,0.3-1.9,0.5c1.8,2.8,3.5,5.5,5.2,8.3
			c0.5-0.1,1-0.3,1.6-0.4C43.1,24,43.2,24.8,43.4,25.6z M33.4,16.6C33.4,16.6,33.4,16.7,33.4,16.6c-0.1,1.5-0.1,3-0.1,4.5
			c0.8-0.2,1.6-0.5,2.4-0.7C35,19.2,34.2,17.9,33.4,16.6z"/>
		<path fill="#5D534D" d="M58.6,23c-1.3,0.2-2.7,0.3-4,0.5c-1.3-1.9-2.6-3.8-4-5.7c-0.5,0.1-1.1,0.2-1.6,0.3
			c0.2,1.3,0.4,2.5,0.7,3.8c0.6-0.1,1.1-0.2,1.7-0.3c0.1,0.8,0.3,1.6,0.4,2.4c-2.3,0.4-4.6,0.8-6.9,1.3c-0.2-0.8-0.3-1.6-0.5-2.3
			c0.6-0.1,1.2-0.3,1.8-0.4c-0.6-3.1-1.3-6.1-1.9-9.2c-0.7,0.1-1.3,0.3-2,0.4c-0.2-0.8-0.3-1.6-0.5-2.3c3-0.7,6-1.2,9.1-1.7
			c2.9-0.4,4.6,1.2,4.9,3.3c0.2,1.6-0.5,2.8-2,3.8c0.9,1.3,1.9,2.6,2.8,3.9c0.6-0.1,1.2-0.1,1.8-0.2C58.4,21.4,58.5,22.2,58.6,23z
			 M50,15.6c1.6-0.3,2-1.2,1.9-2c-0.1-0.6-0.6-1.5-2-1.3c-0.6,0.1-1.3,0.2-1.9,0.3c0.2,1.1,0.4,2.1,0.6,3.2
			C49,15.8,49.5,15.7,50,15.6z"/>
		<path fill="#5D534D" d="M59.9,20.4c0.6-0.1,1.1-0.1,1.7-0.2c-0.3-3.1-0.5-6.2-0.8-9.3C60.2,11,59.6,11,59,11.1
			c-0.1-0.8-0.2-1.6-0.2-2.4c2.5-0.3,5.1-0.4,7.7-0.6c1.5-0.1,3,0,4,0.9c0.7,0.6,1.1,1.5,1.2,2.6c0,1.4-0.6,2.4-2,3
			c1.7,0.6,2.5,1.7,2.6,3.4c0,2.2-1.4,4.1-4.9,4.3c-2.4,0.1-4.8,0.3-7.1,0.5C60,22,60,21.2,59.9,20.4z M66.2,13.8
			c1.1-0.1,1.7-0.8,1.6-1.7c0-0.9-0.5-1.5-2-1.5c-0.4,0-0.9,0-1.3,0.1c0.1,1.1,0.1,2.1,0.2,3.2C65.2,13.8,65.7,13.8,66.2,13.8z
			 M66.5,19.9c1.6-0.1,2-0.9,1.9-2c0-1.3-1-1.9-2-1.8c-0.5,0-1,0.1-1.6,0.1c0.1,1.3,0.2,2.5,0.2,3.8C65.6,20,66.1,19.9,66.5,19.9z"
			/>
		<path fill="#5D534D" d="M74.9,19.8c0.5,0,1.1,0,1.6,0c0.1-3.1,0.1-6.2,0.2-9.4c-0.6,0-1.1,0-1.7,0c0-0.8,0-1.6,0-2.4
			c4.3,0,8.6,0.3,13,0.7c-0.1,1.5-0.3,3-0.4,4.5c-0.9-0.1-1.8-0.2-2.7-0.2c0.1-0.7,0.1-1.4,0.2-2.1c-1.5-0.1-3-0.2-4.5-0.3
			c-0.1,1.1-0.1,2.2-0.2,3.2c1.2,0.1,2.4,0.1,3.5,0.2c-0.1,0.8-0.1,1.6-0.2,2.4c-1.2-0.1-2.3-0.2-3.5-0.2c-0.1,1.2-0.1,2.5-0.2,3.7
			c1.4,0.1,2.8,0.2,4.2,0.3c0.1-0.7,0.1-1.4,0.2-2.1c0.9,0.1,1.7,0.1,2.6,0.2c-0.1,1.5-0.3,3-0.4,4.5c-3.9-0.4-7.8-0.6-11.7-0.7
			C74.8,21.4,74.9,20.6,74.9,19.8z"/>
		<path fill="#5D534D" d="M105.1,11.5c-0.4,1.6-0.7,3.2-1.1,4.9c-0.8-0.2-1.6-0.3-2.4-0.5c-0.1-0.7-0.4-1.6-0.7-1.9
			c-0.9-1-1.4-1.2-2.3-1.4c-2.6-0.5-4.6,1.2-5,4.1c-0.4,2.7,0.9,4.8,3.1,5.2c1.9,0.3,3.5-0.7,4.5-2.9c0.8,0.6,1.6,1.3,2.4,1.9
			c-1.8,3.5-5,4-7.6,3.5c-5.6-0.9-6.6-5.2-6.3-8.3c0.5-4.3,4-6.9,8.6-6.1c1.8,0.3,3.1,1,4.1,2.1c0.1-0.4,0.1-0.7,0.2-1.1
			C103.5,11.1,104.3,11.3,105.1,11.5z"/>
		<path fill="#5D534D" d="M107.9,12.1c2.2,0.5,4.5,1.1,6.7,1.8c-0.2,0.8-0.4,1.5-0.7,2.3c-0.4-0.1-0.8-0.2-1.2-0.4
			c-0.7,2.3-1.3,4.6-2,6.9c-0.4,1.3-0.2,2.4,1.1,2.7c1.1,0.3,2,0,2.5-1.6c0.7-2.3,1.5-4.7,2.2-7c-0.4-0.1-0.8-0.2-1.2-0.4
			c0.2-0.8,0.5-1.5,0.7-2.3c1.8,0.6,3.7,1.2,5.5,1.8c-0.3,0.8-0.5,1.5-0.8,2.3c-0.6-0.2-1.2-0.4-1.7-0.6c-0.8,2.5-1.7,5-2.5,7.5
			c-1.1,3.1-3.9,2.9-5.7,2.4c-2.5-0.7-4.4-2.3-3.6-5.7c0.6-2.4,1.2-4.8,1.8-7.2c-0.6-0.1-1.1-0.3-1.7-0.4
			C107.6,13.7,107.8,12.9,107.9,12.1z"/>
		<path fill="#5D534D" d="M119.6,28c0.5,0.2,1,0.4,1.5,0.6c1.1-2.9,2.2-5.8,3.3-8.8c-0.5-0.2-1.1-0.4-1.6-0.6
			c0.3-0.8,0.5-1.5,0.8-2.3c4.1,1.5,8.2,3.2,12.2,5.1c-0.6,1.4-1.3,2.7-1.9,4.1c-0.8-0.4-1.7-0.8-2.5-1.2c0.3-0.6,0.6-1.3,0.8-1.9
			c-1.4-0.6-2.8-1.2-4.2-1.8c-0.4,1-0.8,2-1.2,3c1.1,0.5,2.2,0.9,3.3,1.4c-0.3,0.7-0.6,1.5-1,2.2c-1.1-0.5-2.2-0.9-3.3-1.4
			c-0.5,1.1-0.9,2.3-1.4,3.4c1.3,0.5,2.6,1.1,4,1.7c0.3-0.6,0.6-1.3,0.9-1.9c0.8,0.4,1.6,0.7,2.4,1.1c-0.6,1.4-1.3,2.7-1.9,4.1
			c-3.6-1.7-7.3-3.3-11-4.6C119.1,29.5,119.3,28.7,119.6,28z"/>
	</g>
	<g display="inline">
		<path fill="#5D534D" d="M45.3,45h-1.4v1.2h1.6v0.6h-2.4v-4.1h2.4v0.6h-1.6v1h1.4V45z"/>
		<path fill="#5D534D" d="M48.9,45.7c0-0.2,0-0.3-0.1-0.4c-0.1-0.1-0.2-0.2-0.4-0.3c-0.4-0.1-0.7-0.3-1-0.5
			c-0.2-0.2-0.3-0.5-0.3-0.8c0-0.3,0.1-0.6,0.4-0.8c0.2-0.2,0.6-0.3,1-0.3c0.4,0,0.7,0.1,1,0.4c0.2,0.2,0.4,0.5,0.4,0.9l0,0h-0.8
			c0-0.2,0-0.3-0.1-0.5c-0.1-0.1-0.2-0.2-0.4-0.2c-0.2,0-0.3,0-0.4,0.1c-0.1,0.1-0.1,0.2-0.1,0.4c0,0.1,0,0.2,0.1,0.3
			c0.1,0.1,0.3,0.2,0.5,0.3c0.4,0.1,0.7,0.3,0.9,0.5c0.2,0.2,0.3,0.5,0.3,0.8c0,0.4-0.1,0.6-0.4,0.8c-0.2,0.2-0.6,0.3-0.9,0.3
			c-0.4,0-0.7-0.1-1-0.3c-0.3-0.2-0.4-0.6-0.4-1l0,0h0.8c0,0.3,0.1,0.4,0.2,0.5c0.1,0.1,0.3,0.2,0.5,0.2c0.2,0,0.3,0,0.4-0.1
			S48.9,45.9,48.9,45.7z"/>
		<path fill="#5D534D" d="M53.8,43.3h-0.9v3.5h-0.8v-3.5h-0.9v-0.6h2.6V43.3z"/>
	</g>
	<g display="inline">
		<path fill="#5D534D" d="M92.7,46.8h-0.8v-3.3l-0.8,0v-0.6l1.6-0.3V46.8z"/>
		<path fill="#5D534D" d="M96.1,46.2c0.2,0,0.3-0.1,0.4-0.2c0.1-0.2,0.2-0.4,0.2-0.7v-0.2c-0.1,0.1-0.2,0.2-0.3,0.2
			c-0.1,0.1-0.2,0.1-0.3,0.1c-0.3,0-0.6-0.1-0.8-0.4c-0.2-0.3-0.3-0.6-0.3-1c0-0.4,0.1-0.8,0.3-1c0.2-0.3,0.5-0.4,0.9-0.4
			c0.4,0,0.7,0.1,0.9,0.4c0.2,0.3,0.3,0.7,0.3,1.2v1c0,0.5-0.1,0.9-0.4,1.2c-0.3,0.3-0.6,0.4-1,0.4c-0.1,0-0.2,0-0.4,0
			c-0.1,0-0.2-0.1-0.4-0.1l0.1-0.6c0.1,0,0.2,0.1,0.3,0.1C95.8,46.2,96,46.2,96.1,46.2z M96.2,44.9c0.1,0,0.2,0,0.2-0.1
			c0.1,0,0.1-0.1,0.2-0.2v-0.5c0-0.3,0-0.5-0.1-0.7c-0.1-0.2-0.2-0.2-0.3-0.2h0c-0.1,0-0.2,0.1-0.3,0.2c-0.1,0.2-0.1,0.4-0.1,0.6
			c0,0.2,0,0.4,0.1,0.6C96,44.8,96.1,44.9,96.2,44.9z"/>
		<path fill="#5D534D" d="M100.1,46.2c0.2,0,0.3-0.1,0.4-0.2c0.1-0.2,0.2-0.4,0.2-0.7v-0.2c-0.1,0.1-0.2,0.2-0.3,0.2
			c-0.1,0.1-0.2,0.1-0.3,0.1c-0.3,0-0.6-0.1-0.8-0.4c-0.2-0.3-0.3-0.6-0.3-1c0-0.4,0.1-0.8,0.3-1c0.2-0.3,0.5-0.4,0.9-0.4
			c0.4,0,0.7,0.1,0.9,0.4c0.2,0.3,0.3,0.7,0.3,1.2v1c0,0.5-0.1,0.9-0.4,1.2c-0.3,0.3-0.6,0.4-1,0.4c-0.1,0-0.2,0-0.4,0
			c-0.1,0-0.3-0.1-0.4-0.1l0.1-0.6c0.1,0,0.2,0.1,0.3,0.1C99.9,46.2,100,46.2,100.1,46.2z M100.2,44.9c0.1,0,0.2,0,0.2-0.1
			c0.1,0,0.1-0.1,0.2-0.2v-0.5c0-0.3,0-0.5-0.1-0.7c-0.1-0.2-0.2-0.2-0.3-0.2h0c-0.1,0-0.2,0.1-0.3,0.2c-0.1,0.2-0.1,0.4-0.1,0.6
			c0,0.2,0,0.4,0.1,0.6C100,44.8,100.1,44.9,100.2,44.9z"/>
		<path fill="#5D534D" d="M103.2,45l0.2-2.3h2v0.7H104l-0.1,1c0.1-0.1,0.1-0.1,0.2-0.1c0.1,0,0.2-0.1,0.3-0.1c0.3,0,0.6,0.1,0.8,0.4
			c0.2,0.2,0.3,0.6,0.3,1c0,0.4-0.1,0.7-0.3,1c-0.2,0.3-0.5,0.4-0.9,0.4c-0.3,0-0.6-0.1-0.8-0.3c-0.2-0.2-0.4-0.5-0.3-0.9l0,0l0.8,0
			c0,0.2,0,0.3,0.1,0.4c0.1,0.1,0.2,0.2,0.3,0.2c0.1,0,0.2-0.1,0.3-0.2c0.1-0.1,0.1-0.3,0.1-0.5c0-0.2,0-0.4-0.1-0.6
			c-0.1-0.1-0.2-0.2-0.3-0.2c-0.1,0-0.2,0-0.3,0.1c-0.1,0.1-0.1,0.1-0.1,0.2L103.2,45z"/>
	</g>
	<g display="inline">
		<g>
			<rect x="3.5" y="49.9" fill="#5D534D" width="50.6" height="1.4"/>
		</g>
	</g>
	<g display="inline">
		<g>
			<rect x="90.9" y="49.9" fill="#5D534D" width="50.6" height="1.4"/>
		</g>
	</g>
	<path display="inline" fill="#5D534D" d="M85.9,47.4c-1.8-5.7-7-9.5-10.4-10.3c0,0,5.1,4.9-0.1,5c-5,0.1-8.6-12.7-2.2-13.4
		c0,0-3.2-2-6.1,0.6c-4.1,3.6-6.5,10-3,17.3c3.1,6.4-4.2,10-4.2,1.2c0-0.7-6.1,4.1-2.3,12.7c0.4,0.8,0.9,1.6,1.6,2.4
		c2.9,3.5,7.2,5.7,12,5.7c8.6,0,15.6-7,15.6-15.7C86.9,51,86.5,49.2,85.9,47.4z M79.6,61.1c-4.9,5.8-12.4,2.7-13.8,0.8
		c-3.3-4.5,6.8-9,6.8-13.5c0-1.5-2.2-2.5-2.2-2.5c5.1-0.8,8.1,4.6,8.2,4.1c0.4-2.2-0.9-3.3-0.9-3.3C79.5,47.6,84.9,54.8,79.6,61.1z"
		/>
</g>

</svg>
