<?xml version="1.0" encoding="utf-8"?>
<!-- Generator: Adobe Illustrator 18.0.0, SVG Export Plug-In . SVG Version: 6.00 Build 0)  -->
<!DOCTYPE svg PUBLIC "-//W3C//DTD SVG 1.1//EN" "http://www.w3.org/Graphics/SVG/1.1/DTD/svg11.dtd">
<svg version="1.1" id="Layer_1" xmlns="http://www.w3.org/2000/svg" xmlns:xlink="http://www.w3.org/1999/xlink" x="0px" y="0px"
	 viewBox="0 0 145 90" enable-background="new 0 0 145 90" xml:space="preserve">

<g>
	<g display="inline">
		<path fill="#5D534D" d="M6.3,51.9C6.6,52,6.9,52,7.1,52.2c0.2,0.1,0.5,0.2,0.7,0.3v0.8H1.5v-0.8c0.3-0.2,0.6-0.3,0.9-0.4
			c0.3-0.1,0.5-0.2,0.8-0.2V40.5c-0.7-0.1-1.2-0.3-1.7-0.6v-0.8h2.2c0.3,0,0.6,0,0.9,0c0.3,0,0.7,0,1.1-0.1c0.4,0,0.8,0,1.2-0.1
			c0.4,0,0.8,0,1.1,0c0.8,0,1.4,0.1,2.1,0.3c0.6,0.2,1.2,0.4,1.6,0.8c0.5,0.3,0.8,0.8,1.1,1.3c0.3,0.5,0.4,1.1,0.4,1.8
			c0,1-0.2,1.8-0.7,2.4c-0.5,0.6-1.1,1.1-2,1.4c0.5,0.8,1.1,1.7,1.7,2.6c0.6,0.9,1.3,1.7,1.9,2.5l1,0.6v0.7h-3.4l-0.9-0.7
			C10.2,51.8,9.7,51,9.2,50c-0.5-1-0.9-1.9-1.3-2.9H6.3V51.9z M7.3,40.3c-0.4,0-0.8,0-1,0.1V46h1.2c0.7,0,1.3-0.2,1.8-0.7
			c0.5-0.5,0.7-1.2,0.7-2.2c0-0.5-0.1-0.9-0.2-1.3c-0.1-0.4-0.3-0.6-0.6-0.9c-0.2-0.2-0.5-0.4-0.9-0.5C8,40.3,7.7,40.3,7.3,40.3z"/>
		<path fill="#5D534D" d="M27.1,39.1c0,0.6-0.1,1.2-0.1,1.9c-0.1,0.6-0.2,1.2-0.3,1.8h-0.8l-0.9-2.4h-3.8v4.9h2.5l0.9-1.6h0.7
			c0.1,0.7,0.1,1.4,0.1,2.2c0,0.8,0,1.6-0.1,2.3h-0.7l-0.9-1.6h-2.5v5.2h4l1.1-2.6H27c0.1,0.3,0.1,0.5,0.2,0.9
			c0.1,0.3,0.1,0.7,0.1,1c0,0.3,0.1,0.7,0.1,1c0,0.3,0,0.7,0,1H16.3v-0.8c0.2-0.1,0.5-0.2,0.8-0.3c0.3-0.1,0.6-0.2,0.9-0.2V40.5
			c-0.3-0.1-0.6-0.1-0.9-0.2c-0.3-0.1-0.6-0.2-0.8-0.4v-0.8H27.1z"/>
		<path fill="#5D534D" d="M32,51.6c0.1,0.1,0.4,0.3,0.6,0.4c0.3,0.1,0.6,0.2,1.1,0.2c0.8,0,1.4-0.2,1.9-0.6c0.5-0.4,0.7-0.9,0.7-1.6
			c0-0.5-0.2-0.9-0.5-1.2c-0.3-0.3-0.7-0.6-1.2-0.9c-0.5-0.3-1-0.6-1.6-0.8c-0.6-0.3-1.1-0.6-1.6-1c-0.5-0.4-0.9-0.8-1.2-1.3
			c-0.3-0.5-0.5-1.2-0.5-1.9c0-0.7,0.1-1.2,0.4-1.7c0.2-0.5,0.6-0.9,1-1.2c0.4-0.3,0.9-0.6,1.5-0.7c0.6-0.2,1.2-0.2,1.9-0.2
			c0.8,0,1.6,0.1,2.3,0.2c0.7,0.1,1.4,0.3,1.9,0.5c0,0.3,0,0.6-0.1,0.9c0,0.3-0.1,0.7-0.1,1c-0.1,0.3-0.1,0.7-0.2,1
			c-0.1,0.3-0.1,0.6-0.2,0.8h-0.8l-0.9-2.8c-0.2-0.1-0.4-0.2-0.7-0.2s-0.7-0.1-1-0.1c-0.6,0-1.1,0.1-1.5,0.4
			c-0.4,0.3-0.6,0.7-0.6,1.3c0,0.5,0.2,0.9,0.5,1.3c0.3,0.4,0.7,0.7,1.2,1c0.5,0.3,1,0.6,1.6,0.9c0.6,0.3,1.1,0.6,1.6,1
			c0.5,0.4,0.9,0.8,1.2,1.3c0.3,0.5,0.5,1.1,0.5,1.9c0,1.3-0.5,2.4-1.4,3.1c-0.9,0.7-2.3,1.1-4.1,1.1c-0.4,0-0.9,0-1.3-0.1
			c-0.4-0.1-0.9-0.1-1.3-0.2c-0.4-0.1-0.7-0.2-1.1-0.3c-0.3-0.1-0.5-0.2-0.7-0.3c0-0.3,0-0.6,0.1-1c0.1-0.4,0.1-0.7,0.2-1.1
			c0.1-0.4,0.1-0.7,0.2-1c0.1-0.3,0.1-0.6,0.2-0.8h0.8L32,51.6z"/>
		<path fill="#5D534D" d="M51.1,53.2h-7.1v-0.8c0.3-0.1,0.6-0.2,0.9-0.3c0.3-0.1,0.7-0.2,1.1-0.3V40.4h-2.4l-1.3,3.4h-0.8
			c-0.1-0.3-0.1-0.6-0.2-1c-0.1-0.4-0.1-0.8-0.1-1.3c0-0.4-0.1-0.9-0.1-1.3c0-0.4,0-0.8,0-1.1h13.1c0,0.3,0,0.7,0,1.1
			c0,0.4-0.1,0.9-0.1,1.3c0,0.4-0.1,0.9-0.1,1.3c-0.1,0.4-0.1,0.8-0.2,1h-0.9l-1.3-3.4h-2.4v11.4c0.4,0.1,0.7,0.1,1.1,0.2
			c0.3,0.1,0.7,0.2,0.9,0.3V53.2z"/>
		<path fill="#5D534D" d="M58.2,53.2h-5.1v-0.8c0.2-0.1,0.5-0.3,0.7-0.4c0.3-0.1,0.5-0.2,0.7-0.2l5.3-13h1.5l5.2,13
			c0.3,0.1,0.5,0.1,0.8,0.2c0.3,0.1,0.5,0.2,0.7,0.4v0.8h-6.4v-0.8c0.3-0.1,0.5-0.2,0.8-0.3c0.3-0.1,0.6-0.2,0.9-0.2l-1.2-3.2h-4.6
			l-1.2,3.2c0.6,0.1,1.2,0.3,1.8,0.6V53.2z M58.1,47.4h3.6l-1.3-3.8L60,41.8h0l-0.5,1.8L58.1,47.4z"/>
		<path fill="#5D534D" d="M68.7,39.1h6.3v0.8c-0.5,0.3-1,0.5-1.6,0.6v7.8c0,0.7,0.1,1.2,0.2,1.7c0.2,0.4,0.4,0.8,0.7,1.1
			c0.3,0.3,0.6,0.5,1,0.6c0.4,0.1,0.9,0.2,1.4,0.2c0.5,0,0.9-0.1,1.2-0.2c0.4-0.1,0.7-0.3,1-0.6c0.3-0.3,0.5-0.7,0.6-1.1
			c0.1-0.5,0.2-1,0.2-1.7v-7.6c-0.3-0.1-0.6-0.2-1-0.3c-0.3-0.1-0.6-0.3-0.8-0.4v-0.8h5.1v0.8c-0.2,0.2-0.5,0.3-0.8,0.4
			c-0.3,0.1-0.6,0.2-0.9,0.3v7.6c0,1.7-0.5,3-1.4,3.9c-0.9,0.9-2.2,1.3-3.9,1.3c-1.8,0-3.2-0.4-4.2-1.2c-1-0.8-1.5-2.1-1.5-3.9v-7.9
			c-0.3,0-0.6-0.1-0.9-0.2c-0.3-0.1-0.6-0.2-0.8-0.4V39.1z"/>
		<path fill="#5D534D" d="M88.9,51.9c0.3,0.1,0.6,0.2,0.8,0.3c0.2,0.1,0.5,0.2,0.7,0.3v0.8h-6.3v-0.8c0.3-0.2,0.6-0.3,0.9-0.4
			c0.3-0.1,0.5-0.2,0.8-0.2V40.5c-0.7-0.1-1.2-0.3-1.7-0.6v-0.8h2.2c0.3,0,0.6,0,0.9,0c0.3,0,0.7,0,1.1-0.1c0.4,0,0.8,0,1.2-0.1
			c0.4,0,0.8,0,1.1,0c0.8,0,1.4,0.1,2.1,0.3c0.6,0.2,1.2,0.4,1.6,0.8c0.5,0.3,0.8,0.8,1.1,1.3c0.3,0.5,0.4,1.1,0.4,1.8
			c0,1-0.2,1.8-0.7,2.4c-0.5,0.6-1.1,1.1-2,1.4c0.5,0.8,1.1,1.7,1.7,2.6c0.6,0.9,1.3,1.7,1.9,2.5l1,0.6v0.7h-3.4l-0.9-0.7
			c-0.6-0.7-1.2-1.6-1.7-2.6c-0.5-1-0.9-1.9-1.3-2.9h-1.7V51.9z M90,40.3c-0.4,0-0.8,0-1,0.1V46h1.2c0.7,0,1.3-0.2,1.8-0.7
			c0.5-0.5,0.7-1.2,0.7-2.2c0-0.5-0.1-0.9-0.2-1.3c-0.1-0.4-0.3-0.6-0.6-0.9c-0.2-0.2-0.5-0.4-0.9-0.5C90.7,40.3,90.4,40.3,90,40.3z
			"/>
		<path fill="#5D534D" d="M103.7,53.2h-5.1v-0.8c0.2-0.1,0.5-0.3,0.7-0.4c0.3-0.1,0.5-0.2,0.7-0.2l5.3-13h1.5l5.2,13
			c0.3,0.1,0.5,0.1,0.8,0.2c0.3,0.1,0.5,0.2,0.7,0.4v0.8h-6.4v-0.8c0.3-0.1,0.5-0.2,0.8-0.3c0.3-0.1,0.6-0.2,0.9-0.2l-1.2-3.2h-4.6
			l-1.2,3.2c0.6,0.1,1.2,0.3,1.8,0.6V53.2z M103.6,47.4h3.6l-1.3-3.8l-0.4-1.7h0l-0.5,1.8L103.6,47.4z"/>
		<path fill="#5D534D" d="M124.1,39.1h5.1v0.8c-0.3,0.2-0.5,0.4-0.9,0.5c-0.3,0.2-0.6,0.3-0.9,0.4v12.7h-1.7l-7.2-10.3l-0.8-1.6
			h-0.1l0.2,1.6v8.4c0.3,0.1,0.6,0.2,0.9,0.3c0.3,0.2,0.6,0.3,0.9,0.5v0.8h-5.1v-0.8c0.2-0.2,0.5-0.3,0.8-0.5
			c0.3-0.1,0.6-0.3,0.9-0.4v-11c-0.3-0.1-0.5-0.2-0.8-0.4c-0.3-0.1-0.5-0.3-0.7-0.4v-0.8h4.4l5.9,8.4l0.9,1.7h0.1l-0.1-1.7v-6.7
			c-0.3-0.1-0.6-0.2-1-0.4c-0.3-0.2-0.6-0.3-0.8-0.5V39.1z"/>
		<path fill="#5D534D" d="M140.5,53.2h-7.1v-0.8c0.3-0.1,0.6-0.2,0.9-0.3c0.3-0.1,0.7-0.2,1.1-0.3V40.4H133l-1.3,3.4h-0.8
			c-0.1-0.3-0.1-0.6-0.2-1c-0.1-0.4-0.1-0.8-0.1-1.3c0-0.4-0.1-0.9-0.1-1.3c0-0.4,0-0.8,0-1.1h13.1c0,0.3,0,0.7,0,1.1
			c0,0.4-0.1,0.9-0.1,1.3c0,0.4-0.1,0.9-0.1,1.3c-0.1,0.4-0.1,0.8-0.2,1h-0.9l-1.3-3.4h-2.4v11.4c0.4,0.1,0.7,0.1,1.1,0.2
			c0.3,0.1,0.7,0.2,0.9,0.3V53.2z"/>
	</g>
	<g display="inline">
		<path fill="#5D534D" d="M35.5,72.7c-0.3-0.2-0.6-0.4-0.9-0.6c1.2-1.8,2.3-3.6,3.5-5.4c0.3,0.2,0.6,0.3,0.8,0.5
			C37.7,69.1,36.6,70.9,35.5,72.7z"/>
		<path fill="#5D534D" d="M42.3,76.3c-0.3-0.1-0.6-0.3-1-0.5c-0.2-1.8-0.2-3.7-0.3-5.5c0,0,0,0,0,0c-0.8,1.4-1.5,2.8-2.3,4.2
			c-0.3-0.2-0.6-0.3-0.9-0.5c1.1-1.9,2.1-3.7,3.2-5.6c0.3,0.2,0.6,0.3,0.9,0.5c0,1.8,0.1,3.6,0.2,5.4c0,0,0,0,0,0
			c0.7-1.4,1.4-2.8,2.1-4.2c0.3,0.1,0.6,0.3,0.9,0.4C44.1,72.5,43.2,74.4,42.3,76.3z"/>
		<path fill="#5D534D" d="M50.5,73.5c-0.6-0.2-1.1-0.4-1.7-0.6c-0.7,1.8-1.4,3.5-2.1,5.3c-0.3-0.1-0.7-0.3-1-0.4
			c0.7-1.8,1.5-3.5,2.2-5.3c-0.5-0.2-1.1-0.4-1.6-0.7c0.1-0.2,0.2-0.4,0.3-0.6c1.4,0.6,2.8,1.1,4.2,1.6
			C50.7,73.1,50.6,73.3,50.5,73.5z"/>
		<path fill="#5D534D" d="M54.9,77.7c-0.9-0.2-1.7-0.5-2.6-0.7c-0.2,0.7-0.5,1.5-0.7,2.2c1,0.3,2,0.6,3.1,0.9
			c-0.1,0.2-0.1,0.4-0.2,0.7c-1.4-0.4-2.7-0.8-4.1-1.2c0.7-2,1.4-4,2-6.1c1.2,0.4,2.5,0.8,3.7,1.1C56.1,74.7,56,75,56,75.2
			c-0.9-0.2-1.9-0.5-2.8-0.8c-0.2,0.7-0.4,1.3-0.6,2c0.8,0.3,1.7,0.5,2.5,0.7C55,77.3,54.9,77.5,54.9,77.7z"/>
		<path fill="#5D534D" d="M58.1,78.7c-0.2,0.9-0.4,1.8-0.6,2.7c-0.3-0.1-0.7-0.1-1-0.2c0.5-2.1,1-4.1,1.5-6.2
			c0.7,0.2,1.4,0.3,2.1,0.4c0.6,0.1,1.1,0.4,1.4,0.7c0.3,0.4,0.4,0.8,0.3,1.4c-0.1,0.3-0.2,0.6-0.4,0.8c-0.2,0.2-0.5,0.4-0.8,0.4
			c0.3,0.2,0.6,0.4,0.7,0.7c0.1,0.3,0.1,0.6,0.1,1c0,0.2-0.1,0.4-0.1,0.5c0,0.2,0,0.4,0,0.5c0,0.2,0.1,0.3,0.2,0.4c0,0,0,0.1,0,0.1
			c-0.4-0.1-0.7-0.1-1.1-0.2c-0.1-0.1-0.1-0.3-0.1-0.5c0-0.2,0-0.4,0.1-0.6c0-0.2,0.1-0.4,0.1-0.5c0.1-0.4,0-0.6-0.1-0.9
			c-0.1-0.2-0.4-0.4-0.7-0.4C59,78.9,58.5,78.8,58.1,78.7z M58.2,78.1c0.4,0.1,0.8,0.2,1.1,0.2c0.4,0.1,0.7,0,0.9-0.1
			c0.2-0.2,0.4-0.4,0.4-0.8c0.1-0.4,0-0.7-0.1-0.9c-0.1-0.2-0.4-0.4-0.7-0.4c-0.4-0.1-0.8-0.2-1.2-0.2
			C58.6,76.6,58.4,77.3,58.2,78.1z"/>
		<path fill="#5D534D" d="M68.3,82.9c-0.3,0-0.7,0-1-0.1c-0.8-1.6-1.6-3.3-2.3-5c0,0,0,0,0,0c-0.2,1.6-0.4,3.1-0.6,4.7
			c-0.3,0-0.7-0.1-1-0.1c0.3-2.1,0.6-4.2,0.8-6.3c0.3,0,0.6,0.1,0.9,0.1c0.7,1.7,1.4,3.3,2.2,5c0,0,0,0,0,0c0.1-1.6,0.2-3.1,0.4-4.7
			c0.3,0,0.6,0,0.9,0.1C68.6,78.6,68.4,80.8,68.3,82.9z"/>
		<path fill="#5D534D" d="M74.2,81.4c-0.8,0-1.5,0-2.3,0c-0.2,0.5-0.4,1.1-0.6,1.6c-0.4,0-0.7,0-1.1,0c0.8-2.1,1.6-4.2,2.3-6.3
			c0.3,0,0.6,0,0.9,0c0.7,2.1,1.5,4.2,2.4,6.3c-0.4,0-0.7,0-1.1,0C74.6,82.4,74.4,81.9,74.2,81.4z M72.2,80.7c0.6,0,1.2,0,1.8,0
			c-0.3-0.9-0.6-1.8-0.9-2.8c0,0,0,0,0,0C72.8,78.8,72.5,79.8,72.2,80.7z"/>
		<path fill="#5D534D" d="M80.7,76.8c-0.6,0.1-1.2,0.1-1.7,0.2c0.2,1.9,0.4,3.8,0.6,5.7c-0.3,0-0.7,0.1-1,0.1
			c-0.2-1.9-0.3-3.8-0.5-5.7c-0.6,0-1.2,0.1-1.7,0.1c0-0.2,0-0.4,0-0.7c1.5-0.1,2.9-0.2,4.4-0.4C80.6,76.4,80.7,76.6,80.7,76.8z"/>
		<path fill="#5D534D" d="M84.4,82.1c-0.3,0.1-0.7,0.1-1,0.2c-0.3-2.1-0.7-4.2-1-6.3c0.3,0,0.6-0.1,0.9-0.1
			C83.7,77.9,84.1,80,84.4,82.1z"/>
		<path fill="#5D534D" d="M91,78.3c0.2,0.7,0.1,1.4-0.2,1.9c-0.3,0.5-0.9,0.9-1.6,1.1c-0.7,0.2-1.4,0.1-1.9-0.2
			c-0.5-0.3-0.9-0.9-1-1.6c-0.1-0.6-0.2-1.1-0.4-1.7c-0.2-0.7-0.1-1.4,0.3-1.9c0.3-0.5,0.8-0.8,1.5-1c0.7-0.2,1.3-0.1,1.8,0.2
			c0.5,0.3,0.9,0.8,1.1,1.5C90.7,77.1,90.8,77.7,91,78.3z M89.5,76.8c-0.1-0.5-0.4-0.9-0.7-1.1c-0.3-0.2-0.7-0.3-1.1-0.2
			c-0.4,0.1-0.7,0.3-0.9,0.6c-0.2,0.3-0.2,0.8-0.1,1.3c0.1,0.6,0.3,1.1,0.4,1.7c0.1,0.5,0.3,0.9,0.6,1.2c0.3,0.2,0.7,0.3,1.1,0.2
			c0.5-0.1,0.8-0.3,1-0.7c0.2-0.3,0.2-0.8,0-1.3C89.9,78,89.7,77.4,89.5,76.8z"/>
		<path fill="#5D534D" d="M98.5,78.2c-0.3,0.1-0.7,0.2-1,0.4c-1.5-1.2-2.9-2.3-4.2-3.6c0,0,0,0,0,0c0.5,1.5,1,3,1.5,4.5
			c-0.3,0.1-0.7,0.2-1,0.3c-0.6-2-1.3-4.1-1.9-6.1c0.3-0.1,0.6-0.2,0.9-0.3c1.3,1.2,2.7,2.4,4.1,3.6c0,0,0,0,0,0
			c-0.6-1.5-1.1-2.9-1.7-4.4c0.3-0.1,0.6-0.2,0.9-0.3C96.9,74.3,97.7,76.3,98.5,78.2z"/>
		<path fill="#5D534D" d="M103.3,74.4c-0.7,0.3-1.4,0.7-2.1,1c0.1,0.6,0.1,1.1,0.2,1.7c-0.3,0.1-0.7,0.3-1,0.4
			c-0.1-2.3-0.3-4.5-0.6-6.7c0.3-0.1,0.6-0.3,0.8-0.4c1.6,1.6,3.2,3.2,4.9,4.7c-0.3,0.2-0.6,0.3-1,0.5
			C104.2,75.2,103.8,74.8,103.3,74.4z M101.1,74.6c0.6-0.3,1.1-0.5,1.7-0.8c-0.7-0.7-1.4-1.4-2-2.1c0,0,0,0,0,0
			C100.9,72.7,101,73.7,101.1,74.6z"/>
		<path fill="#5D534D" d="M107.8,73.1c0.9-0.5,1.7-1,2.6-1.5c0.1,0.2,0.2,0.4,0.4,0.6c-1.2,0.7-2.3,1.4-3.5,2.1
			c-1.1-1.9-2.1-3.7-3.2-5.6c0.3-0.2,0.6-0.3,0.8-0.5C105.9,69.8,106.9,71.4,107.8,73.1z"/>
	</g>
	<g display="inline">
		<g>
			<path fill="#5D534D" d="M78.9,19.9c0-1.2-0.4-1.9-1.2-1.9c0.1-0.3,0.3-0.4,0.6-0.4c0.7,0,1.2,0.4,1.4,1.3
				c0.1,0.3,0.1,0.6,0.1,0.9c0,0.7-0.2,1.5-0.7,2.3c-0.9,1.5-2.3,2.5-4.2,2.8C74.5,25,74.1,25,73.6,25c-0.5,0-0.8,0-1,0
				c-0.1,1.6-0.7,2.9-1.7,4.1c1.4,1.5,2.9,2.2,4.4,2.2c0.9,0,1.6-0.2,2.1-0.5c0.5-0.4,0.7-0.8,0.7-1.2c0-0.1,0-0.1,0.1-0.1
				c0.1,0,0.1,0,0.2,0c0.1,0,0.1,0.1,0.1,0.2c0,0.5-0.3,1-0.8,1.5c-0.5,0.5-1.3,0.7-2.3,0.7c-1.6,0-3.3-0.7-4.9-2.2
				c-1.2,1-2.6,1.6-4.3,1.6c-1.3,0-2.2-0.3-2.9-0.9c-0.6-0.6-1-1.3-1-2.3s0.3-1.9,1-2.7c0.7-0.8,1.6-1.6,2.7-2.4
				c-0.3-1-0.5-1.9-0.5-2.6c0-0.7,0.1-1.4,0.3-2c0.2-0.6,0.6-1,1.1-1.4c0.6-0.3,1.2-0.5,2.1-0.5s1.4,0.2,1.8,0.5
				c0.4,0.4,0.6,0.8,0.6,1.4c0,0.4-0.1,0.7-0.2,1c-0.1,0.2-0.3,0.4-0.3,0.6c-0.1,0.1-0.2,0.3-0.4,0.5c-0.2,0.2-0.3,0.3-0.5,0.4
				c-0.1,0.1-0.3,0.3-0.6,0.5c-0.3,0.2-0.5,0.3-0.6,0.4c-0.1,0.1-0.3,0.2-0.6,0.4c-0.3,0.2-0.5,0.4-0.6,0.4c0.6,2.3,1.6,4.3,3.1,6
				c0.9-1,1.4-2.3,1.6-3.8c-1.1-0.3-1.6-0.9-1.6-1.6c0-0.3,0.2-0.6,0.5-0.7c0.2-0.1,0.4-0.1,0.6-0.1c0.3,0,0.5,0.2,0.7,0.6
				c0.2,0.4,0.3,0.9,0.3,1.5c0.3,0,0.5,0.1,0.9,0.1c2.1,0,3.7-0.8,4.7-2.3C78.7,21.5,78.9,20.7,78.9,19.9z M66.2,30.6
				c1.5,0,2.8-0.5,3.8-1.4c-1.6-1.6-2.9-3.5-3.7-5.7c-1.8,1.4-2.7,3-2.7,4.7c0,0.7,0.2,1.3,0.6,1.7C64.6,30.4,65.2,30.6,66.2,30.6z
				 M69.4,17c-1.5,0-2.2,1-2.2,3.1c0,0.6,0.1,1.2,0.2,1.9c1.1-0.7,1.9-1.4,2.5-1.9c0.6-0.5,0.8-1.2,0.8-1.8
				C70.6,17.4,70.2,17,69.4,17z M71.5,22.9c-0.3,0-0.4,0.2-0.4,0.5c0,0.4,0.4,0.7,1.1,0.9C72.1,23.4,71.9,22.9,71.5,22.9z"/>
		</g>
		<g>
			<path fill="#5D534D" d="M47.1,24.7h-1.3v1.5h-0.7v-3.7h2.2v0.6h-1.5v1h1.3V24.7z"/>
			<path fill="#5D534D" d="M51.3,24.9c0,0.4-0.1,0.8-0.4,1c-0.2,0.2-0.6,0.4-1,0.4c-0.4,0-0.7-0.1-1-0.4c-0.2-0.2-0.4-0.6-0.4-1v-1
				c0-0.4,0.1-0.8,0.4-1c0.2-0.2,0.6-0.4,0.9-0.4s0.7,0.1,1,0.4c0.2,0.2,0.4,0.6,0.4,1V24.9z M50.6,23.9c0-0.3-0.1-0.5-0.1-0.6
				c-0.1-0.1-0.2-0.2-0.4-0.2c-0.2,0-0.3,0.1-0.4,0.2c-0.1,0.1-0.1,0.3-0.1,0.6v1c0,0.3,0,0.5,0.1,0.6c0.1,0.1,0.2,0.2,0.4,0.2
				c0.2,0,0.3-0.1,0.4-0.2c0.1-0.1,0.1-0.3,0.1-0.6V23.9z"/>
			<path fill="#5D534D" d="M55.4,24.9c0,0.4-0.1,0.8-0.4,1c-0.2,0.2-0.6,0.4-1,0.4c-0.4,0-0.7-0.1-1-0.4c-0.2-0.2-0.4-0.6-0.4-1v-1
				c0-0.4,0.1-0.8,0.4-1c0.2-0.2,0.6-0.4,0.9-0.4s0.7,0.1,1,0.4c0.2,0.2,0.4,0.6,0.4,1V24.9z M54.7,23.9c0-0.3-0.1-0.5-0.1-0.6
				c-0.1-0.1-0.2-0.2-0.4-0.2c-0.2,0-0.3,0.1-0.4,0.2c-0.1,0.1-0.1,0.3-0.1,0.6v1c0,0.3,0,0.5,0.1,0.6c0.1,0.1,0.2,0.2,0.4,0.2
				c0.2,0,0.3-0.1,0.4-0.2c0.1-0.1,0.1-0.3,0.1-0.6V23.9z"/>
			<path fill="#5D534D" d="M56.9,26.2v-3.7h1.1c0.4,0,0.7,0.1,1,0.4c0.3,0.3,0.4,0.7,0.4,1.1v0.6c0,0.5-0.1,0.8-0.4,1.1
				c-0.3,0.3-0.6,0.4-1,0.4H56.9z M57.7,23.1v2.5H58c0.2,0,0.4-0.1,0.5-0.3c0.1-0.2,0.2-0.4,0.2-0.7v-0.6c0-0.3-0.1-0.5-0.2-0.7
				s-0.3-0.3-0.5-0.3H57.7z"/>
		</g>
		<g>
			<path fill="#5D534D" d="M82.1,26.2v-3.7h1.1c0.4,0,0.7,0.1,1,0.4c0.3,0.3,0.4,0.7,0.4,1.1v0.6c0,0.5-0.1,0.8-0.4,1.1
				c-0.3,0.3-0.6,0.4-1,0.4H82.1z M82.8,23.1v2.5h0.4c0.2,0,0.4-0.1,0.5-0.3c0.1-0.2,0.2-0.4,0.2-0.7v-0.6c0-0.3-0.1-0.5-0.2-0.7
				c-0.1-0.2-0.3-0.3-0.5-0.3H82.8z"/>
			<path fill="#5D534D" d="M86.8,24.8v1.5h-0.7v-3.7h1.2c0.4,0,0.7,0.1,0.9,0.3c0.2,0.2,0.3,0.5,0.3,0.8c0,0.2,0,0.4-0.1,0.5
				c-0.1,0.1-0.2,0.2-0.4,0.3c0.2,0.1,0.3,0.2,0.4,0.3c0.1,0.1,0.1,0.3,0.1,0.6v0.3c0,0.1,0,0.2,0,0.3c0,0.1,0.1,0.2,0.1,0.3v0.1H88
				c-0.1-0.1-0.1-0.1-0.1-0.3c0-0.1,0-0.2,0-0.4v-0.3c0-0.2,0-0.3-0.1-0.4c-0.1-0.1-0.2-0.2-0.3-0.2H86.8z M86.8,24.2h0.5
				c0.1,0,0.3,0,0.3-0.1c0.1-0.1,0.1-0.2,0.1-0.4c0-0.2,0-0.3-0.1-0.4c-0.1-0.1-0.2-0.1-0.3-0.1h-0.5V24.2z"/>
			<path fill="#5D534D" d="M90.9,26.2h-0.7v-3.7h0.7V26.2z"/>
			<path fill="#5D534D" d="M95.2,26.2h-0.7l-1.1-2.4l0,0v2.4h-0.7v-3.7h0.7l1.1,2.4l0,0v-2.3h0.7V26.2z"/>
			<path fill="#5D534D" d="M97.9,24.7h-0.3v1.5h-0.7v-3.7h0.7V24h0.2l0.7-1.5h0.9l-1,1.7l1.1,2h-0.9L97.9,24.7z"/>
		</g>
		<polygon fill="#5D534D" points="71,7 71.4,8.1 72.6,8.1 71.6,8.9 72,10 71,9.3 70,10 70.4,8.9 69.4,8.1 70.6,8.1 		"/>
		<g>
			<polygon fill="#5D534D" points="78.4,9.9 78.8,11 80,11 79.1,11.7 79.4,12.9 78.4,12.2 77.4,12.9 77.8,11.7 76.8,11 78.1,11 			
				"/>
			<polygon fill="#5D534D" points="63.6,9.9 63.9,11 65.2,11 64.2,11.7 64.6,12.9 63.6,12.2 62.6,12.9 62.9,11.7 62,11 63.2,11 			
				"/>
		</g>
		<g>
			<polygon fill="#5D534D" points="84,14.7 84.4,15.8 85.7,15.8 84.7,16.5 85,17.7 84,17 83.1,17.7 83.4,16.5 82.4,15.8 83.7,15.8 
							"/>
			<polygon fill="#5D534D" points="58,14.7 58.3,15.8 59.6,15.8 58.6,16.5 58.9,17.7 58,17 57,17.7 57.3,16.5 56.3,15.8 57.6,15.8 
							"/>
		</g>
	</g>
	<g display="inline">
		<g>
			<rect x="59.6" y="60.8" fill="#5D534D" width="26.1" height="1"/>
		</g>
		<g>
			<rect x="72.2" y="61" fill="#5D534D" width="1" height="9"/>
		</g>
		<g>
			<g>
				<g>
					<rect x="68.3" y="61" fill="#5D534D" width="0.9" height="7.3"/>
				</g>
				<g>
					<rect x="76.2" y="61" fill="#5D534D" width="0.9" height="7.3"/>
				</g>
			</g>
			<g>
				<g>
					<rect x="68.2" y="61" fill="#5D534D" width="1" height="7.3"/>
				</g>
				<g>
					<rect x="76.2" y="61" fill="#5D534D" width="1" height="7.3"/>
				</g>
			</g>
		</g>
		<g>
			<g>
				<g>
					<rect x="63.7" y="61" fill="#5D534D" width="1" height="4.6"/>
				</g>
				<g>
					<rect x="80.6" y="61" fill="#5D534D" width="1" height="4.6"/>
				</g>
			</g>
			<g>
				<g>
					<rect x="63.7" y="61" fill="#5D534D" width="1" height="4.6"/>
				</g>
				<g>
					<rect x="80.6" y="61" fill="#5D534D" width="1" height="4.6"/>
				</g>
			</g>
		</g>
	</g>
</g>

</svg>
