<?xml version="1.0" encoding="utf-8"?>
<!-- Generator: Adobe Illustrator 18.0.0, SVG Export Plug-In . SVG Version: 6.00 Build 0)  -->
<!DOCTYPE svg PUBLIC "-//W3C//DTD SVG 1.1//EN" "http://www.w3.org/Graphics/SVG/1.1/DTD/svg11.dtd">
<svg version="1.1" id="Layer_1" xmlns="http://www.w3.org/2000/svg" xmlns:xlink="http://www.w3.org/1999/xlink" x="0px" y="0px"
	 viewBox="0 0 145 90" enable-background="new 0 0 145 90" xml:space="preserve">

<g>
	<path display="inline" fill-rule="evenodd" clip-rule="evenodd" fill="#FFFFFF" d="M72.5,5.9C54,5.9,37.9,15.6,28.8,30h16.8
		c6.9-6.8,16.4-11,26.9-11c10.5,0,20,4.2,26.9,11h16.8C107.1,15.6,90.9,5.9,72.5,5.9z"/>
	<path display="inline" fill="#373737" d="M15,44.5h4.1v-3.6H15V44.5L15,44.5z M15,46.5L15,46.5v4.6h-2v-6.6v-5.6h2h4.1
		c0.3,0,0.6,0.1,0.8,0.2c0.3,0.1,0.5,0.2,0.7,0.4c0.2,0.2,0.3,0.4,0.4,0.7c0.1,0.3,0.2,0.5,0.2,0.8v3.6c0,0.3-0.1,0.5-0.2,0.8
		c-0.1,0.3-0.3,0.5-0.4,0.7c-0.2,0.2-0.4,0.3-0.7,0.4c-0.2,0.1-0.5,0.2-0.8,0.2h-0.1l2.2,4.6H19l-2.2-4.6H15L15,46.5z M27,40.9
		L27,40.9V44h4.1v2H27v3.1h5.1v2h-7.2V38.9h7.2v2H27L27,40.9z M35.8,38.9L35.8,38.9H44v2h-3.1v10.2h-2.1V40.9h-3.1V38.9L35.8,38.9z
		 M49.7,44.5L49.7,44.5h4.1v-3.6h-4.1V44.5L49.7,44.5z M49.7,46.5L49.7,46.5v4.6h-2.1v-6.6v-5.6h2.1h4.1c0.3,0,0.6,0.1,0.8,0.2
		c0.3,0.1,0.5,0.2,0.7,0.4c0.2,0.2,0.3,0.4,0.4,0.7c0.1,0.3,0.2,0.5,0.2,0.8v3.6c0,0.3-0.1,0.5-0.2,0.8c-0.1,0.3-0.3,0.5-0.4,0.7
		c-0.2,0.2-0.4,0.3-0.7,0.4c-0.2,0.1-0.5,0.2-0.8,0.2h-0.1l2.2,4.6h-2.3l-2.2-4.6H49.7L49.7,46.5z M61.6,49.1L61.6,49.1h4.1v-8.2
		h-4.1V49.1L61.6,49.1z M61.6,51.1L61.6,51.1c-0.3,0-0.5-0.1-0.8-0.2c-0.2-0.1-0.5-0.3-0.7-0.4c-0.2-0.2-0.3-0.4-0.4-0.7
		c-0.1-0.2-0.2-0.5-0.2-0.8v-8.2c0-0.3,0.1-0.5,0.2-0.8c0.1-0.2,0.2-0.5,0.4-0.7c0.2-0.2,0.4-0.3,0.7-0.4c0.3-0.1,0.5-0.2,0.8-0.2
		h4.1c0.3,0,0.6,0.1,0.8,0.2c0.3,0.1,0.5,0.2,0.7,0.4c0.2,0.2,0.3,0.4,0.4,0.7c0.1,0.3,0.2,0.5,0.2,0.8v8.2c0,0.3-0.1,0.5-0.2,0.8
		c-0.1,0.3-0.3,0.5-0.4,0.7c-0.2,0.2-0.4,0.3-0.7,0.4c-0.2,0.1-0.5,0.2-0.8,0.2H61.6L61.6,51.1z M77.6,51.1L77.6,51.1h-6.2V38.9h6.2
		c0.3,0,0.5,0.1,0.8,0.2c0.2,0.1,0.5,0.2,0.7,0.4c0.2,0.2,0.3,0.4,0.4,0.7c0.1,0.3,0.2,0.5,0.2,0.8v8.2c0,0.3-0.1,0.5-0.2,0.8
		c-0.1,0.3-0.2,0.5-0.4,0.7c-0.2,0.2-0.4,0.3-0.7,0.4C78.2,51.1,77.9,51.1,77.6,51.1L77.6,51.1z M73.5,49.1L73.5,49.1h4.1v-8.2h-4.1
		V49.1L73.5,49.1z M85.4,40.9L85.4,40.9V44h4.1v2h-4.1v3.1h5.1v2h-7.2V38.9h7.2v2H85.4L85.4,40.9z M100.7,45L100.7,45
		c0.2,0.1,0.5,0.2,0.7,0.4c0.2,0.1,0.4,0.3,0.6,0.4c0.2,0.2,0.3,0.3,0.4,0.6c0.1,0.2,0.2,0.4,0.2,0.7v2c0,0.3-0.1,0.5-0.2,0.8
		c-0.1,0.3-0.3,0.5-0.4,0.7c-0.2,0.2-0.4,0.3-0.7,0.4c-0.2,0.1-0.5,0.2-0.8,0.2h-4.1c-0.3,0-0.5-0.1-0.8-0.2
		c-0.3-0.1-0.5-0.3-0.7-0.4c-0.2-0.2-0.3-0.4-0.4-0.7c-0.1-0.2-0.2-0.5-0.2-0.8v-1.5h2.1v1.5h4.1v-2L96,45c-0.2-0.1-0.4-0.2-0.7-0.3
		c-0.2-0.1-0.4-0.3-0.6-0.4c-0.2-0.2-0.3-0.3-0.4-0.5c-0.1-0.2-0.2-0.5-0.2-0.7v-2.1c0-0.3,0.1-0.5,0.2-0.8c0.1-0.2,0.2-0.5,0.4-0.7
		c0.2-0.2,0.4-0.3,0.7-0.4c0.3-0.1,0.5-0.2,0.8-0.2h4.1c0.3,0,0.6,0.1,0.8,0.2c0.3,0.1,0.5,0.2,0.7,0.4c0.2,0.2,0.3,0.4,0.4,0.7
		c0.1,0.3,0.2,0.5,0.2,0.8v1.5h-2.1v-1.5h-4.1v2L100.7,45L100.7,45z M106.1,38.9L106.1,38.9h2v12.2h-2V38.9L106.1,38.9z M113.9,51.1
		L113.9,51.1c-0.3,0-0.6-0.1-0.8-0.2c-0.3-0.1-0.5-0.3-0.7-0.4c-0.2-0.2-0.3-0.4-0.4-0.7c-0.1-0.2-0.2-0.5-0.2-0.8v-8.2
		c0-0.3,0.1-0.5,0.2-0.8c0.1-0.2,0.3-0.5,0.4-0.7c0.2-0.2,0.4-0.3,0.7-0.4c0.2-0.1,0.5-0.2,0.8-0.2h4.1c0.3,0,0.6,0.1,0.8,0.2
		c0.3,0.1,0.5,0.2,0.7,0.4c0.2,0.2,0.3,0.4,0.4,0.7c0.1,0.3,0.2,0.5,0.2,0.8v1.5H118v-1.5h-4.1v8.2h4.1v-2.5H116v-2h2.1h2.1v2v2.5
		c0,0.3-0.1,0.5-0.2,0.8c-0.1,0.3-0.3,0.5-0.4,0.7c-0.2,0.2-0.4,0.3-0.7,0.4c-0.2,0.1-0.5,0.2-0.8,0.2H113.9L113.9,51.1z
		 M123.8,39.3L123.8,39.3v-0.4h2l4.1,7.9v-7.9h2.1v11.8v0.4h-2.1l-4.1-7.9v7.9h-2V39.3z"/>
	<path display="inline" fill="#373737" d="M73.6,10.4l0.7,0L74.2,14c0.4,0,0.7,0,1.1,0.1l0,0.6c-0.6,0-1.1-0.1-1.7-0.1L73.6,10.4
		L73.6,10.4z M69,13.4L69,13.4l0.6,0l-0.5-2.1L69,13.4L69,13.4z M70.6,14.7L70.6,14.7c-0.2,0-0.4,0-0.6,0l-0.2-0.8L69,14l-0.1,0.8
		l-0.6,0.1c0.1-1.4,0.2-2.9,0.3-4.3l1-0.1C70,11.8,70.3,13.2,70.6,14.7L70.6,14.7z M63.4,12.4L63.4,12.4l0.6,3l-0.6,0.1l-0.9-4.2
		c0.3-0.1,0.6-0.1,0.9-0.2c0.4,0.8,0.8,1.6,1.2,2.4l-0.5-2.5l0.6-0.1l0.7,4.2l-0.6,0.1C64.3,14.3,63.9,13.4,63.4,12.4L63.4,12.4z
		 M58.5,12.4L58.5,12.4l0.7-0.2l1.2,4.1l-0.6,0.2L58.5,12.4L58.5,12.4z M55.2,15.7L55.2,15.7l0.9-0.4l0.5,1.3
		c0.1,0.2,0.1,0.4,0.1,0.6c0,0.2-0.1,0.3-0.2,0.5c-0.1,0.1-0.2,0.2-0.4,0.3C55.9,18,55.7,18,55.5,18c-0.2,0-0.3-0.1-0.4-0.2
		c-0.1-0.1-0.2-0.3-0.3-0.5l-0.9-2c-0.1-0.2-0.1-0.4-0.1-0.6c0-0.2,0.1-0.3,0.2-0.5c0.1-0.1,0.3-0.2,0.5-0.3
		c0.2-0.1,0.4-0.1,0.6-0.1c0.2,0,0.3,0.1,0.5,0.2c0.1,0.1,0.2,0.3,0.3,0.5l0.1,0.4l-0.6,0.2l-0.2-0.4c-0.1-0.1-0.1-0.2-0.2-0.3
		c-0.1,0-0.2,0-0.3,0c-0.1,0-0.2,0.1-0.2,0.2c0,0.1,0,0.2,0.1,0.3l0.9,2.1c0,0.1,0.1,0.2,0.1,0.2c0,0,0.1,0.1,0.2,0.1
		c0.1,0,0.1,0,0.2,0c0.1,0,0.1-0.1,0.2-0.1c0,0,0-0.1,0-0.2c0-0.1,0-0.1-0.1-0.2l-0.3-0.7l-0.3,0.1L55.2,15.7L55.2,15.7z M49.8,16.2
		L49.8,16.2l0.6-0.3l2,3.8l-0.6,0.3L49.8,16.2L49.8,16.2z M46.1,19.2L46.1,19.2l0.8,1.1l0.2-0.2c0.1,0,0.1-0.1,0.2-0.2
		c0-0.1,0-0.1,0-0.2c0-0.1-0.1-0.2-0.1-0.2l-0.2-0.3c-0.1-0.1-0.2-0.2-0.2-0.2c-0.1,0-0.2,0-0.3,0.1L46.1,19.2L46.1,19.2z
		 M48.7,21.8L48.7,21.8C48.7,21.7,48.7,21.7,48.7,21.8c-0.1-0.1-0.1-0.1-0.1-0.1c0,0-0.1,0-0.1-0.1l-0.1-0.2L48,20.8
		c-0.1-0.1-0.1-0.2-0.2-0.2c-0.1,0-0.1-0.1-0.2-0.1c-0.1,0-0.1,0-0.2,0.1l-0.2,0.1l1,1.4l-0.5,0.4l-2.5-3.5c0.3-0.2,0.6-0.4,0.9-0.6
		c0.2-0.1,0.4-0.2,0.6-0.3c0.2,0,0.3,0,0.5,0.1c0.1,0.1,0.3,0.2,0.4,0.4l0.2,0.3c0.1,0.2,0.2,0.3,0.2,0.5c0,0.2,0,0.3-0.1,0.4
		c0.1,0,0.2,0,0.3,0c0.1,0,0.2,0.1,0.3,0.2c0.1,0.1,0.2,0.2,0.3,0.3L49,21c0,0.1,0.1,0.2,0.2,0.2c0.1,0.1,0.1,0.1,0.2,0.2L48.7,21.8
		L48.7,21.8z M41.6,23.2L41.6,23.2c-0.2-0.2-0.3-0.3-0.3-0.5c0-0.2,0-0.3,0-0.5c0.1-0.2,0.2-0.3,0.4-0.5c0.2-0.2,0.4-0.2,0.5-0.3
		c0.2,0,0.4,0,0.5,0.1c0.2,0.1,0.3,0.2,0.5,0.4l1.4,1.7c0.1,0.2,0.2,0.4,0.3,0.5c0.1,0.2,0,0.3,0,0.5c-0.1,0.2-0.2,0.3-0.3,0.4
		c-0.2,0.1-0.3,0.2-0.5,0.3c-0.2,0-0.3,0-0.5-0.1c-0.2-0.1-0.3-0.2-0.5-0.4L41.6,23.2L41.6,23.2z M43.6,24.5L43.6,24.5
		c0.1,0.1,0.2,0.2,0.3,0.2c0.1,0,0.2,0,0.2-0.1c0.1-0.1,0.1-0.1,0.1-0.2c0-0.1,0-0.2-0.1-0.3l-1.5-1.7c-0.1-0.1-0.2-0.2-0.3-0.2
		c-0.1,0-0.2,0-0.3,0.1c-0.1,0.1-0.1,0.2-0.1,0.2c0,0.1,0,0.2,0.1,0.3L43.6,24.5L43.6,24.5z M79.3,10.8L79.3,10.8
		c0.4,0.1,0.7,0.1,1.1,0.2c0.3,0.1,0.6,0.2,0.7,0.4c0.1,0.2,0.2,0.5,0.1,0.8l-0.4,2.1c-0.1,0.3-0.2,0.6-0.4,0.7
		c-0.2,0.1-0.4,0.2-0.8,0.2c-0.3-0.1-0.7-0.1-1-0.2L79.3,10.8L79.3,10.8z M79.9,11.5L79.9,11.5l-0.5,3l0.4,0.1c0.1,0,0.1,0,0.2,0
		c0.1,0,0.1-0.1,0.1-0.1c0-0.1,0.1-0.1,0.1-0.2l0.4-2.2c0-0.1,0-0.2,0-0.3c0-0.1-0.1-0.1-0.1-0.1c0,0-0.1-0.1-0.2-0.1L79.9,11.5
		L79.9,11.5z M84.9,13.9L84.9,13.9l0.9,0.3l-0.2,0.6l-0.9-0.3l-0.3,1.2c0.4,0.1,0.7,0.2,1.1,0.3l-0.2,0.6c-0.6-0.2-1.1-0.3-1.7-0.5
		l1.1-4.1c0.6,0.2,1.2,0.3,1.9,0.5l-0.2,0.6c-0.4-0.1-0.8-0.2-1.2-0.3L84.9,13.9L84.9,13.9z M89.3,14.5L89.3,14.5
		c0.1-0.2,0.2-0.4,0.3-0.5c0.1-0.1,0.3-0.2,0.5-0.2c0.2,0,0.4,0,0.6,0.1c0.2,0.1,0.4,0.2,0.5,0.3c0.1,0.1,0.2,0.3,0.2,0.5
		c0,0.2,0,0.4-0.1,0.6l-0.1,0.1l-0.6-0.3l0.1-0.2c0.1-0.1,0.1-0.3,0.1-0.3c0-0.1-0.1-0.1-0.2-0.2c-0.1,0-0.2,0-0.3,0
		c-0.1,0-0.1,0.1-0.2,0.3c0,0.1-0.1,0.2-0.1,0.3c0,0.1,0,0.2,0.1,0.3l0.1,0.3c0.1,0.1,0.1,0.2,0.2,0.4c0.1,0.1,0.1,0.2,0.1,0.4
		c0,0.1,0,0.3,0,0.4c0,0.1-0.1,0.3-0.1,0.5c-0.1,0.2-0.2,0.4-0.3,0.5c-0.1,0.1-0.3,0.2-0.4,0.2c-0.2,0-0.3,0-0.5-0.1
		c-0.2-0.1-0.3-0.2-0.4-0.3c-0.1-0.1-0.2-0.3-0.2-0.5c0-0.2,0-0.4,0.1-0.6l0.1-0.2l0.6,0.2L89,16.8c0,0.1-0.1,0.2-0.1,0.2
		c0,0.1,0,0.1,0,0.2c0,0,0.1,0.1,0.2,0.1c0.1,0,0.1,0,0.2,0c0,0,0.1,0,0.2-0.1c0,0,0.1-0.1,0.1-0.2c0-0.1,0.1-0.2,0.1-0.3
		c0-0.1,0-0.2-0.1-0.3c0-0.1-0.1-0.2-0.1-0.3c0-0.1-0.1-0.2-0.1-0.3c-0.1-0.1-0.1-0.2-0.1-0.4c0-0.1,0-0.3,0-0.4
		C89.2,14.8,89.2,14.7,89.3,14.5L89.3,14.5z M94.5,15.8L94.5,15.8l0.6,0.3l-2.1,3.7l-0.6-0.3L94.5,15.8L94.5,15.8z M97.9,20L97.9,20
		l0.8,0.5l-0.8,1.1c-0.1,0.2-0.3,0.3-0.4,0.4c-0.2,0.1-0.3,0.1-0.5,0.1c-0.2,0-0.3-0.1-0.5-0.2c-0.2-0.1-0.3-0.2-0.4-0.4
		C96,21.4,96,21.3,96,21.1c0-0.2,0.1-0.4,0.2-0.5l1.2-1.9c0.1-0.2,0.3-0.3,0.4-0.4c0.2-0.1,0.3-0.1,0.5-0.1c0.2,0,0.4,0.1,0.5,0.2
		c0.2,0.1,0.3,0.3,0.4,0.4c0.1,0.2,0.1,0.3,0.1,0.5c0,0.2-0.1,0.4-0.2,0.5L99,20.2l-0.5-0.4l0.3-0.4c0.1-0.1,0.1-0.2,0.1-0.3
		c0-0.1-0.1-0.2-0.2-0.2c-0.1-0.1-0.2-0.1-0.3-0.1c-0.1,0-0.2,0.1-0.3,0.2l-1.3,1.9c-0.1,0.1-0.1,0.2-0.1,0.2c0,0.1,0,0.1,0,0.2
		c0,0,0.1,0.1,0.1,0.1c0.1,0,0.1,0.1,0.2,0.1c0.1,0,0.1,0,0.2,0c0.1,0,0.1-0.1,0.2-0.2l0.5-0.6l-0.3-0.2L97.9,20L97.9,20z
		 M102.2,22.3L102.2,22.3l-2,2.3l-0.4-0.4l2.7-3.3l0.7,0.6c-0.4,0.8-0.8,1.6-1.2,2.4l1.7-1.9l0.5,0.4l-2.9,3.1l-0.5-0.4
		C101.2,24.3,101.7,23.3,102.2,22.3z"/>
	<path display="inline" fill-rule="evenodd" clip-rule="evenodd" fill="#FFFFFF" d="M72.5,84.1C54,84.1,37.9,74.5,28.8,60h16.8
		c6.9,6.8,16.4,11,26.9,11c10.5,0,20-4.2,26.9-11h16.8C107.1,74.5,90.9,84.1,72.5,84.1z"/>
	<path display="inline" fill="#555555" d="M72.5,84.5c-9.1,0-17.7-2.3-25.2-6.4c-7.7-4.2-14.1-10.3-18.8-17.6h-13
		C7,60.4,0,53.5,0,45c0-4.2,1.7-8.1,4.6-10.9c2.8-2.8,6.7-4.5,11-4.5h13c4.7-7.3,11.1-13.4,18.8-17.6c7.5-4.1,16-6.4,25.2-6.4
		c9.1,0,17.7,2.3,25.2,6.5c7.7,4.2,14.1,10.3,18.8,17.6h13c4.3,0,8.2,1.7,11,4.5c2.8,2.8,4.6,6.6,4.6,10.9c0,4.2-1.7,8.1-4.6,10.9
		c-2.8,2.8-6.7,4.5-11,4.5h-13c-4.7,7.3-11.1,13.4-18.8,17.6C90.2,82.2,81.6,84.5,72.5,84.5L72.5,84.5z M72.5,23.2
		c7.5,0,14.4,2.4,20,6.4h5.9c-3.3-3.1-7.2-5.6-11.5-7.3c-4.4-1.8-9.3-2.8-14.4-2.8c-5.1,0-10,1-14.4,2.8c-4.3,1.7-8.1,4.2-11.5,7.3
		h5.9C58.1,25.6,65,23.2,72.5,23.2L72.5,23.2z M72.5,66.8c-7.5,0-14.4-2.4-20-6.4h-5.9c3.3,3.1,7.2,5.6,11.5,7.3
		c4.4,1.8,9.3,2.8,14.4,2.8c5.1,0,10-1,14.4-2.8c4.3-1.7,8.1-4.2,11.5-7.3h-5.9C86.9,64.5,80,66.8,72.5,66.8L72.5,66.8z M28,59.5
		h0.8h16.8h0.2h53.5h0.2h16.8h0.8h12.5c4,0,7.7-1.6,10.4-4.3c2.7-2.6,4.3-6.3,4.3-10.3c0-4-1.7-7.6-4.3-10.3
		c-2.7-2.6-6.3-4.3-10.4-4.3H117h-0.8H99.4h-0.2H45.7h-0.2H28.8H28H15.5c-4,0-7.7,1.6-10.3,4.3C2.5,37.4,0.9,41,0.9,45
		c0,8,6.6,14.5,14.6,14.5H28L28,59.5z M72.5,6.4c-9,0-17.4,2.3-24.7,6.3c-7.4,4.1-13.6,9.9-18.2,16.9h15.8c3.5-3.4,7.7-6.2,12.4-8.1
		c4.5-1.9,9.5-2.9,14.7-2.9c5.2,0,10.2,1,14.7,2.9c4.7,1.9,8.9,4.7,12.4,8.1h15.8c-4.6-7-10.8-12.8-18.2-16.9
		C89.9,8.7,81.5,6.4,72.5,6.4L72.5,6.4z M47.7,77.3c7.3,4,15.8,6.3,24.8,6.3c9,0,17.4-2.3,24.8-6.3c7.4-4.1,13.6-9.9,18.2-16.9H99.6
		c-3.5,3.4-7.7,6.2-12.4,8.1c-4.5,1.9-9.5,2.9-14.7,2.9c-5.2,0-10.2-1-14.7-2.9c-4.7-1.9-8.9-4.7-12.4-8.1H29.6
		C34.1,67.4,40.4,73.2,47.7,77.3z"/>
	<path display="inline" fill="#373737" d="M99.8,65.6c0.5-0.4,1-0.9,1.5-1.3l0.4,0.4l-0.5,0.5l2.4,2.7l-0.5,0.5l-2.4-2.8l-0.5,0.4
		L99.8,65.6L99.8,65.6z M99.4,69.3l-0.5,0.4l0.4,0.5c0.1,0.1,0.1,0.2,0.1,0.2c0,0.1,0,0.1,0,0.2c0,0.1-0.1,0.1-0.1,0.1
		c-0.1,0-0.1,0.1-0.2,0.1c-0.1,0-0.1,0-0.2,0c-0.1,0-0.1-0.1-0.2-0.2l-1.3-1.9c-0.1-0.1-0.1-0.2-0.1-0.3c0-0.1,0.1-0.2,0.1-0.2
		c0.1-0.1,0.2-0.1,0.3-0.1c0.1,0,0.2,0.1,0.3,0.2l0.3,0.4l0.5-0.4L98.4,68c-0.1-0.2-0.3-0.3-0.4-0.4c-0.2-0.1-0.3-0.1-0.5-0.1
		c-0.2,0-0.3,0.1-0.5,0.2c-0.2,0.1-0.3,0.3-0.4,0.4c-0.1,0.1-0.1,0.3-0.1,0.5c0,0.2,0.1,0.4,0.2,0.5L98,71c0.1,0.2,0.3,0.3,0.4,0.4
		c0.2,0.1,0.3,0.1,0.5,0.1c0.2,0,0.4-0.1,0.6-0.2c0.2-0.1,0.3-0.3,0.4-0.4c0.1-0.2,0.1-0.3,0.1-0.5c0-0.2-0.1-0.4-0.3-0.5L99.4,69.3
		L99.4,69.3L99.4,69.3z M92.8,70.3L92.8,70.3l1.6,2.9c0,0.1,0.1,0.2,0.2,0.2c0.1,0,0.1,0.1,0.2,0.1c0.1,0,0.1,0,0.2-0.1
		c0.1,0,0.1-0.1,0.2-0.1c0,0,0-0.1,0-0.2c0-0.1,0-0.1-0.1-0.2L93.4,70l0.5-0.3l1.6,2.8c0.1,0.2,0.2,0.4,0.2,0.6c0,0.2,0,0.3-0.1,0.5
		c-0.1,0.1-0.2,0.3-0.4,0.4c-0.2,0.1-0.4,0.2-0.6,0.2c-0.2,0-0.3-0.1-0.5-0.2c-0.1-0.1-0.3-0.3-0.4-0.5l-1.5-2.9
		C92.4,70.5,92.6,70.4,92.8,70.3L92.8,70.3z M88.8,72.9L88.8,72.9l1.2,2.8l0.4-0.1c0.1,0,0.1-0.1,0.2-0.1c0,0,0.1-0.1,0.1-0.2
		c0-0.1,0-0.1-0.1-0.2l-0.9-2c0-0.1-0.1-0.2-0.1-0.2c-0.1-0.1-0.1-0.1-0.2-0.1c0,0-0.1,0-0.2,0L88.8,72.9L88.8,72.9z M87.9,72.5
		L87.9,72.5c0.3-0.1,0.6-0.2,0.9-0.4c0.3-0.1,0.6-0.1,0.8,0c0.2,0.1,0.4,0.3,0.5,0.6l0.9,2c0.1,0.3,0.2,0.6,0.1,0.8
		c-0.1,0.2-0.3,0.4-0.6,0.6c-0.3,0.1-0.7,0.3-1,0.4L87.9,72.5L87.9,72.5z M83.7,75L83.7,75c-0.1-0.2-0.1-0.4,0-0.6
		c0-0.2,0.1-0.3,0.2-0.4c0.1-0.1,0.3-0.2,0.5-0.3c0.2-0.1,0.4-0.1,0.6,0c0.2,0,0.3,0.1,0.4,0.3c0.1,0.1,0.2,0.3,0.3,0.5l0.7,2.1
		c0.1,0.2,0.1,0.4,0.1,0.6c0,0.2-0.1,0.3-0.2,0.5c-0.1,0.1-0.3,0.2-0.5,0.3c-0.2,0-0.4,0.1-0.6,0c-0.2,0-0.3-0.1-0.4-0.3
		c-0.1-0.1-0.2-0.3-0.3-0.5L83.7,75L83.7,75z M85,77L85,77c0,0.1,0.1,0.2,0.2,0.3c0.1,0.1,0.2,0.1,0.3,0c0.1,0,0.2-0.1,0.2-0.2
		c0-0.1,0-0.2,0-0.3L85,74.6c0-0.1-0.1-0.2-0.2-0.3c-0.1-0.1-0.2-0.1-0.3,0c-0.1,0-0.2,0.1-0.2,0.2c0,0.1,0,0.2,0,0.3L85,77L85,77z
		 M79.6,75.4L79.6,75.4l0.2,1.3l0.3,0c0.1,0,0.2,0,0.2-0.1c0.1,0,0.1-0.1,0.1-0.2c0-0.1,0-0.2,0-0.3l-0.1-0.4c0-0.2-0.1-0.3-0.1-0.3
		c-0.1-0.1-0.2-0.1-0.3-0.1L79.6,75.4L79.6,75.4z M81,78.9L81,78.9C81,78.9,81,78.8,81,78.9c0-0.1-0.1-0.1-0.1-0.2c0,0,0-0.1,0-0.1
		l0-0.2l-0.1-0.7c0-0.1-0.1-0.2-0.1-0.3c0-0.1-0.1-0.1-0.2-0.1c-0.1,0-0.2,0-0.3,0l-0.2,0l0.3,1.7c-0.2,0-0.5,0.1-0.7,0.1l-0.6-4.2
		c0.3,0,0.6-0.1,1-0.2c0.2,0,0.4,0,0.5,0c0.1,0,0.3,0.1,0.4,0.3c0.1,0.1,0.2,0.3,0.2,0.5l0.1,0.3c0,0.2,0,0.4,0,0.6
		c0,0.2-0.1,0.3-0.3,0.4c0.1,0,0.2,0.1,0.3,0.1c0.1,0.1,0.1,0.2,0.2,0.3c0,0.1,0.1,0.2,0.1,0.4l0.1,0.6c0,0.1,0,0.2,0.1,0.3
		c0,0.1,0.1,0.2,0.1,0.2L81,78.9L81,78.9z M75,75.9L75,75.9l0.1,1.4l0.3,0c0.1,0,0.1,0,0.2,0c0,0,0.1-0.1,0.1-0.1c0-0.1,0-0.1,0-0.2
		l0-0.6c0-0.1,0-0.2,0-0.2c0-0.1-0.1-0.1-0.1-0.1c-0.1,0-0.1,0-0.2,0L75,75.9L75,75.9z M75.3,75.3L75.3,75.3c0.3,0,0.6,0.1,0.7,0.2
		c0.2,0.2,0.3,0.4,0.3,0.8l0,0.6c0,0.3,0,0.6-0.2,0.8c-0.2,0.2-0.4,0.3-0.7,0.3l-0.3,0l0.1,1.6l-0.7,0l-0.2-4.3
		C74.7,75.3,75,75.3,75.3,75.3L75.3,75.3z M69.5,78.3L69.5,78.3l0.6-3l0.9,0l-0.1,4.3l-0.7,0l0.1-3.1l-0.6,3l-0.7,0
		c-0.1-1-0.2-2-0.3-3l-0.3,3l-0.6-0.1l0.4-4.2l0.9,0.1L69.5,78.3L69.5,78.3z M64.3,74.6L64.3,74.6l-0.6,3.2c0,0.1,0,0.2,0,0.2
		c0,0.1,0.1,0.1,0.1,0.1c0,0,0.1,0.1,0.2,0.1c0.1,0,0.1,0,0.2,0c0.1,0,0.1-0.1,0.1-0.1c0.1,0,0.1-0.1,0.1-0.2l0.6-3.2l0.6,0.1L65,78
		c0,0.2-0.1,0.4-0.2,0.5c-0.1,0.1-0.2,0.2-0.4,0.3c-0.2,0.1-0.4,0.1-0.6,0c-0.2,0-0.4-0.1-0.5-0.2c-0.1-0.1-0.2-0.3-0.3-0.4
		c0-0.2,0-0.4,0-0.6l0.7-3.2L64.3,74.6L64.3,74.6z M60.3,73.6L60.3,73.6l0.6,0.2l-1.2,4.1l-0.7-0.2L60.3,73.6L60.3,73.6z M55.3,75.1
		L55.3,75.1l1.5-2.6c0.3,0.1,0.6,0.2,0.8,0.3l-1.5,4c-0.2-0.1-0.4-0.2-0.6-0.2l1.1-2.8l-1.6,2.7c-0.2-0.1-0.4-0.2-0.6-0.2l0.7-3
		L54,75.9l-0.6-0.2l1.7-3.9c0.3,0.1,0.5,0.2,0.8,0.3C55.7,73.1,55.5,74.1,55.3,75.1L55.3,75.1z M50.8,71.6L50.8,71.6l0.8,0.4
		l-0.3,0.5l-0.8-0.4l-0.6,1.1l1.1,0.6l-0.3,0.5c-0.6-0.3-1.1-0.6-1.7-0.9l2.1-3.7c0.5,0.3,1,0.6,1.5,0.8l-0.3,0.5l-1-0.5L50.8,71.6
		L50.8,71.6z M47.4,68L47.4,68l-0.8,1.1l0.2,0.2c0.1,0,0.1,0.1,0.2,0.1c0.1,0,0.1,0,0.2,0c0.1,0,0.1-0.1,0.2-0.2l0.2-0.3
		c0.1-0.1,0.1-0.2,0.1-0.3c0-0.1,0-0.2-0.1-0.2L47.4,68L47.4,68z M45.9,71.5L45.9,71.5C45.9,71.4,45.9,71.4,45.9,71.5
		c0-0.1,0.1-0.1,0.1-0.2c0,0,0-0.1,0.1-0.1l0.1-0.2l0.4-0.6c0.1-0.1,0.1-0.2,0.1-0.3c0-0.1,0-0.2,0-0.2c0-0.1-0.1-0.1-0.2-0.2
		l-0.2-0.1l-1,1.4l-0.6-0.4l2.5-3.4l0.8,0.6c0.2,0.1,0.3,0.3,0.4,0.4c0.1,0.1,0.1,0.3,0.1,0.4c0,0.2-0.1,0.3-0.2,0.5L48,69.4
		c-0.1,0.2-0.2,0.3-0.4,0.4c-0.1,0.1-0.3,0.1-0.5,0.1c0.1,0.1,0.1,0.2,0.1,0.3c0,0.1,0,0.2-0.1,0.3c0,0.1-0.1,0.2-0.2,0.4l-0.4,0.5
		c-0.1,0.1-0.1,0.2-0.1,0.2c0,0.1-0.1,0.2-0.1,0.2L45.9,71.5L45.9,71.5z M43.8,65.2L43.8,65.2l-1,1.1l0.2,0.2c0.1,0,0.1,0.1,0.2,0.1
		c0.1,0,0.1,0,0.2,0c0,0,0.1-0.1,0.2-0.2l0.4-0.5c0.1-0.1,0.1-0.1,0.1-0.2c0-0.1,0-0.1,0-0.2c0-0.1-0.1-0.1-0.1-0.1L43.8,65.2
		L43.8,65.2z M44.4,64.9l-0.7-0.6l-2.9,3.1l0.5,0.5l1.1-1.2l0.2,0.2c0.3,0.2,0.5,0.3,0.7,0.3c0.3,0,0.5-0.2,0.7-0.4l0.4-0.4
		c0.2-0.3,0.3-0.5,0.3-0.8C44.8,65.4,44.6,65.2,44.4,64.9L44.4,64.9z"/>
</g>

</svg>
