<?xml version="1.0" encoding="utf-8"?>
<!-- Generator: Adobe Illustrator 18.0.0, SVG Export Plug-In . SVG Version: 6.00 Build 0)  -->
<!DOCTYPE svg PUBLIC "-//W3C//DTD SVG 1.1//EN" "http://www.w3.org/Graphics/SVG/1.1/DTD/svg11.dtd">
<svg version="1.1" id="Layer_1" xmlns="http://www.w3.org/2000/svg" xmlns:xlink="http://www.w3.org/1999/xlink" x="0px" y="0px"
	 viewBox="0 0 145 90" enable-background="new 0 0 145 90" xml:space="preserve">

<g>
	<path display="inline" fill="#555555" d="M25.3,58.1v0.6c0,1.5,0.4,2.9,1,4v0c0.7,1.2,1.7,2.2,3,2.9v0l39.2,22.5h0
		c1.3,0.7,2.7,1.1,4,1.1c1.4,0,2.7-0.4,4-1.1h0l39.2-22.5l0,0c1.3-0.7,2.3-1.7,3-2.9l0,0c0.7-1.2,1-2.5,1-4v-0.6h0.8v0.6
		c0,1.6-0.4,3.1-1.2,4.4v0c-0.8,1.3-1.9,2.4-3.3,3.2h0L76.9,88.8h0C75.5,89.6,74,90,72.5,90c-1.5,0-3-0.4-4.4-1.2l0,0L28.9,66.3h0
		c-1.4-0.8-2.5-1.9-3.3-3.2v0c-0.8-1.3-1.2-2.8-1.2-4.4v-0.6H25.3L25.3,58.1z M119.7,31.9v-0.6c0-1.5-0.4-2.9-1-4h0
		c-0.7-1.2-1.7-2.2-3-2.9L76.5,1.9c-1.3-0.7-2.7-1.1-4-1.1c-1.4,0-2.7,0.4-4,1.1h0L29.3,24.3c-1.3,0.7-2.3,1.7-3,2.9h0
		c-0.7,1.2-1,2.5-1,4v0.6h-0.8v-0.6c0-1.6,0.4-3.1,1.2-4.4v0c0.8-1.3,1.9-2.4,3.3-3.2L68.1,1.2v0C69.5,0.4,71,0,72.5,0
		c1.5,0,3,0.4,4.4,1.2l39.2,22.5c1.4,0.8,2.5,1.9,3.3,3.2v0c0.8,1.3,1.2,2.8,1.2,4.4v0.6H119.7z"/>
	<path display="inline" fill-rule="evenodd" clip-rule="evenodd" fill="#373737" d="M134.3,39.4h6.7l-5.1,10.1l5.1,10.1h-17.8
		c0-0.3,0-0.5,0-0.8v-2.1h11.1V39.4L134.3,39.4z M10.7,39.4H4l5.1,10.1L4,59.5h17.8c0-0.3,0-0.5,0-0.8v-2.1H10.7V39.4z"/>
	<rect x="12.2" y="34.9" display="inline" fill-rule="evenodd" clip-rule="evenodd" fill="#373737" width="120.5" height="20.1"/>
	<path display="inline" fill-rule="evenodd" clip-rule="evenodd" fill="#555555" d="M36.1,32H109v-0.6H36.1V32L36.1,32z M47.9,20
		h49.2v-0.6H47.9V20z"/>
	<path display="inline" fill-rule="evenodd" clip-rule="evenodd" fill="#555555" d="M47.9,69.7h49.2v0.6H47.9V69.7L47.9,69.7z
		 M36.1,57.7h72.9v0.6H36.1V57.7z"/>
	<path display="inline" fill-rule="evenodd" clip-rule="evenodd" fill="#373737" d="M68.9,16.9h7.2c0.3,0,0.6-0.3,0.6-0.6
		c0-0.3-0.3-0.6-0.6-0.6h-7.2c-0.3,0-0.6,0.3-0.6,0.6C68.3,16.6,68.6,16.9,68.9,16.9L68.9,16.9z M76.1,14.9h-3.6h-3.6
		c-0.2,0-0.3-0.1-0.4-0.2l-2.4-4.3c0-0.1,0-0.1,0-0.2c0-0.2,0.1-0.3,0.2-0.3c0.1-0.1,0.2-0.1,0.3,0l3.2,1.1l2.2-4.8
		c0.1-0.1,0.2-0.2,0.4-0.2c0.1,0,0.3,0.1,0.4,0.2l2.2,4.8l3.2-1.1c0.1,0,0.2,0,0.3,0c0.1,0.1,0.2,0.2,0.2,0.3c0,0.1,0,0.1,0,0.2
		l-2.4,4.3C76.4,14.8,76.2,14.9,76.1,14.9z"/>
	<path display="inline" fill-rule="evenodd" clip-rule="evenodd" fill="#555555" d="M67.7,76.9h-5.3l-0.8,0.3l0.8,0.3h5.3V76.9
		L67.7,76.9z M77.3,76.9h5.3l0.8,0.3l-0.8,0.3h-5.3V76.9z"/>
	<path display="inline" fill-rule="evenodd" clip-rule="evenodd" fill="#373737" d="M80.5,16.9C80.5,16.9,80.5,16.9,80.5,16.9
		c-0.1-0.1-0.2-0.1-0.1-0.2l0.6-1.6l-1.3-0.9c-0.1,0-0.1-0.1-0.1-0.2c0-0.1,0.1-0.1,0.1-0.1h1.6l0.6-1.7c0-0.1,0.1-0.1,0.1-0.1
		c0.1,0,0.1,0,0.1,0.1l0.6,1.7h1.6c0.1,0,0.1,0,0.1,0.1c0,0.1,0,0.1-0.1,0.2l-1.3,0.9l0.6,1.6c0,0.1,0,0.1-0.1,0.2c0,0-0.1,0-0.1,0
		c0,0-0.1,0-0.1,0l-1.4-1L80.5,16.9C80.6,16.9,80.6,16.9,80.5,16.9L80.5,16.9z M61.4,16.9C61.4,16.9,61.4,16.9,61.4,16.9
		c-0.1-0.1-0.2-0.1-0.1-0.2l0.6-1.6l-1.3-0.9c-0.1,0-0.1-0.1-0.1-0.2c0-0.1,0.1-0.1,0.1-0.1h1.6l0.6-1.7c0-0.1,0.1-0.1,0.1-0.1
		c0.1,0,0.1,0,0.1,0.1l0.6,1.7h1.6c0.1,0,0.1,0,0.1,0.1c0,0.1,0,0.1-0.1,0.2L64,15.1l0.6,1.6c0,0.1,0,0.1-0.1,0.2c0,0-0.1,0-0.1,0
		c0,0-0.1,0-0.1,0l-1.4-1L61.4,16.9C61.5,16.9,61.4,16.9,61.4,16.9z"/>
	<path display="inline" fill="#373737" d="M103.3,66h0.7v-4h-0.6v2.4l-0.7-2.4h-0.8v4h0.6v-2.9L103.3,66L103.3,66z M98,64.3h0.3v0.7
		c0,0.1,0,0.2,0,0.2c0,0.1-0.1,0.1-0.1,0.1c0,0-0.1,0-0.2,0c-0.1,0-0.1,0-0.2,0c0,0-0.1-0.1-0.1-0.1c0-0.1,0-0.1,0-0.2v-2.2
		c0-0.1,0-0.2,0.1-0.3c0.1-0.1,0.1-0.1,0.2-0.1c0.1,0,0.2,0,0.2,0.1c0.1,0.1,0.1,0.2,0.1,0.3v0.4h0.6v-0.4c0-0.2,0-0.4-0.1-0.6
		c-0.1-0.1-0.2-0.3-0.3-0.3c-0.1-0.1-0.3-0.1-0.5-0.1c-0.2,0-0.4,0-0.5,0.1c-0.1,0.1-0.2,0.2-0.3,0.3C97,62.5,97,62.7,97,62.9V65
		c0,0.2,0,0.4,0.1,0.6c0.1,0.2,0.2,0.3,0.3,0.3c0.1,0.1,0.3,0.1,0.5,0.1c0.2,0,0.4,0,0.5-0.1c0.1-0.1,0.2-0.2,0.3-0.3
		c0.1-0.2,0.1-0.3,0.1-0.6v-1.3H98V64.3L98,64.3z M93.3,66h0.6v-4h-0.6V66L93.3,66z M88.4,62.9c0,0.2,0,0.3,0.1,0.4
		c0,0.1,0.1,0.2,0.2,0.3c0.1,0.1,0.2,0.2,0.2,0.3c0.1,0.1,0.2,0.2,0.3,0.2c0.1,0.1,0.2,0.2,0.2,0.2c0.1,0.1,0.1,0.2,0.2,0.3
		c0,0.1,0.1,0.2,0.1,0.3c0,0.1,0,0.2,0,0.2c0,0.1-0.1,0.1-0.1,0.1c0,0-0.1,0-0.2,0c-0.1,0-0.1,0-0.2,0c0,0-0.1-0.1-0.1-0.1
		c0-0.1,0-0.1,0-0.2v-0.3h-0.6V65c0,0.2,0,0.4,0.1,0.6c0.1,0.2,0.2,0.3,0.3,0.3c0.1,0.1,0.3,0.1,0.5,0.1c0.2,0,0.4,0,0.5-0.1
		c0.1-0.1,0.2-0.2,0.3-0.3c0.1-0.2,0.1-0.3,0.1-0.6c0-0.2,0-0.3-0.1-0.4c0-0.1-0.1-0.2-0.2-0.3c-0.1-0.1-0.2-0.2-0.2-0.3
		c-0.1-0.1-0.2-0.2-0.3-0.2c-0.1-0.1-0.2-0.2-0.2-0.2c-0.1-0.1-0.1-0.2-0.2-0.3c0-0.1-0.1-0.2-0.1-0.3c0-0.1,0-0.2,0.1-0.3
		c0.1-0.1,0.1-0.1,0.2-0.1c0.1,0,0.2,0,0.2,0.1c0.1,0.1,0.1,0.2,0.1,0.3v0.2h0.6v-0.1c0-0.2,0-0.4-0.1-0.6c-0.1-0.1-0.2-0.3-0.3-0.3
		c-0.1-0.1-0.3-0.1-0.5-0.1c-0.2,0-0.4,0-0.5,0.1c-0.1,0.1-0.2,0.2-0.3,0.3C88.4,62.5,88.4,62.7,88.4,62.9L88.4,62.9z M84.3,62.5
		h1.1V62h-1.7v4h1.7v-0.6h-1.1v-1.2h0.9v-0.6h-0.9V62.5L84.3,62.5z M79.7,62.5c0.1,0,0.1,0,0.2,0c0,0,0.1,0.1,0.1,0.1
		c0,0.1,0,0.1,0,0.2V65c0,0.1,0,0.2,0,0.2c0,0.1-0.1,0.1-0.1,0.1c0,0-0.1,0-0.2,0h-0.4v-2.9H79.7L79.7,62.5z M78.7,66h1
		c0.3,0,0.6-0.1,0.7-0.3c0.2-0.2,0.2-0.4,0.2-0.7v-2c0-0.3-0.1-0.6-0.2-0.7C80.3,62.1,80,62,79.7,62h-1V66L78.7,66z M73.5,66h1.7
		v-0.6h-1.1V62h-0.6V66L73.5,66z M69.4,62.7l0.3,2h-0.6L69.4,62.7L69.4,62.7z M69.9,62H69l-0.7,4h0.6l0.1-0.7h0.8l0.1,0.7h0.6
		L69.9,62L69.9,62z M64.8,66h0.7v-4h-0.6v2.4L64.2,62h-0.8v4H64v-2.9L64.8,66L64.8,66z M59.7,66h0.6v-4h-0.6V66L59.7,66z M55.7,64.3
		H56v0.7c0,0.1,0,0.2,0,0.2c0,0.1-0.1,0.1-0.1,0.1c0,0-0.1,0-0.2,0c-0.1,0-0.1,0-0.2,0c0,0-0.1-0.1-0.1-0.1c0-0.1,0-0.1,0-0.2v-2.2
		c0-0.1,0-0.2,0.1-0.3c0.1-0.1,0.1-0.1,0.2-0.1c0.1,0,0.2,0,0.2,0.1c0.1,0.1,0.1,0.2,0.1,0.3v0.4h0.6v-0.4c0-0.2,0-0.4-0.1-0.6
		c-0.1-0.1-0.2-0.3-0.3-0.3c-0.1-0.1-0.3-0.1-0.5-0.1c-0.2,0-0.4,0-0.5,0.1c-0.1,0.1-0.2,0.2-0.3,0.3c-0.1,0.2-0.1,0.3-0.1,0.6V65
		c0,0.2,0,0.4,0.1,0.6c0.1,0.2,0.2,0.3,0.3,0.3c0.1,0.1,0.3,0.1,0.5,0.1c0.2,0,0.4,0,0.5-0.1c0.1-0.1,0.2-0.2,0.3-0.3
		c0.1-0.2,0.1-0.3,0.1-0.6v-1.3h-0.9V64.3L55.7,64.3z M51,66h0.6v-4H51V66L51,66z M47,62.5c0.1,0,0.2,0,0.2,0.1
		c0.1,0.1,0.1,0.2,0.1,0.3v0.4c0,0.1,0,0.2,0,0.3c0,0.1-0.1,0.1-0.1,0.1c-0.1,0-0.1,0-0.2,0h-0.2v-1.2H47L47,62.5z M48,66
		c0-0.1-0.1-0.2-0.1-0.2c0-0.1,0-0.2,0-0.3v-0.6c0-0.1,0-0.3,0-0.4c0-0.1-0.1-0.2-0.1-0.3c-0.1-0.1-0.1-0.1-0.3-0.2
		c0.1-0.1,0.2-0.2,0.3-0.3c0.1-0.1,0.1-0.3,0.1-0.5v-0.3c0-0.2,0-0.4-0.1-0.5c-0.1-0.1-0.2-0.2-0.3-0.3C47.4,62,47.2,62,47,62h-1v4
		h0.6v-1.6h0.2c0.1,0,0.2,0,0.2,0c0.1,0,0.1,0.1,0.1,0.2c0,0.1,0,0.2,0,0.3v0.6c0,0.1,0,0.1,0,0.2c0,0.1,0,0.1,0,0.1
		c0,0,0,0.1,0,0.1c0,0,0,0.1,0,0.1H48L48,66z M41,65c0,0.2,0,0.4,0.1,0.6c0.1,0.2,0.2,0.3,0.3,0.3c0.1,0.1,0.3,0.1,0.5,0.1
		c0.2,0,0.4,0,0.5-0.1c0.1-0.1,0.3-0.2,0.3-0.3c0.1-0.2,0.1-0.3,0.1-0.6v-2.1c0-0.2,0-0.4-0.1-0.6c-0.1-0.1-0.2-0.3-0.3-0.3
		c-0.1-0.1-0.3-0.1-0.5-0.1c-0.2,0-0.4,0-0.5,0.1c-0.1,0.1-0.3,0.2-0.3,0.3c-0.1,0.2-0.1,0.3-0.1,0.6V65L41,65z M41.7,62.9
		c0-0.1,0-0.2,0.1-0.3c0.1-0.1,0.1-0.1,0.2-0.1c0.1,0,0.2,0,0.2,0.1c0.1,0.1,0.1,0.2,0.1,0.3v2.2c0,0.1,0,0.2-0.1,0.3
		c-0.1,0.1-0.1,0.1-0.2,0.1c-0.1,0-0.2,0-0.2-0.1c-0.1-0.1-0.1-0.2-0.1-0.3V62.9z"/>
	<path display="inline" fill="#373737" d="M102.1,24.2h0.7v3.5h0.6v-3.5h0.7v-0.6h-2V24.2L102.1,24.2z M98.9,26.2v0.6
		c0,0.1,0,0.2,0,0.2c0,0.1-0.1,0.1-0.1,0.1c0,0-0.1,0-0.2,0c-0.1,0-0.1,0-0.2,0c0,0-0.1-0.1-0.1-0.1c0-0.1,0-0.1,0-0.2v-2.2
		c0-0.1,0-0.2,0.1-0.3c0.1-0.1,0.1-0.1,0.2-0.1c0.1,0,0.2,0,0.2,0.1c0.1,0.1,0.1,0.2,0.1,0.3V25h0.6v-0.4c0-0.2,0-0.4-0.1-0.6
		c-0.1-0.2-0.2-0.3-0.3-0.3c-0.1-0.1-0.3-0.1-0.5-0.1c-0.2,0-0.4,0-0.5,0.1c-0.1,0.1-0.2,0.2-0.3,0.3c-0.1,0.2-0.1,0.3-0.1,0.6v2.1
		c0,0.2,0,0.4,0.1,0.6c0.1,0.2,0.2,0.3,0.3,0.3c0.1,0.1,0.3,0.1,0.5,0.1c0.2,0,0.4,0,0.5-0.1c0.1-0.1,0.2-0.2,0.3-0.3
		c0.1-0.2,0.1-0.3,0.1-0.6v-0.5H98.9L98.9,26.2z M93,23.6v3.1c0,0.2,0,0.4,0.1,0.6c0.1,0.2,0.2,0.3,0.3,0.3c0.1,0.1,0.3,0.1,0.5,0.1
		c0.2,0,0.4,0,0.5-0.1c0.1-0.1,0.2-0.2,0.3-0.3c0.1-0.2,0.1-0.3,0.1-0.6v-3.1h-0.6v3.1c0,0.1,0,0.2,0,0.2c0,0.1-0.1,0.1-0.1,0.1
		c0,0-0.1,0-0.2,0c-0.1,0-0.1,0-0.2,0c0,0-0.1-0.1-0.1-0.1c0-0.1,0-0.1,0-0.2v-3.1H93L93,23.6z M89.3,24.2c0.1,0,0.1,0,0.2,0
		c0,0,0.1,0.1,0.1,0.1c0,0.1,0,0.1,0,0.2v2.1c0,0.1,0,0.2,0,0.2c0,0.1-0.1,0.1-0.1,0.1c0,0-0.1,0-0.2,0h-0.4v-2.9H89.3L89.3,24.2z
		 M88.3,27.7h1c0.3,0,0.6-0.1,0.7-0.3c0.2-0.2,0.2-0.4,0.2-0.7v-2c0-0.3-0.1-0.6-0.2-0.7c-0.2-0.2-0.4-0.3-0.7-0.3h-1V27.7
		L88.3,27.7z M83.6,26.7c0,0.2,0,0.4,0.1,0.6c0.1,0.2,0.2,0.3,0.3,0.3c0.1,0.1,0.3,0.1,0.5,0.1c0.2,0,0.4,0,0.5-0.1
		c0.1-0.1,0.3-0.2,0.3-0.3c0.1-0.2,0.1-0.3,0.1-0.6v-2.1c0-0.2,0-0.4-0.1-0.6c-0.1-0.2-0.2-0.3-0.3-0.3c-0.1-0.1-0.3-0.1-0.5-0.1
		c-0.2,0-0.4,0-0.5,0.1c-0.1,0.1-0.3,0.2-0.3,0.3c-0.1,0.2-0.1,0.3-0.1,0.6V26.7L83.6,26.7z M84.2,24.6c0-0.1,0-0.2,0.1-0.3
		c0.1-0.1,0.1-0.1,0.2-0.1c0.1,0,0.2,0,0.2,0.1c0.1,0.1,0.1,0.2,0.1,0.3v2.2c0,0.1,0,0.2-0.1,0.3c-0.1,0.1-0.1,0.1-0.2,0.1
		c-0.1,0-0.2,0-0.2-0.1c-0.1-0.1-0.1-0.2-0.1-0.3V24.6L84.2,24.6z M79.9,24.2c0.1,0,0.2,0,0.2,0.1c0.1,0.1,0.1,0.2,0.1,0.3V25
		c0,0.1,0,0.2,0,0.3c0,0.1-0.1,0.1-0.1,0.1c-0.1,0-0.1,0-0.2,0h-0.3v-1.2H79.9L79.9,24.2z M80.9,27.7c0-0.1,0-0.1-0.1-0.2
		c0-0.1,0-0.2,0-0.3v-0.6c0-0.1,0-0.3,0-0.4c0-0.1-0.1-0.2-0.1-0.3c-0.1-0.1-0.1-0.1-0.3-0.2c0.1-0.1,0.2-0.2,0.3-0.3
		c0.1-0.1,0.1-0.3,0.1-0.5v-0.3c0-0.2,0-0.4-0.1-0.5c-0.1-0.1-0.2-0.2-0.3-0.3c-0.1-0.1-0.3-0.1-0.5-0.1h-1v4h0.6V26h0.2
		c0.1,0,0.2,0,0.2,0c0.1,0,0.1,0.1,0.1,0.2c0,0.1,0,0.2,0,0.3v0.6c0,0.1,0,0.1,0,0.2c0,0.1,0,0.1,0,0.1c0,0,0,0.1,0,0.1
		c0,0,0,0,0,0.1H80.9L80.9,27.7z M75.3,24.2c0.1,0,0.1,0,0.2,0s0.1,0.1,0.1,0.1c0,0.1,0,0.1,0,0.2v0.6c0,0.1,0,0.2,0,0.2
		c0,0.1-0.1,0.1-0.1,0.1c0,0-0.1,0-0.2,0H75v-1.4H75.3L75.3,24.2z M75.3,23.6h-0.9v4H75v-1.5h0.3c0.3,0,0.6-0.1,0.7-0.3
		c0.2-0.2,0.2-0.4,0.2-0.7v-0.5c0-0.3-0.1-0.6-0.2-0.7C75.9,23.7,75.7,23.6,75.3,23.6L75.3,23.6z M69.2,23.6h-0.9v4h0.6v-2.9
		l0.5,2.9H70l0.4-2.9v2.9H71v-4h-0.9l-0.4,2.9L69.2,23.6L69.2,23.6z M63.7,23.6v3.1c0,0.2,0,0.4,0.1,0.6c0.1,0.2,0.2,0.3,0.3,0.3
		c0.1,0.1,0.3,0.1,0.5,0.1c0.2,0,0.4,0,0.5-0.1c0.1-0.1,0.2-0.2,0.3-0.3c0.1-0.2,0.1-0.3,0.1-0.6v-3.1H65v3.1c0,0.1,0,0.2,0,0.2
		c0,0.1-0.1,0.1-0.1,0.1c0,0-0.1,0-0.2,0c-0.1,0-0.1,0-0.2,0c0,0-0.1-0.1-0.1-0.1c0-0.1,0-0.1,0-0.2v-3.1H63.7L63.7,23.6z
		 M60.2,27.7h0.6v-4h-0.6V27.7L60.2,27.7z M55.6,23.6h-0.9v4h0.6v-2.9l0.5,2.9h0.6l0.4-2.9v2.9h0.6v-4h-0.9l-0.4,2.9L55.6,23.6
		L55.6,23.6z M50.9,24.2H52v-0.6h-1.7v4H52v-0.6h-1.1v-1.2h0.9v-0.6h-0.9V24.2L50.9,24.2z M46.5,24.2c0.1,0,0.2,0,0.2,0.1
		c0.1,0.1,0.1,0.2,0.1,0.3V25c0,0.1,0,0.2,0,0.3c0,0.1-0.1,0.1-0.1,0.1c-0.1,0-0.1,0-0.2,0h-0.2v-1.2H46.5L46.5,24.2z M47.6,27.7
		c0-0.1-0.1-0.1-0.1-0.2c0-0.1,0-0.2,0-0.3v-0.6c0-0.1,0-0.3,0-0.4c0-0.1-0.1-0.2-0.1-0.3c-0.1-0.1-0.1-0.1-0.3-0.2
		c0.1-0.1,0.2-0.2,0.3-0.3c0.1-0.1,0.1-0.3,0.1-0.5v-0.3c0-0.2,0-0.4-0.1-0.5c-0.1-0.1-0.2-0.2-0.3-0.3c-0.1-0.1-0.3-0.1-0.5-0.1h-1
		v4h0.6V26h0.2c0.1,0,0.2,0,0.2,0c0.1,0,0.1,0.1,0.1,0.2c0,0.1,0,0.2,0,0.3v0.6c0,0.1,0,0.1,0,0.2c0,0.1,0,0.1,0,0.1
		c0,0,0,0.1,0,0.1c0,0,0,0,0,0.1H47.6L47.6,27.7z M42,24.2c0.1,0,0.1,0,0.2,0s0.1,0.1,0.1,0.1c0,0.1,0,0.1,0,0.2v0.6
		c0,0.1,0,0.2,0,0.2c0,0.1-0.1,0.1-0.1,0.1c0,0-0.1,0-0.2,0h-0.3v-1.4H42L42,24.2z M42,23.6H41v4h0.6v-1.5H42c0.3,0,0.6-0.1,0.7-0.3
		c0.2-0.2,0.2-0.4,0.2-0.7v-0.5c0-0.3-0.1-0.6-0.2-0.7C42.5,23.7,42.3,23.6,42,23.6z"/>
	<path display="inline" fill="#373737" d="M71.6,75.9l0.9,0.9l0.9-0.9c0-0.1,0-0.1,0-0.2c0-0.4,0.3-0.7,0.7-0.7
		c0.4,0,0.7,0.3,0.7,0.7s-0.3,0.7-0.7,0.7c-0.1,0-0.1,0-0.2,0l-0.9,0.9l0.9,0.9c0.1,0,0.1,0,0.2,0c0.4,0,0.7,0.3,0.7,0.7
		c0,0.4-0.3,0.7-0.7,0.7c-0.4,0-0.7-0.3-0.7-0.7c0-0.1,0-0.1,0-0.2l-0.9-0.9l-0.9,0.9c0,0.1,0,0.1,0,0.2c0,0.4-0.3,0.7-0.7,0.7
		s-0.7-0.3-0.7-0.7c0-0.4,0.3-0.7,0.7-0.7c0.1,0,0.1,0,0.2,0l0.9-0.9l-0.9-0.9c-0.1,0-0.1,0-0.2,0c-0.4,0-0.7-0.3-0.7-0.7
		s0.3-0.7,0.7-0.7s0.7,0.3,0.7,0.7C71.6,75.8,71.6,75.8,71.6,75.9z"/>
	<path display="inline" fill="#FFFFFF" d="M20.2,50.1v-1.4h0.5c0.3,0,0.6,0,0.7-0.1c0.1-0.1,0.2-0.3,0.2-0.7v-0.1v-5.5
		c0-0.4-0.1-0.6-0.2-0.7c-0.1-0.1-0.3-0.1-0.7-0.1h-0.5v-1.4h6.1c1.3,0,2.3,0.2,2.9,0.6c0.6,0.4,0.9,1,0.9,1.8c0,0.6-0.2,1-0.5,1.5
		c-0.4,0.4-0.9,0.7-1.6,0.9c0.9,0.2,1.5,0.5,2,0.9c0.4,0.4,0.7,1,0.7,1.7c0,1-0.3,1.7-1,2.1c-0.7,0.4-1.9,0.6-3.5,0.6H20.2
		L20.2,50.1z M24.9,48.6h0.7c0.6,0,1.1-0.1,1.3-0.4c0.3-0.3,0.4-0.7,0.4-1.3c0-0.5-0.1-0.9-0.4-1.2c-0.3-0.3-0.7-0.4-1.3-0.4h-0.6
		V48.6L24.9,48.6z M24.9,44.1h0.6c0.5,0,0.9-0.1,1.2-0.3c0.2-0.2,0.4-0.6,0.4-1.1c0-0.5-0.1-0.8-0.3-1c-0.2-0.2-0.6-0.3-1.2-0.3
		h-0.6V44.1L24.9,44.1z M38.9,46.7c0,0.8,0.1,1.3,0.4,1.6c0.2,0.3,0.7,0.5,1.2,0.5c0.7,0,1.2-0.2,1.5-0.5c0.3-0.3,0.5-0.8,0.5-1.5
		v-4.6c0-0.4-0.1-0.6-0.1-0.7c-0.1-0.1-0.3-0.1-0.7-0.1h-0.5v-1.4h4.7v1.4h-0.5c-0.4,0-0.6,0-0.7,0.1c-0.1,0.1-0.2,0.3-0.2,0.7v4.9
		c0,1.1-0.4,1.9-1.2,2.5c-0.8,0.6-1.9,0.8-3.5,0.8c-1.4,0-2.5-0.3-3.2-0.8c-0.8-0.6-1.1-1.3-1.1-2.4v-5c0-0.4-0.1-0.6-0.2-0.7
		c-0.1-0.1-0.3-0.1-0.7-0.1h-0.5v-1.4h6.2v1.4h-0.6c-0.4,0-0.6,0-0.7,0.1c-0.1,0.1-0.2,0.3-0.2,0.7V46.7L38.9,46.7z M49.5,46.3h1.5
		c0.2,0.8,0.6,1.4,1.2,1.8c0.6,0.4,1.2,0.7,2,0.7c0.5,0,0.8-0.1,1.1-0.3c0.3-0.2,0.4-0.4,0.4-0.8c0-0.5-0.6-0.9-1.8-1.2
		c-0.4-0.1-0.7-0.2-0.9-0.3c-0.7-0.2-1.3-0.4-1.7-0.6c-0.4-0.2-0.7-0.3-0.8-0.4c-0.4-0.3-0.7-0.6-0.9-1c-0.2-0.4-0.3-0.8-0.3-1.3
		c0-1,0.4-1.8,1.1-2.5c0.8-0.6,1.8-0.9,3-0.9c0.6,0,1.2,0.1,1.8,0.2c0.6,0.1,1.1,0.3,1.6,0.6l0.3-0.5h1.5v3.5h-1.7
		c-0.2-0.7-0.5-1.3-1-1.6c-0.5-0.4-1.1-0.5-1.9-0.5c-0.5,0-0.8,0.1-1.1,0.3c-0.3,0.2-0.4,0.5-0.4,0.8c0,0.5,0.6,0.8,1.7,1
		c0.3,0.1,0.5,0.1,0.6,0.1c1.6,0.4,2.7,0.8,3.3,1.3c0.6,0.5,1,1.3,1,2.2c0,1-0.4,1.8-1.2,2.4c-0.8,0.6-1.8,0.9-3.2,0.9
		c-0.6,0-1.2-0.1-1.7-0.2c-0.6-0.1-1.1-0.3-1.7-0.6l-0.4,0.6h-1.4V46.3L49.5,46.3z M68.4,39.9v1.4h-0.5c-0.4,0-0.6,0-0.7,0.1
		c-0.1,0.1-0.2,0.3-0.2,0.7v5.5c0,0.4,0.1,0.6,0.2,0.7c0.1,0.1,0.3,0.1,0.7,0.1h0.5v1.4h-6.1v-1.4h0.5c0.4,0,0.6,0,0.7-0.1
		c0.1-0.1,0.2-0.3,0.2-0.7v-5.5c0-0.4-0.1-0.6-0.2-0.7c-0.1-0.1-0.3-0.1-0.7-0.1h-0.5v-1.4H68.4L68.4,39.9z M76.7,39.9l3.8,6.8v-4.5
		c0-0.4-0.1-0.7-0.2-0.7c-0.1-0.1-0.3-0.1-0.7-0.1h-0.6v-1.4h4.5v1.4h-0.4c-0.4,0-0.6,0-0.7,0.1s-0.2,0.3-0.2,0.7v7.8h-3.5l-4-7.3v5
		c0,0.4,0,0.6,0.2,0.7c0.1,0.1,0.3,0.1,0.7,0.1h0.5v1.4h-4.5v-1.4h0.5c0.4,0,0.6,0,0.7-0.1c0.1-0.1,0.2-0.3,0.2-0.7v-5.5
		c0-0.4-0.1-0.6-0.2-0.7c-0.1-0.1-0.3-0.1-0.7-0.1h-0.5v-1.4H76.7L76.7,39.9z M97.5,39.9v3.8h-1.6c-0.1-0.5-0.2-0.9-0.3-1.2
		c-0.1-0.3-0.3-0.5-0.4-0.7c-0.2-0.2-0.4-0.3-0.7-0.4c-0.3-0.1-0.7-0.1-1.3-0.1h-0.3h-1.3v2.8h0.4c0.5,0,0.8-0.1,1-0.3
		c0.2-0.2,0.3-0.6,0.3-1.2v-0.1h1.3v4.6h-1.3c0-0.7-0.1-1.2-0.3-1.4c-0.2-0.2-0.5-0.3-1-0.3h-0.4v3.2h1.8c0.7,0,1.2,0,1.4-0.1
		c0.3-0.1,0.5-0.2,0.6-0.4c0.2-0.2,0.3-0.5,0.4-0.9c0.1-0.3,0.2-0.8,0.2-1.3h1.7v4.2H86.7v-1.4h0.5c0.3,0,0.6,0,0.7-0.1
		c0.1-0.1,0.2-0.3,0.2-0.7v-0.1v-5.5c0-0.4-0.1-0.6-0.1-0.7c-0.1-0.1-0.3-0.1-0.7-0.1h-0.5v-1.4H97.5L97.5,39.9z M101.8,46.3h1.5
		c0.2,0.8,0.6,1.4,1.2,1.8c0.6,0.4,1.2,0.7,2,0.7c0.5,0,0.8-0.1,1.1-0.3c0.3-0.2,0.4-0.4,0.4-0.8c0-0.5-0.6-0.9-1.8-1.2
		c-0.4-0.1-0.7-0.2-0.9-0.3c-0.7-0.2-1.3-0.4-1.7-0.6c-0.4-0.2-0.7-0.3-0.8-0.4c-0.4-0.3-0.7-0.6-0.9-1c-0.2-0.4-0.3-0.8-0.3-1.3
		c0-1,0.4-1.8,1.1-2.5c0.8-0.6,1.8-0.9,3-0.9c0.6,0,1.2,0.1,1.8,0.2c0.6,0.1,1.1,0.3,1.6,0.6l0.3-0.5h1.5v3.5h-1.7
		c-0.2-0.7-0.5-1.3-1-1.6c-0.5-0.4-1.1-0.5-1.9-0.5c-0.5,0-0.8,0.1-1.1,0.3c-0.3,0.2-0.4,0.5-0.4,0.8c0,0.5,0.6,0.8,1.7,1
		c0.3,0.1,0.5,0.1,0.6,0.1c1.6,0.4,2.7,0.8,3.3,1.3c0.6,0.5,1,1.3,1,2.2c0,1-0.4,1.8-1.2,2.4c-0.8,0.6-1.8,0.9-3.2,0.9
		c-0.6,0-1.2-0.1-1.7-0.2c-0.6-0.1-1.1-0.3-1.7-0.6l-0.4,0.6h-1.4V46.3L101.8,46.3z M115.2,46.3h1.5c0.2,0.8,0.6,1.4,1.2,1.8
		c0.6,0.4,1.2,0.7,2,0.7c0.5,0,0.8-0.1,1.1-0.3c0.3-0.2,0.4-0.4,0.4-0.8c0-0.5-0.6-0.9-1.8-1.2c-0.4-0.1-0.7-0.2-0.9-0.3
		c-0.7-0.2-1.3-0.4-1.7-0.6c-0.4-0.2-0.7-0.3-0.8-0.4c-0.4-0.3-0.7-0.6-0.9-1c-0.2-0.4-0.3-0.8-0.3-1.3c0-1,0.4-1.8,1.1-2.5
		c0.8-0.6,1.8-0.9,3-0.9c0.6,0,1.2,0.1,1.8,0.2c0.6,0.1,1.1,0.3,1.6,0.6l0.3-0.5h1.5v3.5h-1.7c-0.2-0.7-0.5-1.3-1-1.6
		c-0.5-0.4-1.1-0.5-1.9-0.5c-0.5,0-0.8,0.1-1.1,0.3c-0.3,0.2-0.4,0.5-0.4,0.8c0,0.5,0.6,0.8,1.7,1c0.3,0.1,0.5,0.1,0.6,0.1
		c1.6,0.4,2.7,0.8,3.3,1.3c0.6,0.5,1,1.3,1,2.2c0,1-0.4,1.8-1.2,2.4c-0.8,0.6-1.8,0.9-3.2,0.9c-0.6,0-1.2-0.1-1.7-0.2
		c-0.6-0.1-1.1-0.3-1.7-0.6l-0.4,0.6h-1.4V46.3z"/>
</g>

</svg>
